<?xml version="1.0" encoding="utf-8" standalone="no"?>
<!DOCTYPE svg PUBLIC "-//W3C//DTD SVG 1.1//EN"
  "http://www.w3.org/Graphics/SVG/1.1/DTD/svg11.dtd">
<svg xmlns:xlink="http://www.w3.org/1999/xlink" width="288pt" height="288pt" viewBox="0 0 288 288" xmlns="http://www.w3.org/2000/svg" version="1.1">
 <metadata>
  <rdf:RDF xmlns:dc="http://purl.org/dc/elements/1.1/" xmlns:cc="http://creativecommons.org/ns#" xmlns:rdf="http://www.w3.org/1999/02/22-rdf-syntax-ns#">
   <cc:Work>
    <dc:type rdf:resource="http://purl.org/dc/dcmitype/StillImage"/>
    <dc:date>2026-01-21T11:24:29.603616</dc:date>
    <dc:format>image/svg+xml</dc:format>
    <dc:creator>
     <cc:Agent>
      <dc:title>Matplotlib v3.10.8, https://matplotlib.org/</dc:title>
     </cc:Agent>
    </dc:creator>
   </cc:Work>
  </rdf:RDF>
 </metadata>
 <defs>
  <style type="text/css">*{stroke-linejoin: round; stroke-linecap: butt}</style>
 </defs>
 <g id="figure_1">
  <g id="patch_1">
   <path d="M 0 288 
L 288 288 
L 288 0 
L 0 0 
z
" style="fill: #ffffff"/>
  </g>
  <g id="axes_1">
   <g id="patch_2">
    <path d="M 36 254.851765 
L 259.2 254.851765 
L 259.2 36.028235 
L 36 36.028235 
z
" style="fill: #ffffff"/>
   </g>
   <g id="patch_3">
    <path d="M 36 254.851765 
L 45.482353 254.851765 
L 45.482353 203.306667 
L 36 203.306667 
z
" clip-path="url(#p2899c776d3)" style="fill: #222020"/>
   </g>
   <g id="patch_4">
    <path d="M 47.427451 254.851765 
L 117.937255 254.851765 
L 117.937255 246.341961 
L 47.427451 246.341961 
z
" clip-path="url(#p2899c776d3)" style="fill: #c3c7d1"/>
   </g>
   <g id="patch_5">
    <path d="M 119.882353 254.851765 
L 175.560784 254.851765 
L 175.560784 222.028235 
L 119.882353 222.028235 
z
" clip-path="url(#p2899c776d3)" style="fill: #fbfbfc"/>
   </g>
   <g id="patch_6">
    <path d="M 177.505882 254.851765 
L 230.509804 254.851765 
L 230.509804 222.028235 
L 177.505882 222.028235 
z
" clip-path="url(#p2899c776d3)" style="fill: #bdbec1"/>
   </g>
   <g id="patch_7">
    <path d="M 232.454902 254.851765 
L 259.2 254.851765 
L 259.2 203.306667 
L 232.454902 203.306667 
z
" clip-path="url(#p2899c776d3)" style="fill: #f1da66"/>
   </g>
   <g id="patch_8">
    <path d="M 47.427451 244.396863 
L 74.658824 244.396863 
L 74.658824 203.306667 
L 47.427451 203.306667 
z
" clip-path="url(#p2899c776d3)" style="fill: #e53e33"/>
   </g>
   <g id="patch_9">
    <path d="M 76.603922 244.396863 
L 117.937255 244.396863 
L 117.937255 203.306667 
L 76.603922 203.306667 
z
" clip-path="url(#p2899c776d3)" style="fill: #fdfdfd"/>
   </g>
   <g id="patch_10">
    <path d="M 119.882353 220.083137 
L 175.560784 220.083137 
L 175.560784 203.306667 
L 119.882353 203.306667 
z
" clip-path="url(#p2899c776d3)" style="fill: #f1da66"/>
   </g>
   <g id="patch_11">
    <path d="M 177.505882 220.083137 
L 230.509804 220.083137 
L 230.509804 203.306667 
L 177.505882 203.306667 
z
" clip-path="url(#p2899c776d3)" style="fill: #36477a"/>
   </g>
   <g id="patch_12">
    <path d="M 36 201.361569 
L 45.482353 201.361569 
L 45.482353 117.722353 
L 36 117.722353 
z
" clip-path="url(#p2899c776d3)" style="fill: #f2f6fa"/>
   </g>
   <g id="patch_13">
    <path d="M 47.427451 201.361569 
L 117.937255 201.361569 
L 117.937255 155.651765 
L 47.427451 155.651765 
z
" clip-path="url(#p2899c776d3)" style="fill: #3c4b7c"/>
   </g>
   <g id="patch_14">
    <path d="M 119.882353 201.361569 
L 175.560784 201.361569 
L 175.560784 155.651765 
L 119.882353 155.651765 
z
" clip-path="url(#p2899c776d3)" style="fill: #f1da66"/>
   </g>
   <g id="patch_15">
    <path d="M 177.505882 201.361569 
L 230.509804 201.361569 
L 230.509804 155.651765 
L 177.505882 155.651765 
z
" clip-path="url(#p2899c776d3)" style="fill: #b2b4b6"/>
   </g>
   <g id="patch_16">
    <path d="M 232.454902 201.361569 
L 246.070588 201.361569 
L 246.070588 82.710588 
L 232.454902 82.710588 
z
" clip-path="url(#p2899c776d3)" style="fill: #e84a36"/>
   </g>
   <g id="patch_17">
    <path d="M 248.015686 201.361569 
L 259.2 201.361569 
L 259.2 82.710588 
L 248.015686 82.710588 
z
" clip-path="url(#p2899c776d3)" style="fill: #f8f8f8"/>
   </g>
   <g id="patch_18">
    <path d="M 47.427451 153.706667 
L 117.937255 153.706667 
L 117.937255 117.722353 
L 47.427451 117.722353 
z
" clip-path="url(#p2899c776d3)" style="fill: #222020"/>
   </g>
   <g id="patch_19">
    <path d="M 119.882353 153.706667 
L 175.560784 153.706667 
L 175.560784 117.722353 
L 119.882353 117.722353 
z
" clip-path="url(#p2899c776d3)" style="fill: #fefefe"/>
   </g>
   <g id="patch_20">
    <path d="M 177.505882 153.706667 
L 230.509804 153.706667 
L 230.509804 82.710588 
L 177.505882 82.710588 
z
" clip-path="url(#p2899c776d3)" style="fill: #1d1d1e"/>
   </g>
   <g id="patch_21">
    <path d="M 36 115.777255 
L 73.2 115.777255 
L 73.2 66.663529 
L 36 66.663529 
z
" clip-path="url(#p2899c776d3)" style="fill: #b3b1bc"/>
   </g>
   <g id="patch_22">
    <path d="M 75.145098 115.777255 
L 117.937255 115.777255 
L 117.937255 49.887059 
L 75.145098 49.887059 
z
" clip-path="url(#p2899c776d3)" style="fill: #e53e33"/>
   </g>
   <g id="patch_23">
    <path d="M 119.882353 115.777255 
L 175.560784 115.777255 
L 175.560784 82.710588 
L 119.882353 82.710588 
z
" clip-path="url(#p2899c776d3)" style="fill: #f8f8f8"/>
   </g>
   <g id="patch_24">
    <path d="M 119.882353 80.76549 
L 175.560784 80.76549 
L 175.560784 49.887059 
L 119.882353 49.887059 
z
" clip-path="url(#p2899c776d3)" style="fill: #384968"/>
   </g>
   <g id="patch_25">
    <path d="M 177.505882 80.76549 
L 230.509804 80.76549 
L 230.509804 49.887059 
L 177.505882 49.887059 
z
" clip-path="url(#p2899c776d3)" style="fill: #f1da66"/>
   </g>
   <g id="patch_26">
    <path d="M 232.454902 80.76549 
L 259.2 80.76549 
L 259.2 36.028235 
L 232.454902 36.028235 
z
" clip-path="url(#p2899c776d3)" style="fill: #e5e0dd"/>
   </g>
   <g id="patch_27">
    <path d="M 36 64.718431 
L 73.2 64.718431 
L 73.2 36.028235 
L 36 36.028235 
z
" clip-path="url(#p2899c776d3)" style="fill: #e3e5e8"/>
   </g>
   <g id="patch_28">
    <path d="M 75.145098 47.941961 
L 175.560784 47.941961 
L 175.560784 36.028235 
L 75.145098 36.028235 
z
" clip-path="url(#p2899c776d3)" style="fill: #24211f"/>
   </g>
   <g id="patch_29">
    <path d="M 177.505882 47.941961 
L 230.509804 47.941961 
L 230.509804 36.028235 
L 177.505882 36.028235 
z
" clip-path="url(#p2899c776d3)" style="fill: #aba39c"/>
   </g>
   <g id="patch_30">
    <path d="M 45.482353 254.851765 
L 47.427451 254.851765 
L 47.427451 117.722353 
L 45.482353 117.722353 
z
" clip-path="url(#p2899c776d3)"/>
   </g>
   <g id="patch_31">
    <path d="M 117.937255 254.851765 
L 119.882353 254.851765 
L 119.882353 49.887059 
L 117.937255 49.887059 
z
" clip-path="url(#p2899c776d3)"/>
   </g>
   <g id="patch_32">
    <path d="M 175.560784 254.851765 
L 177.505882 254.851765 
L 177.505882 36.028235 
L 175.560784 36.028235 
z
" clip-path="url(#p2899c776d3)"/>
   </g>
   <g id="patch_33">
    <path d="M 230.509804 254.851765 
L 232.454902 254.851765 
L 232.454902 36.028235 
L 230.509804 36.028235 
z
" clip-path="url(#p2899c776d3)"/>
   </g>
   <g id="patch_34">
    <path d="M 74.658824 244.396863 
L 76.603922 244.396863 
L 76.603922 203.306667 
L 74.658824 203.306667 
z
" clip-path="url(#p2899c776d3)"/>
   </g>
   <g id="patch_35">
    <path d="M 246.070588 201.361569 
L 248.015686 201.361569 
L 248.015686 82.710588 
L 246.070588 82.710588 
z
" clip-path="url(#p2899c776d3)"/>
   </g>
   <g id="patch_36">
    <path d="M 73.2 115.777255 
L 75.145098 115.777255 
L 75.145098 36.028235 
L 73.2 36.028235 
z
" clip-path="url(#p2899c776d3)"/>
   </g>
   <g id="patch_37">
    <path d="M 47.427451 246.341961 
L 117.937255 246.341961 
L 117.937255 244.396863 
L 47.427451 244.396863 
z
" clip-path="url(#p2899c776d3)"/>
   </g>
   <g id="patch_38">
    <path d="M 119.882353 222.028235 
L 230.509804 222.028235 
L 230.509804 220.083137 
L 119.882353 220.083137 
z
" clip-path="url(#p2899c776d3)"/>
   </g>
   <g id="patch_39">
    <path d="M 36 203.306667 
L 259.2 203.306667 
L 259.2 201.361569 
L 36 201.361569 
z
" clip-path="url(#p2899c776d3)"/>
   </g>
   <g id="patch_40">
    <path d="M 47.427451 155.651765 
L 230.509804 155.651765 
L 230.509804 153.706667 
L 47.427451 153.706667 
z
" clip-path="url(#p2899c776d3)"/>
   </g>
   <g id="patch_41">
    <path d="M 36 117.722353 
L 175.560784 117.722353 
L 175.560784 115.777255 
L 36 115.777255 
z
" clip-path="url(#p2899c776d3)"/>
   </g>
   <g id="patch_42">
    <path d="M 119.882353 82.710588 
L 259.2 82.710588 
L 259.2 80.76549 
L 119.882353 80.76549 
z
" clip-path="url(#p2899c776d3)"/>
   </g>
   <g id="patch_43">
    <path d="M 36 66.663529 
L 73.2 66.663529 
L 73.2 64.718431 
L 36 64.718431 
z
" clip-path="url(#p2899c776d3)"/>
   </g>
   <g id="patch_44">
    <path d="M 75.145098 49.887059 
L 230.509804 49.887059 
L 230.509804 47.941961 
L 75.145098 47.941961 
z
" clip-path="url(#p2899c776d3)"/>
   </g>
   <g id="matplotlib.axis_1">
    <g id="xtick_1">
     <g id="line2d_1">
      <defs>
       <path id="m8da246377f" d="M 0 0 
L 0 3.5 
" style="stroke: #000000; stroke-width: 0.8"/>
      </defs>
      <g>
       <use xlink:href="#m8da246377f" x="36" y="254.851765" style="stroke: #000000; stroke-width: 0.8"/>
      </g>
     </g>
     <g id="text_1">
      <!-- 0 -->
      <g transform="translate(32.81875 269.450202) scale(0.1 -0.1)">
       <defs>
        <path id="DejaVuSans-30" d="M 2034 4250 
Q 1547 4250 1301 3770 
Q 1056 3291 1056 2328 
Q 1056 1369 1301 889 
Q 1547 409 2034 409 
Q 2525 409 2770 889 
Q 3016 1369 3016 2328 
Q 3016 3291 2770 3770 
Q 2525 4250 2034 4250 
z
M 2034 4750 
Q 2819 4750 3233 4129 
Q 3647 3509 3647 2328 
Q 3647 1150 3233 529 
Q 2819 -91 2034 -91 
Q 1250 -91 836 529 
Q 422 1150 422 2328 
Q 422 3509 836 4129 
Q 1250 4750 2034 4750 
z
" transform="scale(0.015625)"/>
       </defs>
       <use xlink:href="#DejaVuSans-30"/>
      </g>
     </g>
    </g>
    <g id="xtick_2">
     <g id="line2d_2">
      <g>
       <use xlink:href="#m8da246377f" x="84.627451" y="254.851765" style="stroke: #000000; stroke-width: 0.8"/>
      </g>
     </g>
     <g id="text_2">
      <!-- 200 -->
      <g transform="translate(75.083701 269.450202) scale(0.1 -0.1)">
       <defs>
        <path id="DejaVuSans-32" d="M 1228 531 
L 3431 531 
L 3431 0 
L 469 0 
L 469 531 
Q 828 903 1448 1529 
Q 2069 2156 2228 2338 
Q 2531 2678 2651 2914 
Q 2772 3150 2772 3378 
Q 2772 3750 2511 3984 
Q 2250 4219 1831 4219 
Q 1534 4219 1204 4116 
Q 875 4013 500 3803 
L 500 4441 
Q 881 4594 1212 4672 
Q 1544 4750 1819 4750 
Q 2544 4750 2975 4387 
Q 3406 4025 3406 3419 
Q 3406 3131 3298 2873 
Q 3191 2616 2906 2266 
Q 2828 2175 2409 1742 
Q 1991 1309 1228 531 
z
" transform="scale(0.015625)"/>
       </defs>
       <use xlink:href="#DejaVuSans-32"/>
       <use xlink:href="#DejaVuSans-30" transform="translate(63.623047 0)"/>
       <use xlink:href="#DejaVuSans-30" transform="translate(127.246094 0)"/>
      </g>
     </g>
    </g>
    <g id="xtick_3">
     <g id="line2d_3">
      <g>
       <use xlink:href="#m8da246377f" x="133.254902" y="254.851765" style="stroke: #000000; stroke-width: 0.8"/>
      </g>
     </g>
     <g id="text_3">
      <!-- 400 -->
      <g transform="translate(123.711152 269.450202) scale(0.1 -0.1)">
       <defs>
        <path id="DejaVuSans-34" d="M 2419 4116 
L 825 1625 
L 2419 1625 
L 2419 4116 
z
M 2253 4666 
L 3047 4666 
L 3047 1625 
L 3713 1625 
L 3713 1100 
L 3047 1100 
L 3047 0 
L 2419 0 
L 2419 1100 
L 313 1100 
L 313 1709 
L 2253 4666 
z
" transform="scale(0.015625)"/>
       </defs>
       <use xlink:href="#DejaVuSans-34"/>
       <use xlink:href="#DejaVuSans-30" transform="translate(63.623047 0)"/>
       <use xlink:href="#DejaVuSans-30" transform="translate(127.246094 0)"/>
      </g>
     </g>
    </g>
    <g id="xtick_4">
     <g id="line2d_4">
      <g>
       <use xlink:href="#m8da246377f" x="181.882353" y="254.851765" style="stroke: #000000; stroke-width: 0.8"/>
      </g>
     </g>
     <g id="text_4">
      <!-- 600 -->
      <g transform="translate(172.338603 269.450202) scale(0.1 -0.1)">
       <defs>
        <path id="DejaVuSans-36" d="M 2113 2584 
Q 1688 2584 1439 2293 
Q 1191 2003 1191 1497 
Q 1191 994 1439 701 
Q 1688 409 2113 409 
Q 2538 409 2786 701 
Q 3034 994 3034 1497 
Q 3034 2003 2786 2293 
Q 2538 2584 2113 2584 
z
M 3366 4563 
L 3366 3988 
Q 3128 4100 2886 4159 
Q 2644 4219 2406 4219 
Q 1781 4219 1451 3797 
Q 1122 3375 1075 2522 
Q 1259 2794 1537 2939 
Q 1816 3084 2150 3084 
Q 2853 3084 3261 2657 
Q 3669 2231 3669 1497 
Q 3669 778 3244 343 
Q 2819 -91 2113 -91 
Q 1303 -91 875 529 
Q 447 1150 447 2328 
Q 447 3434 972 4092 
Q 1497 4750 2381 4750 
Q 2619 4750 2861 4703 
Q 3103 4656 3366 4563 
z
" transform="scale(0.015625)"/>
       </defs>
       <use xlink:href="#DejaVuSans-36"/>
       <use xlink:href="#DejaVuSans-30" transform="translate(63.623047 0)"/>
       <use xlink:href="#DejaVuSans-30" transform="translate(127.246094 0)"/>
      </g>
     </g>
    </g>
    <g id="xtick_5">
     <g id="line2d_5">
      <g>
       <use xlink:href="#m8da246377f" x="230.509804" y="254.851765" style="stroke: #000000; stroke-width: 0.8"/>
      </g>
     </g>
     <g id="text_5">
      <!-- 800 -->
      <g transform="translate(220.966054 269.450202) scale(0.1 -0.1)">
       <defs>
        <path id="DejaVuSans-38" d="M 2034 2216 
Q 1584 2216 1326 1975 
Q 1069 1734 1069 1313 
Q 1069 891 1326 650 
Q 1584 409 2034 409 
Q 2484 409 2743 651 
Q 3003 894 3003 1313 
Q 3003 1734 2745 1975 
Q 2488 2216 2034 2216 
z
M 1403 2484 
Q 997 2584 770 2862 
Q 544 3141 544 3541 
Q 544 4100 942 4425 
Q 1341 4750 2034 4750 
Q 2731 4750 3128 4425 
Q 3525 4100 3525 3541 
Q 3525 3141 3298 2862 
Q 3072 2584 2669 2484 
Q 3125 2378 3379 2068 
Q 3634 1759 3634 1313 
Q 3634 634 3220 271 
Q 2806 -91 2034 -91 
Q 1263 -91 848 271 
Q 434 634 434 1313 
Q 434 1759 690 2068 
Q 947 2378 1403 2484 
z
M 1172 3481 
Q 1172 3119 1398 2916 
Q 1625 2713 2034 2713 
Q 2441 2713 2670 2916 
Q 2900 3119 2900 3481 
Q 2900 3844 2670 4047 
Q 2441 4250 2034 4250 
Q 1625 4250 1398 4047 
Q 1172 3844 1172 3481 
z
" transform="scale(0.015625)"/>
       </defs>
       <use xlink:href="#DejaVuSans-38"/>
       <use xlink:href="#DejaVuSans-30" transform="translate(63.623047 0)"/>
       <use xlink:href="#DejaVuSans-30" transform="translate(127.246094 0)"/>
      </g>
     </g>
    </g>
   </g>
   <g id="matplotlib.axis_2">
    <g id="ytick_1">
     <g id="line2d_6">
      <defs>
       <path id="m667604983d" d="M 0 0 
L -3.5 0 
" style="stroke: #000000; stroke-width: 0.8"/>
      </defs>
      <g>
       <use xlink:href="#m667604983d" x="36" y="254.851765" style="stroke: #000000; stroke-width: 0.8"/>
      </g>
     </g>
     <g id="text_6">
      <!-- 0 -->
      <g transform="translate(22.6375 258.650983) scale(0.1 -0.1)">
       <use xlink:href="#DejaVuSans-30"/>
      </g>
     </g>
    </g>
    <g id="ytick_2">
     <g id="line2d_7">
      <g>
       <use xlink:href="#m667604983d" x="36" y="230.538039" style="stroke: #000000; stroke-width: 0.8"/>
      </g>
     </g>
     <g id="text_7">
      <!-- 100 -->
      <g transform="translate(9.9125 234.337258) scale(0.1 -0.1)">
       <defs>
        <path id="DejaVuSans-31" d="M 794 531 
L 1825 531 
L 1825 4091 
L 703 3866 
L 703 4441 
L 1819 4666 
L 2450 4666 
L 2450 531 
L 3481 531 
L 3481 0 
L 794 0 
L 794 531 
z
" transform="scale(0.015625)"/>
       </defs>
       <use xlink:href="#DejaVuSans-31"/>
       <use xlink:href="#DejaVuSans-30" transform="translate(63.623047 0)"/>
       <use xlink:href="#DejaVuSans-30" transform="translate(127.246094 0)"/>
      </g>
     </g>
    </g>
    <g id="ytick_3">
     <g id="line2d_8">
      <g>
       <use xlink:href="#m667604983d" x="36" y="206.224314" style="stroke: #000000; stroke-width: 0.8"/>
      </g>
     </g>
     <g id="text_8">
      <!-- 200 -->
      <g transform="translate(9.9125 210.023532) scale(0.1 -0.1)">
       <use xlink:href="#DejaVuSans-32"/>
       <use xlink:href="#DejaVuSans-30" transform="translate(63.623047 0)"/>
       <use xlink:href="#DejaVuSans-30" transform="translate(127.246094 0)"/>
      </g>
     </g>
    </g>
    <g id="ytick_4">
     <g id="line2d_9">
      <g>
       <use xlink:href="#m667604983d" x="36" y="181.910588" style="stroke: #000000; stroke-width: 0.8"/>
      </g>
     </g>
     <g id="text_9">
      <!-- 300 -->
      <g transform="translate(9.9125 185.709807) scale(0.1 -0.1)">
       <defs>
        <path id="DejaVuSans-33" d="M 2597 2516 
Q 3050 2419 3304 2112 
Q 3559 1806 3559 1356 
Q 3559 666 3084 287 
Q 2609 -91 1734 -91 
Q 1441 -91 1130 -33 
Q 819 25 488 141 
L 488 750 
Q 750 597 1062 519 
Q 1375 441 1716 441 
Q 2309 441 2620 675 
Q 2931 909 2931 1356 
Q 2931 1769 2642 2001 
Q 2353 2234 1838 2234 
L 1294 2234 
L 1294 2753 
L 1863 2753 
Q 2328 2753 2575 2939 
Q 2822 3125 2822 3475 
Q 2822 3834 2567 4026 
Q 2313 4219 1838 4219 
Q 1578 4219 1281 4162 
Q 984 4106 628 3988 
L 628 4550 
Q 988 4650 1302 4700 
Q 1616 4750 1894 4750 
Q 2613 4750 3031 4423 
Q 3450 4097 3450 3541 
Q 3450 3153 3228 2886 
Q 3006 2619 2597 2516 
z
" transform="scale(0.015625)"/>
       </defs>
       <use xlink:href="#DejaVuSans-33"/>
       <use xlink:href="#DejaVuSans-30" transform="translate(63.623047 0)"/>
       <use xlink:href="#DejaVuSans-30" transform="translate(127.246094 0)"/>
      </g>
     </g>
    </g>
    <g id="ytick_5">
     <g id="line2d_10">
      <g>
       <use xlink:href="#m667604983d" x="36" y="157.596863" style="stroke: #000000; stroke-width: 0.8"/>
      </g>
     </g>
     <g id="text_10">
      <!-- 400 -->
      <g transform="translate(9.9125 161.396081) scale(0.1 -0.1)">
       <use xlink:href="#DejaVuSans-34"/>
       <use xlink:href="#DejaVuSans-30" transform="translate(63.623047 0)"/>
       <use xlink:href="#DejaVuSans-30" transform="translate(127.246094 0)"/>
      </g>
     </g>
    </g>
    <g id="ytick_6">
     <g id="line2d_11">
      <g>
       <use xlink:href="#m667604983d" x="36" y="133.283137" style="stroke: #000000; stroke-width: 0.8"/>
      </g>
     </g>
     <g id="text_11">
      <!-- 500 -->
      <g transform="translate(9.9125 137.082356) scale(0.1 -0.1)">
       <defs>
        <path id="DejaVuSans-35" d="M 691 4666 
L 3169 4666 
L 3169 4134 
L 1269 4134 
L 1269 2991 
Q 1406 3038 1543 3061 
Q 1681 3084 1819 3084 
Q 2600 3084 3056 2656 
Q 3513 2228 3513 1497 
Q 3513 744 3044 326 
Q 2575 -91 1722 -91 
Q 1428 -91 1123 -41 
Q 819 9 494 109 
L 494 744 
Q 775 591 1075 516 
Q 1375 441 1709 441 
Q 2250 441 2565 725 
Q 2881 1009 2881 1497 
Q 2881 1984 2565 2268 
Q 2250 2553 1709 2553 
Q 1456 2553 1204 2497 
Q 953 2441 691 2322 
L 691 4666 
z
" transform="scale(0.015625)"/>
       </defs>
       <use xlink:href="#DejaVuSans-35"/>
       <use xlink:href="#DejaVuSans-30" transform="translate(63.623047 0)"/>
       <use xlink:href="#DejaVuSans-30" transform="translate(127.246094 0)"/>
      </g>
     </g>
    </g>
    <g id="ytick_7">
     <g id="line2d_12">
      <g>
       <use xlink:href="#m667604983d" x="36" y="108.969412" style="stroke: #000000; stroke-width: 0.8"/>
      </g>
     </g>
     <g id="text_12">
      <!-- 600 -->
      <g transform="translate(9.9125 112.768631) scale(0.1 -0.1)">
       <use xlink:href="#DejaVuSans-36"/>
       <use xlink:href="#DejaVuSans-30" transform="translate(63.623047 0)"/>
       <use xlink:href="#DejaVuSans-30" transform="translate(127.246094 0)"/>
      </g>
     </g>
    </g>
    <g id="ytick_8">
     <g id="line2d_13">
      <g>
       <use xlink:href="#m667604983d" x="36" y="84.655686" style="stroke: #000000; stroke-width: 0.8"/>
      </g>
     </g>
     <g id="text_13">
      <!-- 700 -->
      <g transform="translate(9.9125 88.454905) scale(0.1 -0.1)">
       <defs>
        <path id="DejaVuSans-37" d="M 525 4666 
L 3525 4666 
L 3525 4397 
L 1831 0 
L 1172 0 
L 2766 4134 
L 525 4134 
L 525 4666 
z
" transform="scale(0.015625)"/>
       </defs>
       <use xlink:href="#DejaVuSans-37"/>
       <use xlink:href="#DejaVuSans-30" transform="translate(63.623047 0)"/>
       <use xlink:href="#DejaVuSans-30" transform="translate(127.246094 0)"/>
      </g>
     </g>
    </g>
    <g id="ytick_9">
     <g id="line2d_14">
      <g>
       <use xlink:href="#m667604983d" x="36" y="60.341961" style="stroke: #000000; stroke-width: 0.8"/>
      </g>
     </g>
     <g id="text_14">
      <!-- 800 -->
      <g transform="translate(9.9125 64.14118) scale(0.1 -0.1)">
       <use xlink:href="#DejaVuSans-38"/>
       <use xlink:href="#DejaVuSans-30" transform="translate(63.623047 0)"/>
       <use xlink:href="#DejaVuSans-30" transform="translate(127.246094 0)"/>
      </g>
     </g>
    </g>
    <g id="ytick_10">
     <g id="line2d_15">
      <g>
       <use xlink:href="#m667604983d" x="36" y="36.028235" style="stroke: #000000; stroke-width: 0.8"/>
      </g>
     </g>
     <g id="text_15">
      <!-- 900 -->
      <g transform="translate(9.9125 39.827454) scale(0.1 -0.1)">
       <defs>
        <path id="DejaVuSans-39" d="M 703 97 
L 703 672 
Q 941 559 1184 500 
Q 1428 441 1663 441 
Q 2288 441 2617 861 
Q 2947 1281 2994 2138 
Q 2813 1869 2534 1725 
Q 2256 1581 1919 1581 
Q 1219 1581 811 2004 
Q 403 2428 403 3163 
Q 403 3881 828 4315 
Q 1253 4750 1959 4750 
Q 2769 4750 3195 4129 
Q 3622 3509 3622 2328 
Q 3622 1225 3098 567 
Q 2575 -91 1691 -91 
Q 1453 -91 1209 -44 
Q 966 3 703 97 
z
M 1959 2075 
Q 2384 2075 2632 2365 
Q 2881 2656 2881 3163 
Q 2881 3666 2632 3958 
Q 2384 4250 1959 4250 
Q 1534 4250 1286 3958 
Q 1038 3666 1038 3163 
Q 1038 2656 1286 2365 
Q 1534 2075 1959 2075 
z
" transform="scale(0.015625)"/>
       </defs>
       <use xlink:href="#DejaVuSans-39"/>
       <use xlink:href="#DejaVuSans-30" transform="translate(63.623047 0)"/>
       <use xlink:href="#DejaVuSans-30" transform="translate(127.246094 0)"/>
      </g>
     </g>
    </g>
   </g>
   <g id="patch_45">
    <path d="M 36 254.851765 
L 36 36.028235 
" style="fill: none; stroke: #000000; stroke-width: 0.8; stroke-linejoin: miter; stroke-linecap: square"/>
   </g>
   <g id="patch_46">
    <path d="M 259.2 254.851765 
L 259.2 36.028235 
" style="fill: none; stroke: #000000; stroke-width: 0.8; stroke-linejoin: miter; stroke-linecap: square"/>
   </g>
   <g id="patch_47">
    <path d="M 36 254.851765 
L 259.2 254.851765 
" style="fill: none; stroke: #000000; stroke-width: 0.8; stroke-linejoin: miter; stroke-linecap: square"/>
   </g>
   <g id="patch_48">
    <path d="M 36 36.028235 
L 259.2 36.028235 
" style="fill: none; stroke: #000000; stroke-width: 0.8; stroke-linejoin: miter; stroke-linecap: square"/>
   </g>
  </g>
  <g id="text_16">
   <!-- b105 -->
   <g transform="translate(126.194844 285.12) scale(0.14 -0.14)">
    <defs>
     <path id="DejaVuSans-62" d="M 3116 1747 
Q 3116 2381 2855 2742 
Q 2594 3103 2138 3103 
Q 1681 3103 1420 2742 
Q 1159 2381 1159 1747 
Q 1159 1113 1420 752 
Q 1681 391 2138 391 
Q 2594 391 2855 752 
Q 3116 1113 3116 1747 
z
M 1159 2969 
Q 1341 3281 1617 3432 
Q 1894 3584 2278 3584 
Q 2916 3584 3314 3078 
Q 3713 2572 3713 1747 
Q 3713 922 3314 415 
Q 2916 -91 2278 -91 
Q 1894 -91 1617 61 
Q 1341 213 1159 525 
L 1159 0 
L 581 0 
L 581 4863 
L 1159 4863 
L 1159 2969 
z
" transform="scale(0.015625)"/>
    </defs>
    <use xlink:href="#DejaVuSans-62"/>
    <use xlink:href="#DejaVuSans-31" transform="translate(63.476562 0)"/>
    <use xlink:href="#DejaVuSans-30" transform="translate(127.099609 0)"/>
    <use xlink:href="#DejaVuSans-35" transform="translate(190.722656 0)"/>
   </g>
  </g>
 </g>
 <defs>
  <clipPath id="p2899c776d3">
   <rect x="36" y="36.028235" width="223.2" height="218.823529"/>
  </clipPath>
 </defs>
</svg>
