<?xml version="1.0" encoding="utf-8" standalone="no"?>
<!DOCTYPE svg PUBLIC "-//W3C//DTD SVG 1.1//EN"
  "http://www.w3.org/Graphics/SVG/1.1/DTD/svg11.dtd">
<svg xmlns:xlink="http://www.w3.org/1999/xlink" width="216pt" height="216pt" viewBox="0 0 216 216" xmlns="http://www.w3.org/2000/svg" version="1.1">
 <metadata>
  <rdf:RDF xmlns:dc="http://purl.org/dc/elements/1.1/" xmlns:cc="http://creativecommons.org/ns#" xmlns:rdf="http://www.w3.org/1999/02/22-rdf-syntax-ns#">
   <cc:Work>
    <dc:type rdf:resource="http://purl.org/dc/dcmitype/StillImage"/>
    <dc:date>2026-01-21T11:50:04.930835</dc:date>
    <dc:format>image/svg+xml</dc:format>
    <dc:creator>
     <cc:Agent>
      <dc:title>Matplotlib v3.10.8, https://matplotlib.org/</dc:title>
     </cc:Agent>
    </dc:creator>
   </cc:Work>
  </rdf:RDF>
 </metadata>
 <defs>
  <style type="text/css">*{stroke-linejoin: round; stroke-linecap: butt}</style>
 </defs>
 <g id="figure_1">
  <g id="patch_1">
   <path d="M 0 216 
L 216 216 
L 216 0 
L 0 0 
z
" style="fill: #ffffff; stroke: #000000; stroke-width: 10; stroke-linejoin: miter"/>
  </g>
  <g id="axes_1">
   <g id="patch_2">
    <path d="M 27.292254 192.24 
L 51.406177 192.24 
L 51.406177 190.09287 
L 27.292254 190.09287 
z
" clip-path="url(#pf4f0599d2a)" style="fill: #ced2ca"/>
   </g>
   <g id="patch_3">
    <path d="M 52.231996 192.24 
L 147.366375 192.24 
L 147.366375 190.09287 
L 52.231996 190.09287 
z
" clip-path="url(#pf4f0599d2a)" style="fill: #a4a7a7"/>
   </g>
   <g id="patch_4">
    <path d="M 148.192195 192.24 
L 194.107746 192.24 
L 194.107746 170.933863 
L 148.192195 170.933863 
z
" clip-path="url(#pf4f0599d2a)" style="fill: #c8c9c7"/>
   </g>
   <g id="patch_5">
    <path d="M 27.292254 189.267051 
L 51.406177 189.267051 
L 51.406177 111.970367 
L 27.292254 111.970367 
z
" clip-path="url(#pf4f0599d2a)" style="fill: #cfd0ce"/>
   </g>
   <g id="patch_6">
    <path d="M 52.231996 189.267051 
L 69.904528 189.267051 
L 69.904528 170.933863 
L 52.231996 170.933863 
z
" clip-path="url(#pf4f0599d2a)" style="fill: #151d16"/>
   </g>
   <g id="patch_7">
    <path d="M 70.730348 189.267051 
L 147.366375 189.267051 
L 147.366375 170.933863 
L 70.730348 170.933863 
z
" clip-path="url(#pf4f0599d2a)" style="fill: #233c55"/>
   </g>
   <g id="patch_8">
    <path d="M 52.231996 170.108044 
L 114.99426 170.108044 
L 114.99426 146.489613 
L 52.231996 146.489613 
z
" clip-path="url(#pf4f0599d2a)" style="fill: #abafaf"/>
   </g>
   <g id="patch_9">
    <path d="M 115.820079 170.108044 
L 147.366375 170.108044 
L 147.366375 146.489613 
L 115.820079 146.489613 
z
" clip-path="url(#pf4f0599d2a)" style="fill: #b93e0b"/>
   </g>
   <g id="patch_10">
    <path d="M 148.192195 170.108044 
L 183.206931 170.108044 
L 183.206931 146.489613 
L 148.192195 146.489613 
z
" clip-path="url(#pf4f0599d2a)" style="fill: #111712"/>
   </g>
   <g id="patch_11">
    <path d="M 184.032751 170.108044 
L 194.107746 170.108044 
L 194.107746 146.489613 
L 184.032751 146.489613 
z
" clip-path="url(#pf4f0599d2a)" style="fill: #233c55"/>
   </g>
   <g id="patch_12">
    <path d="M 52.231996 145.663793 
L 69.904528 145.663793 
L 69.904528 111.970367 
L 52.231996 111.970367 
z
" clip-path="url(#pf4f0599d2a)" style="fill: #151d16"/>
   </g>
   <g id="patch_13">
    <path d="M 70.730348 145.663793 
L 114.99426 145.663793 
L 114.99426 111.970367 
L 70.730348 111.970367 
z
" clip-path="url(#pf4f0599d2a)" style="fill: #d2c300"/>
   </g>
   <g id="patch_14">
    <path d="M 115.820079 145.663793 
L 147.366375 145.663793 
L 147.366375 89.012592 
L 115.820079 89.012592 
z
" clip-path="url(#pf4f0599d2a)" style="fill: #233c55"/>
   </g>
   <g id="patch_15">
    <path d="M 148.192195 145.663793 
L 183.206931 145.663793 
L 183.206931 89.012592 
L 148.192195 89.012592 
z
" clip-path="url(#pf4f0599d2a)" style="fill: #b93e0b"/>
   </g>
   <g id="patch_16">
    <path d="M 184.032751 145.663793 
L 194.107746 145.663793 
L 194.107746 65.724489 
L 184.032751 65.724489 
z
" clip-path="url(#pf4f0599d2a)" style="fill: #979b96"/>
   </g>
   <g id="patch_17">
    <path d="M 27.292254 111.144548 
L 51.406177 111.144548 
L 51.406177 36.490487 
L 27.292254 36.490487 
z
" clip-path="url(#pf4f0599d2a)" style="fill: #abacae"/>
   </g>
   <g id="patch_18">
    <path d="M 52.231996 111.144548 
L 69.904528 111.144548 
L 69.904528 36.490487 
L 52.231996 36.490487 
z
" clip-path="url(#pf4f0599d2a)" style="fill: #abacae"/>
   </g>
   <g id="patch_19">
    <path d="M 70.730348 111.144548 
L 114.99426 111.144548 
L 114.99426 89.012592 
L 70.730348 89.012592 
z
" clip-path="url(#pf4f0599d2a)" style="fill: #d2c300"/>
   </g>
   <g id="patch_20">
    <path d="M 70.730348 88.186773 
L 114.99426 88.186773 
L 114.99426 65.724489 
L 70.730348 65.724489 
z
" clip-path="url(#pf4f0599d2a)" style="fill: #b93e0b"/>
   </g>
   <g id="patch_21">
    <path d="M 115.820079 88.186773 
L 147.366375 88.186773 
L 147.366375 65.724489 
L 115.820079 65.724489 
z
" clip-path="url(#pf4f0599d2a)" style="fill: #cfd0ce"/>
   </g>
   <g id="patch_22">
    <path d="M 148.192195 88.186773 
L 183.206931 88.186773 
L 183.206931 65.724489 
L 148.192195 65.724489 
z
" clip-path="url(#pf4f0599d2a)" style="fill: #d2c300"/>
   </g>
   <g id="patch_23">
    <path d="M 70.730348 64.898669 
L 114.99426 64.898669 
L 114.99426 36.490487 
L 70.730348 36.490487 
z
" clip-path="url(#pf4f0599d2a)" style="fill: #0e140e"/>
   </g>
   <g id="patch_24">
    <path d="M 115.820079 64.898669 
L 147.366375 64.898669 
L 147.366375 36.490487 
L 115.820079 36.490487 
z
" clip-path="url(#pf4f0599d2a)" style="fill: #9fa3a3"/>
   </g>
   <g id="patch_25">
    <path d="M 148.192195 64.898669 
L 183.206931 64.898669 
L 183.206931 36.490487 
L 148.192195 36.490487 
z
" clip-path="url(#pf4f0599d2a)" style="fill: #233c55"/>
   </g>
   <g id="patch_26">
    <path d="M 184.032751 64.898669 
L 194.107746 64.898669 
L 194.107746 25.92 
L 184.032751 25.92 
z
" clip-path="url(#pf4f0599d2a)" style="fill: #b93e0b"/>
   </g>
   <g id="patch_27">
    <path d="M 27.292254 35.664667 
L 69.904528 35.664667 
L 69.904528 25.92 
L 27.292254 25.92 
z
" clip-path="url(#pf4f0599d2a)" style="fill: #cab901"/>
   </g>
   <g id="patch_28">
    <path d="M 70.730348 35.664667 
L 147.366375 35.664667 
L 147.366375 25.92 
L 70.730348 25.92 
z
" clip-path="url(#pf4f0599d2a)" style="fill: #c4c6c5"/>
   </g>
   <g id="patch_29">
    <path d="M 148.192195 35.664667 
L 183.206931 35.664667 
L 183.206931 25.92 
L 148.192195 25.92 
z
" clip-path="url(#pf4f0599d2a)" style="fill: #0e140e"/>
   </g>
   <g id="patch_30">
    <path d="M 27.292254 190.09287 
L 147.366375 190.09287 
L 147.366375 189.267051 
L 27.292254 189.267051 
z
" clip-path="url(#pf4f0599d2a)"/>
   </g>
   <g id="patch_31">
    <path d="M 52.231996 170.933863 
L 194.107746 170.933863 
L 194.107746 170.108044 
L 52.231996 170.108044 
z
" clip-path="url(#pf4f0599d2a)"/>
   </g>
   <g id="patch_32">
    <path d="M 52.231996 146.489613 
L 194.107746 146.489613 
L 194.107746 145.663793 
L 52.231996 145.663793 
z
" clip-path="url(#pf4f0599d2a)"/>
   </g>
   <g id="patch_33">
    <path d="M 27.292254 111.970367 
L 114.99426 111.970367 
L 114.99426 111.144548 
L 27.292254 111.144548 
z
" clip-path="url(#pf4f0599d2a)"/>
   </g>
   <g id="patch_34">
    <path d="M 70.730348 89.012592 
L 183.206931 89.012592 
L 183.206931 88.186773 
L 70.730348 88.186773 
z
" clip-path="url(#pf4f0599d2a)"/>
   </g>
   <g id="patch_35">
    <path d="M 70.730348 65.724489 
L 194.107746 65.724489 
L 194.107746 64.898669 
L 70.730348 64.898669 
z
" clip-path="url(#pf4f0599d2a)"/>
   </g>
   <g id="patch_36">
    <path d="M 27.292254 36.490487 
L 183.206931 36.490487 
L 183.206931 35.664667 
L 27.292254 35.664667 
z
" clip-path="url(#pf4f0599d2a)"/>
   </g>
   <g id="patch_37">
    <path d="M 51.406177 192.24 
L 52.231996 192.24 
L 52.231996 36.490487 
L 51.406177 36.490487 
z
" clip-path="url(#pf4f0599d2a)"/>
   </g>
   <g id="patch_38">
    <path d="M 147.366375 192.24 
L 148.192195 192.24 
L 148.192195 25.92 
L 147.366375 25.92 
z
" clip-path="url(#pf4f0599d2a)"/>
   </g>
   <g id="patch_39">
    <path d="M 69.904528 189.267051 
L 70.730348 189.267051 
L 70.730348 170.933863 
L 69.904528 170.933863 
z
" clip-path="url(#pf4f0599d2a)"/>
   </g>
   <g id="patch_40">
    <path d="M 114.99426 170.108044 
L 115.820079 170.108044 
L 115.820079 36.490487 
L 114.99426 36.490487 
z
" clip-path="url(#pf4f0599d2a)"/>
   </g>
   <g id="patch_41">
    <path d="M 183.206931 170.108044 
L 184.032751 170.108044 
L 184.032751 25.92 
L 183.206931 25.92 
z
" clip-path="url(#pf4f0599d2a)"/>
   </g>
   <g id="patch_42">
    <path d="M 69.904528 145.663793 
L 70.730348 145.663793 
L 70.730348 25.92 
L 69.904528 25.92 
z
" clip-path="url(#pf4f0599d2a)"/>
   </g>
  </g>
  <g id="text_1">
   <!-- » No. VI « (b104) -->
   <g transform="translate(10.8 205.2) scale(0.12 -0.12)">
    <defs>
     <path id="DejaVuSans-bb" d="M 603 3309 
L 2069 2003 
L 2069 1747 
L 603 441 
L 603 1038 
L 1544 1875 
L 603 2713 
L 603 3309 
z
M 1959 3309 
L 3425 2003 
L 3425 1747 
L 1959 441 
L 1959 1038 
L 2900 1875 
L 1959 2713 
L 1959 3309 
z
" transform="scale(0.015625)"/>
     <path id="DejaVuSans-20" transform="scale(0.015625)"/>
     <path id="DejaVuSans-4e" d="M 628 4666 
L 1478 4666 
L 3547 763 
L 3547 4666 
L 4159 4666 
L 4159 0 
L 3309 0 
L 1241 3903 
L 1241 0 
L 628 0 
L 628 4666 
z
" transform="scale(0.015625)"/>
     <path id="DejaVuSans-6f" d="M 1959 3097 
Q 1497 3097 1228 2736 
Q 959 2375 959 1747 
Q 959 1119 1226 758 
Q 1494 397 1959 397 
Q 2419 397 2687 759 
Q 2956 1122 2956 1747 
Q 2956 2369 2687 2733 
Q 2419 3097 1959 3097 
z
M 1959 3584 
Q 2709 3584 3137 3096 
Q 3566 2609 3566 1747 
Q 3566 888 3137 398 
Q 2709 -91 1959 -91 
Q 1206 -91 779 398 
Q 353 888 353 1747 
Q 353 2609 779 3096 
Q 1206 3584 1959 3584 
z
" transform="scale(0.015625)"/>
     <path id="DejaVuSans-2e" d="M 684 794 
L 1344 794 
L 1344 0 
L 684 0 
L 684 794 
z
" transform="scale(0.015625)"/>
     <path id="DejaVuSans-56" d="M 1831 0 
L 50 4666 
L 709 4666 
L 2188 738 
L 3669 4666 
L 4325 4666 
L 2547 0 
L 1831 0 
z
" transform="scale(0.015625)"/>
     <path id="DejaVuSans-49" d="M 628 4666 
L 1259 4666 
L 1259 0 
L 628 0 
L 628 4666 
z
" transform="scale(0.015625)"/>
     <path id="DejaVuSans-ab" d="M 3316 3309 
L 3316 2713 
L 2375 1875 
L 3316 1038 
L 3316 441 
L 1850 1747 
L 1850 2003 
L 3316 3309 
z
M 1959 3309 
L 1959 2713 
L 1019 1875 
L 1959 1038 
L 1959 441 
L 494 1747 
L 494 2003 
L 1959 3309 
z
" transform="scale(0.015625)"/>
     <path id="DejaVuSans-28" d="M 1984 4856 
Q 1566 4138 1362 3434 
Q 1159 2731 1159 2009 
Q 1159 1288 1364 580 
Q 1569 -128 1984 -844 
L 1484 -844 
Q 1016 -109 783 600 
Q 550 1309 550 2009 
Q 550 2706 781 3412 
Q 1013 4119 1484 4856 
L 1984 4856 
z
" transform="scale(0.015625)"/>
     <path id="DejaVuSans-62" d="M 3116 1747 
Q 3116 2381 2855 2742 
Q 2594 3103 2138 3103 
Q 1681 3103 1420 2742 
Q 1159 2381 1159 1747 
Q 1159 1113 1420 752 
Q 1681 391 2138 391 
Q 2594 391 2855 752 
Q 3116 1113 3116 1747 
z
M 1159 2969 
Q 1341 3281 1617 3432 
Q 1894 3584 2278 3584 
Q 2916 3584 3314 3078 
Q 3713 2572 3713 1747 
Q 3713 922 3314 415 
Q 2916 -91 2278 -91 
Q 1894 -91 1617 61 
Q 1341 213 1159 525 
L 1159 0 
L 581 0 
L 581 4863 
L 1159 4863 
L 1159 2969 
z
" transform="scale(0.015625)"/>
     <path id="DejaVuSans-31" d="M 794 531 
L 1825 531 
L 1825 4091 
L 703 3866 
L 703 4441 
L 1819 4666 
L 2450 4666 
L 2450 531 
L 3481 531 
L 3481 0 
L 794 0 
L 794 531 
z
" transform="scale(0.015625)"/>
     <path id="DejaVuSans-30" d="M 2034 4250 
Q 1547 4250 1301 3770 
Q 1056 3291 1056 2328 
Q 1056 1369 1301 889 
Q 1547 409 2034 409 
Q 2525 409 2770 889 
Q 3016 1369 3016 2328 
Q 3016 3291 2770 3770 
Q 2525 4250 2034 4250 
z
M 2034 4750 
Q 2819 4750 3233 4129 
Q 3647 3509 3647 2328 
Q 3647 1150 3233 529 
Q 2819 -91 2034 -91 
Q 1250 -91 836 529 
Q 422 1150 422 2328 
Q 422 3509 836 4129 
Q 1250 4750 2034 4750 
z
" transform="scale(0.015625)"/>
     <path id="DejaVuSans-34" d="M 2419 4116 
L 825 1625 
L 2419 1625 
L 2419 4116 
z
M 2253 4666 
L 3047 4666 
L 3047 1625 
L 3713 1625 
L 3713 1100 
L 3047 1100 
L 3047 0 
L 2419 0 
L 2419 1100 
L 313 1100 
L 313 1709 
L 2253 4666 
z
" transform="scale(0.015625)"/>
     <path id="DejaVuSans-29" d="M 513 4856 
L 1013 4856 
Q 1481 4119 1714 3412 
Q 1947 2706 1947 2009 
Q 1947 1309 1714 600 
Q 1481 -109 1013 -844 
L 513 -844 
Q 928 -128 1133 580 
Q 1338 1288 1338 2009 
Q 1338 2731 1133 3434 
Q 928 4138 513 4856 
z
" transform="scale(0.015625)"/>
    </defs>
    <use xlink:href="#DejaVuSans-bb"/>
    <use xlink:href="#DejaVuSans-20" transform="translate(61.181641 0)"/>
    <use xlink:href="#DejaVuSans-4e" transform="translate(92.96875 0)"/>
    <use xlink:href="#DejaVuSans-6f" transform="translate(167.773438 0)"/>
    <use xlink:href="#DejaVuSans-2e" transform="translate(227.205078 0)"/>
    <use xlink:href="#DejaVuSans-20" transform="translate(258.992188 0)"/>
    <use xlink:href="#DejaVuSans-56" transform="translate(290.779297 0)"/>
    <use xlink:href="#DejaVuSans-49" transform="translate(359.1875 0)"/>
    <use xlink:href="#DejaVuSans-20" transform="translate(388.679688 0)"/>
    <use xlink:href="#DejaVuSans-ab" transform="translate(420.466797 0)"/>
    <use xlink:href="#DejaVuSans-20" transform="translate(481.648438 0)"/>
    <use xlink:href="#DejaVuSans-28" transform="translate(513.435547 0)"/>
    <use xlink:href="#DejaVuSans-62" transform="translate(552.449219 0)"/>
    <use xlink:href="#DejaVuSans-31" transform="translate(615.925781 0)"/>
    <use xlink:href="#DejaVuSans-30" transform="translate(679.548828 0)"/>
    <use xlink:href="#DejaVuSans-34" transform="translate(743.171875 0)"/>
    <use xlink:href="#DejaVuSans-29" transform="translate(806.794922 0)"/>
   </g>
  </g>
 </g>
 <defs>
  <clipPath id="pf4f0599d2a">
   <rect x="27.292254" y="25.92" width="166.815492" height="166.32"/>
  </clipPath>
 </defs>
</svg>
