<?xml version="1.0" encoding="utf-8" standalone="no"?>
<!DOCTYPE svg PUBLIC "-//W3C//DTD SVG 1.1//EN"
  "http://www.w3.org/Graphics/SVG/1.1/DTD/svg11.dtd">
<svg xmlns:xlink="http://www.w3.org/1999/xlink" width="216pt" height="216pt" viewBox="0 0 216 216" xmlns="http://www.w3.org/2000/svg" version="1.1">
 <metadata>
  <rdf:RDF xmlns:dc="http://purl.org/dc/elements/1.1/" xmlns:cc="http://creativecommons.org/ns#" xmlns:rdf="http://www.w3.org/1999/02/22-rdf-syntax-ns#">
   <cc:Work>
    <dc:type rdf:resource="http://purl.org/dc/dcmitype/StillImage"/>
    <dc:date>2026-01-21T11:50:04.957905</dc:date>
    <dc:format>image/svg+xml</dc:format>
    <dc:creator>
     <cc:Agent>
      <dc:title>Matplotlib v3.10.8, https://matplotlib.org/</dc:title>
     </cc:Agent>
    </dc:creator>
   </cc:Work>
  </rdf:RDF>
 </metadata>
 <defs>
  <style type="text/css">*{stroke-linejoin: round; stroke-linecap: butt}</style>
 </defs>
 <g id="figure_1">
  <g id="patch_1">
   <path d="M 0 216 
L 216 216 
L 216 0 
L 0 0 
z
" style="fill: #ffffff; stroke: #000000; stroke-width: 10; stroke-linejoin: miter"/>
  </g>
  <g id="axes_1">
   <g id="patch_2">
    <path d="M 27 191.138824 
L 34.111765 191.138824 
L 34.111765 152.48 
L 27 152.48 
z
" clip-path="url(#pac85b5d3a7)" style="fill: #222020"/>
   </g>
   <g id="patch_3">
    <path d="M 35.570588 191.138824 
L 88.452941 191.138824 
L 88.452941 184.756471 
L 35.570588 184.756471 
z
" clip-path="url(#pac85b5d3a7)" style="fill: #c3c7d1"/>
   </g>
   <g id="patch_4">
    <path d="M 89.911765 191.138824 
L 131.670588 191.138824 
L 131.670588 166.521176 
L 89.911765 166.521176 
z
" clip-path="url(#pac85b5d3a7)" style="fill: #fbfbfc"/>
   </g>
   <g id="patch_5">
    <path d="M 133.129412 191.138824 
L 172.882353 191.138824 
L 172.882353 166.521176 
L 133.129412 166.521176 
z
" clip-path="url(#pac85b5d3a7)" style="fill: #bdbec1"/>
   </g>
   <g id="patch_6">
    <path d="M 174.341176 191.138824 
L 194.4 191.138824 
L 194.4 152.48 
L 174.341176 152.48 
z
" clip-path="url(#pac85b5d3a7)" style="fill: #f1da66"/>
   </g>
   <g id="patch_7">
    <path d="M 35.570588 183.297647 
L 55.994118 183.297647 
L 55.994118 152.48 
L 35.570588 152.48 
z
" clip-path="url(#pac85b5d3a7)" style="fill: #e53e33"/>
   </g>
   <g id="patch_8">
    <path d="M 57.452941 183.297647 
L 88.452941 183.297647 
L 88.452941 152.48 
L 57.452941 152.48 
z
" clip-path="url(#pac85b5d3a7)" style="fill: #fdfdfd"/>
   </g>
   <g id="patch_9">
    <path d="M 89.911765 165.062353 
L 131.670588 165.062353 
L 131.670588 152.48 
L 89.911765 152.48 
z
" clip-path="url(#pac85b5d3a7)" style="fill: #f1da66"/>
   </g>
   <g id="patch_10">
    <path d="M 133.129412 165.062353 
L 172.882353 165.062353 
L 172.882353 152.48 
L 133.129412 152.48 
z
" clip-path="url(#pac85b5d3a7)" style="fill: #36477a"/>
   </g>
   <g id="patch_11">
    <path d="M 27 151.021176 
L 34.111765 151.021176 
L 34.111765 88.291765 
L 27 88.291765 
z
" clip-path="url(#pac85b5d3a7)" style="fill: #f2f6fa"/>
   </g>
   <g id="patch_12">
    <path d="M 35.570588 151.021176 
L 88.452941 151.021176 
L 88.452941 116.738824 
L 35.570588 116.738824 
z
" clip-path="url(#pac85b5d3a7)" style="fill: #3c4b7c"/>
   </g>
   <g id="patch_13">
    <path d="M 89.911765 151.021176 
L 131.670588 151.021176 
L 131.670588 116.738824 
L 89.911765 116.738824 
z
" clip-path="url(#pac85b5d3a7)" style="fill: #f1da66"/>
   </g>
   <g id="patch_14">
    <path d="M 133.129412 151.021176 
L 172.882353 151.021176 
L 172.882353 116.738824 
L 133.129412 116.738824 
z
" clip-path="url(#pac85b5d3a7)" style="fill: #b2b4b6"/>
   </g>
   <g id="patch_15">
    <path d="M 174.341176 151.021176 
L 184.552941 151.021176 
L 184.552941 62.032941 
L 174.341176 62.032941 
z
" clip-path="url(#pac85b5d3a7)" style="fill: #e84a36"/>
   </g>
   <g id="patch_16">
    <path d="M 186.011765 151.021176 
L 194.4 151.021176 
L 194.4 62.032941 
L 186.011765 62.032941 
z
" clip-path="url(#pac85b5d3a7)" style="fill: #f8f8f8"/>
   </g>
   <g id="patch_17">
    <path d="M 35.570588 115.28 
L 88.452941 115.28 
L 88.452941 88.291765 
L 35.570588 88.291765 
z
" clip-path="url(#pac85b5d3a7)" style="fill: #222020"/>
   </g>
   <g id="patch_18">
    <path d="M 89.911765 115.28 
L 131.670588 115.28 
L 131.670588 88.291765 
L 89.911765 88.291765 
z
" clip-path="url(#pac85b5d3a7)" style="fill: #fefefe"/>
   </g>
   <g id="patch_19">
    <path d="M 133.129412 115.28 
L 172.882353 115.28 
L 172.882353 62.032941 
L 133.129412 62.032941 
z
" clip-path="url(#pac85b5d3a7)" style="fill: #1d1d1e"/>
   </g>
   <g id="patch_20">
    <path d="M 27 86.832941 
L 54.9 86.832941 
L 54.9 49.997647 
L 27 49.997647 
z
" clip-path="url(#pac85b5d3a7)" style="fill: #b3b1bc"/>
   </g>
   <g id="patch_21">
    <path d="M 56.358824 86.832941 
L 88.452941 86.832941 
L 88.452941 37.415294 
L 56.358824 37.415294 
z
" clip-path="url(#pac85b5d3a7)" style="fill: #e53e33"/>
   </g>
   <g id="patch_22">
    <path d="M 89.911765 86.832941 
L 131.670588 86.832941 
L 131.670588 62.032941 
L 89.911765 62.032941 
z
" clip-path="url(#pac85b5d3a7)" style="fill: #f8f8f8"/>
   </g>
   <g id="patch_23">
    <path d="M 89.911765 60.574118 
L 131.670588 60.574118 
L 131.670588 37.415294 
L 89.911765 37.415294 
z
" clip-path="url(#pac85b5d3a7)" style="fill: #384968"/>
   </g>
   <g id="patch_24">
    <path d="M 133.129412 60.574118 
L 172.882353 60.574118 
L 172.882353 37.415294 
L 133.129412 37.415294 
z
" clip-path="url(#pac85b5d3a7)" style="fill: #f1da66"/>
   </g>
   <g id="patch_25">
    <path d="M 174.341176 60.574118 
L 194.4 60.574118 
L 194.4 27.021176 
L 174.341176 27.021176 
z
" clip-path="url(#pac85b5d3a7)" style="fill: #e5e0dd"/>
   </g>
   <g id="patch_26">
    <path d="M 27 48.538824 
L 54.9 48.538824 
L 54.9 27.021176 
L 27 27.021176 
z
" clip-path="url(#pac85b5d3a7)" style="fill: #e3e5e8"/>
   </g>
   <g id="patch_27">
    <path d="M 56.358824 35.956471 
L 131.670588 35.956471 
L 131.670588 27.021176 
L 56.358824 27.021176 
z
" clip-path="url(#pac85b5d3a7)" style="fill: #24211f"/>
   </g>
   <g id="patch_28">
    <path d="M 133.129412 35.956471 
L 172.882353 35.956471 
L 172.882353 27.021176 
L 133.129412 27.021176 
z
" clip-path="url(#pac85b5d3a7)" style="fill: #aba39c"/>
   </g>
   <g id="patch_29">
    <path d="M 34.111765 191.138824 
L 35.570588 191.138824 
L 35.570588 88.291765 
L 34.111765 88.291765 
z
" clip-path="url(#pac85b5d3a7)"/>
   </g>
   <g id="patch_30">
    <path d="M 88.452941 191.138824 
L 89.911765 191.138824 
L 89.911765 37.415294 
L 88.452941 37.415294 
z
" clip-path="url(#pac85b5d3a7)"/>
   </g>
   <g id="patch_31">
    <path d="M 131.670588 191.138824 
L 133.129412 191.138824 
L 133.129412 27.021176 
L 131.670588 27.021176 
z
" clip-path="url(#pac85b5d3a7)"/>
   </g>
   <g id="patch_32">
    <path d="M 172.882353 191.138824 
L 174.341176 191.138824 
L 174.341176 27.021176 
L 172.882353 27.021176 
z
" clip-path="url(#pac85b5d3a7)"/>
   </g>
   <g id="patch_33">
    <path d="M 55.994118 183.297647 
L 57.452941 183.297647 
L 57.452941 152.48 
L 55.994118 152.48 
z
" clip-path="url(#pac85b5d3a7)"/>
   </g>
   <g id="patch_34">
    <path d="M 184.552941 151.021176 
L 186.011765 151.021176 
L 186.011765 62.032941 
L 184.552941 62.032941 
z
" clip-path="url(#pac85b5d3a7)"/>
   </g>
   <g id="patch_35">
    <path d="M 54.9 86.832941 
L 56.358824 86.832941 
L 56.358824 27.021176 
L 54.9 27.021176 
z
" clip-path="url(#pac85b5d3a7)"/>
   </g>
   <g id="patch_36">
    <path d="M 35.570588 184.756471 
L 88.452941 184.756471 
L 88.452941 183.297647 
L 35.570588 183.297647 
z
" clip-path="url(#pac85b5d3a7)"/>
   </g>
   <g id="patch_37">
    <path d="M 89.911765 166.521176 
L 172.882353 166.521176 
L 172.882353 165.062353 
L 89.911765 165.062353 
z
" clip-path="url(#pac85b5d3a7)"/>
   </g>
   <g id="patch_38">
    <path d="M 27 152.48 
L 194.4 152.48 
L 194.4 151.021176 
L 27 151.021176 
z
" clip-path="url(#pac85b5d3a7)"/>
   </g>
   <g id="patch_39">
    <path d="M 35.570588 116.738824 
L 172.882353 116.738824 
L 172.882353 115.28 
L 35.570588 115.28 
z
" clip-path="url(#pac85b5d3a7)"/>
   </g>
   <g id="patch_40">
    <path d="M 27 88.291765 
L 131.670588 88.291765 
L 131.670588 86.832941 
L 27 86.832941 
z
" clip-path="url(#pac85b5d3a7)"/>
   </g>
   <g id="patch_41">
    <path d="M 89.911765 62.032941 
L 194.4 62.032941 
L 194.4 60.574118 
L 89.911765 60.574118 
z
" clip-path="url(#pac85b5d3a7)"/>
   </g>
   <g id="patch_42">
    <path d="M 27 49.997647 
L 54.9 49.997647 
L 54.9 48.538824 
L 27 48.538824 
z
" clip-path="url(#pac85b5d3a7)"/>
   </g>
   <g id="patch_43">
    <path d="M 56.358824 37.415294 
L 172.882353 37.415294 
L 172.882353 35.956471 
L 56.358824 35.956471 
z
" clip-path="url(#pac85b5d3a7)"/>
   </g>
  </g>
  <g id="text_1">
   <!-- » Composition A « (b105) -->
   <g transform="translate(10.8 205.2) scale(0.12 -0.12)">
    <defs>
     <path id="DejaVuSans-bb" d="M 603 3309 
L 2069 2003 
L 2069 1747 
L 603 441 
L 603 1038 
L 1544 1875 
L 603 2713 
L 603 3309 
z
M 1959 3309 
L 3425 2003 
L 3425 1747 
L 1959 441 
L 1959 1038 
L 2900 1875 
L 1959 2713 
L 1959 3309 
z
" transform="scale(0.015625)"/>
     <path id="DejaVuSans-20" transform="scale(0.015625)"/>
     <path id="DejaVuSans-43" d="M 4122 4306 
L 4122 3641 
Q 3803 3938 3442 4084 
Q 3081 4231 2675 4231 
Q 1875 4231 1450 3742 
Q 1025 3253 1025 2328 
Q 1025 1406 1450 917 
Q 1875 428 2675 428 
Q 3081 428 3442 575 
Q 3803 722 4122 1019 
L 4122 359 
Q 3791 134 3420 21 
Q 3050 -91 2638 -91 
Q 1578 -91 968 557 
Q 359 1206 359 2328 
Q 359 3453 968 4101 
Q 1578 4750 2638 4750 
Q 3056 4750 3426 4639 
Q 3797 4528 4122 4306 
z
" transform="scale(0.015625)"/>
     <path id="DejaVuSans-6f" d="M 1959 3097 
Q 1497 3097 1228 2736 
Q 959 2375 959 1747 
Q 959 1119 1226 758 
Q 1494 397 1959 397 
Q 2419 397 2687 759 
Q 2956 1122 2956 1747 
Q 2956 2369 2687 2733 
Q 2419 3097 1959 3097 
z
M 1959 3584 
Q 2709 3584 3137 3096 
Q 3566 2609 3566 1747 
Q 3566 888 3137 398 
Q 2709 -91 1959 -91 
Q 1206 -91 779 398 
Q 353 888 353 1747 
Q 353 2609 779 3096 
Q 1206 3584 1959 3584 
z
" transform="scale(0.015625)"/>
     <path id="DejaVuSans-6d" d="M 3328 2828 
Q 3544 3216 3844 3400 
Q 4144 3584 4550 3584 
Q 5097 3584 5394 3201 
Q 5691 2819 5691 2113 
L 5691 0 
L 5113 0 
L 5113 2094 
Q 5113 2597 4934 2840 
Q 4756 3084 4391 3084 
Q 3944 3084 3684 2787 
Q 3425 2491 3425 1978 
L 3425 0 
L 2847 0 
L 2847 2094 
Q 2847 2600 2669 2842 
Q 2491 3084 2119 3084 
Q 1678 3084 1418 2786 
Q 1159 2488 1159 1978 
L 1159 0 
L 581 0 
L 581 3500 
L 1159 3500 
L 1159 2956 
Q 1356 3278 1631 3431 
Q 1906 3584 2284 3584 
Q 2666 3584 2933 3390 
Q 3200 3197 3328 2828 
z
" transform="scale(0.015625)"/>
     <path id="DejaVuSans-70" d="M 1159 525 
L 1159 -1331 
L 581 -1331 
L 581 3500 
L 1159 3500 
L 1159 2969 
Q 1341 3281 1617 3432 
Q 1894 3584 2278 3584 
Q 2916 3584 3314 3078 
Q 3713 2572 3713 1747 
Q 3713 922 3314 415 
Q 2916 -91 2278 -91 
Q 1894 -91 1617 61 
Q 1341 213 1159 525 
z
M 3116 1747 
Q 3116 2381 2855 2742 
Q 2594 3103 2138 3103 
Q 1681 3103 1420 2742 
Q 1159 2381 1159 1747 
Q 1159 1113 1420 752 
Q 1681 391 2138 391 
Q 2594 391 2855 752 
Q 3116 1113 3116 1747 
z
" transform="scale(0.015625)"/>
     <path id="DejaVuSans-73" d="M 2834 3397 
L 2834 2853 
Q 2591 2978 2328 3040 
Q 2066 3103 1784 3103 
Q 1356 3103 1142 2972 
Q 928 2841 928 2578 
Q 928 2378 1081 2264 
Q 1234 2150 1697 2047 
L 1894 2003 
Q 2506 1872 2764 1633 
Q 3022 1394 3022 966 
Q 3022 478 2636 193 
Q 2250 -91 1575 -91 
Q 1294 -91 989 -36 
Q 684 19 347 128 
L 347 722 
Q 666 556 975 473 
Q 1284 391 1588 391 
Q 1994 391 2212 530 
Q 2431 669 2431 922 
Q 2431 1156 2273 1281 
Q 2116 1406 1581 1522 
L 1381 1569 
Q 847 1681 609 1914 
Q 372 2147 372 2553 
Q 372 3047 722 3315 
Q 1072 3584 1716 3584 
Q 2034 3584 2315 3537 
Q 2597 3491 2834 3397 
z
" transform="scale(0.015625)"/>
     <path id="DejaVuSans-69" d="M 603 3500 
L 1178 3500 
L 1178 0 
L 603 0 
L 603 3500 
z
M 603 4863 
L 1178 4863 
L 1178 4134 
L 603 4134 
L 603 4863 
z
" transform="scale(0.015625)"/>
     <path id="DejaVuSans-74" d="M 1172 4494 
L 1172 3500 
L 2356 3500 
L 2356 3053 
L 1172 3053 
L 1172 1153 
Q 1172 725 1289 603 
Q 1406 481 1766 481 
L 2356 481 
L 2356 0 
L 1766 0 
Q 1100 0 847 248 
Q 594 497 594 1153 
L 594 3053 
L 172 3053 
L 172 3500 
L 594 3500 
L 594 4494 
L 1172 4494 
z
" transform="scale(0.015625)"/>
     <path id="DejaVuSans-6e" d="M 3513 2113 
L 3513 0 
L 2938 0 
L 2938 2094 
Q 2938 2591 2744 2837 
Q 2550 3084 2163 3084 
Q 1697 3084 1428 2787 
Q 1159 2491 1159 1978 
L 1159 0 
L 581 0 
L 581 3500 
L 1159 3500 
L 1159 2956 
Q 1366 3272 1645 3428 
Q 1925 3584 2291 3584 
Q 2894 3584 3203 3211 
Q 3513 2838 3513 2113 
z
" transform="scale(0.015625)"/>
     <path id="DejaVuSans-41" d="M 2188 4044 
L 1331 1722 
L 3047 1722 
L 2188 4044 
z
M 1831 4666 
L 2547 4666 
L 4325 0 
L 3669 0 
L 3244 1197 
L 1141 1197 
L 716 0 
L 50 0 
L 1831 4666 
z
" transform="scale(0.015625)"/>
     <path id="DejaVuSans-ab" d="M 3316 3309 
L 3316 2713 
L 2375 1875 
L 3316 1038 
L 3316 441 
L 1850 1747 
L 1850 2003 
L 3316 3309 
z
M 1959 3309 
L 1959 2713 
L 1019 1875 
L 1959 1038 
L 1959 441 
L 494 1747 
L 494 2003 
L 1959 3309 
z
" transform="scale(0.015625)"/>
     <path id="DejaVuSans-28" d="M 1984 4856 
Q 1566 4138 1362 3434 
Q 1159 2731 1159 2009 
Q 1159 1288 1364 580 
Q 1569 -128 1984 -844 
L 1484 -844 
Q 1016 -109 783 600 
Q 550 1309 550 2009 
Q 550 2706 781 3412 
Q 1013 4119 1484 4856 
L 1984 4856 
z
" transform="scale(0.015625)"/>
     <path id="DejaVuSans-62" d="M 3116 1747 
Q 3116 2381 2855 2742 
Q 2594 3103 2138 3103 
Q 1681 3103 1420 2742 
Q 1159 2381 1159 1747 
Q 1159 1113 1420 752 
Q 1681 391 2138 391 
Q 2594 391 2855 752 
Q 3116 1113 3116 1747 
z
M 1159 2969 
Q 1341 3281 1617 3432 
Q 1894 3584 2278 3584 
Q 2916 3584 3314 3078 
Q 3713 2572 3713 1747 
Q 3713 922 3314 415 
Q 2916 -91 2278 -91 
Q 1894 -91 1617 61 
Q 1341 213 1159 525 
L 1159 0 
L 581 0 
L 581 4863 
L 1159 4863 
L 1159 2969 
z
" transform="scale(0.015625)"/>
     <path id="DejaVuSans-31" d="M 794 531 
L 1825 531 
L 1825 4091 
L 703 3866 
L 703 4441 
L 1819 4666 
L 2450 4666 
L 2450 531 
L 3481 531 
L 3481 0 
L 794 0 
L 794 531 
z
" transform="scale(0.015625)"/>
     <path id="DejaVuSans-30" d="M 2034 4250 
Q 1547 4250 1301 3770 
Q 1056 3291 1056 2328 
Q 1056 1369 1301 889 
Q 1547 409 2034 409 
Q 2525 409 2770 889 
Q 3016 1369 3016 2328 
Q 3016 3291 2770 3770 
Q 2525 4250 2034 4250 
z
M 2034 4750 
Q 2819 4750 3233 4129 
Q 3647 3509 3647 2328 
Q 3647 1150 3233 529 
Q 2819 -91 2034 -91 
Q 1250 -91 836 529 
Q 422 1150 422 2328 
Q 422 3509 836 4129 
Q 1250 4750 2034 4750 
z
" transform="scale(0.015625)"/>
     <path id="DejaVuSans-35" d="M 691 4666 
L 3169 4666 
L 3169 4134 
L 1269 4134 
L 1269 2991 
Q 1406 3038 1543 3061 
Q 1681 3084 1819 3084 
Q 2600 3084 3056 2656 
Q 3513 2228 3513 1497 
Q 3513 744 3044 326 
Q 2575 -91 1722 -91 
Q 1428 -91 1123 -41 
Q 819 9 494 109 
L 494 744 
Q 775 591 1075 516 
Q 1375 441 1709 441 
Q 2250 441 2565 725 
Q 2881 1009 2881 1497 
Q 2881 1984 2565 2268 
Q 2250 2553 1709 2553 
Q 1456 2553 1204 2497 
Q 953 2441 691 2322 
L 691 4666 
z
" transform="scale(0.015625)"/>
     <path id="DejaVuSans-29" d="M 513 4856 
L 1013 4856 
Q 1481 4119 1714 3412 
Q 1947 2706 1947 2009 
Q 1947 1309 1714 600 
Q 1481 -109 1013 -844 
L 513 -844 
Q 928 -128 1133 580 
Q 1338 1288 1338 2009 
Q 1338 2731 1133 3434 
Q 928 4138 513 4856 
z
" transform="scale(0.015625)"/>
    </defs>
    <use xlink:href="#DejaVuSans-bb"/>
    <use xlink:href="#DejaVuSans-20" transform="translate(61.181641 0)"/>
    <use xlink:href="#DejaVuSans-43" transform="translate(92.96875 0)"/>
    <use xlink:href="#DejaVuSans-6f" transform="translate(162.792969 0)"/>
    <use xlink:href="#DejaVuSans-6d" transform="translate(223.974609 0)"/>
    <use xlink:href="#DejaVuSans-70" transform="translate(321.386719 0)"/>
    <use xlink:href="#DejaVuSans-6f" transform="translate(384.863281 0)"/>
    <use xlink:href="#DejaVuSans-73" transform="translate(446.044922 0)"/>
    <use xlink:href="#DejaVuSans-69" transform="translate(498.144531 0)"/>
    <use xlink:href="#DejaVuSans-74" transform="translate(525.927734 0)"/>
    <use xlink:href="#DejaVuSans-69" transform="translate(565.136719 0)"/>
    <use xlink:href="#DejaVuSans-6f" transform="translate(592.919922 0)"/>
    <use xlink:href="#DejaVuSans-6e" transform="translate(654.101562 0)"/>
    <use xlink:href="#DejaVuSans-20" transform="translate(717.480469 0)"/>
    <use xlink:href="#DejaVuSans-41" transform="translate(749.267578 0)"/>
    <use xlink:href="#DejaVuSans-20" transform="translate(817.675781 0)"/>
    <use xlink:href="#DejaVuSans-ab" transform="translate(849.462891 0)"/>
    <use xlink:href="#DejaVuSans-20" transform="translate(910.644531 0)"/>
    <use xlink:href="#DejaVuSans-28" transform="translate(942.431641 0)"/>
    <use xlink:href="#DejaVuSans-62" transform="translate(981.445312 0)"/>
    <use xlink:href="#DejaVuSans-31" transform="translate(1044.921875 0)"/>
    <use xlink:href="#DejaVuSans-30" transform="translate(1108.544922 0)"/>
    <use xlink:href="#DejaVuSans-35" transform="translate(1172.167969 0)"/>
    <use xlink:href="#DejaVuSans-29" transform="translate(1235.791016 0)"/>
   </g>
  </g>
 </g>
 <defs>
  <clipPath id="pac85b5d3a7">
   <rect x="27" y="27.021176" width="167.4" height="164.117647"/>
  </clipPath>
 </defs>
</svg>
