<?xml version="1.0" encoding="utf-8" standalone="no"?>
<!DOCTYPE svg PUBLIC "-//W3C//DTD SVG 1.1//EN"
  "http://www.w3.org/Graphics/SVG/1.1/DTD/svg11.dtd">
<svg xmlns:xlink="http://www.w3.org/1999/xlink" width="216pt" height="216pt" viewBox="0 0 216 216" xmlns="http://www.w3.org/2000/svg" version="1.1">
 <metadata>
  <rdf:RDF xmlns:dc="http://purl.org/dc/elements/1.1/" xmlns:cc="http://creativecommons.org/ns#" xmlns:rdf="http://www.w3.org/1999/02/22-rdf-syntax-ns#">
   <cc:Work>
    <dc:type rdf:resource="http://purl.org/dc/dcmitype/StillImage"/>
    <dc:date>2026-01-21T11:50:04.986423</dc:date>
    <dc:format>image/svg+xml</dc:format>
    <dc:creator>
     <cc:Agent>
      <dc:title>Matplotlib v3.10.8, https://matplotlib.org/</dc:title>
     </cc:Agent>
    </dc:creator>
   </cc:Work>
  </rdf:RDF>
 </metadata>
 <defs>
  <style type="text/css">*{stroke-linejoin: round; stroke-linecap: butt}</style>
 </defs>
 <g id="figure_1">
  <g id="patch_1">
   <path d="M 0 216 
L 216 216 
L 216 0 
L 0 0 
z
" style="fill: #ffffff; stroke: #000000; stroke-width: 10; stroke-linejoin: miter"/>
  </g>
  <g id="axes_1">
   <g id="patch_2">
    <path d="M 39.86 192.24 
L 53.6584 192.24 
L 53.6584 152.3232 
L 39.86 152.3232 
z
" clip-path="url(#pa2d26a4e1c)" style="fill: #bcbdbe"/>
   </g>
   <g id="patch_3">
    <path d="M 54.8904 192.24 
L 131.5208 192.24 
L 131.5208 183.3696 
L 54.8904 183.3696 
z
" clip-path="url(#pa2d26a4e1c)" style="fill: #2f5289"/>
   </g>
   <g id="patch_4">
    <path d="M 132.7528 192.24 
L 169.4664 192.24 
L 169.4664 183.3696 
L 132.7528 183.3696 
z
" clip-path="url(#pa2d26a4e1c)" style="fill: #b8b9bc"/>
   </g>
   <g id="patch_5">
    <path d="M 170.6984 192.24 
L 181.54 192.24 
L 181.54 152.3232 
L 170.6984 152.3232 
z
" clip-path="url(#pa2d26a4e1c)" style="fill: #cecf24"/>
   </g>
   <g id="patch_6">
    <path d="M 54.8904 182.1376 
L 131.5208 182.1376 
L 131.5208 152.3232 
L 54.8904 152.3232 
z
" clip-path="url(#pa2d26a4e1c)" style="fill: #f5f6f7"/>
   </g>
   <g id="patch_7">
    <path d="M 132.7528 182.1376 
L 169.4664 182.1376 
L 169.4664 152.3232 
L 132.7528 152.3232 
z
" clip-path="url(#pa2d26a4e1c)" style="fill: #d8221a"/>
   </g>
   <g id="patch_8">
    <path d="M 39.86 151.0912 
L 53.6584 151.0912 
L 53.6584 109.696 
L 39.86 109.696 
z
" clip-path="url(#pa2d26a4e1c)" style="fill: #da1e18"/>
   </g>
   <g id="patch_9">
    <path d="M 54.8904 151.0912 
L 92.5896 151.0912 
L 92.5896 109.696 
L 54.8904 109.696 
z
" clip-path="url(#pa2d26a4e1c)" style="fill: #d8d425"/>
   </g>
   <g id="patch_10">
    <path d="M 93.8216 151.0912 
L 131.2744 151.0912 
L 131.2744 109.696 
L 93.8216 109.696 
z
" clip-path="url(#pa2d26a4e1c)" style="fill: #dbd728"/>
   </g>
   <g id="patch_11">
    <path d="M 132.7528 151.0912 
L 169.4664 151.0912 
L 169.4664 68.0544 
L 132.7528 68.0544 
z
" clip-path="url(#pa2d26a4e1c)" style="fill: #2b5081"/>
   </g>
   <g id="patch_12">
    <path d="M 170.6984 151.0912 
L 181.54 151.0912 
L 181.54 45.3856 
L 170.6984 45.3856 
z
" clip-path="url(#pa2d26a4e1c)" style="fill: #fcfcfd"/>
   </g>
   <g id="patch_13">
    <path d="M 39.86 108.464 
L 53.6584 108.464 
L 53.6584 45.3856 
L 39.86 45.3856 
z
" clip-path="url(#pa2d26a4e1c)" style="fill: #0f0f0f"/>
   </g>
   <g id="patch_14">
    <path d="M 54.8904 108.464 
L 92.5896 108.464 
L 92.5896 68.0544 
L 54.8904 68.0544 
z
" clip-path="url(#pa2d26a4e1c)" style="fill: #f9f9fa"/>
   </g>
   <g id="patch_15">
    <path d="M 93.8216 108.464 
L 131.5208 108.464 
L 131.5208 68.0544 
L 93.8216 68.0544 
z
" clip-path="url(#pa2d26a4e1c)" style="fill: #de1f16"/>
   </g>
   <g id="patch_16">
    <path d="M 54.8904 66.8224 
L 92.5896 66.8224 
L 92.5896 45.3856 
L 54.8904 45.3856 
z
" clip-path="url(#pa2d26a4e1c)" style="fill: #c1c2c3"/>
   </g>
   <g id="patch_17">
    <path d="M 93.8216 66.8224 
L 131.5208 66.8224 
L 131.5208 45.3856 
L 93.8216 45.3856 
z
" clip-path="url(#pa2d26a4e1c)" style="fill: #0b0b0b"/>
   </g>
   <g id="patch_18">
    <path d="M 132.7528 66.8224 
L 169.4664 66.8224 
L 169.4664 45.3856 
L 132.7528 45.3856 
z
" clip-path="url(#pa2d26a4e1c)" style="fill: #cbcf26"/>
   </g>
   <g id="patch_19">
    <path d="M 39.86 44.1536 
L 53.6584 44.1536 
L 53.6584 25.92 
L 39.86 25.92 
z
" clip-path="url(#pa2d26a4e1c)" style="fill: #c1c3c4"/>
   </g>
   <g id="patch_20">
    <path d="M 54.8904 44.1536 
L 92.5896 44.1536 
L 92.5896 25.92 
L 54.8904 25.92 
z
" clip-path="url(#pa2d26a4e1c)" style="fill: #b7b9bb"/>
   </g>
   <g id="patch_21">
    <path d="M 93.8216 44.1536 
L 169.4664 44.1536 
L 169.4664 25.92 
L 93.8216 25.92 
z
" clip-path="url(#pa2d26a4e1c)" style="fill: #294b7f"/>
   </g>
   <g id="patch_22">
    <path d="M 170.6984 44.1536 
L 181.54 44.1536 
L 181.54 25.92 
L 170.6984 25.92 
z
" clip-path="url(#pa2d26a4e1c)" style="fill: #284f84"/>
   </g>
   <g id="patch_23">
    <path d="M 54.8904 183.3696 
L 169.4664 183.3696 
L 169.4664 182.1376 
L 54.8904 182.1376 
z
" clip-path="url(#pa2d26a4e1c)"/>
   </g>
   <g id="patch_24">
    <path d="M 39.86 152.3232 
L 181.0472 152.3232 
L 181.0472 151.0912 
L 39.86 151.0912 
z
" clip-path="url(#pa2d26a4e1c)"/>
   </g>
   <g id="patch_25">
    <path d="M 39.86 109.696 
L 131.5208 109.696 
L 131.5208 108.464 
L 39.86 108.464 
z
" clip-path="url(#pa2d26a4e1c)"/>
   </g>
   <g id="patch_26">
    <path d="M 54.8904 68.0544 
L 169.4664 68.0544 
L 169.4664 66.8224 
L 54.8904 66.8224 
z
" clip-path="url(#pa2d26a4e1c)"/>
   </g>
   <g id="patch_27">
    <path d="M 39.86 45.3856 
L 181.54 45.3856 
L 181.54 44.1536 
L 39.86 44.1536 
z
" clip-path="url(#pa2d26a4e1c)"/>
   </g>
   <g id="patch_28">
    <path d="M 53.6584 191.7472 
L 54.8904 191.7472 
L 54.8904 27.3984 
L 53.6584 27.3984 
z
" clip-path="url(#pa2d26a4e1c)"/>
   </g>
   <g id="patch_29">
    <path d="M 169.4664 191.5008 
L 170.6984 191.5008 
L 170.6984 27.3984 
L 169.4664 27.3984 
z
" clip-path="url(#pa2d26a4e1c)"/>
   </g>
   <g id="patch_30">
    <path d="M 131.5208 191.008 
L 132.7528 191.008 
L 132.7528 45.3856 
L 131.5208 45.3856 
z
" clip-path="url(#pa2d26a4e1c)"/>
   </g>
   <g id="patch_31">
    <path d="M 92.5896 151.0912 
L 93.8216 151.0912 
L 93.8216 26.4128 
L 92.5896 26.4128 
z
" clip-path="url(#pa2d26a4e1c)"/>
   </g>
   <g id="patch_32">
    <path d="M 131.5208 192.24 
L 132.7528 192.24 
L 132.7528 191.008 
L 131.5208 191.008 
z
" clip-path="url(#pa2d26a4e1c)" style="fill: #b8b9bc"/>
   </g>
   <g id="patch_33">
    <path d="M 169.4664 27.8912 
L 170.6984 27.8912 
L 170.6984 25.92 
L 169.4664 25.92 
z
" clip-path="url(#pa2d26a4e1c)" style="fill: #284f84"/>
   </g>
   <g id="patch_34">
    <path d="M 181.0472 152.3232 
L 181.54 152.3232 
L 181.54 151.8304 
L 181.0472 151.8304 
z
" clip-path="url(#pa2d26a4e1c)" style="fill: #cecf24"/>
   </g>
   <g id="patch_35">
    <path d="M 181.0472 151.8304 
L 181.54 151.8304 
L 181.54 151.0912 
L 181.0472 151.0912 
z
" clip-path="url(#pa2d26a4e1c)" style="fill: #fcfcfd"/>
   </g>
   <g id="patch_36">
    <path d="M 53.6584 192.24 
L 54.1512 192.24 
L 54.1512 191.7472 
L 53.6584 191.7472 
z
" clip-path="url(#pa2d26a4e1c)" style="fill: #bcbdbe"/>
   </g>
   <g id="patch_37">
    <path d="M 54.1512 192.24 
L 54.8904 192.24 
L 54.8904 191.7472 
L 54.1512 191.7472 
z
" clip-path="url(#pa2d26a4e1c)" style="fill: #2f5289"/>
   </g>
   <g id="patch_38">
    <path d="M 53.6584 27.3984 
L 54.8904 27.3984 
L 54.8904 25.92 
L 53.6584 25.92 
z
" clip-path="url(#pa2d26a4e1c)" style="fill: #bcbec0"/>
   </g>
   <g id="patch_39">
    <path d="M 169.4664 192.24 
L 169.9592 192.24 
L 169.9592 191.5008 
L 169.4664 191.5008 
z
" clip-path="url(#pa2d26a4e1c)" style="fill: #b8b9bc"/>
   </g>
   <g id="patch_40">
    <path d="M 169.9592 192.24 
L 170.6984 192.24 
L 170.6984 191.5008 
L 169.9592 191.5008 
z
" clip-path="url(#pa2d26a4e1c)" style="fill: #cecf24"/>
   </g>
   <g id="patch_41">
    <path d="M 92.5896 26.4128 
L 93.0824 26.4128 
L 93.0824 25.92 
L 92.5896 25.92 
z
" clip-path="url(#pa2d26a4e1c)" style="fill: #b7b9bb"/>
   </g>
   <g id="patch_42">
    <path d="M 93.0824 26.4128 
L 93.8216 26.4128 
L 93.8216 25.92 
L 93.0824 25.92 
z
" clip-path="url(#pa2d26a4e1c)" style="fill: #294b7f"/>
   </g>
  </g>
  <g id="text_1">
   <!-- » Composition B « (b106) -->
   <g transform="translate(10.8 205.2) scale(0.12 -0.12)">
    <defs>
     <path id="DejaVuSans-bb" d="M 603 3309 
L 2069 2003 
L 2069 1747 
L 603 441 
L 603 1038 
L 1544 1875 
L 603 2713 
L 603 3309 
z
M 1959 3309 
L 3425 2003 
L 3425 1747 
L 1959 441 
L 1959 1038 
L 2900 1875 
L 1959 2713 
L 1959 3309 
z
" transform="scale(0.015625)"/>
     <path id="DejaVuSans-20" transform="scale(0.015625)"/>
     <path id="DejaVuSans-43" d="M 4122 4306 
L 4122 3641 
Q 3803 3938 3442 4084 
Q 3081 4231 2675 4231 
Q 1875 4231 1450 3742 
Q 1025 3253 1025 2328 
Q 1025 1406 1450 917 
Q 1875 428 2675 428 
Q 3081 428 3442 575 
Q 3803 722 4122 1019 
L 4122 359 
Q 3791 134 3420 21 
Q 3050 -91 2638 -91 
Q 1578 -91 968 557 
Q 359 1206 359 2328 
Q 359 3453 968 4101 
Q 1578 4750 2638 4750 
Q 3056 4750 3426 4639 
Q 3797 4528 4122 4306 
z
" transform="scale(0.015625)"/>
     <path id="DejaVuSans-6f" d="M 1959 3097 
Q 1497 3097 1228 2736 
Q 959 2375 959 1747 
Q 959 1119 1226 758 
Q 1494 397 1959 397 
Q 2419 397 2687 759 
Q 2956 1122 2956 1747 
Q 2956 2369 2687 2733 
Q 2419 3097 1959 3097 
z
M 1959 3584 
Q 2709 3584 3137 3096 
Q 3566 2609 3566 1747 
Q 3566 888 3137 398 
Q 2709 -91 1959 -91 
Q 1206 -91 779 398 
Q 353 888 353 1747 
Q 353 2609 779 3096 
Q 1206 3584 1959 3584 
z
" transform="scale(0.015625)"/>
     <path id="DejaVuSans-6d" d="M 3328 2828 
Q 3544 3216 3844 3400 
Q 4144 3584 4550 3584 
Q 5097 3584 5394 3201 
Q 5691 2819 5691 2113 
L 5691 0 
L 5113 0 
L 5113 2094 
Q 5113 2597 4934 2840 
Q 4756 3084 4391 3084 
Q 3944 3084 3684 2787 
Q 3425 2491 3425 1978 
L 3425 0 
L 2847 0 
L 2847 2094 
Q 2847 2600 2669 2842 
Q 2491 3084 2119 3084 
Q 1678 3084 1418 2786 
Q 1159 2488 1159 1978 
L 1159 0 
L 581 0 
L 581 3500 
L 1159 3500 
L 1159 2956 
Q 1356 3278 1631 3431 
Q 1906 3584 2284 3584 
Q 2666 3584 2933 3390 
Q 3200 3197 3328 2828 
z
" transform="scale(0.015625)"/>
     <path id="DejaVuSans-70" d="M 1159 525 
L 1159 -1331 
L 581 -1331 
L 581 3500 
L 1159 3500 
L 1159 2969 
Q 1341 3281 1617 3432 
Q 1894 3584 2278 3584 
Q 2916 3584 3314 3078 
Q 3713 2572 3713 1747 
Q 3713 922 3314 415 
Q 2916 -91 2278 -91 
Q 1894 -91 1617 61 
Q 1341 213 1159 525 
z
M 3116 1747 
Q 3116 2381 2855 2742 
Q 2594 3103 2138 3103 
Q 1681 3103 1420 2742 
Q 1159 2381 1159 1747 
Q 1159 1113 1420 752 
Q 1681 391 2138 391 
Q 2594 391 2855 752 
Q 3116 1113 3116 1747 
z
" transform="scale(0.015625)"/>
     <path id="DejaVuSans-73" d="M 2834 3397 
L 2834 2853 
Q 2591 2978 2328 3040 
Q 2066 3103 1784 3103 
Q 1356 3103 1142 2972 
Q 928 2841 928 2578 
Q 928 2378 1081 2264 
Q 1234 2150 1697 2047 
L 1894 2003 
Q 2506 1872 2764 1633 
Q 3022 1394 3022 966 
Q 3022 478 2636 193 
Q 2250 -91 1575 -91 
Q 1294 -91 989 -36 
Q 684 19 347 128 
L 347 722 
Q 666 556 975 473 
Q 1284 391 1588 391 
Q 1994 391 2212 530 
Q 2431 669 2431 922 
Q 2431 1156 2273 1281 
Q 2116 1406 1581 1522 
L 1381 1569 
Q 847 1681 609 1914 
Q 372 2147 372 2553 
Q 372 3047 722 3315 
Q 1072 3584 1716 3584 
Q 2034 3584 2315 3537 
Q 2597 3491 2834 3397 
z
" transform="scale(0.015625)"/>
     <path id="DejaVuSans-69" d="M 603 3500 
L 1178 3500 
L 1178 0 
L 603 0 
L 603 3500 
z
M 603 4863 
L 1178 4863 
L 1178 4134 
L 603 4134 
L 603 4863 
z
" transform="scale(0.015625)"/>
     <path id="DejaVuSans-74" d="M 1172 4494 
L 1172 3500 
L 2356 3500 
L 2356 3053 
L 1172 3053 
L 1172 1153 
Q 1172 725 1289 603 
Q 1406 481 1766 481 
L 2356 481 
L 2356 0 
L 1766 0 
Q 1100 0 847 248 
Q 594 497 594 1153 
L 594 3053 
L 172 3053 
L 172 3500 
L 594 3500 
L 594 4494 
L 1172 4494 
z
" transform="scale(0.015625)"/>
     <path id="DejaVuSans-6e" d="M 3513 2113 
L 3513 0 
L 2938 0 
L 2938 2094 
Q 2938 2591 2744 2837 
Q 2550 3084 2163 3084 
Q 1697 3084 1428 2787 
Q 1159 2491 1159 1978 
L 1159 0 
L 581 0 
L 581 3500 
L 1159 3500 
L 1159 2956 
Q 1366 3272 1645 3428 
Q 1925 3584 2291 3584 
Q 2894 3584 3203 3211 
Q 3513 2838 3513 2113 
z
" transform="scale(0.015625)"/>
     <path id="DejaVuSans-42" d="M 1259 2228 
L 1259 519 
L 2272 519 
Q 2781 519 3026 730 
Q 3272 941 3272 1375 
Q 3272 1813 3026 2020 
Q 2781 2228 2272 2228 
L 1259 2228 
z
M 1259 4147 
L 1259 2741 
L 2194 2741 
Q 2656 2741 2882 2914 
Q 3109 3088 3109 3444 
Q 3109 3797 2882 3972 
Q 2656 4147 2194 4147 
L 1259 4147 
z
M 628 4666 
L 2241 4666 
Q 2963 4666 3353 4366 
Q 3744 4066 3744 3513 
Q 3744 3084 3544 2831 
Q 3344 2578 2956 2516 
Q 3422 2416 3680 2098 
Q 3938 1781 3938 1306 
Q 3938 681 3513 340 
Q 3088 0 2303 0 
L 628 0 
L 628 4666 
z
" transform="scale(0.015625)"/>
     <path id="DejaVuSans-ab" d="M 3316 3309 
L 3316 2713 
L 2375 1875 
L 3316 1038 
L 3316 441 
L 1850 1747 
L 1850 2003 
L 3316 3309 
z
M 1959 3309 
L 1959 2713 
L 1019 1875 
L 1959 1038 
L 1959 441 
L 494 1747 
L 494 2003 
L 1959 3309 
z
" transform="scale(0.015625)"/>
     <path id="DejaVuSans-28" d="M 1984 4856 
Q 1566 4138 1362 3434 
Q 1159 2731 1159 2009 
Q 1159 1288 1364 580 
Q 1569 -128 1984 -844 
L 1484 -844 
Q 1016 -109 783 600 
Q 550 1309 550 2009 
Q 550 2706 781 3412 
Q 1013 4119 1484 4856 
L 1984 4856 
z
" transform="scale(0.015625)"/>
     <path id="DejaVuSans-62" d="M 3116 1747 
Q 3116 2381 2855 2742 
Q 2594 3103 2138 3103 
Q 1681 3103 1420 2742 
Q 1159 2381 1159 1747 
Q 1159 1113 1420 752 
Q 1681 391 2138 391 
Q 2594 391 2855 752 
Q 3116 1113 3116 1747 
z
M 1159 2969 
Q 1341 3281 1617 3432 
Q 1894 3584 2278 3584 
Q 2916 3584 3314 3078 
Q 3713 2572 3713 1747 
Q 3713 922 3314 415 
Q 2916 -91 2278 -91 
Q 1894 -91 1617 61 
Q 1341 213 1159 525 
L 1159 0 
L 581 0 
L 581 4863 
L 1159 4863 
L 1159 2969 
z
" transform="scale(0.015625)"/>
     <path id="DejaVuSans-31" d="M 794 531 
L 1825 531 
L 1825 4091 
L 703 3866 
L 703 4441 
L 1819 4666 
L 2450 4666 
L 2450 531 
L 3481 531 
L 3481 0 
L 794 0 
L 794 531 
z
" transform="scale(0.015625)"/>
     <path id="DejaVuSans-30" d="M 2034 4250 
Q 1547 4250 1301 3770 
Q 1056 3291 1056 2328 
Q 1056 1369 1301 889 
Q 1547 409 2034 409 
Q 2525 409 2770 889 
Q 3016 1369 3016 2328 
Q 3016 3291 2770 3770 
Q 2525 4250 2034 4250 
z
M 2034 4750 
Q 2819 4750 3233 4129 
Q 3647 3509 3647 2328 
Q 3647 1150 3233 529 
Q 2819 -91 2034 -91 
Q 1250 -91 836 529 
Q 422 1150 422 2328 
Q 422 3509 836 4129 
Q 1250 4750 2034 4750 
z
" transform="scale(0.015625)"/>
     <path id="DejaVuSans-36" d="M 2113 2584 
Q 1688 2584 1439 2293 
Q 1191 2003 1191 1497 
Q 1191 994 1439 701 
Q 1688 409 2113 409 
Q 2538 409 2786 701 
Q 3034 994 3034 1497 
Q 3034 2003 2786 2293 
Q 2538 2584 2113 2584 
z
M 3366 4563 
L 3366 3988 
Q 3128 4100 2886 4159 
Q 2644 4219 2406 4219 
Q 1781 4219 1451 3797 
Q 1122 3375 1075 2522 
Q 1259 2794 1537 2939 
Q 1816 3084 2150 3084 
Q 2853 3084 3261 2657 
Q 3669 2231 3669 1497 
Q 3669 778 3244 343 
Q 2819 -91 2113 -91 
Q 1303 -91 875 529 
Q 447 1150 447 2328 
Q 447 3434 972 4092 
Q 1497 4750 2381 4750 
Q 2619 4750 2861 4703 
Q 3103 4656 3366 4563 
z
" transform="scale(0.015625)"/>
     <path id="DejaVuSans-29" d="M 513 4856 
L 1013 4856 
Q 1481 4119 1714 3412 
Q 1947 2706 1947 2009 
Q 1947 1309 1714 600 
Q 1481 -109 1013 -844 
L 513 -844 
Q 928 -128 1133 580 
Q 1338 1288 1338 2009 
Q 1338 2731 1133 3434 
Q 928 4138 513 4856 
z
" transform="scale(0.015625)"/>
    </defs>
    <use xlink:href="#DejaVuSans-bb"/>
    <use xlink:href="#DejaVuSans-20" transform="translate(61.181641 0)"/>
    <use xlink:href="#DejaVuSans-43" transform="translate(92.96875 0)"/>
    <use xlink:href="#DejaVuSans-6f" transform="translate(162.792969 0)"/>
    <use xlink:href="#DejaVuSans-6d" transform="translate(223.974609 0)"/>
    <use xlink:href="#DejaVuSans-70" transform="translate(321.386719 0)"/>
    <use xlink:href="#DejaVuSans-6f" transform="translate(384.863281 0)"/>
    <use xlink:href="#DejaVuSans-73" transform="translate(446.044922 0)"/>
    <use xlink:href="#DejaVuSans-69" transform="translate(498.144531 0)"/>
    <use xlink:href="#DejaVuSans-74" transform="translate(525.927734 0)"/>
    <use xlink:href="#DejaVuSans-69" transform="translate(565.136719 0)"/>
    <use xlink:href="#DejaVuSans-6f" transform="translate(592.919922 0)"/>
    <use xlink:href="#DejaVuSans-6e" transform="translate(654.101562 0)"/>
    <use xlink:href="#DejaVuSans-20" transform="translate(717.480469 0)"/>
    <use xlink:href="#DejaVuSans-42" transform="translate(749.267578 0)"/>
    <use xlink:href="#DejaVuSans-20" transform="translate(817.871094 0)"/>
    <use xlink:href="#DejaVuSans-ab" transform="translate(849.658203 0)"/>
    <use xlink:href="#DejaVuSans-20" transform="translate(910.839844 0)"/>
    <use xlink:href="#DejaVuSans-28" transform="translate(942.626953 0)"/>
    <use xlink:href="#DejaVuSans-62" transform="translate(981.640625 0)"/>
    <use xlink:href="#DejaVuSans-31" transform="translate(1045.117188 0)"/>
    <use xlink:href="#DejaVuSans-30" transform="translate(1108.740234 0)"/>
    <use xlink:href="#DejaVuSans-36" transform="translate(1172.363281 0)"/>
    <use xlink:href="#DejaVuSans-29" transform="translate(1235.986328 0)"/>
   </g>
  </g>
 </g>
 <defs>
  <clipPath id="pa2d26a4e1c">
   <rect x="39.86" y="25.92" width="141.68" height="166.32"/>
  </clipPath>
 </defs>
</svg>
