<?xml version="1.0" encoding="utf-8" standalone="no"?>
<!DOCTYPE svg PUBLIC "-//W3C//DTD SVG 1.1//EN"
  "http://www.w3.org/Graphics/SVG/1.1/DTD/svg11.dtd">
<svg xmlns:xlink="http://www.w3.org/1999/xlink" width="216pt" height="216pt" viewBox="0 0 216 216" xmlns="http://www.w3.org/2000/svg" version="1.1">
 <metadata>
  <rdf:RDF xmlns:dc="http://purl.org/dc/elements/1.1/" xmlns:cc="http://creativecommons.org/ns#" xmlns:rdf="http://www.w3.org/1999/02/22-rdf-syntax-ns#">
   <cc:Work>
    <dc:type rdf:resource="http://purl.org/dc/dcmitype/StillImage"/>
    <dc:date>2026-01-21T11:50:05.231737</dc:date>
    <dc:format>image/svg+xml</dc:format>
    <dc:creator>
     <cc:Agent>
      <dc:title>Matplotlib v3.10.8, https://matplotlib.org/</dc:title>
     </cc:Agent>
    </dc:creator>
   </cc:Work>
  </rdf:RDF>
 </metadata>
 <defs>
  <style type="text/css">*{stroke-linejoin: round; stroke-linecap: butt}</style>
 </defs>
 <g id="figure_1">
  <g id="patch_1">
   <path d="M 0 216 
L 216 216 
L 216 0 
L 0 0 
z
" style="fill: #ffffff; stroke: #000000; stroke-width: 10; stroke-linejoin: miter"/>
  </g>
  <g id="axes_1">
   <g id="patch_2">
    <path d="M 38.628 192.24 
L 50.60304 192.24 
L 50.60304 163.85472 
L 38.628 163.85472 
z
" clip-path="url(#p521ad130b0)" style="fill: #fcf552"/>
   </g>
   <g id="patch_3">
    <path d="M 52.82064 192.24 
L 100.7208 192.24 
L 100.7208 189.80064 
L 52.82064 189.80064 
z
" clip-path="url(#p521ad130b0)" style="fill: #fc5a32"/>
   </g>
   <g id="patch_4">
    <path d="M 102.9384 192.24 
L 128.21904 192.24 
L 128.21904 189.80064 
L 102.9384 189.80064 
z
" clip-path="url(#p521ad130b0)" style="fill: #f1f4e5"/>
   </g>
   <g id="patch_5">
    <path d="M 130.43664 192.24 
L 177.89328 192.24 
L 177.89328 178.71264 
L 130.43664 178.71264 
z
" clip-path="url(#p521ad130b0)" style="fill: #eceddf"/>
   </g>
   <g id="patch_6">
    <path d="M 180.11088 192.24 
L 182.772 192.24 
L 182.772 131.92128 
L 180.11088 131.92128 
z
" clip-path="url(#p521ad130b0)" style="fill: #dedfc8"/>
   </g>
   <g id="patch_7">
    <path d="M 52.82064 187.58304 
L 100.7208 187.58304 
L 100.7208 163.85472 
L 52.82064 163.85472 
z
" clip-path="url(#p521ad130b0)" style="fill: #ff5a32"/>
   </g>
   <g id="patch_8">
    <path d="M 102.9384 187.58304 
L 128.21904 187.58304 
L 128.21904 163.85472 
L 102.9384 163.85472 
z
" clip-path="url(#p521ad130b0)" style="fill: #f4f5e9"/>
   </g>
   <g id="patch_9">
    <path d="M 130.43664 176.49504 
L 177.89328 176.49504 
L 177.89328 131.92128 
L 130.43664 131.92128 
z
" clip-path="url(#p521ad130b0)" style="fill: #fbf96c"/>
   </g>
   <g id="patch_10">
    <path d="M 38.628 161.63712 
L 50.60304 161.63712 
L 50.60304 43.43904 
L 38.628 43.43904 
z
" clip-path="url(#p521ad130b0)" style="fill: #e2e3db"/>
   </g>
   <g id="patch_11">
    <path d="M 52.82064 161.63712 
L 100.7208 161.63712 
L 100.7208 105.7536 
L 52.82064 105.7536 
z
" clip-path="url(#p521ad130b0)" style="fill: #2d5a8f"/>
   </g>
   <g id="patch_12">
    <path d="M 102.9384 161.63712 
L 128.21904 161.63712 
L 128.21904 105.7536 
L 102.9384 105.7536 
z
" clip-path="url(#p521ad130b0)" style="fill: #1c1c18"/>
   </g>
   <g id="patch_13">
    <path d="M 130.43664 129.70368 
L 166.80528 129.70368 
L 166.80528 105.7536 
L 130.43664 105.7536 
z
" clip-path="url(#p521ad130b0)" style="fill: #f4f7ec"/>
   </g>
   <g id="patch_14">
    <path d="M 169.02288 129.70368 
L 177.89328 129.70368 
L 177.89328 69.82848 
L 169.02288 69.82848 
z
" clip-path="url(#p521ad130b0)" style="fill: #22221e"/>
   </g>
   <g id="patch_15">
    <path d="M 180.11088 129.70368 
L 182.772 129.70368 
L 182.772 32.35104 
L 180.11088 32.35104 
z
" clip-path="url(#p521ad130b0)" style="fill: #272823"/>
   </g>
   <g id="patch_16">
    <path d="M 52.82064 103.536 
L 100.7208 103.536 
L 100.7208 95.33088 
L 52.82064 95.33088 
z
" clip-path="url(#p521ad130b0)" style="fill: #f5f7ec"/>
   </g>
   <g id="patch_17">
    <path d="M 102.9384 103.536 
L 128.21904 103.536 
L 128.21904 69.82848 
L 102.9384 69.82848 
z
" clip-path="url(#p521ad130b0)" style="fill: #fd542e"/>
   </g>
   <g id="patch_18">
    <path d="M 130.43664 103.536 
L 166.80528 103.536 
L 166.80528 69.82848 
L 130.43664 69.82848 
z
" clip-path="url(#p521ad130b0)" style="fill: #fd4d2e"/>
   </g>
   <g id="patch_19">
    <path d="M 52.82064 93.11328 
L 100.7208 93.11328 
L 100.7208 43.43904 
L 52.82064 43.43904 
z
" clip-path="url(#p521ad130b0)" style="fill: #f8f9eb"/>
   </g>
   <g id="patch_20">
    <path d="M 102.9384 67.61088 
L 146.84688 67.61088 
L 146.84688 43.43904 
L 102.9384 43.43904 
z
" clip-path="url(#p521ad130b0)" style="fill: #2e568a"/>
   </g>
   <g id="patch_21">
    <path d="M 149.06448 67.61088 
L 166.80528 67.61088 
L 166.80528 43.43904 
L 149.06448 43.43904 
z
" clip-path="url(#p521ad130b0)" style="fill: #e0dfd9"/>
   </g>
   <g id="patch_22">
    <path d="M 169.02288 67.61088 
L 177.89328 67.61088 
L 177.89328 43.43904 
L 169.02288 43.43904 
z
" clip-path="url(#p521ad130b0)" style="fill: #dadbcf"/>
   </g>
   <g id="patch_23">
    <path d="M 38.628 41.22144 
L 50.60304 41.22144 
L 50.60304 25.92 
L 38.628 25.92 
z
" clip-path="url(#p521ad130b0)" style="fill: #d3d4c9"/>
   </g>
   <g id="patch_24">
    <path d="M 52.82064 41.22144 
L 146.84688 41.22144 
L 146.84688 32.35104 
L 52.82064 32.35104 
z
" clip-path="url(#p521ad130b0)" style="fill: #faf55e"/>
   </g>
   <g id="patch_25">
    <path d="M 149.06448 41.22144 
L 177.89328 41.22144 
L 177.89328 32.35104 
L 149.06448 32.35104 
z
" clip-path="url(#p521ad130b0)" style="fill: #dbddd3"/>
   </g>
   <g id="patch_26">
    <path d="M 52.82064 30.13344 
L 182.772 30.13344 
L 182.772 25.92 
L 52.82064 25.92 
z
" clip-path="url(#p521ad130b0)" style="fill: #ddded6"/>
   </g>
   <g id="patch_27">
    <path d="M 50.60304 192.24 
L 52.82064 192.24 
L 52.82064 28.1376 
L 50.60304 28.1376 
z
" clip-path="url(#p521ad130b0)"/>
   </g>
   <g id="patch_28">
    <path d="M 100.7208 192.24 
L 102.9384 192.24 
L 102.9384 43.43904 
L 100.7208 43.43904 
z
" clip-path="url(#p521ad130b0)"/>
   </g>
   <g id="patch_29">
    <path d="M 128.21904 191.35296 
L 130.43664 191.35296 
L 130.43664 69.82848 
L 128.21904 69.82848 
z
" clip-path="url(#p521ad130b0)"/>
   </g>
   <g id="patch_30">
    <path d="M 177.89328 190.90944 
L 180.11088 190.90944 
L 180.11088 32.35104 
L 177.89328 32.35104 
z
" clip-path="url(#p521ad130b0)"/>
   </g>
   <g id="patch_31">
    <path d="M 166.80528 129.70368 
L 169.02288 129.70368 
L 169.02288 43.43904 
L 166.80528 43.43904 
z
" clip-path="url(#p521ad130b0)"/>
   </g>
   <g id="patch_32">
    <path d="M 146.84688 67.61088 
L 149.06448 67.61088 
L 149.06448 32.35104 
L 146.84688 32.35104 
z
" clip-path="url(#p521ad130b0)"/>
   </g>
   <g id="patch_33">
    <path d="M 52.82064 189.80064 
L 128.21904 189.80064 
L 128.21904 187.58304 
L 52.82064 187.58304 
z
" clip-path="url(#p521ad130b0)"/>
   </g>
   <g id="patch_34">
    <path d="M 130.43664 178.71264 
L 177.89328 178.71264 
L 177.89328 176.49504 
L 130.43664 176.49504 
z
" clip-path="url(#p521ad130b0)"/>
   </g>
   <g id="patch_35">
    <path d="M 39.29328 163.85472 
L 128.21904 163.85472 
L 128.21904 161.63712 
L 39.29328 161.63712 
z
" clip-path="url(#p521ad130b0)"/>
   </g>
   <g id="patch_36">
    <path d="M 130.43664 131.92128 
L 182.772 131.92128 
L 182.772 129.70368 
L 130.43664 129.70368 
z
" clip-path="url(#p521ad130b0)"/>
   </g>
   <g id="patch_37">
    <path d="M 52.82064 105.7536 
L 166.80528 105.7536 
L 166.80528 103.536 
L 52.82064 103.536 
z
" clip-path="url(#p521ad130b0)"/>
   </g>
   <g id="patch_38">
    <path d="M 52.82064 95.33088 
L 100.7208 95.33088 
L 100.7208 93.11328 
L 52.82064 93.11328 
z
" clip-path="url(#p521ad130b0)"/>
   </g>
   <g id="patch_39">
    <path d="M 102.9384 69.82848 
L 177.89328 69.82848 
L 177.89328 67.61088 
L 102.9384 67.61088 
z
" clip-path="url(#p521ad130b0)"/>
   </g>
   <g id="patch_40">
    <path d="M 39.29328 43.43904 
L 177.89328 43.43904 
L 177.89328 41.22144 
L 39.29328 41.22144 
z
" clip-path="url(#p521ad130b0)"/>
   </g>
   <g id="patch_41">
    <path d="M 52.82064 32.35104 
L 182.772 32.35104 
L 182.772 30.13344 
L 52.82064 30.13344 
z
" clip-path="url(#p521ad130b0)"/>
   </g>
   <g id="patch_42">
    <path d="M 128.21904 192.24 
L 130.43664 192.24 
L 130.43664 191.35296 
L 128.21904 191.35296 
z
" clip-path="url(#p521ad130b0)" style="fill: #f1f4e5"/>
   </g>
   <g id="patch_43">
    <path d="M 38.628 163.85472 
L 39.29328 163.85472 
L 39.29328 161.63712 
L 38.628 161.63712 
z
" clip-path="url(#p521ad130b0)" style="fill: #e2e3db"/>
   </g>
   <g id="patch_44">
    <path d="M 38.628 43.43904 
L 39.29328 43.43904 
L 39.29328 41.22144 
L 38.628 41.22144 
z
" clip-path="url(#p521ad130b0)" style="fill: #e2e3db"/>
   </g>
   <g id="patch_45">
    <path d="M 50.60304 28.1376 
L 52.82064 28.1376 
L 52.82064 25.92 
L 50.60304 25.92 
z
" clip-path="url(#p521ad130b0)" style="fill: #d3d4c9"/>
   </g>
   <g id="patch_46">
    <path d="M 177.89328 192.24 
L 180.11088 192.24 
L 180.11088 190.90944 
L 177.89328 190.90944 
z
" clip-path="url(#p521ad130b0)" style="fill: #e5e6d4"/>
   </g>
  </g>
  <g id="text_1">
   <!-- » Tableau no. II « (b121) -->
   <g transform="translate(10.8 205.2) scale(0.12 -0.12)">
    <defs>
     <path id="DejaVuSans-bb" d="M 603 3309 
L 2069 2003 
L 2069 1747 
L 603 441 
L 603 1038 
L 1544 1875 
L 603 2713 
L 603 3309 
z
M 1959 3309 
L 3425 2003 
L 3425 1747 
L 1959 441 
L 1959 1038 
L 2900 1875 
L 1959 2713 
L 1959 3309 
z
" transform="scale(0.015625)"/>
     <path id="DejaVuSans-20" transform="scale(0.015625)"/>
     <path id="DejaVuSans-54" d="M -19 4666 
L 3928 4666 
L 3928 4134 
L 2272 4134 
L 2272 0 
L 1638 0 
L 1638 4134 
L -19 4134 
L -19 4666 
z
" transform="scale(0.015625)"/>
     <path id="DejaVuSans-61" d="M 2194 1759 
Q 1497 1759 1228 1600 
Q 959 1441 959 1056 
Q 959 750 1161 570 
Q 1363 391 1709 391 
Q 2188 391 2477 730 
Q 2766 1069 2766 1631 
L 2766 1759 
L 2194 1759 
z
M 3341 1997 
L 3341 0 
L 2766 0 
L 2766 531 
Q 2569 213 2275 61 
Q 1981 -91 1556 -91 
Q 1019 -91 701 211 
Q 384 513 384 1019 
Q 384 1609 779 1909 
Q 1175 2209 1959 2209 
L 2766 2209 
L 2766 2266 
Q 2766 2663 2505 2880 
Q 2244 3097 1772 3097 
Q 1472 3097 1187 3025 
Q 903 2953 641 2809 
L 641 3341 
Q 956 3463 1253 3523 
Q 1550 3584 1831 3584 
Q 2591 3584 2966 3190 
Q 3341 2797 3341 1997 
z
" transform="scale(0.015625)"/>
     <path id="DejaVuSans-62" d="M 3116 1747 
Q 3116 2381 2855 2742 
Q 2594 3103 2138 3103 
Q 1681 3103 1420 2742 
Q 1159 2381 1159 1747 
Q 1159 1113 1420 752 
Q 1681 391 2138 391 
Q 2594 391 2855 752 
Q 3116 1113 3116 1747 
z
M 1159 2969 
Q 1341 3281 1617 3432 
Q 1894 3584 2278 3584 
Q 2916 3584 3314 3078 
Q 3713 2572 3713 1747 
Q 3713 922 3314 415 
Q 2916 -91 2278 -91 
Q 1894 -91 1617 61 
Q 1341 213 1159 525 
L 1159 0 
L 581 0 
L 581 4863 
L 1159 4863 
L 1159 2969 
z
" transform="scale(0.015625)"/>
     <path id="DejaVuSans-6c" d="M 603 4863 
L 1178 4863 
L 1178 0 
L 603 0 
L 603 4863 
z
" transform="scale(0.015625)"/>
     <path id="DejaVuSans-65" d="M 3597 1894 
L 3597 1613 
L 953 1613 
Q 991 1019 1311 708 
Q 1631 397 2203 397 
Q 2534 397 2845 478 
Q 3156 559 3463 722 
L 3463 178 
Q 3153 47 2828 -22 
Q 2503 -91 2169 -91 
Q 1331 -91 842 396 
Q 353 884 353 1716 
Q 353 2575 817 3079 
Q 1281 3584 2069 3584 
Q 2775 3584 3186 3129 
Q 3597 2675 3597 1894 
z
M 3022 2063 
Q 3016 2534 2758 2815 
Q 2500 3097 2075 3097 
Q 1594 3097 1305 2825 
Q 1016 2553 972 2059 
L 3022 2063 
z
" transform="scale(0.015625)"/>
     <path id="DejaVuSans-75" d="M 544 1381 
L 544 3500 
L 1119 3500 
L 1119 1403 
Q 1119 906 1312 657 
Q 1506 409 1894 409 
Q 2359 409 2629 706 
Q 2900 1003 2900 1516 
L 2900 3500 
L 3475 3500 
L 3475 0 
L 2900 0 
L 2900 538 
Q 2691 219 2414 64 
Q 2138 -91 1772 -91 
Q 1169 -91 856 284 
Q 544 659 544 1381 
z
M 1991 3584 
L 1991 3584 
z
" transform="scale(0.015625)"/>
     <path id="DejaVuSans-6e" d="M 3513 2113 
L 3513 0 
L 2938 0 
L 2938 2094 
Q 2938 2591 2744 2837 
Q 2550 3084 2163 3084 
Q 1697 3084 1428 2787 
Q 1159 2491 1159 1978 
L 1159 0 
L 581 0 
L 581 3500 
L 1159 3500 
L 1159 2956 
Q 1366 3272 1645 3428 
Q 1925 3584 2291 3584 
Q 2894 3584 3203 3211 
Q 3513 2838 3513 2113 
z
" transform="scale(0.015625)"/>
     <path id="DejaVuSans-6f" d="M 1959 3097 
Q 1497 3097 1228 2736 
Q 959 2375 959 1747 
Q 959 1119 1226 758 
Q 1494 397 1959 397 
Q 2419 397 2687 759 
Q 2956 1122 2956 1747 
Q 2956 2369 2687 2733 
Q 2419 3097 1959 3097 
z
M 1959 3584 
Q 2709 3584 3137 3096 
Q 3566 2609 3566 1747 
Q 3566 888 3137 398 
Q 2709 -91 1959 -91 
Q 1206 -91 779 398 
Q 353 888 353 1747 
Q 353 2609 779 3096 
Q 1206 3584 1959 3584 
z
" transform="scale(0.015625)"/>
     <path id="DejaVuSans-2e" d="M 684 794 
L 1344 794 
L 1344 0 
L 684 0 
L 684 794 
z
" transform="scale(0.015625)"/>
     <path id="DejaVuSans-49" d="M 628 4666 
L 1259 4666 
L 1259 0 
L 628 0 
L 628 4666 
z
" transform="scale(0.015625)"/>
     <path id="DejaVuSans-ab" d="M 3316 3309 
L 3316 2713 
L 2375 1875 
L 3316 1038 
L 3316 441 
L 1850 1747 
L 1850 2003 
L 3316 3309 
z
M 1959 3309 
L 1959 2713 
L 1019 1875 
L 1959 1038 
L 1959 441 
L 494 1747 
L 494 2003 
L 1959 3309 
z
" transform="scale(0.015625)"/>
     <path id="DejaVuSans-28" d="M 1984 4856 
Q 1566 4138 1362 3434 
Q 1159 2731 1159 2009 
Q 1159 1288 1364 580 
Q 1569 -128 1984 -844 
L 1484 -844 
Q 1016 -109 783 600 
Q 550 1309 550 2009 
Q 550 2706 781 3412 
Q 1013 4119 1484 4856 
L 1984 4856 
z
" transform="scale(0.015625)"/>
     <path id="DejaVuSans-31" d="M 794 531 
L 1825 531 
L 1825 4091 
L 703 3866 
L 703 4441 
L 1819 4666 
L 2450 4666 
L 2450 531 
L 3481 531 
L 3481 0 
L 794 0 
L 794 531 
z
" transform="scale(0.015625)"/>
     <path id="DejaVuSans-32" d="M 1228 531 
L 3431 531 
L 3431 0 
L 469 0 
L 469 531 
Q 828 903 1448 1529 
Q 2069 2156 2228 2338 
Q 2531 2678 2651 2914 
Q 2772 3150 2772 3378 
Q 2772 3750 2511 3984 
Q 2250 4219 1831 4219 
Q 1534 4219 1204 4116 
Q 875 4013 500 3803 
L 500 4441 
Q 881 4594 1212 4672 
Q 1544 4750 1819 4750 
Q 2544 4750 2975 4387 
Q 3406 4025 3406 3419 
Q 3406 3131 3298 2873 
Q 3191 2616 2906 2266 
Q 2828 2175 2409 1742 
Q 1991 1309 1228 531 
z
" transform="scale(0.015625)"/>
     <path id="DejaVuSans-29" d="M 513 4856 
L 1013 4856 
Q 1481 4119 1714 3412 
Q 1947 2706 1947 2009 
Q 1947 1309 1714 600 
Q 1481 -109 1013 -844 
L 513 -844 
Q 928 -128 1133 580 
Q 1338 1288 1338 2009 
Q 1338 2731 1133 3434 
Q 928 4138 513 4856 
z
" transform="scale(0.015625)"/>
    </defs>
    <use xlink:href="#DejaVuSans-bb"/>
    <use xlink:href="#DejaVuSans-20" transform="translate(61.181641 0)"/>
    <use xlink:href="#DejaVuSans-54" transform="translate(92.96875 0)"/>
    <use xlink:href="#DejaVuSans-61" transform="translate(137.552734 0)"/>
    <use xlink:href="#DejaVuSans-62" transform="translate(198.832031 0)"/>
    <use xlink:href="#DejaVuSans-6c" transform="translate(262.308594 0)"/>
    <use xlink:href="#DejaVuSans-65" transform="translate(290.091797 0)"/>
    <use xlink:href="#DejaVuSans-61" transform="translate(351.615234 0)"/>
    <use xlink:href="#DejaVuSans-75" transform="translate(412.894531 0)"/>
    <use xlink:href="#DejaVuSans-20" transform="translate(476.273438 0)"/>
    <use xlink:href="#DejaVuSans-6e" transform="translate(508.060547 0)"/>
    <use xlink:href="#DejaVuSans-6f" transform="translate(571.439453 0)"/>
    <use xlink:href="#DejaVuSans-2e" transform="translate(630.871094 0)"/>
    <use xlink:href="#DejaVuSans-20" transform="translate(662.658203 0)"/>
    <use xlink:href="#DejaVuSans-49" transform="translate(694.445312 0)"/>
    <use xlink:href="#DejaVuSans-49" transform="translate(723.9375 0)"/>
    <use xlink:href="#DejaVuSans-20" transform="translate(753.429688 0)"/>
    <use xlink:href="#DejaVuSans-ab" transform="translate(785.216797 0)"/>
    <use xlink:href="#DejaVuSans-20" transform="translate(846.398438 0)"/>
    <use xlink:href="#DejaVuSans-28" transform="translate(878.185547 0)"/>
    <use xlink:href="#DejaVuSans-62" transform="translate(917.199219 0)"/>
    <use xlink:href="#DejaVuSans-31" transform="translate(980.675781 0)"/>
    <use xlink:href="#DejaVuSans-32" transform="translate(1044.298828 0)"/>
    <use xlink:href="#DejaVuSans-31" transform="translate(1107.921875 0)"/>
    <use xlink:href="#DejaVuSans-29" transform="translate(1171.544922 0)"/>
   </g>
  </g>
 </g>
 <defs>
  <clipPath id="p521ad130b0">
   <rect x="38.628" y="25.92" width="144.144" height="166.32"/>
  </clipPath>
 </defs>
</svg>
