<?xml version="1.0" encoding="utf-8" standalone="no"?>
<!DOCTYPE svg PUBLIC "-//W3C//DTD SVG 1.1//EN"
  "http://www.w3.org/Graphics/SVG/1.1/DTD/svg11.dtd">
<svg xmlns:xlink="http://www.w3.org/1999/xlink" width="216pt" height="216pt" viewBox="0 0 216 216" xmlns="http://www.w3.org/2000/svg" version="1.1">
 <metadata>
  <rdf:RDF xmlns:dc="http://purl.org/dc/elements/1.1/" xmlns:cc="http://creativecommons.org/ns#" xmlns:rdf="http://www.w3.org/1999/02/22-rdf-syntax-ns#">
   <cc:Work>
    <dc:type rdf:resource="http://purl.org/dc/dcmitype/StillImage"/>
    <dc:date>2026-01-21T11:50:05.252814</dc:date>
    <dc:format>image/svg+xml</dc:format>
    <dc:creator>
     <cc:Agent>
      <dc:title>Matplotlib v3.10.8, https://matplotlib.org/</dc:title>
     </cc:Agent>
    </dc:creator>
   </cc:Work>
  </rdf:RDF>
 </metadata>
 <defs>
  <style type="text/css">*{stroke-linejoin: round; stroke-linecap: butt}</style>
 </defs>
 <g id="figure_1">
  <g id="patch_1">
   <path d="M 0 216 
L 216 216 
L 216 0 
L 0 0 
z
" style="fill: #ffffff; stroke: #000000; stroke-width: 10; stroke-linejoin: miter"/>
  </g>
  <g id="axes_1">
   <g id="patch_2">
    <path d="M 27.54 192.24 
L 95.748 192.24 
L 95.748 153.6 
L 27.54 153.6 
z
" clip-path="url(#p3c495270f7)" style="fill: #a3b4bf"/>
   </g>
   <g id="patch_3">
    <path d="M 101.124 192.24 
L 193.86 192.24 
L 193.86 189.216 
L 101.124 189.216 
z
" clip-path="url(#p3c495270f7)" style="fill: #c1381e"/>
   </g>
   <g id="patch_4">
    <path d="M 101.124 183.84 
L 193.86 183.84 
L 193.86 86.4 
L 101.124 86.4 
z
" clip-path="url(#p3c495270f7)" style="fill: #c64026"/>
   </g>
   <g id="patch_5">
    <path d="M 27.54 148.224 
L 43.332 148.224 
L 43.332 86.4 
L 27.54 86.4 
z
" clip-path="url(#p3c495270f7)" style="fill: #0d284c"/>
   </g>
   <g id="patch_6">
    <path d="M 48.708 148.224 
L 95.748 148.224 
L 95.748 86.4 
L 48.708 86.4 
z
" clip-path="url(#p3c495270f7)" style="fill: #6c8fb1"/>
   </g>
   <g id="patch_7">
    <path d="M 27.54 81.024 
L 43.332 81.024 
L 43.332 69.6 
L 27.54 69.6 
z
" clip-path="url(#p3c495270f7)" style="fill: #0d2747"/>
   </g>
   <g id="patch_8">
    <path d="M 48.708 81.024 
L 95.748 81.024 
L 95.748 53.136 
L 48.708 53.136 
z
" clip-path="url(#p3c495270f7)" style="fill: #688eb0"/>
   </g>
   <g id="patch_9">
    <path d="M 101.124 81.024 
L 149.172 81.024 
L 149.172 53.136 
L 101.124 53.136 
z
" clip-path="url(#p3c495270f7)" style="fill: #a3b6c1"/>
   </g>
   <g id="patch_10">
    <path d="M 154.548 81.024 
L 193.86 81.024 
L 193.86 25.92 
L 154.548 25.92 
z
" clip-path="url(#p3c495270f7)" style="fill: #688caf"/>
   </g>
   <g id="patch_11">
    <path d="M 27.54 64.224 
L 43.332 64.224 
L 43.332 25.92 
L 27.54 25.92 
z
" clip-path="url(#p3c495270f7)" style="fill: #9bacbb"/>
   </g>
   <g id="patch_12">
    <path d="M 48.708 47.76 
L 95.748 47.76 
L 95.748 25.92 
L 48.708 25.92 
z
" clip-path="url(#p3c495270f7)" style="fill: #0a0a0a"/>
   </g>
   <g id="patch_13">
    <path d="M 101.124 47.76 
L 149.172 47.76 
L 149.172 25.92 
L 101.124 25.92 
z
" clip-path="url(#p3c495270f7)" style="fill: #b1be7a"/>
   </g>
   <g id="patch_14">
    <path d="M 95.748 192.24 
L 101.124 192.24 
L 101.124 25.92 
L 95.748 25.92 
z
" clip-path="url(#p3c495270f7)"/>
   </g>
   <g id="patch_15">
    <path d="M 43.332 148.224 
L 48.708 148.224 
L 48.708 27.6 
L 43.332 27.6 
z
" clip-path="url(#p3c495270f7)"/>
   </g>
   <g id="patch_16">
    <path d="M 149.172 81.024 
L 154.548 81.024 
L 154.548 29.952 
L 149.172 29.952 
z
" clip-path="url(#p3c495270f7)"/>
   </g>
   <g id="patch_17">
    <path d="M 101.124 189.216 
L 191.508 189.216 
L 191.508 183.84 
L 101.124 183.84 
z
" clip-path="url(#p3c495270f7)"/>
   </g>
   <g id="patch_18">
    <path d="M 28.548 153.6 
L 95.748 153.6 
L 95.748 148.224 
L 28.548 148.224 
z
" clip-path="url(#p3c495270f7)"/>
   </g>
   <g id="patch_19">
    <path d="M 29.22 86.4 
L 191.844 86.4 
L 191.844 81.024 
L 29.22 81.024 
z
" clip-path="url(#p3c495270f7)"/>
   </g>
   <g id="patch_20">
    <path d="M 31.572 69.6 
L 43.332 69.6 
L 43.332 64.224 
L 31.572 64.224 
z
" clip-path="url(#p3c495270f7)"/>
   </g>
   <g id="patch_21">
    <path d="M 48.708 53.136 
L 149.172 53.136 
L 149.172 47.76 
L 48.708 47.76 
z
" clip-path="url(#p3c495270f7)"/>
   </g>
   <g id="patch_22">
    <path d="M 191.508 189.216 
L 193.86 189.216 
L 193.86 183.84 
L 191.508 183.84 
z
" clip-path="url(#p3c495270f7)" style="fill: #c1381e"/>
   </g>
   <g id="patch_23">
    <path d="M 27.54 153.6 
L 28.548 153.6 
L 28.548 148.224 
L 27.54 148.224 
z
" clip-path="url(#p3c495270f7)" style="fill: #a3b4bf"/>
   </g>
   <g id="patch_24">
    <path d="M 27.54 86.4 
L 29.22 86.4 
L 29.22 81.024 
L 27.54 81.024 
z
" clip-path="url(#p3c495270f7)" style="fill: #0d284c"/>
   </g>
   <g id="patch_25">
    <path d="M 191.844 86.4 
L 193.86 86.4 
L 193.86 81.024 
L 191.844 81.024 
z
" clip-path="url(#p3c495270f7)" style="fill: #688caf"/>
   </g>
   <g id="patch_26">
    <path d="M 27.54 69.6 
L 31.572 69.6 
L 31.572 64.224 
L 27.54 64.224 
z
" clip-path="url(#p3c495270f7)" style="fill: #0d2747"/>
   </g>
   <g id="patch_27">
    <path d="M 149.172 29.952 
L 154.548 29.952 
L 154.548 25.92 
L 149.172 25.92 
z
" clip-path="url(#p3c495270f7)" style="fill: #688caf"/>
   </g>
   <g id="patch_28">
    <path d="M 43.332 27.6 
L 46.02 27.6 
L 46.02 25.92 
L 43.332 25.92 
z
" clip-path="url(#p3c495270f7)" style="fill: #9bacbb"/>
   </g>
   <g id="patch_29">
    <path d="M 46.02 27.6 
L 48.708 27.6 
L 48.708 25.92 
L 46.02 25.92 
z
" clip-path="url(#p3c495270f7)" style="fill: #0a0a0a"/>
   </g>
  </g>
  <g id="text_1">
   <!-- » Tableau « (b122) -->
   <g transform="translate(10.8 205.2) scale(0.12 -0.12)">
    <defs>
     <path id="DejaVuSans-bb" d="M 603 3309 
L 2069 2003 
L 2069 1747 
L 603 441 
L 603 1038 
L 1544 1875 
L 603 2713 
L 603 3309 
z
M 1959 3309 
L 3425 2003 
L 3425 1747 
L 1959 441 
L 1959 1038 
L 2900 1875 
L 1959 2713 
L 1959 3309 
z
" transform="scale(0.015625)"/>
     <path id="DejaVuSans-20" transform="scale(0.015625)"/>
     <path id="DejaVuSans-54" d="M -19 4666 
L 3928 4666 
L 3928 4134 
L 2272 4134 
L 2272 0 
L 1638 0 
L 1638 4134 
L -19 4134 
L -19 4666 
z
" transform="scale(0.015625)"/>
     <path id="DejaVuSans-61" d="M 2194 1759 
Q 1497 1759 1228 1600 
Q 959 1441 959 1056 
Q 959 750 1161 570 
Q 1363 391 1709 391 
Q 2188 391 2477 730 
Q 2766 1069 2766 1631 
L 2766 1759 
L 2194 1759 
z
M 3341 1997 
L 3341 0 
L 2766 0 
L 2766 531 
Q 2569 213 2275 61 
Q 1981 -91 1556 -91 
Q 1019 -91 701 211 
Q 384 513 384 1019 
Q 384 1609 779 1909 
Q 1175 2209 1959 2209 
L 2766 2209 
L 2766 2266 
Q 2766 2663 2505 2880 
Q 2244 3097 1772 3097 
Q 1472 3097 1187 3025 
Q 903 2953 641 2809 
L 641 3341 
Q 956 3463 1253 3523 
Q 1550 3584 1831 3584 
Q 2591 3584 2966 3190 
Q 3341 2797 3341 1997 
z
" transform="scale(0.015625)"/>
     <path id="DejaVuSans-62" d="M 3116 1747 
Q 3116 2381 2855 2742 
Q 2594 3103 2138 3103 
Q 1681 3103 1420 2742 
Q 1159 2381 1159 1747 
Q 1159 1113 1420 752 
Q 1681 391 2138 391 
Q 2594 391 2855 752 
Q 3116 1113 3116 1747 
z
M 1159 2969 
Q 1341 3281 1617 3432 
Q 1894 3584 2278 3584 
Q 2916 3584 3314 3078 
Q 3713 2572 3713 1747 
Q 3713 922 3314 415 
Q 2916 -91 2278 -91 
Q 1894 -91 1617 61 
Q 1341 213 1159 525 
L 1159 0 
L 581 0 
L 581 4863 
L 1159 4863 
L 1159 2969 
z
" transform="scale(0.015625)"/>
     <path id="DejaVuSans-6c" d="M 603 4863 
L 1178 4863 
L 1178 0 
L 603 0 
L 603 4863 
z
" transform="scale(0.015625)"/>
     <path id="DejaVuSans-65" d="M 3597 1894 
L 3597 1613 
L 953 1613 
Q 991 1019 1311 708 
Q 1631 397 2203 397 
Q 2534 397 2845 478 
Q 3156 559 3463 722 
L 3463 178 
Q 3153 47 2828 -22 
Q 2503 -91 2169 -91 
Q 1331 -91 842 396 
Q 353 884 353 1716 
Q 353 2575 817 3079 
Q 1281 3584 2069 3584 
Q 2775 3584 3186 3129 
Q 3597 2675 3597 1894 
z
M 3022 2063 
Q 3016 2534 2758 2815 
Q 2500 3097 2075 3097 
Q 1594 3097 1305 2825 
Q 1016 2553 972 2059 
L 3022 2063 
z
" transform="scale(0.015625)"/>
     <path id="DejaVuSans-75" d="M 544 1381 
L 544 3500 
L 1119 3500 
L 1119 1403 
Q 1119 906 1312 657 
Q 1506 409 1894 409 
Q 2359 409 2629 706 
Q 2900 1003 2900 1516 
L 2900 3500 
L 3475 3500 
L 3475 0 
L 2900 0 
L 2900 538 
Q 2691 219 2414 64 
Q 2138 -91 1772 -91 
Q 1169 -91 856 284 
Q 544 659 544 1381 
z
M 1991 3584 
L 1991 3584 
z
" transform="scale(0.015625)"/>
     <path id="DejaVuSans-ab" d="M 3316 3309 
L 3316 2713 
L 2375 1875 
L 3316 1038 
L 3316 441 
L 1850 1747 
L 1850 2003 
L 3316 3309 
z
M 1959 3309 
L 1959 2713 
L 1019 1875 
L 1959 1038 
L 1959 441 
L 494 1747 
L 494 2003 
L 1959 3309 
z
" transform="scale(0.015625)"/>
     <path id="DejaVuSans-28" d="M 1984 4856 
Q 1566 4138 1362 3434 
Q 1159 2731 1159 2009 
Q 1159 1288 1364 580 
Q 1569 -128 1984 -844 
L 1484 -844 
Q 1016 -109 783 600 
Q 550 1309 550 2009 
Q 550 2706 781 3412 
Q 1013 4119 1484 4856 
L 1984 4856 
z
" transform="scale(0.015625)"/>
     <path id="DejaVuSans-31" d="M 794 531 
L 1825 531 
L 1825 4091 
L 703 3866 
L 703 4441 
L 1819 4666 
L 2450 4666 
L 2450 531 
L 3481 531 
L 3481 0 
L 794 0 
L 794 531 
z
" transform="scale(0.015625)"/>
     <path id="DejaVuSans-32" d="M 1228 531 
L 3431 531 
L 3431 0 
L 469 0 
L 469 531 
Q 828 903 1448 1529 
Q 2069 2156 2228 2338 
Q 2531 2678 2651 2914 
Q 2772 3150 2772 3378 
Q 2772 3750 2511 3984 
Q 2250 4219 1831 4219 
Q 1534 4219 1204 4116 
Q 875 4013 500 3803 
L 500 4441 
Q 881 4594 1212 4672 
Q 1544 4750 1819 4750 
Q 2544 4750 2975 4387 
Q 3406 4025 3406 3419 
Q 3406 3131 3298 2873 
Q 3191 2616 2906 2266 
Q 2828 2175 2409 1742 
Q 1991 1309 1228 531 
z
" transform="scale(0.015625)"/>
     <path id="DejaVuSans-29" d="M 513 4856 
L 1013 4856 
Q 1481 4119 1714 3412 
Q 1947 2706 1947 2009 
Q 1947 1309 1714 600 
Q 1481 -109 1013 -844 
L 513 -844 
Q 928 -128 1133 580 
Q 1338 1288 1338 2009 
Q 1338 2731 1133 3434 
Q 928 4138 513 4856 
z
" transform="scale(0.015625)"/>
    </defs>
    <use xlink:href="#DejaVuSans-bb"/>
    <use xlink:href="#DejaVuSans-20" transform="translate(61.181641 0)"/>
    <use xlink:href="#DejaVuSans-54" transform="translate(92.96875 0)"/>
    <use xlink:href="#DejaVuSans-61" transform="translate(137.552734 0)"/>
    <use xlink:href="#DejaVuSans-62" transform="translate(198.832031 0)"/>
    <use xlink:href="#DejaVuSans-6c" transform="translate(262.308594 0)"/>
    <use xlink:href="#DejaVuSans-65" transform="translate(290.091797 0)"/>
    <use xlink:href="#DejaVuSans-61" transform="translate(351.615234 0)"/>
    <use xlink:href="#DejaVuSans-75" transform="translate(412.894531 0)"/>
    <use xlink:href="#DejaVuSans-20" transform="translate(476.273438 0)"/>
    <use xlink:href="#DejaVuSans-ab" transform="translate(508.060547 0)"/>
    <use xlink:href="#DejaVuSans-20" transform="translate(569.242188 0)"/>
    <use xlink:href="#DejaVuSans-28" transform="translate(601.029297 0)"/>
    <use xlink:href="#DejaVuSans-62" transform="translate(640.042969 0)"/>
    <use xlink:href="#DejaVuSans-31" transform="translate(703.519531 0)"/>
    <use xlink:href="#DejaVuSans-32" transform="translate(767.142578 0)"/>
    <use xlink:href="#DejaVuSans-32" transform="translate(830.765625 0)"/>
    <use xlink:href="#DejaVuSans-29" transform="translate(894.388672 0)"/>
   </g>
  </g>
 </g>
 <defs>
  <clipPath id="p3c495270f7">
   <rect x="27.54" y="25.92" width="166.32" height="166.32"/>
  </clipPath>
 </defs>
</svg>
