<?xml version="1.0" encoding="utf-8" standalone="no"?>
<!DOCTYPE svg PUBLIC "-//W3C//DTD SVG 1.1//EN"
  "http://www.w3.org/Graphics/SVG/1.1/DTD/svg11.dtd">
<svg xmlns:xlink="http://www.w3.org/1999/xlink" width="216pt" height="216pt" viewBox="0 0 216 216" xmlns="http://www.w3.org/2000/svg" version="1.1">
 <metadata>
  <rdf:RDF xmlns:dc="http://purl.org/dc/elements/1.1/" xmlns:cc="http://creativecommons.org/ns#" xmlns:rdf="http://www.w3.org/1999/02/22-rdf-syntax-ns#">
   <cc:Work>
    <dc:type rdf:resource="http://purl.org/dc/dcmitype/StillImage"/>
    <dc:date>2026-01-21T11:50:05.336425</dc:date>
    <dc:format>image/svg+xml</dc:format>
    <dc:creator>
     <cc:Agent>
      <dc:title>Matplotlib v3.10.8, https://matplotlib.org/</dc:title>
     </cc:Agent>
    </dc:creator>
   </cc:Work>
  </rdf:RDF>
 </metadata>
 <defs>
  <style type="text/css">*{stroke-linejoin: round; stroke-linecap: butt}</style>
 </defs>
 <g id="figure_1">
  <g id="patch_1">
   <path d="M 0 216 
L 216 216 
L 216 0 
L 0 0 
z
" style="fill: #ffffff; stroke: #000000; stroke-width: 10; stroke-linejoin: miter"/>
  </g>
  <g id="axes_1">
   <g id="patch_2">
    <path d="M 29.962136 192.24 
L 101.657359 192.24 
L 101.657359 188.687534 
L 29.962136 188.687534 
z
" clip-path="url(#p3c9311fa2a)" style="fill: #ce251b"/>
   </g>
   <g id="patch_3">
    <path d="M 104.402447 192.24 
L 164.148466 192.24 
L 164.148466 105.68901 
L 104.402447 105.68901 
z
" clip-path="url(#p3c9311fa2a)" style="fill: #cedcec"/>
   </g>
   <g id="patch_4">
    <path d="M 166.893553 192.24 
L 191.437864 192.24 
L 191.437864 179.644893 
L 166.893553 179.644893 
z
" clip-path="url(#p3c9311fa2a)" style="fill: #000100"/>
   </g>
   <g id="patch_5">
    <path d="M 29.962136 185.942447 
L 101.657359 185.942447 
L 101.657359 105.68901 
L 29.962136 105.68901 
z
" clip-path="url(#p3c9311fa2a)" style="fill: #d9e4ee"/>
   </g>
   <g id="patch_6">
    <path d="M 166.893553 176.899806 
L 191.437864 176.899806 
L 191.437864 127.003806 
L 166.893553 127.003806 
z
" clip-path="url(#p3c9311fa2a)" style="fill: #d0ddee"/>
   </g>
   <g id="patch_7">
    <path d="M 166.893553 124.258718 
L 191.437864 124.258718 
L 191.437864 105.68901 
L 166.893553 105.68901 
z
" clip-path="url(#p3c9311fa2a)" style="fill: #d5e2f2"/>
   </g>
   <g id="patch_8">
    <path d="M 29.962136 102.943922 
L 43.849049 102.943922 
L 43.849049 25.92 
L 29.962136 25.92 
z
" clip-path="url(#p3c9311fa2a)" style="fill: #ccdaea"/>
   </g>
   <g id="patch_9">
    <path d="M 46.594136 102.943922 
L 101.657359 102.943922 
L 101.657359 60.475806 
L 46.594136 60.475806 
z
" clip-path="url(#p3c9311fa2a)" style="fill: #26498a"/>
   </g>
   <g id="patch_10">
    <path d="M 104.402447 102.943922 
L 164.148466 102.943922 
L 164.148466 33.347883 
L 104.402447 33.347883 
z
" clip-path="url(#p3c9311fa2a)" style="fill: #d9e4ef"/>
   </g>
   <g id="patch_11">
    <path d="M 166.893553 102.943922 
L 191.437864 102.943922 
L 191.437864 25.92 
L 166.893553 25.92 
z
" clip-path="url(#p3c9311fa2a)" style="fill: #ebe44c"/>
   </g>
   <g id="patch_12">
    <path d="M 46.594136 57.730718 
L 101.657359 57.730718 
L 101.657359 33.347883 
L 46.594136 33.347883 
z
" clip-path="url(#p3c9311fa2a)" style="fill: #ccdaeb"/>
   </g>
   <g id="patch_13">
    <path d="M 46.594136 30.602796 
L 147.193515 30.602796 
L 147.193515 25.92 
L 46.594136 25.92 
z
" clip-path="url(#p3c9311fa2a)" style="fill: #c6d8e9"/>
   </g>
   <g id="patch_14">
    <path d="M 149.938602 30.602796 
L 164.148466 30.602796 
L 164.148466 25.92 
L 149.938602 25.92 
z
" clip-path="url(#p3c9311fa2a)" style="fill: #030101"/>
   </g>
   <g id="patch_15">
    <path d="M 101.657359 192.24 
L 104.402447 192.24 
L 104.402447 33.347883 
L 101.657359 33.347883 
z
" clip-path="url(#p3c9311fa2a)"/>
   </g>
   <g id="patch_16">
    <path d="M 164.148466 192.24 
L 166.893553 192.24 
L 166.893553 25.92 
L 164.148466 25.92 
z
" clip-path="url(#p3c9311fa2a)"/>
   </g>
   <g id="patch_17">
    <path d="M 43.849049 102.943922 
L 46.594136 102.943922 
L 46.594136 26.888854 
L 43.849049 26.888854 
z
" clip-path="url(#p3c9311fa2a)"/>
   </g>
   <g id="patch_18">
    <path d="M 147.193515 30.602796 
L 149.938602 30.602796 
L 149.938602 25.92 
L 147.193515 25.92 
z
" clip-path="url(#p3c9311fa2a)"/>
   </g>
   <g id="patch_19">
    <path d="M 29.962136 188.687534 
L 101.657359 188.687534 
L 101.657359 185.942447 
L 29.962136 185.942447 
z
" clip-path="url(#p3c9311fa2a)"/>
   </g>
   <g id="patch_20">
    <path d="M 166.893553 179.644893 
L 191.437864 179.644893 
L 191.437864 176.899806 
L 166.893553 176.899806 
z
" clip-path="url(#p3c9311fa2a)"/>
   </g>
   <g id="patch_21">
    <path d="M 166.893553 127.003806 
L 190.791961 127.003806 
L 190.791961 124.258718 
L 166.893553 124.258718 
z
" clip-path="url(#p3c9311fa2a)"/>
   </g>
   <g id="patch_22">
    <path d="M 29.962136 105.68901 
L 191.437864 105.68901 
L 191.437864 102.943922 
L 29.962136 102.943922 
z
" clip-path="url(#p3c9311fa2a)"/>
   </g>
   <g id="patch_23">
    <path d="M 46.594136 60.475806 
L 101.657359 60.475806 
L 101.657359 57.730718 
L 46.594136 57.730718 
z
" clip-path="url(#p3c9311fa2a)"/>
   </g>
   <g id="patch_24">
    <path d="M 46.594136 33.347883 
L 164.148466 33.347883 
L 164.148466 30.602796 
L 46.594136 30.602796 
z
" clip-path="url(#p3c9311fa2a)"/>
   </g>
   <g id="patch_25">
    <path d="M 43.849049 26.888854 
L 46.594136 26.888854 
L 46.594136 25.92 
L 43.849049 25.92 
z
" clip-path="url(#p3c9311fa2a)" style="fill: #c9d9ea"/>
   </g>
   <g id="patch_26">
    <path d="M 190.791961 127.003806 
L 191.437864 127.003806 
L 191.437864 124.258718 
L 190.791961 124.258718 
z
" clip-path="url(#p3c9311fa2a)" style="fill: #d3e0f0"/>
   </g>
  </g>
  <g id="text_1">
   <!-- » Tableau I « (b128) -->
   <g transform="translate(10.8 205.2) scale(0.12 -0.12)">
    <defs>
     <path id="DejaVuSans-bb" d="M 603 3309 
L 2069 2003 
L 2069 1747 
L 603 441 
L 603 1038 
L 1544 1875 
L 603 2713 
L 603 3309 
z
M 1959 3309 
L 3425 2003 
L 3425 1747 
L 1959 441 
L 1959 1038 
L 2900 1875 
L 1959 2713 
L 1959 3309 
z
" transform="scale(0.015625)"/>
     <path id="DejaVuSans-20" transform="scale(0.015625)"/>
     <path id="DejaVuSans-54" d="M -19 4666 
L 3928 4666 
L 3928 4134 
L 2272 4134 
L 2272 0 
L 1638 0 
L 1638 4134 
L -19 4134 
L -19 4666 
z
" transform="scale(0.015625)"/>
     <path id="DejaVuSans-61" d="M 2194 1759 
Q 1497 1759 1228 1600 
Q 959 1441 959 1056 
Q 959 750 1161 570 
Q 1363 391 1709 391 
Q 2188 391 2477 730 
Q 2766 1069 2766 1631 
L 2766 1759 
L 2194 1759 
z
M 3341 1997 
L 3341 0 
L 2766 0 
L 2766 531 
Q 2569 213 2275 61 
Q 1981 -91 1556 -91 
Q 1019 -91 701 211 
Q 384 513 384 1019 
Q 384 1609 779 1909 
Q 1175 2209 1959 2209 
L 2766 2209 
L 2766 2266 
Q 2766 2663 2505 2880 
Q 2244 3097 1772 3097 
Q 1472 3097 1187 3025 
Q 903 2953 641 2809 
L 641 3341 
Q 956 3463 1253 3523 
Q 1550 3584 1831 3584 
Q 2591 3584 2966 3190 
Q 3341 2797 3341 1997 
z
" transform="scale(0.015625)"/>
     <path id="DejaVuSans-62" d="M 3116 1747 
Q 3116 2381 2855 2742 
Q 2594 3103 2138 3103 
Q 1681 3103 1420 2742 
Q 1159 2381 1159 1747 
Q 1159 1113 1420 752 
Q 1681 391 2138 391 
Q 2594 391 2855 752 
Q 3116 1113 3116 1747 
z
M 1159 2969 
Q 1341 3281 1617 3432 
Q 1894 3584 2278 3584 
Q 2916 3584 3314 3078 
Q 3713 2572 3713 1747 
Q 3713 922 3314 415 
Q 2916 -91 2278 -91 
Q 1894 -91 1617 61 
Q 1341 213 1159 525 
L 1159 0 
L 581 0 
L 581 4863 
L 1159 4863 
L 1159 2969 
z
" transform="scale(0.015625)"/>
     <path id="DejaVuSans-6c" d="M 603 4863 
L 1178 4863 
L 1178 0 
L 603 0 
L 603 4863 
z
" transform="scale(0.015625)"/>
     <path id="DejaVuSans-65" d="M 3597 1894 
L 3597 1613 
L 953 1613 
Q 991 1019 1311 708 
Q 1631 397 2203 397 
Q 2534 397 2845 478 
Q 3156 559 3463 722 
L 3463 178 
Q 3153 47 2828 -22 
Q 2503 -91 2169 -91 
Q 1331 -91 842 396 
Q 353 884 353 1716 
Q 353 2575 817 3079 
Q 1281 3584 2069 3584 
Q 2775 3584 3186 3129 
Q 3597 2675 3597 1894 
z
M 3022 2063 
Q 3016 2534 2758 2815 
Q 2500 3097 2075 3097 
Q 1594 3097 1305 2825 
Q 1016 2553 972 2059 
L 3022 2063 
z
" transform="scale(0.015625)"/>
     <path id="DejaVuSans-75" d="M 544 1381 
L 544 3500 
L 1119 3500 
L 1119 1403 
Q 1119 906 1312 657 
Q 1506 409 1894 409 
Q 2359 409 2629 706 
Q 2900 1003 2900 1516 
L 2900 3500 
L 3475 3500 
L 3475 0 
L 2900 0 
L 2900 538 
Q 2691 219 2414 64 
Q 2138 -91 1772 -91 
Q 1169 -91 856 284 
Q 544 659 544 1381 
z
M 1991 3584 
L 1991 3584 
z
" transform="scale(0.015625)"/>
     <path id="DejaVuSans-49" d="M 628 4666 
L 1259 4666 
L 1259 0 
L 628 0 
L 628 4666 
z
" transform="scale(0.015625)"/>
     <path id="DejaVuSans-ab" d="M 3316 3309 
L 3316 2713 
L 2375 1875 
L 3316 1038 
L 3316 441 
L 1850 1747 
L 1850 2003 
L 3316 3309 
z
M 1959 3309 
L 1959 2713 
L 1019 1875 
L 1959 1038 
L 1959 441 
L 494 1747 
L 494 2003 
L 1959 3309 
z
" transform="scale(0.015625)"/>
     <path id="DejaVuSans-28" d="M 1984 4856 
Q 1566 4138 1362 3434 
Q 1159 2731 1159 2009 
Q 1159 1288 1364 580 
Q 1569 -128 1984 -844 
L 1484 -844 
Q 1016 -109 783 600 
Q 550 1309 550 2009 
Q 550 2706 781 3412 
Q 1013 4119 1484 4856 
L 1984 4856 
z
" transform="scale(0.015625)"/>
     <path id="DejaVuSans-31" d="M 794 531 
L 1825 531 
L 1825 4091 
L 703 3866 
L 703 4441 
L 1819 4666 
L 2450 4666 
L 2450 531 
L 3481 531 
L 3481 0 
L 794 0 
L 794 531 
z
" transform="scale(0.015625)"/>
     <path id="DejaVuSans-32" d="M 1228 531 
L 3431 531 
L 3431 0 
L 469 0 
L 469 531 
Q 828 903 1448 1529 
Q 2069 2156 2228 2338 
Q 2531 2678 2651 2914 
Q 2772 3150 2772 3378 
Q 2772 3750 2511 3984 
Q 2250 4219 1831 4219 
Q 1534 4219 1204 4116 
Q 875 4013 500 3803 
L 500 4441 
Q 881 4594 1212 4672 
Q 1544 4750 1819 4750 
Q 2544 4750 2975 4387 
Q 3406 4025 3406 3419 
Q 3406 3131 3298 2873 
Q 3191 2616 2906 2266 
Q 2828 2175 2409 1742 
Q 1991 1309 1228 531 
z
" transform="scale(0.015625)"/>
     <path id="DejaVuSans-38" d="M 2034 2216 
Q 1584 2216 1326 1975 
Q 1069 1734 1069 1313 
Q 1069 891 1326 650 
Q 1584 409 2034 409 
Q 2484 409 2743 651 
Q 3003 894 3003 1313 
Q 3003 1734 2745 1975 
Q 2488 2216 2034 2216 
z
M 1403 2484 
Q 997 2584 770 2862 
Q 544 3141 544 3541 
Q 544 4100 942 4425 
Q 1341 4750 2034 4750 
Q 2731 4750 3128 4425 
Q 3525 4100 3525 3541 
Q 3525 3141 3298 2862 
Q 3072 2584 2669 2484 
Q 3125 2378 3379 2068 
Q 3634 1759 3634 1313 
Q 3634 634 3220 271 
Q 2806 -91 2034 -91 
Q 1263 -91 848 271 
Q 434 634 434 1313 
Q 434 1759 690 2068 
Q 947 2378 1403 2484 
z
M 1172 3481 
Q 1172 3119 1398 2916 
Q 1625 2713 2034 2713 
Q 2441 2713 2670 2916 
Q 2900 3119 2900 3481 
Q 2900 3844 2670 4047 
Q 2441 4250 2034 4250 
Q 1625 4250 1398 4047 
Q 1172 3844 1172 3481 
z
" transform="scale(0.015625)"/>
     <path id="DejaVuSans-29" d="M 513 4856 
L 1013 4856 
Q 1481 4119 1714 3412 
Q 1947 2706 1947 2009 
Q 1947 1309 1714 600 
Q 1481 -109 1013 -844 
L 513 -844 
Q 928 -128 1133 580 
Q 1338 1288 1338 2009 
Q 1338 2731 1133 3434 
Q 928 4138 513 4856 
z
" transform="scale(0.015625)"/>
    </defs>
    <use xlink:href="#DejaVuSans-bb"/>
    <use xlink:href="#DejaVuSans-20" transform="translate(61.181641 0)"/>
    <use xlink:href="#DejaVuSans-54" transform="translate(92.96875 0)"/>
    <use xlink:href="#DejaVuSans-61" transform="translate(137.552734 0)"/>
    <use xlink:href="#DejaVuSans-62" transform="translate(198.832031 0)"/>
    <use xlink:href="#DejaVuSans-6c" transform="translate(262.308594 0)"/>
    <use xlink:href="#DejaVuSans-65" transform="translate(290.091797 0)"/>
    <use xlink:href="#DejaVuSans-61" transform="translate(351.615234 0)"/>
    <use xlink:href="#DejaVuSans-75" transform="translate(412.894531 0)"/>
    <use xlink:href="#DejaVuSans-20" transform="translate(476.273438 0)"/>
    <use xlink:href="#DejaVuSans-49" transform="translate(508.060547 0)"/>
    <use xlink:href="#DejaVuSans-20" transform="translate(537.552734 0)"/>
    <use xlink:href="#DejaVuSans-ab" transform="translate(569.339844 0)"/>
    <use xlink:href="#DejaVuSans-20" transform="translate(630.521484 0)"/>
    <use xlink:href="#DejaVuSans-28" transform="translate(662.308594 0)"/>
    <use xlink:href="#DejaVuSans-62" transform="translate(701.322266 0)"/>
    <use xlink:href="#DejaVuSans-31" transform="translate(764.798828 0)"/>
    <use xlink:href="#DejaVuSans-32" transform="translate(828.421875 0)"/>
    <use xlink:href="#DejaVuSans-38" transform="translate(892.044922 0)"/>
    <use xlink:href="#DejaVuSans-29" transform="translate(955.667969 0)"/>
   </g>
  </g>
 </g>
 <defs>
  <clipPath id="p3c9311fa2a">
   <rect x="29.962136" y="25.92" width="161.475728" height="166.32"/>
  </clipPath>
 </defs>
</svg>
