<?xml version="1.0" encoding="utf-8" standalone="no"?>
<!DOCTYPE svg PUBLIC "-//W3C//DTD SVG 1.1//EN"
  "http://www.w3.org/Graphics/SVG/1.1/DTD/svg11.dtd">
<svg xmlns:xlink="http://www.w3.org/1999/xlink" width="216pt" height="216pt" viewBox="0 0 216 216" xmlns="http://www.w3.org/2000/svg" version="1.1">
 <metadata>
  <rdf:RDF xmlns:dc="http://purl.org/dc/elements/1.1/" xmlns:cc="http://creativecommons.org/ns#" xmlns:rdf="http://www.w3.org/1999/02/22-rdf-syntax-ns#">
   <cc:Work>
    <dc:type rdf:resource="http://purl.org/dc/dcmitype/StillImage"/>
    <dc:date>2026-01-21T11:50:05.452069</dc:date>
    <dc:format>image/svg+xml</dc:format>
    <dc:creator>
     <cc:Agent>
      <dc:title>Matplotlib v3.10.8, https://matplotlib.org/</dc:title>
     </cc:Agent>
    </dc:creator>
   </cc:Work>
  </rdf:RDF>
 </metadata>
 <defs>
  <style type="text/css">*{stroke-linejoin: round; stroke-linecap: butt}</style>
 </defs>
 <g id="figure_1">
  <g id="patch_1">
   <path d="M 0 216 
L 216 216 
L 216 0 
L 0 0 
z
" style="fill: #ffffff; stroke: #000000; stroke-width: 10; stroke-linejoin: miter"/>
  </g>
  <g id="axes_1">
   <g id="patch_2">
    <path d="M 27.54 192.24 
L 98.192195 192.24 
L 98.192195 178.041951 
L 27.54 178.041951 
z
" clip-path="url(#p030daec133)" style="fill: #e0432b"/>
   </g>
   <g id="patch_3">
    <path d="M 149.913659 192.24 
L 193.86 192.24 
L 193.86 101.980976 
L 149.913659 101.980976 
z
" clip-path="url(#p030daec133)" style="fill: #f0eff0"/>
   </g>
   <g id="patch_4">
    <path d="M 102.924878 188.859512 
L 144.842927 188.859512 
L 144.842927 101.980976 
L 102.924878 101.980976 
z
" clip-path="url(#p030daec133)" style="fill: #f0eff0"/>
   </g>
   <g id="patch_5">
    <path d="M 27.54 172.633171 
L 98.192195 172.633171 
L 98.192195 101.980976 
L 27.54 101.980976 
z
" clip-path="url(#p030daec133)" style="fill: #f6f5f5"/>
   </g>
   <g id="patch_6">
    <path d="M 27.54 96.572195 
L 46.470732 96.572195 
L 46.470732 25.92 
L 27.54 25.92 
z
" clip-path="url(#p030daec133)" style="fill: #f0f0f2"/>
   </g>
   <g id="patch_7">
    <path d="M 51.203415 96.572195 
L 98.192195 96.572195 
L 98.192195 80.345854 
L 51.203415 80.345854 
z
" clip-path="url(#p030daec133)" style="fill: #121414"/>
   </g>
   <g id="patch_8">
    <path d="M 102.924878 96.572195 
L 144.842927 96.572195 
L 144.842927 44.174634 
L 102.924878 44.174634 
z
" clip-path="url(#p030daec133)" style="fill: #f8f8f9"/>
   </g>
   <g id="patch_9">
    <path d="M 149.913659 96.572195 
L 193.86 96.572195 
L 193.86 25.92 
L 149.913659 25.92 
z
" clip-path="url(#p030daec133)" style="fill: #223f7d"/>
   </g>
   <g id="patch_10">
    <path d="M 51.203415 74.937073 
L 98.192195 74.937073 
L 98.192195 44.174634 
L 51.203415 44.174634 
z
" clip-path="url(#p030daec133)" style="fill: #fefa43"/>
   </g>
   <g id="patch_11">
    <path d="M 51.203415 38.765854 
L 144.842927 38.765854 
L 144.842927 25.92 
L 51.203415 25.92 
z
" clip-path="url(#p030daec133)" style="fill: #f3f3f4"/>
   </g>
   <g id="patch_12">
    <path d="M 27.54 178.041951 
L 98.192195 178.041951 
L 98.192195 172.633171 
L 27.54 172.633171 
z
" clip-path="url(#p030daec133)"/>
   </g>
   <g id="patch_13">
    <path d="M 27.54 101.980976 
L 193.86 101.980976 
L 193.86 96.572195 
L 27.54 96.572195 
z
" clip-path="url(#p030daec133)"/>
   </g>
   <g id="patch_14">
    <path d="M 51.203415 80.345854 
L 98.192195 80.345854 
L 98.192195 74.937073 
L 51.203415 74.937073 
z
" clip-path="url(#p030daec133)"/>
   </g>
   <g id="patch_15">
    <path d="M 51.203415 44.174634 
L 144.842927 44.174634 
L 144.842927 38.765854 
L 51.203415 38.765854 
z
" clip-path="url(#p030daec133)"/>
   </g>
   <g id="patch_16">
    <path d="M 98.192195 192.24 
L 102.924878 192.24 
L 102.924878 44.174634 
L 98.192195 44.174634 
z
" clip-path="url(#p030daec133)"/>
   </g>
   <g id="patch_17">
    <path d="M 144.842927 192.24 
L 149.913659 192.24 
L 149.913659 25.92 
L 144.842927 25.92 
z
" clip-path="url(#p030daec133)"/>
   </g>
   <g id="patch_18">
    <path d="M 46.470732 96.572195 
L 51.203415 96.572195 
L 51.203415 27.272195 
L 46.470732 27.272195 
z
" clip-path="url(#p030daec133)"/>
   </g>
   <g id="patch_19">
    <path d="M 102.924878 192.24 
L 144.842927 192.24 
L 144.842927 188.859512 
L 102.924878 188.859512 
z
" clip-path="url(#p030daec133)"/>
   </g>
   <g id="patch_20">
    <path d="M 46.470732 27.272195 
L 51.203415 27.272195 
L 51.203415 25.92 
L 46.470732 25.92 
z
" clip-path="url(#p030daec133)" style="fill: #f2f2f3"/>
   </g>
  </g>
  <g id="text_1">
   <!-- » Tableau no. III « (b133) -->
   <g transform="translate(10.8 205.2) scale(0.12 -0.12)">
    <defs>
     <path id="DejaVuSans-bb" d="M 603 3309 
L 2069 2003 
L 2069 1747 
L 603 441 
L 603 1038 
L 1544 1875 
L 603 2713 
L 603 3309 
z
M 1959 3309 
L 3425 2003 
L 3425 1747 
L 1959 441 
L 1959 1038 
L 2900 1875 
L 1959 2713 
L 1959 3309 
z
" transform="scale(0.015625)"/>
     <path id="DejaVuSans-20" transform="scale(0.015625)"/>
     <path id="DejaVuSans-54" d="M -19 4666 
L 3928 4666 
L 3928 4134 
L 2272 4134 
L 2272 0 
L 1638 0 
L 1638 4134 
L -19 4134 
L -19 4666 
z
" transform="scale(0.015625)"/>
     <path id="DejaVuSans-61" d="M 2194 1759 
Q 1497 1759 1228 1600 
Q 959 1441 959 1056 
Q 959 750 1161 570 
Q 1363 391 1709 391 
Q 2188 391 2477 730 
Q 2766 1069 2766 1631 
L 2766 1759 
L 2194 1759 
z
M 3341 1997 
L 3341 0 
L 2766 0 
L 2766 531 
Q 2569 213 2275 61 
Q 1981 -91 1556 -91 
Q 1019 -91 701 211 
Q 384 513 384 1019 
Q 384 1609 779 1909 
Q 1175 2209 1959 2209 
L 2766 2209 
L 2766 2266 
Q 2766 2663 2505 2880 
Q 2244 3097 1772 3097 
Q 1472 3097 1187 3025 
Q 903 2953 641 2809 
L 641 3341 
Q 956 3463 1253 3523 
Q 1550 3584 1831 3584 
Q 2591 3584 2966 3190 
Q 3341 2797 3341 1997 
z
" transform="scale(0.015625)"/>
     <path id="DejaVuSans-62" d="M 3116 1747 
Q 3116 2381 2855 2742 
Q 2594 3103 2138 3103 
Q 1681 3103 1420 2742 
Q 1159 2381 1159 1747 
Q 1159 1113 1420 752 
Q 1681 391 2138 391 
Q 2594 391 2855 752 
Q 3116 1113 3116 1747 
z
M 1159 2969 
Q 1341 3281 1617 3432 
Q 1894 3584 2278 3584 
Q 2916 3584 3314 3078 
Q 3713 2572 3713 1747 
Q 3713 922 3314 415 
Q 2916 -91 2278 -91 
Q 1894 -91 1617 61 
Q 1341 213 1159 525 
L 1159 0 
L 581 0 
L 581 4863 
L 1159 4863 
L 1159 2969 
z
" transform="scale(0.015625)"/>
     <path id="DejaVuSans-6c" d="M 603 4863 
L 1178 4863 
L 1178 0 
L 603 0 
L 603 4863 
z
" transform="scale(0.015625)"/>
     <path id="DejaVuSans-65" d="M 3597 1894 
L 3597 1613 
L 953 1613 
Q 991 1019 1311 708 
Q 1631 397 2203 397 
Q 2534 397 2845 478 
Q 3156 559 3463 722 
L 3463 178 
Q 3153 47 2828 -22 
Q 2503 -91 2169 -91 
Q 1331 -91 842 396 
Q 353 884 353 1716 
Q 353 2575 817 3079 
Q 1281 3584 2069 3584 
Q 2775 3584 3186 3129 
Q 3597 2675 3597 1894 
z
M 3022 2063 
Q 3016 2534 2758 2815 
Q 2500 3097 2075 3097 
Q 1594 3097 1305 2825 
Q 1016 2553 972 2059 
L 3022 2063 
z
" transform="scale(0.015625)"/>
     <path id="DejaVuSans-75" d="M 544 1381 
L 544 3500 
L 1119 3500 
L 1119 1403 
Q 1119 906 1312 657 
Q 1506 409 1894 409 
Q 2359 409 2629 706 
Q 2900 1003 2900 1516 
L 2900 3500 
L 3475 3500 
L 3475 0 
L 2900 0 
L 2900 538 
Q 2691 219 2414 64 
Q 2138 -91 1772 -91 
Q 1169 -91 856 284 
Q 544 659 544 1381 
z
M 1991 3584 
L 1991 3584 
z
" transform="scale(0.015625)"/>
     <path id="DejaVuSans-6e" d="M 3513 2113 
L 3513 0 
L 2938 0 
L 2938 2094 
Q 2938 2591 2744 2837 
Q 2550 3084 2163 3084 
Q 1697 3084 1428 2787 
Q 1159 2491 1159 1978 
L 1159 0 
L 581 0 
L 581 3500 
L 1159 3500 
L 1159 2956 
Q 1366 3272 1645 3428 
Q 1925 3584 2291 3584 
Q 2894 3584 3203 3211 
Q 3513 2838 3513 2113 
z
" transform="scale(0.015625)"/>
     <path id="DejaVuSans-6f" d="M 1959 3097 
Q 1497 3097 1228 2736 
Q 959 2375 959 1747 
Q 959 1119 1226 758 
Q 1494 397 1959 397 
Q 2419 397 2687 759 
Q 2956 1122 2956 1747 
Q 2956 2369 2687 2733 
Q 2419 3097 1959 3097 
z
M 1959 3584 
Q 2709 3584 3137 3096 
Q 3566 2609 3566 1747 
Q 3566 888 3137 398 
Q 2709 -91 1959 -91 
Q 1206 -91 779 398 
Q 353 888 353 1747 
Q 353 2609 779 3096 
Q 1206 3584 1959 3584 
z
" transform="scale(0.015625)"/>
     <path id="DejaVuSans-2e" d="M 684 794 
L 1344 794 
L 1344 0 
L 684 0 
L 684 794 
z
" transform="scale(0.015625)"/>
     <path id="DejaVuSans-49" d="M 628 4666 
L 1259 4666 
L 1259 0 
L 628 0 
L 628 4666 
z
" transform="scale(0.015625)"/>
     <path id="DejaVuSans-ab" d="M 3316 3309 
L 3316 2713 
L 2375 1875 
L 3316 1038 
L 3316 441 
L 1850 1747 
L 1850 2003 
L 3316 3309 
z
M 1959 3309 
L 1959 2713 
L 1019 1875 
L 1959 1038 
L 1959 441 
L 494 1747 
L 494 2003 
L 1959 3309 
z
" transform="scale(0.015625)"/>
     <path id="DejaVuSans-28" d="M 1984 4856 
Q 1566 4138 1362 3434 
Q 1159 2731 1159 2009 
Q 1159 1288 1364 580 
Q 1569 -128 1984 -844 
L 1484 -844 
Q 1016 -109 783 600 
Q 550 1309 550 2009 
Q 550 2706 781 3412 
Q 1013 4119 1484 4856 
L 1984 4856 
z
" transform="scale(0.015625)"/>
     <path id="DejaVuSans-31" d="M 794 531 
L 1825 531 
L 1825 4091 
L 703 3866 
L 703 4441 
L 1819 4666 
L 2450 4666 
L 2450 531 
L 3481 531 
L 3481 0 
L 794 0 
L 794 531 
z
" transform="scale(0.015625)"/>
     <path id="DejaVuSans-33" d="M 2597 2516 
Q 3050 2419 3304 2112 
Q 3559 1806 3559 1356 
Q 3559 666 3084 287 
Q 2609 -91 1734 -91 
Q 1441 -91 1130 -33 
Q 819 25 488 141 
L 488 750 
Q 750 597 1062 519 
Q 1375 441 1716 441 
Q 2309 441 2620 675 
Q 2931 909 2931 1356 
Q 2931 1769 2642 2001 
Q 2353 2234 1838 2234 
L 1294 2234 
L 1294 2753 
L 1863 2753 
Q 2328 2753 2575 2939 
Q 2822 3125 2822 3475 
Q 2822 3834 2567 4026 
Q 2313 4219 1838 4219 
Q 1578 4219 1281 4162 
Q 984 4106 628 3988 
L 628 4550 
Q 988 4650 1302 4700 
Q 1616 4750 1894 4750 
Q 2613 4750 3031 4423 
Q 3450 4097 3450 3541 
Q 3450 3153 3228 2886 
Q 3006 2619 2597 2516 
z
" transform="scale(0.015625)"/>
     <path id="DejaVuSans-29" d="M 513 4856 
L 1013 4856 
Q 1481 4119 1714 3412 
Q 1947 2706 1947 2009 
Q 1947 1309 1714 600 
Q 1481 -109 1013 -844 
L 513 -844 
Q 928 -128 1133 580 
Q 1338 1288 1338 2009 
Q 1338 2731 1133 3434 
Q 928 4138 513 4856 
z
" transform="scale(0.015625)"/>
    </defs>
    <use xlink:href="#DejaVuSans-bb"/>
    <use xlink:href="#DejaVuSans-20" transform="translate(61.181641 0)"/>
    <use xlink:href="#DejaVuSans-54" transform="translate(92.96875 0)"/>
    <use xlink:href="#DejaVuSans-61" transform="translate(137.552734 0)"/>
    <use xlink:href="#DejaVuSans-62" transform="translate(198.832031 0)"/>
    <use xlink:href="#DejaVuSans-6c" transform="translate(262.308594 0)"/>
    <use xlink:href="#DejaVuSans-65" transform="translate(290.091797 0)"/>
    <use xlink:href="#DejaVuSans-61" transform="translate(351.615234 0)"/>
    <use xlink:href="#DejaVuSans-75" transform="translate(412.894531 0)"/>
    <use xlink:href="#DejaVuSans-20" transform="translate(476.273438 0)"/>
    <use xlink:href="#DejaVuSans-6e" transform="translate(508.060547 0)"/>
    <use xlink:href="#DejaVuSans-6f" transform="translate(571.439453 0)"/>
    <use xlink:href="#DejaVuSans-2e" transform="translate(630.871094 0)"/>
    <use xlink:href="#DejaVuSans-20" transform="translate(662.658203 0)"/>
    <use xlink:href="#DejaVuSans-49" transform="translate(694.445312 0)"/>
    <use xlink:href="#DejaVuSans-49" transform="translate(723.9375 0)"/>
    <use xlink:href="#DejaVuSans-49" transform="translate(753.429688 0)"/>
    <use xlink:href="#DejaVuSans-20" transform="translate(782.921875 0)"/>
    <use xlink:href="#DejaVuSans-ab" transform="translate(814.708984 0)"/>
    <use xlink:href="#DejaVuSans-20" transform="translate(875.890625 0)"/>
    <use xlink:href="#DejaVuSans-28" transform="translate(907.677734 0)"/>
    <use xlink:href="#DejaVuSans-62" transform="translate(946.691406 0)"/>
    <use xlink:href="#DejaVuSans-31" transform="translate(1010.167969 0)"/>
    <use xlink:href="#DejaVuSans-33" transform="translate(1073.791016 0)"/>
    <use xlink:href="#DejaVuSans-33" transform="translate(1137.414062 0)"/>
    <use xlink:href="#DejaVuSans-29" transform="translate(1201.037109 0)"/>
   </g>
  </g>
 </g>
 <defs>
  <clipPath id="p030daec133">
   <rect x="27.54" y="25.92" width="166.32" height="166.32"/>
  </clipPath>
 </defs>
</svg>
