<?xml version="1.0" encoding="utf-8" standalone="no"?>
<!DOCTYPE svg PUBLIC "-//W3C//DTD SVG 1.1//EN"
  "http://www.w3.org/Graphics/SVG/1.1/DTD/svg11.dtd">
<svg xmlns:xlink="http://www.w3.org/1999/xlink" width="216pt" height="216pt" viewBox="0 0 216 216" xmlns="http://www.w3.org/2000/svg" version="1.1">
 <metadata>
  <rdf:RDF xmlns:dc="http://purl.org/dc/elements/1.1/" xmlns:cc="http://creativecommons.org/ns#" xmlns:rdf="http://www.w3.org/1999/02/22-rdf-syntax-ns#">
   <cc:Work>
    <dc:type rdf:resource="http://purl.org/dc/dcmitype/StillImage"/>
    <dc:date>2026-01-21T11:50:05.726552</dc:date>
    <dc:format>image/svg+xml</dc:format>
    <dc:creator>
     <cc:Agent>
      <dc:title>Matplotlib v3.10.8, https://matplotlib.org/</dc:title>
     </cc:Agent>
    </dc:creator>
   </cc:Work>
  </rdf:RDF>
 </metadata>
 <defs>
  <style type="text/css">*{stroke-linejoin: round; stroke-linecap: butt}</style>
 </defs>
 <g id="figure_1">
  <g id="patch_1">
   <path d="M 0 216 
L 216 216 
L 216 0 
L 0 0 
z
" style="fill: #ffffff; stroke: #000000; stroke-width: 10; stroke-linejoin: miter"/>
  </g>
  <g id="axes_1">
   <g id="patch_2">
    <path d="M 30.830504 192.24 
L 93.948345 192.24 
L 93.948345 177.582302 
L 30.830504 177.582302 
z
" clip-path="url(#p0dbe0d441e)" style="fill: #ececec"/>
   </g>
   <g id="patch_3">
    <path d="M 98.435396 192.24 
L 155.271367 192.24 
L 155.271367 177.582302 
L 98.435396 177.582302 
z
" clip-path="url(#p0dbe0d441e)" style="fill: #f8f473"/>
   </g>
   <g id="patch_4">
    <path d="M 159.160144 192.24 
L 190.569496 192.24 
L 190.569496 154.548777 
L 159.160144 154.548777 
z
" clip-path="url(#p0dbe0d441e)" style="fill: #1b2023"/>
   </g>
   <g id="patch_5">
    <path d="M 30.830504 173.394388 
L 40.103741 173.394388 
L 40.103741 117.156691 
L 30.830504 117.156691 
z
" clip-path="url(#p0dbe0d441e)" style="fill: #ececec"/>
   </g>
   <g id="patch_6">
    <path d="M 44.590791 173.394388 
L 155.271367 173.394388 
L 155.271367 63.611223 
L 44.590791 63.611223 
z
" clip-path="url(#p0dbe0d441e)" style="fill: #fafafb"/>
   </g>
   <g id="patch_7">
    <path d="M 159.160144 150.061727 
L 190.569496 150.061727 
L 190.569496 38.184604 
L 159.160144 38.184604 
z
" clip-path="url(#p0dbe0d441e)" style="fill: #f5f5f5"/>
   </g>
   <g id="patch_8">
    <path d="M 30.830504 112.66964 
L 40.103741 112.66964 
L 40.103741 63.611223 
L 30.830504 63.611223 
z
" clip-path="url(#p0dbe0d441e)" style="fill: #13468d"/>
   </g>
   <g id="patch_9">
    <path d="M 30.830504 59.722446 
L 155.271367 59.722446 
L 155.271367 25.92 
L 30.830504 25.92 
z
" clip-path="url(#p0dbe0d441e)" style="fill: #dfdfe0"/>
   </g>
   <g id="patch_10">
    <path d="M 159.160144 33.697554 
L 190.569496 33.697554 
L 190.569496 25.92 
L 159.160144 25.92 
z
" clip-path="url(#p0dbe0d441e)" style="fill: #bc4e29"/>
   </g>
   <g id="patch_11">
    <path d="M 155.271367 192.24 
L 159.160144 192.24 
L 159.160144 28.911367 
L 155.271367 28.911367 
z
" clip-path="url(#p0dbe0d441e)"/>
   </g>
   <g id="patch_12">
    <path d="M 34.719281 177.582302 
L 155.271367 177.582302 
L 155.271367 173.394388 
L 34.719281 173.394388 
z
" clip-path="url(#p0dbe0d441e)"/>
   </g>
   <g id="patch_13">
    <path d="M 159.160144 154.548777 
L 190.569496 154.548777 
L 190.569496 150.061727 
L 159.160144 150.061727 
z
" clip-path="url(#p0dbe0d441e)"/>
   </g>
   <g id="patch_14">
    <path d="M 30.830504 117.156691 
L 40.103741 117.156691 
L 40.103741 112.66964 
L 30.830504 112.66964 
z
" clip-path="url(#p0dbe0d441e)"/>
   </g>
   <g id="patch_15">
    <path d="M 34.121007 63.611223 
L 155.271367 63.611223 
L 155.271367 59.722446 
L 34.121007 59.722446 
z
" clip-path="url(#p0dbe0d441e)"/>
   </g>
   <g id="patch_16">
    <path d="M 159.160144 38.184604 
L 189.37295 38.184604 
L 189.37295 33.697554 
L 159.160144 33.697554 
z
" clip-path="url(#p0dbe0d441e)"/>
   </g>
   <g id="patch_17">
    <path d="M 93.948345 190.744317 
L 98.435396 190.744317 
L 98.435396 177.582302 
L 93.948345 177.582302 
z
" clip-path="url(#p0dbe0d441e)"/>
   </g>
   <g id="patch_18">
    <path d="M 40.103741 173.394388 
L 44.590791 173.394388 
L 44.590791 63.611223 
L 40.103741 63.611223 
z
" clip-path="url(#p0dbe0d441e)"/>
   </g>
   <g id="patch_19">
    <path d="M 93.948345 192.24 
L 98.435396 192.24 
L 98.435396 190.744317 
L 93.948345 190.744317 
z
" clip-path="url(#p0dbe0d441e)" style="fill: #ececec"/>
   </g>
   <g id="patch_20">
    <path d="M 155.271367 28.911367 
L 159.160144 28.911367 
L 159.160144 25.92 
L 155.271367 25.92 
z
" clip-path="url(#p0dbe0d441e)" style="fill: #bc4e29"/>
   </g>
   <g id="patch_21">
    <path d="M 30.830504 177.582302 
L 34.719281 177.582302 
L 34.719281 173.394388 
L 30.830504 173.394388 
z
" clip-path="url(#p0dbe0d441e)" style="fill: #ececec"/>
   </g>
   <g id="patch_22">
    <path d="M 30.830504 63.611223 
L 34.121007 63.611223 
L 34.121007 61.816403 
L 30.830504 61.816403 
z
" clip-path="url(#p0dbe0d441e)" style="fill: #13468d"/>
   </g>
   <g id="patch_23">
    <path d="M 30.830504 61.816403 
L 34.121007 61.816403 
L 34.121007 59.722446 
L 30.830504 59.722446 
z
" clip-path="url(#p0dbe0d441e)" style="fill: #dfdfe0"/>
   </g>
   <g id="patch_24">
    <path d="M 189.37295 38.184604 
L 190.569496 38.184604 
L 190.569496 36.090647 
L 189.37295 36.090647 
z
" clip-path="url(#p0dbe0d441e)" style="fill: #f5f5f5"/>
   </g>
   <g id="patch_25">
    <path d="M 189.37295 36.090647 
L 190.569496 36.090647 
L 190.569496 33.697554 
L 189.37295 33.697554 
z
" clip-path="url(#p0dbe0d441e)" style="fill: #bc4e29"/>
   </g>
  </g>
  <g id="text_1">
   <!-- » Tableau 2 « (b146) -->
   <g transform="translate(10.8 205.2) scale(0.12 -0.12)">
    <defs>
     <path id="DejaVuSans-bb" d="M 603 3309 
L 2069 2003 
L 2069 1747 
L 603 441 
L 603 1038 
L 1544 1875 
L 603 2713 
L 603 3309 
z
M 1959 3309 
L 3425 2003 
L 3425 1747 
L 1959 441 
L 1959 1038 
L 2900 1875 
L 1959 2713 
L 1959 3309 
z
" transform="scale(0.015625)"/>
     <path id="DejaVuSans-20" transform="scale(0.015625)"/>
     <path id="DejaVuSans-54" d="M -19 4666 
L 3928 4666 
L 3928 4134 
L 2272 4134 
L 2272 0 
L 1638 0 
L 1638 4134 
L -19 4134 
L -19 4666 
z
" transform="scale(0.015625)"/>
     <path id="DejaVuSans-61" d="M 2194 1759 
Q 1497 1759 1228 1600 
Q 959 1441 959 1056 
Q 959 750 1161 570 
Q 1363 391 1709 391 
Q 2188 391 2477 730 
Q 2766 1069 2766 1631 
L 2766 1759 
L 2194 1759 
z
M 3341 1997 
L 3341 0 
L 2766 0 
L 2766 531 
Q 2569 213 2275 61 
Q 1981 -91 1556 -91 
Q 1019 -91 701 211 
Q 384 513 384 1019 
Q 384 1609 779 1909 
Q 1175 2209 1959 2209 
L 2766 2209 
L 2766 2266 
Q 2766 2663 2505 2880 
Q 2244 3097 1772 3097 
Q 1472 3097 1187 3025 
Q 903 2953 641 2809 
L 641 3341 
Q 956 3463 1253 3523 
Q 1550 3584 1831 3584 
Q 2591 3584 2966 3190 
Q 3341 2797 3341 1997 
z
" transform="scale(0.015625)"/>
     <path id="DejaVuSans-62" d="M 3116 1747 
Q 3116 2381 2855 2742 
Q 2594 3103 2138 3103 
Q 1681 3103 1420 2742 
Q 1159 2381 1159 1747 
Q 1159 1113 1420 752 
Q 1681 391 2138 391 
Q 2594 391 2855 752 
Q 3116 1113 3116 1747 
z
M 1159 2969 
Q 1341 3281 1617 3432 
Q 1894 3584 2278 3584 
Q 2916 3584 3314 3078 
Q 3713 2572 3713 1747 
Q 3713 922 3314 415 
Q 2916 -91 2278 -91 
Q 1894 -91 1617 61 
Q 1341 213 1159 525 
L 1159 0 
L 581 0 
L 581 4863 
L 1159 4863 
L 1159 2969 
z
" transform="scale(0.015625)"/>
     <path id="DejaVuSans-6c" d="M 603 4863 
L 1178 4863 
L 1178 0 
L 603 0 
L 603 4863 
z
" transform="scale(0.015625)"/>
     <path id="DejaVuSans-65" d="M 3597 1894 
L 3597 1613 
L 953 1613 
Q 991 1019 1311 708 
Q 1631 397 2203 397 
Q 2534 397 2845 478 
Q 3156 559 3463 722 
L 3463 178 
Q 3153 47 2828 -22 
Q 2503 -91 2169 -91 
Q 1331 -91 842 396 
Q 353 884 353 1716 
Q 353 2575 817 3079 
Q 1281 3584 2069 3584 
Q 2775 3584 3186 3129 
Q 3597 2675 3597 1894 
z
M 3022 2063 
Q 3016 2534 2758 2815 
Q 2500 3097 2075 3097 
Q 1594 3097 1305 2825 
Q 1016 2553 972 2059 
L 3022 2063 
z
" transform="scale(0.015625)"/>
     <path id="DejaVuSans-75" d="M 544 1381 
L 544 3500 
L 1119 3500 
L 1119 1403 
Q 1119 906 1312 657 
Q 1506 409 1894 409 
Q 2359 409 2629 706 
Q 2900 1003 2900 1516 
L 2900 3500 
L 3475 3500 
L 3475 0 
L 2900 0 
L 2900 538 
Q 2691 219 2414 64 
Q 2138 -91 1772 -91 
Q 1169 -91 856 284 
Q 544 659 544 1381 
z
M 1991 3584 
L 1991 3584 
z
" transform="scale(0.015625)"/>
     <path id="DejaVuSans-32" d="M 1228 531 
L 3431 531 
L 3431 0 
L 469 0 
L 469 531 
Q 828 903 1448 1529 
Q 2069 2156 2228 2338 
Q 2531 2678 2651 2914 
Q 2772 3150 2772 3378 
Q 2772 3750 2511 3984 
Q 2250 4219 1831 4219 
Q 1534 4219 1204 4116 
Q 875 4013 500 3803 
L 500 4441 
Q 881 4594 1212 4672 
Q 1544 4750 1819 4750 
Q 2544 4750 2975 4387 
Q 3406 4025 3406 3419 
Q 3406 3131 3298 2873 
Q 3191 2616 2906 2266 
Q 2828 2175 2409 1742 
Q 1991 1309 1228 531 
z
" transform="scale(0.015625)"/>
     <path id="DejaVuSans-ab" d="M 3316 3309 
L 3316 2713 
L 2375 1875 
L 3316 1038 
L 3316 441 
L 1850 1747 
L 1850 2003 
L 3316 3309 
z
M 1959 3309 
L 1959 2713 
L 1019 1875 
L 1959 1038 
L 1959 441 
L 494 1747 
L 494 2003 
L 1959 3309 
z
" transform="scale(0.015625)"/>
     <path id="DejaVuSans-28" d="M 1984 4856 
Q 1566 4138 1362 3434 
Q 1159 2731 1159 2009 
Q 1159 1288 1364 580 
Q 1569 -128 1984 -844 
L 1484 -844 
Q 1016 -109 783 600 
Q 550 1309 550 2009 
Q 550 2706 781 3412 
Q 1013 4119 1484 4856 
L 1984 4856 
z
" transform="scale(0.015625)"/>
     <path id="DejaVuSans-31" d="M 794 531 
L 1825 531 
L 1825 4091 
L 703 3866 
L 703 4441 
L 1819 4666 
L 2450 4666 
L 2450 531 
L 3481 531 
L 3481 0 
L 794 0 
L 794 531 
z
" transform="scale(0.015625)"/>
     <path id="DejaVuSans-34" d="M 2419 4116 
L 825 1625 
L 2419 1625 
L 2419 4116 
z
M 2253 4666 
L 3047 4666 
L 3047 1625 
L 3713 1625 
L 3713 1100 
L 3047 1100 
L 3047 0 
L 2419 0 
L 2419 1100 
L 313 1100 
L 313 1709 
L 2253 4666 
z
" transform="scale(0.015625)"/>
     <path id="DejaVuSans-36" d="M 2113 2584 
Q 1688 2584 1439 2293 
Q 1191 2003 1191 1497 
Q 1191 994 1439 701 
Q 1688 409 2113 409 
Q 2538 409 2786 701 
Q 3034 994 3034 1497 
Q 3034 2003 2786 2293 
Q 2538 2584 2113 2584 
z
M 3366 4563 
L 3366 3988 
Q 3128 4100 2886 4159 
Q 2644 4219 2406 4219 
Q 1781 4219 1451 3797 
Q 1122 3375 1075 2522 
Q 1259 2794 1537 2939 
Q 1816 3084 2150 3084 
Q 2853 3084 3261 2657 
Q 3669 2231 3669 1497 
Q 3669 778 3244 343 
Q 2819 -91 2113 -91 
Q 1303 -91 875 529 
Q 447 1150 447 2328 
Q 447 3434 972 4092 
Q 1497 4750 2381 4750 
Q 2619 4750 2861 4703 
Q 3103 4656 3366 4563 
z
" transform="scale(0.015625)"/>
     <path id="DejaVuSans-29" d="M 513 4856 
L 1013 4856 
Q 1481 4119 1714 3412 
Q 1947 2706 1947 2009 
Q 1947 1309 1714 600 
Q 1481 -109 1013 -844 
L 513 -844 
Q 928 -128 1133 580 
Q 1338 1288 1338 2009 
Q 1338 2731 1133 3434 
Q 928 4138 513 4856 
z
" transform="scale(0.015625)"/>
    </defs>
    <use xlink:href="#DejaVuSans-bb"/>
    <use xlink:href="#DejaVuSans-20" transform="translate(61.181641 0)"/>
    <use xlink:href="#DejaVuSans-54" transform="translate(92.96875 0)"/>
    <use xlink:href="#DejaVuSans-61" transform="translate(137.552734 0)"/>
    <use xlink:href="#DejaVuSans-62" transform="translate(198.832031 0)"/>
    <use xlink:href="#DejaVuSans-6c" transform="translate(262.308594 0)"/>
    <use xlink:href="#DejaVuSans-65" transform="translate(290.091797 0)"/>
    <use xlink:href="#DejaVuSans-61" transform="translate(351.615234 0)"/>
    <use xlink:href="#DejaVuSans-75" transform="translate(412.894531 0)"/>
    <use xlink:href="#DejaVuSans-20" transform="translate(476.273438 0)"/>
    <use xlink:href="#DejaVuSans-32" transform="translate(508.060547 0)"/>
    <use xlink:href="#DejaVuSans-20" transform="translate(571.683594 0)"/>
    <use xlink:href="#DejaVuSans-ab" transform="translate(603.470703 0)"/>
    <use xlink:href="#DejaVuSans-20" transform="translate(664.652344 0)"/>
    <use xlink:href="#DejaVuSans-28" transform="translate(696.439453 0)"/>
    <use xlink:href="#DejaVuSans-62" transform="translate(735.453125 0)"/>
    <use xlink:href="#DejaVuSans-31" transform="translate(798.929688 0)"/>
    <use xlink:href="#DejaVuSans-34" transform="translate(862.552734 0)"/>
    <use xlink:href="#DejaVuSans-36" transform="translate(926.175781 0)"/>
    <use xlink:href="#DejaVuSans-29" transform="translate(989.798828 0)"/>
   </g>
  </g>
 </g>
 <defs>
  <clipPath id="p0dbe0d441e">
   <rect x="30.830504" y="25.92" width="159.738993" height="166.32"/>
  </clipPath>
 </defs>
</svg>
