<?xml version="1.0" encoding="utf-8" standalone="no"?>
<!DOCTYPE svg PUBLIC "-//W3C//DTD SVG 1.1//EN"
  "http://www.w3.org/Graphics/SVG/1.1/DTD/svg11.dtd">
<svg xmlns:xlink="http://www.w3.org/1999/xlink" width="216pt" height="216pt" viewBox="0 0 216 216" xmlns="http://www.w3.org/2000/svg" version="1.1">
 <metadata>
  <rdf:RDF xmlns:dc="http://purl.org/dc/elements/1.1/" xmlns:cc="http://creativecommons.org/ns#" xmlns:rdf="http://www.w3.org/1999/02/22-rdf-syntax-ns#">
   <cc:Work>
    <dc:type rdf:resource="http://purl.org/dc/dcmitype/StillImage"/>
    <dc:date>2026-01-21T11:50:05.850507</dc:date>
    <dc:format>image/svg+xml</dc:format>
    <dc:creator>
     <cc:Agent>
      <dc:title>Matplotlib v3.10.8, https://matplotlib.org/</dc:title>
     </cc:Agent>
    </dc:creator>
   </cc:Work>
  </rdf:RDF>
 </metadata>
 <defs>
  <style type="text/css">*{stroke-linejoin: round; stroke-linecap: butt}</style>
 </defs>
 <g id="figure_1">
  <g id="patch_1">
   <path d="M 0 216 
L 216 216 
L 216 0 
L 0 0 
z
" style="fill: #ffffff; stroke: #000000; stroke-width: 10; stroke-linejoin: miter"/>
  </g>
  <g id="axes_1">
   <g id="patch_2">
    <path d="M 27.54 192.24 
L 70.429606 192.24 
L 70.429606 164.410866 
L 27.54 164.410866 
z
" clip-path="url(#p3c1e04befa)" style="fill: #f2f2f1"/>
   </g>
   <g id="patch_3">
    <path d="M 75.995433 192.24 
L 193.86 192.24 
L 193.86 164.410866 
L 75.995433 164.410866 
z
" clip-path="url(#p3c1e04befa)" style="fill: #f1f1f0"/>
   </g>
   <g id="patch_4">
    <path d="M 27.54 158.517638 
L 70.429606 158.517638 
L 70.429606 35.414646 
L 27.54 35.414646 
z
" clip-path="url(#p3c1e04befa)" style="fill: #f2f2f1"/>
   </g>
   <g id="patch_5">
    <path d="M 75.995433 158.517638 
L 190.913386 158.517638 
L 190.913386 35.414646 
L 75.995433 35.414646 
z
" clip-path="url(#p3c1e04befa)" style="fill: #f2f3f0"/>
   </g>
   <g id="patch_6">
    <path d="M 27.54 29.521417 
L 70.429606 29.521417 
L 70.429606 25.92 
L 27.54 25.92 
z
" clip-path="url(#p3c1e04befa)" style="fill: #d9141e"/>
   </g>
   <g id="patch_7">
    <path d="M 75.995433 29.521417 
L 193.86 29.521417 
L 193.86 25.92 
L 75.995433 25.92 
z
" clip-path="url(#p3c1e04befa)" style="fill: #f1f1ee"/>
   </g>
   <g id="patch_8">
    <path d="M 27.54 164.410866 
L 193.86 164.410866 
L 193.86 158.517638 
L 27.54 158.517638 
z
" clip-path="url(#p3c1e04befa)"/>
   </g>
   <g id="patch_9">
    <path d="M 28.194803 35.414646 
L 193.86 35.414646 
L 193.86 29.521417 
L 28.194803 29.521417 
z
" clip-path="url(#p3c1e04befa)"/>
   </g>
   <g id="patch_10">
    <path d="M 70.429606 192.24 
L 75.995433 192.24 
L 75.995433 25.92 
L 70.429606 25.92 
z
" clip-path="url(#p3c1e04befa)"/>
   </g>
   <g id="patch_11">
    <path d="M 190.913386 158.517638 
L 193.86 158.517638 
L 193.86 35.414646 
L 190.913386 35.414646 
z
" clip-path="url(#p3c1e04befa)"/>
   </g>
   <g id="patch_12">
    <path d="M 27.54 35.414646 
L 28.194803 35.414646 
L 28.194803 32.468031 
L 27.54 32.468031 
z
" clip-path="url(#p3c1e04befa)" style="fill: #f2f2f1"/>
   </g>
   <g id="patch_13">
    <path d="M 27.54 32.468031 
L 28.194803 32.468031 
L 28.194803 29.521417 
L 27.54 29.521417 
z
" clip-path="url(#p3c1e04befa)" style="fill: #d9141e"/>
   </g>
  </g>
  <g id="text_1">
   <!-- » Komposition II « (b170) -->
   <g transform="translate(10.8 205.2) scale(0.12 -0.12)">
    <defs>
     <path id="DejaVuSans-bb" d="M 603 3309 
L 2069 2003 
L 2069 1747 
L 603 441 
L 603 1038 
L 1544 1875 
L 603 2713 
L 603 3309 
z
M 1959 3309 
L 3425 2003 
L 3425 1747 
L 1959 441 
L 1959 1038 
L 2900 1875 
L 1959 2713 
L 1959 3309 
z
" transform="scale(0.015625)"/>
     <path id="DejaVuSans-20" transform="scale(0.015625)"/>
     <path id="DejaVuSans-4b" d="M 628 4666 
L 1259 4666 
L 1259 2694 
L 3353 4666 
L 4166 4666 
L 1850 2491 
L 4331 0 
L 3500 0 
L 1259 2247 
L 1259 0 
L 628 0 
L 628 4666 
z
" transform="scale(0.015625)"/>
     <path id="DejaVuSans-6f" d="M 1959 3097 
Q 1497 3097 1228 2736 
Q 959 2375 959 1747 
Q 959 1119 1226 758 
Q 1494 397 1959 397 
Q 2419 397 2687 759 
Q 2956 1122 2956 1747 
Q 2956 2369 2687 2733 
Q 2419 3097 1959 3097 
z
M 1959 3584 
Q 2709 3584 3137 3096 
Q 3566 2609 3566 1747 
Q 3566 888 3137 398 
Q 2709 -91 1959 -91 
Q 1206 -91 779 398 
Q 353 888 353 1747 
Q 353 2609 779 3096 
Q 1206 3584 1959 3584 
z
" transform="scale(0.015625)"/>
     <path id="DejaVuSans-6d" d="M 3328 2828 
Q 3544 3216 3844 3400 
Q 4144 3584 4550 3584 
Q 5097 3584 5394 3201 
Q 5691 2819 5691 2113 
L 5691 0 
L 5113 0 
L 5113 2094 
Q 5113 2597 4934 2840 
Q 4756 3084 4391 3084 
Q 3944 3084 3684 2787 
Q 3425 2491 3425 1978 
L 3425 0 
L 2847 0 
L 2847 2094 
Q 2847 2600 2669 2842 
Q 2491 3084 2119 3084 
Q 1678 3084 1418 2786 
Q 1159 2488 1159 1978 
L 1159 0 
L 581 0 
L 581 3500 
L 1159 3500 
L 1159 2956 
Q 1356 3278 1631 3431 
Q 1906 3584 2284 3584 
Q 2666 3584 2933 3390 
Q 3200 3197 3328 2828 
z
" transform="scale(0.015625)"/>
     <path id="DejaVuSans-70" d="M 1159 525 
L 1159 -1331 
L 581 -1331 
L 581 3500 
L 1159 3500 
L 1159 2969 
Q 1341 3281 1617 3432 
Q 1894 3584 2278 3584 
Q 2916 3584 3314 3078 
Q 3713 2572 3713 1747 
Q 3713 922 3314 415 
Q 2916 -91 2278 -91 
Q 1894 -91 1617 61 
Q 1341 213 1159 525 
z
M 3116 1747 
Q 3116 2381 2855 2742 
Q 2594 3103 2138 3103 
Q 1681 3103 1420 2742 
Q 1159 2381 1159 1747 
Q 1159 1113 1420 752 
Q 1681 391 2138 391 
Q 2594 391 2855 752 
Q 3116 1113 3116 1747 
z
" transform="scale(0.015625)"/>
     <path id="DejaVuSans-73" d="M 2834 3397 
L 2834 2853 
Q 2591 2978 2328 3040 
Q 2066 3103 1784 3103 
Q 1356 3103 1142 2972 
Q 928 2841 928 2578 
Q 928 2378 1081 2264 
Q 1234 2150 1697 2047 
L 1894 2003 
Q 2506 1872 2764 1633 
Q 3022 1394 3022 966 
Q 3022 478 2636 193 
Q 2250 -91 1575 -91 
Q 1294 -91 989 -36 
Q 684 19 347 128 
L 347 722 
Q 666 556 975 473 
Q 1284 391 1588 391 
Q 1994 391 2212 530 
Q 2431 669 2431 922 
Q 2431 1156 2273 1281 
Q 2116 1406 1581 1522 
L 1381 1569 
Q 847 1681 609 1914 
Q 372 2147 372 2553 
Q 372 3047 722 3315 
Q 1072 3584 1716 3584 
Q 2034 3584 2315 3537 
Q 2597 3491 2834 3397 
z
" transform="scale(0.015625)"/>
     <path id="DejaVuSans-69" d="M 603 3500 
L 1178 3500 
L 1178 0 
L 603 0 
L 603 3500 
z
M 603 4863 
L 1178 4863 
L 1178 4134 
L 603 4134 
L 603 4863 
z
" transform="scale(0.015625)"/>
     <path id="DejaVuSans-74" d="M 1172 4494 
L 1172 3500 
L 2356 3500 
L 2356 3053 
L 1172 3053 
L 1172 1153 
Q 1172 725 1289 603 
Q 1406 481 1766 481 
L 2356 481 
L 2356 0 
L 1766 0 
Q 1100 0 847 248 
Q 594 497 594 1153 
L 594 3053 
L 172 3053 
L 172 3500 
L 594 3500 
L 594 4494 
L 1172 4494 
z
" transform="scale(0.015625)"/>
     <path id="DejaVuSans-6e" d="M 3513 2113 
L 3513 0 
L 2938 0 
L 2938 2094 
Q 2938 2591 2744 2837 
Q 2550 3084 2163 3084 
Q 1697 3084 1428 2787 
Q 1159 2491 1159 1978 
L 1159 0 
L 581 0 
L 581 3500 
L 1159 3500 
L 1159 2956 
Q 1366 3272 1645 3428 
Q 1925 3584 2291 3584 
Q 2894 3584 3203 3211 
Q 3513 2838 3513 2113 
z
" transform="scale(0.015625)"/>
     <path id="DejaVuSans-49" d="M 628 4666 
L 1259 4666 
L 1259 0 
L 628 0 
L 628 4666 
z
" transform="scale(0.015625)"/>
     <path id="DejaVuSans-ab" d="M 3316 3309 
L 3316 2713 
L 2375 1875 
L 3316 1038 
L 3316 441 
L 1850 1747 
L 1850 2003 
L 3316 3309 
z
M 1959 3309 
L 1959 2713 
L 1019 1875 
L 1959 1038 
L 1959 441 
L 494 1747 
L 494 2003 
L 1959 3309 
z
" transform="scale(0.015625)"/>
     <path id="DejaVuSans-28" d="M 1984 4856 
Q 1566 4138 1362 3434 
Q 1159 2731 1159 2009 
Q 1159 1288 1364 580 
Q 1569 -128 1984 -844 
L 1484 -844 
Q 1016 -109 783 600 
Q 550 1309 550 2009 
Q 550 2706 781 3412 
Q 1013 4119 1484 4856 
L 1984 4856 
z
" transform="scale(0.015625)"/>
     <path id="DejaVuSans-62" d="M 3116 1747 
Q 3116 2381 2855 2742 
Q 2594 3103 2138 3103 
Q 1681 3103 1420 2742 
Q 1159 2381 1159 1747 
Q 1159 1113 1420 752 
Q 1681 391 2138 391 
Q 2594 391 2855 752 
Q 3116 1113 3116 1747 
z
M 1159 2969 
Q 1341 3281 1617 3432 
Q 1894 3584 2278 3584 
Q 2916 3584 3314 3078 
Q 3713 2572 3713 1747 
Q 3713 922 3314 415 
Q 2916 -91 2278 -91 
Q 1894 -91 1617 61 
Q 1341 213 1159 525 
L 1159 0 
L 581 0 
L 581 4863 
L 1159 4863 
L 1159 2969 
z
" transform="scale(0.015625)"/>
     <path id="DejaVuSans-31" d="M 794 531 
L 1825 531 
L 1825 4091 
L 703 3866 
L 703 4441 
L 1819 4666 
L 2450 4666 
L 2450 531 
L 3481 531 
L 3481 0 
L 794 0 
L 794 531 
z
" transform="scale(0.015625)"/>
     <path id="DejaVuSans-37" d="M 525 4666 
L 3525 4666 
L 3525 4397 
L 1831 0 
L 1172 0 
L 2766 4134 
L 525 4134 
L 525 4666 
z
" transform="scale(0.015625)"/>
     <path id="DejaVuSans-30" d="M 2034 4250 
Q 1547 4250 1301 3770 
Q 1056 3291 1056 2328 
Q 1056 1369 1301 889 
Q 1547 409 2034 409 
Q 2525 409 2770 889 
Q 3016 1369 3016 2328 
Q 3016 3291 2770 3770 
Q 2525 4250 2034 4250 
z
M 2034 4750 
Q 2819 4750 3233 4129 
Q 3647 3509 3647 2328 
Q 3647 1150 3233 529 
Q 2819 -91 2034 -91 
Q 1250 -91 836 529 
Q 422 1150 422 2328 
Q 422 3509 836 4129 
Q 1250 4750 2034 4750 
z
" transform="scale(0.015625)"/>
     <path id="DejaVuSans-29" d="M 513 4856 
L 1013 4856 
Q 1481 4119 1714 3412 
Q 1947 2706 1947 2009 
Q 1947 1309 1714 600 
Q 1481 -109 1013 -844 
L 513 -844 
Q 928 -128 1133 580 
Q 1338 1288 1338 2009 
Q 1338 2731 1133 3434 
Q 928 4138 513 4856 
z
" transform="scale(0.015625)"/>
    </defs>
    <use xlink:href="#DejaVuSans-bb"/>
    <use xlink:href="#DejaVuSans-20" transform="translate(61.181641 0)"/>
    <use xlink:href="#DejaVuSans-4b" transform="translate(92.96875 0)"/>
    <use xlink:href="#DejaVuSans-6f" transform="translate(153.544922 0)"/>
    <use xlink:href="#DejaVuSans-6d" transform="translate(214.726562 0)"/>
    <use xlink:href="#DejaVuSans-70" transform="translate(312.138672 0)"/>
    <use xlink:href="#DejaVuSans-6f" transform="translate(375.615234 0)"/>
    <use xlink:href="#DejaVuSans-73" transform="translate(436.796875 0)"/>
    <use xlink:href="#DejaVuSans-69" transform="translate(488.896484 0)"/>
    <use xlink:href="#DejaVuSans-74" transform="translate(516.679688 0)"/>
    <use xlink:href="#DejaVuSans-69" transform="translate(555.888672 0)"/>
    <use xlink:href="#DejaVuSans-6f" transform="translate(583.671875 0)"/>
    <use xlink:href="#DejaVuSans-6e" transform="translate(644.853516 0)"/>
    <use xlink:href="#DejaVuSans-20" transform="translate(708.232422 0)"/>
    <use xlink:href="#DejaVuSans-49" transform="translate(740.019531 0)"/>
    <use xlink:href="#DejaVuSans-49" transform="translate(769.511719 0)"/>
    <use xlink:href="#DejaVuSans-20" transform="translate(799.003906 0)"/>
    <use xlink:href="#DejaVuSans-ab" transform="translate(830.791016 0)"/>
    <use xlink:href="#DejaVuSans-20" transform="translate(891.972656 0)"/>
    <use xlink:href="#DejaVuSans-28" transform="translate(923.759766 0)"/>
    <use xlink:href="#DejaVuSans-62" transform="translate(962.773438 0)"/>
    <use xlink:href="#DejaVuSans-31" transform="translate(1026.25 0)"/>
    <use xlink:href="#DejaVuSans-37" transform="translate(1089.873047 0)"/>
    <use xlink:href="#DejaVuSans-30" transform="translate(1153.496094 0)"/>
    <use xlink:href="#DejaVuSans-29" transform="translate(1217.119141 0)"/>
   </g>
  </g>
 </g>
 <defs>
  <clipPath id="p3c1e04befa">
   <rect x="27.54" y="25.92" width="166.32" height="166.32"/>
  </clipPath>
 </defs>
</svg>
