<?xml version="1.0" encoding="utf-8" standalone="no"?>
<!DOCTYPE svg PUBLIC "-//W3C//DTD SVG 1.1//EN"
  "http://www.w3.org/Graphics/SVG/1.1/DTD/svg11.dtd">
<svg xmlns:xlink="http://www.w3.org/1999/xlink" width="216pt" height="216pt" viewBox="0 0 216 216" xmlns="http://www.w3.org/2000/svg" version="1.1">
 <metadata>
  <rdf:RDF xmlns:dc="http://purl.org/dc/elements/1.1/" xmlns:cc="http://creativecommons.org/ns#" xmlns:rdf="http://www.w3.org/1999/02/22-rdf-syntax-ns#">
   <cc:Work>
    <dc:type rdf:resource="http://purl.org/dc/dcmitype/StillImage"/>
    <dc:date>2026-01-21T11:50:05.994609</dc:date>
    <dc:format>image/svg+xml</dc:format>
    <dc:creator>
     <cc:Agent>
      <dc:title>Matplotlib v3.10.8, https://matplotlib.org/</dc:title>
     </cc:Agent>
    </dc:creator>
   </cc:Work>
  </rdf:RDF>
 </metadata>
 <defs>
  <style type="text/css">*{stroke-linejoin: round; stroke-linecap: butt}</style>
 </defs>
 <g id="figure_1">
  <g id="patch_1">
   <path d="M 0 216 
L 216 216 
L 216 0 
L 0 0 
z
" style="fill: #ffffff; stroke: #000000; stroke-width: 10; stroke-linejoin: miter"/>
  </g>
  <g id="axes_1">
   <g id="patch_2">
    <path d="M 56.168852 192.24 
L 78.526623 192.24 
L 78.526623 155.431475 
L 56.168852 155.431475 
z
" clip-path="url(#p5e3b50ffa2)" style="fill: #f00705"/>
   </g>
   <g id="patch_3">
    <path d="M 80.980525 192.24 
L 165.231148 192.24 
L 165.231148 155.431475 
L 80.980525 155.431475 
z
" clip-path="url(#p5e3b50ffa2)" style="fill: #f6f7f8"/>
   </g>
   <g id="patch_4">
    <path d="M 56.168852 152.977574 
L 78.526623 152.977574 
L 78.526623 75.816 
L 56.168852 75.816 
z
" clip-path="url(#p5e3b50ffa2)" style="fill: #f8f9fb"/>
   </g>
   <g id="patch_5">
    <path d="M 80.980525 152.977574 
L 165.231148 152.977574 
L 165.231148 42.006689 
L 80.980525 42.006689 
z
" clip-path="url(#p5e3b50ffa2)" style="fill: #f7f7f8"/>
   </g>
   <g id="patch_6">
    <path d="M 56.168852 73.362098 
L 78.526623 73.362098 
L 78.526623 42.006689 
L 56.168852 42.006689 
z
" clip-path="url(#p5e3b50ffa2)" style="fill: #f8f413"/>
   </g>
   <g id="patch_7">
    <path d="M 56.168852 39.552787 
L 78.526623 39.552787 
L 78.526623 25.92 
L 56.168852 25.92 
z
" clip-path="url(#p5e3b50ffa2)" style="fill: #f2f3f4"/>
   </g>
   <g id="patch_8">
    <path d="M 80.980525 39.552787 
L 148.053836 39.552787 
L 148.053836 25.92 
L 80.980525 25.92 
z
" clip-path="url(#p5e3b50ffa2)" style="fill: #f1f2f4"/>
   </g>
   <g id="patch_9">
    <path d="M 151.053049 39.552787 
L 165.231148 39.552787 
L 165.231148 25.92 
L 151.053049 25.92 
z
" clip-path="url(#p5e3b50ffa2)" style="fill: #2e599b"/>
   </g>
   <g id="patch_10">
    <path d="M 78.526623 192.24 
L 80.980525 192.24 
L 80.980525 25.92 
L 78.526623 25.92 
z
" clip-path="url(#p5e3b50ffa2)"/>
   </g>
   <g id="patch_11">
    <path d="M 56.168852 155.431475 
L 165.231148 155.431475 
L 165.231148 152.977574 
L 56.168852 152.977574 
z
" clip-path="url(#p5e3b50ffa2)"/>
   </g>
   <g id="patch_12">
    <path d="M 56.168852 75.816 
L 78.526623 75.816 
L 78.526623 73.362098 
L 56.168852 73.362098 
z
" clip-path="url(#p5e3b50ffa2)"/>
   </g>
   <g id="patch_13">
    <path d="M 56.168852 42.006689 
L 165.231148 42.006689 
L 165.231148 39.552787 
L 56.168852 39.552787 
z
" clip-path="url(#p5e3b50ffa2)"/>
   </g>
   <g id="patch_14">
    <path d="M 148.053836 39.552787 
L 151.053049 39.552787 
L 151.053049 25.92 
L 148.053836 25.92 
z
" clip-path="url(#p5e3b50ffa2)"/>
   </g>
  </g>
  <g id="text_1">
   <!-- » No. III « (b190) -->
   <g transform="translate(10.8 205.2) scale(0.12 -0.12)">
    <defs>
     <path id="DejaVuSans-bb" d="M 603 3309 
L 2069 2003 
L 2069 1747 
L 603 441 
L 603 1038 
L 1544 1875 
L 603 2713 
L 603 3309 
z
M 1959 3309 
L 3425 2003 
L 3425 1747 
L 1959 441 
L 1959 1038 
L 2900 1875 
L 1959 2713 
L 1959 3309 
z
" transform="scale(0.015625)"/>
     <path id="DejaVuSans-20" transform="scale(0.015625)"/>
     <path id="DejaVuSans-4e" d="M 628 4666 
L 1478 4666 
L 3547 763 
L 3547 4666 
L 4159 4666 
L 4159 0 
L 3309 0 
L 1241 3903 
L 1241 0 
L 628 0 
L 628 4666 
z
" transform="scale(0.015625)"/>
     <path id="DejaVuSans-6f" d="M 1959 3097 
Q 1497 3097 1228 2736 
Q 959 2375 959 1747 
Q 959 1119 1226 758 
Q 1494 397 1959 397 
Q 2419 397 2687 759 
Q 2956 1122 2956 1747 
Q 2956 2369 2687 2733 
Q 2419 3097 1959 3097 
z
M 1959 3584 
Q 2709 3584 3137 3096 
Q 3566 2609 3566 1747 
Q 3566 888 3137 398 
Q 2709 -91 1959 -91 
Q 1206 -91 779 398 
Q 353 888 353 1747 
Q 353 2609 779 3096 
Q 1206 3584 1959 3584 
z
" transform="scale(0.015625)"/>
     <path id="DejaVuSans-2e" d="M 684 794 
L 1344 794 
L 1344 0 
L 684 0 
L 684 794 
z
" transform="scale(0.015625)"/>
     <path id="DejaVuSans-49" d="M 628 4666 
L 1259 4666 
L 1259 0 
L 628 0 
L 628 4666 
z
" transform="scale(0.015625)"/>
     <path id="DejaVuSans-ab" d="M 3316 3309 
L 3316 2713 
L 2375 1875 
L 3316 1038 
L 3316 441 
L 1850 1747 
L 1850 2003 
L 3316 3309 
z
M 1959 3309 
L 1959 2713 
L 1019 1875 
L 1959 1038 
L 1959 441 
L 494 1747 
L 494 2003 
L 1959 3309 
z
" transform="scale(0.015625)"/>
     <path id="DejaVuSans-28" d="M 1984 4856 
Q 1566 4138 1362 3434 
Q 1159 2731 1159 2009 
Q 1159 1288 1364 580 
Q 1569 -128 1984 -844 
L 1484 -844 
Q 1016 -109 783 600 
Q 550 1309 550 2009 
Q 550 2706 781 3412 
Q 1013 4119 1484 4856 
L 1984 4856 
z
" transform="scale(0.015625)"/>
     <path id="DejaVuSans-62" d="M 3116 1747 
Q 3116 2381 2855 2742 
Q 2594 3103 2138 3103 
Q 1681 3103 1420 2742 
Q 1159 2381 1159 1747 
Q 1159 1113 1420 752 
Q 1681 391 2138 391 
Q 2594 391 2855 752 
Q 3116 1113 3116 1747 
z
M 1159 2969 
Q 1341 3281 1617 3432 
Q 1894 3584 2278 3584 
Q 2916 3584 3314 3078 
Q 3713 2572 3713 1747 
Q 3713 922 3314 415 
Q 2916 -91 2278 -91 
Q 1894 -91 1617 61 
Q 1341 213 1159 525 
L 1159 0 
L 581 0 
L 581 4863 
L 1159 4863 
L 1159 2969 
z
" transform="scale(0.015625)"/>
     <path id="DejaVuSans-31" d="M 794 531 
L 1825 531 
L 1825 4091 
L 703 3866 
L 703 4441 
L 1819 4666 
L 2450 4666 
L 2450 531 
L 3481 531 
L 3481 0 
L 794 0 
L 794 531 
z
" transform="scale(0.015625)"/>
     <path id="DejaVuSans-39" d="M 703 97 
L 703 672 
Q 941 559 1184 500 
Q 1428 441 1663 441 
Q 2288 441 2617 861 
Q 2947 1281 2994 2138 
Q 2813 1869 2534 1725 
Q 2256 1581 1919 1581 
Q 1219 1581 811 2004 
Q 403 2428 403 3163 
Q 403 3881 828 4315 
Q 1253 4750 1959 4750 
Q 2769 4750 3195 4129 
Q 3622 3509 3622 2328 
Q 3622 1225 3098 567 
Q 2575 -91 1691 -91 
Q 1453 -91 1209 -44 
Q 966 3 703 97 
z
M 1959 2075 
Q 2384 2075 2632 2365 
Q 2881 2656 2881 3163 
Q 2881 3666 2632 3958 
Q 2384 4250 1959 4250 
Q 1534 4250 1286 3958 
Q 1038 3666 1038 3163 
Q 1038 2656 1286 2365 
Q 1534 2075 1959 2075 
z
" transform="scale(0.015625)"/>
     <path id="DejaVuSans-30" d="M 2034 4250 
Q 1547 4250 1301 3770 
Q 1056 3291 1056 2328 
Q 1056 1369 1301 889 
Q 1547 409 2034 409 
Q 2525 409 2770 889 
Q 3016 1369 3016 2328 
Q 3016 3291 2770 3770 
Q 2525 4250 2034 4250 
z
M 2034 4750 
Q 2819 4750 3233 4129 
Q 3647 3509 3647 2328 
Q 3647 1150 3233 529 
Q 2819 -91 2034 -91 
Q 1250 -91 836 529 
Q 422 1150 422 2328 
Q 422 3509 836 4129 
Q 1250 4750 2034 4750 
z
" transform="scale(0.015625)"/>
     <path id="DejaVuSans-29" d="M 513 4856 
L 1013 4856 
Q 1481 4119 1714 3412 
Q 1947 2706 1947 2009 
Q 1947 1309 1714 600 
Q 1481 -109 1013 -844 
L 513 -844 
Q 928 -128 1133 580 
Q 1338 1288 1338 2009 
Q 1338 2731 1133 3434 
Q 928 4138 513 4856 
z
" transform="scale(0.015625)"/>
    </defs>
    <use xlink:href="#DejaVuSans-bb"/>
    <use xlink:href="#DejaVuSans-20" transform="translate(61.181641 0)"/>
    <use xlink:href="#DejaVuSans-4e" transform="translate(92.96875 0)"/>
    <use xlink:href="#DejaVuSans-6f" transform="translate(167.773438 0)"/>
    <use xlink:href="#DejaVuSans-2e" transform="translate(227.205078 0)"/>
    <use xlink:href="#DejaVuSans-20" transform="translate(258.992188 0)"/>
    <use xlink:href="#DejaVuSans-49" transform="translate(290.779297 0)"/>
    <use xlink:href="#DejaVuSans-49" transform="translate(320.271484 0)"/>
    <use xlink:href="#DejaVuSans-49" transform="translate(349.763672 0)"/>
    <use xlink:href="#DejaVuSans-20" transform="translate(379.255859 0)"/>
    <use xlink:href="#DejaVuSans-ab" transform="translate(411.042969 0)"/>
    <use xlink:href="#DejaVuSans-20" transform="translate(472.224609 0)"/>
    <use xlink:href="#DejaVuSans-28" transform="translate(504.011719 0)"/>
    <use xlink:href="#DejaVuSans-62" transform="translate(543.025391 0)"/>
    <use xlink:href="#DejaVuSans-31" transform="translate(606.501953 0)"/>
    <use xlink:href="#DejaVuSans-39" transform="translate(670.125 0)"/>
    <use xlink:href="#DejaVuSans-30" transform="translate(733.748047 0)"/>
    <use xlink:href="#DejaVuSans-29" transform="translate(797.371094 0)"/>
   </g>
  </g>
 </g>
 <defs>
  <clipPath id="p5e3b50ffa2">
   <rect x="56.168852" y="25.92" width="109.062295" height="166.32"/>
  </clipPath>
 </defs>
</svg>
