<?xml version="1.0" encoding="utf-8" standalone="no"?>
<!DOCTYPE svg PUBLIC "-//W3C//DTD SVG 1.1//EN"
  "http://www.w3.org/Graphics/SVG/1.1/DTD/svg11.dtd">
<svg xmlns:xlink="http://www.w3.org/1999/xlink" width="216pt" height="216pt" viewBox="0 0 216 216" xmlns="http://www.w3.org/2000/svg" version="1.1">
 <metadata>
  <rdf:RDF xmlns:dc="http://purl.org/dc/elements/1.1/" xmlns:cc="http://creativecommons.org/ns#" xmlns:rdf="http://www.w3.org/1999/02/22-rdf-syntax-ns#">
   <cc:Work>
    <dc:type rdf:resource="http://purl.org/dc/dcmitype/StillImage"/>
    <dc:date>2026-01-21T11:50:06.034966</dc:date>
    <dc:format>image/svg+xml</dc:format>
    <dc:creator>
     <cc:Agent>
      <dc:title>Matplotlib v3.10.8, https://matplotlib.org/</dc:title>
     </cc:Agent>
    </dc:creator>
   </cc:Work>
  </rdf:RDF>
 </metadata>
 <defs>
  <style type="text/css">*{stroke-linejoin: round; stroke-linecap: butt}</style>
 </defs>
 <g id="figure_1">
  <g id="patch_1">
   <path d="M 0 216 
L 216 216 
L 216 0 
L 0 0 
z
" style="fill: #ffffff; stroke: #000000; stroke-width: 10; stroke-linejoin: miter"/>
  </g>
  <g id="axes_1">
   <g id="patch_2">
    <path d="M 34.105263 192.24 
L 149.653895 192.24 
L 149.653895 158.976 
L 34.105263 158.976 
z
" clip-path="url(#p5effe46722)" style="fill: #fefdfc"/>
   </g>
   <g id="patch_3">
    <path d="M 152.717684 192.24 
L 187.294737 192.24 
L 187.294737 158.976 
L 152.717684 158.976 
z
" clip-path="url(#p5effe46722)" style="fill: #fefffe"/>
   </g>
   <g id="patch_4">
    <path d="M 34.105263 155.912211 
L 149.653895 155.912211 
L 149.653895 35.111368 
L 34.105263 35.111368 
z
" clip-path="url(#p5effe46722)" style="fill: #fefefc"/>
   </g>
   <g id="patch_5">
    <path d="M 152.717684 155.912211 
L 187.294737 155.912211 
L 187.294737 105.140842 
L 152.717684 105.140842 
z
" clip-path="url(#p5effe46722)" style="fill: #29558d"/>
   </g>
   <g id="patch_6">
    <path d="M 152.717684 101.201684 
L 187.294737 101.201684 
L 187.294737 35.111368 
L 152.717684 35.111368 
z
" clip-path="url(#p5effe46722)" style="fill: #f8f8f1"/>
   </g>
   <g id="patch_7">
    <path d="M 34.105263 32.047579 
L 55.551789 32.047579 
L 55.551789 25.92 
L 34.105263 25.92 
z
" clip-path="url(#p5effe46722)" style="fill: #fbf331"/>
   </g>
   <g id="patch_8">
    <path d="M 60.366316 32.047579 
L 149.653895 32.047579 
L 149.653895 25.92 
L 60.366316 25.92 
z
" clip-path="url(#p5effe46722)" style="fill: #f3f0ed"/>
   </g>
   <g id="patch_9">
    <path d="M 152.717684 32.047579 
L 187.294737 32.047579 
L 187.294737 25.92 
L 152.717684 25.92 
z
" clip-path="url(#p5effe46722)" style="fill: #f4f0ea"/>
   </g>
   <g id="patch_10">
    <path d="M 149.653895 191.364632 
L 152.717684 191.364632 
L 152.717684 26.795368 
L 149.653895 26.795368 
z
" clip-path="url(#p5effe46722)"/>
   </g>
   <g id="patch_11">
    <path d="M 34.105263 158.976 
L 187.294737 158.976 
L 187.294737 155.912211 
L 34.105263 155.912211 
z
" clip-path="url(#p5effe46722)"/>
   </g>
   <g id="patch_12">
    <path d="M 152.717684 105.140842 
L 187.294737 105.140842 
L 187.294737 101.201684 
L 152.717684 101.201684 
z
" clip-path="url(#p5effe46722)"/>
   </g>
   <g id="patch_13">
    <path d="M 34.105263 35.111368 
L 187.294737 35.111368 
L 187.294737 32.047579 
L 34.105263 32.047579 
z
" clip-path="url(#p5effe46722)"/>
   </g>
   <g id="patch_14">
    <path d="M 55.551789 32.047579 
L 60.366316 32.047579 
L 60.366316 25.92 
L 55.551789 25.92 
z
" clip-path="url(#p5effe46722)"/>
   </g>
   <g id="patch_15">
    <path d="M 149.653895 192.24 
L 152.717684 192.24 
L 152.717684 191.364632 
L 149.653895 191.364632 
z
" clip-path="url(#p5effe46722)" style="fill: #fefdfc"/>
   </g>
   <g id="patch_16">
    <path d="M 149.653895 26.795368 
L 152.717684 26.795368 
L 152.717684 25.92 
L 149.653895 25.92 
z
" clip-path="url(#p5effe46722)" style="fill: #f4f0ea"/>
   </g>
  </g>
  <g id="text_1">
   <!-- » Compositie no. I « (b192) -->
   <g transform="translate(10.8 205.2) scale(0.12 -0.12)">
    <defs>
     <path id="DejaVuSans-bb" d="M 603 3309 
L 2069 2003 
L 2069 1747 
L 603 441 
L 603 1038 
L 1544 1875 
L 603 2713 
L 603 3309 
z
M 1959 3309 
L 3425 2003 
L 3425 1747 
L 1959 441 
L 1959 1038 
L 2900 1875 
L 1959 2713 
L 1959 3309 
z
" transform="scale(0.015625)"/>
     <path id="DejaVuSans-20" transform="scale(0.015625)"/>
     <path id="DejaVuSans-43" d="M 4122 4306 
L 4122 3641 
Q 3803 3938 3442 4084 
Q 3081 4231 2675 4231 
Q 1875 4231 1450 3742 
Q 1025 3253 1025 2328 
Q 1025 1406 1450 917 
Q 1875 428 2675 428 
Q 3081 428 3442 575 
Q 3803 722 4122 1019 
L 4122 359 
Q 3791 134 3420 21 
Q 3050 -91 2638 -91 
Q 1578 -91 968 557 
Q 359 1206 359 2328 
Q 359 3453 968 4101 
Q 1578 4750 2638 4750 
Q 3056 4750 3426 4639 
Q 3797 4528 4122 4306 
z
" transform="scale(0.015625)"/>
     <path id="DejaVuSans-6f" d="M 1959 3097 
Q 1497 3097 1228 2736 
Q 959 2375 959 1747 
Q 959 1119 1226 758 
Q 1494 397 1959 397 
Q 2419 397 2687 759 
Q 2956 1122 2956 1747 
Q 2956 2369 2687 2733 
Q 2419 3097 1959 3097 
z
M 1959 3584 
Q 2709 3584 3137 3096 
Q 3566 2609 3566 1747 
Q 3566 888 3137 398 
Q 2709 -91 1959 -91 
Q 1206 -91 779 398 
Q 353 888 353 1747 
Q 353 2609 779 3096 
Q 1206 3584 1959 3584 
z
" transform="scale(0.015625)"/>
     <path id="DejaVuSans-6d" d="M 3328 2828 
Q 3544 3216 3844 3400 
Q 4144 3584 4550 3584 
Q 5097 3584 5394 3201 
Q 5691 2819 5691 2113 
L 5691 0 
L 5113 0 
L 5113 2094 
Q 5113 2597 4934 2840 
Q 4756 3084 4391 3084 
Q 3944 3084 3684 2787 
Q 3425 2491 3425 1978 
L 3425 0 
L 2847 0 
L 2847 2094 
Q 2847 2600 2669 2842 
Q 2491 3084 2119 3084 
Q 1678 3084 1418 2786 
Q 1159 2488 1159 1978 
L 1159 0 
L 581 0 
L 581 3500 
L 1159 3500 
L 1159 2956 
Q 1356 3278 1631 3431 
Q 1906 3584 2284 3584 
Q 2666 3584 2933 3390 
Q 3200 3197 3328 2828 
z
" transform="scale(0.015625)"/>
     <path id="DejaVuSans-70" d="M 1159 525 
L 1159 -1331 
L 581 -1331 
L 581 3500 
L 1159 3500 
L 1159 2969 
Q 1341 3281 1617 3432 
Q 1894 3584 2278 3584 
Q 2916 3584 3314 3078 
Q 3713 2572 3713 1747 
Q 3713 922 3314 415 
Q 2916 -91 2278 -91 
Q 1894 -91 1617 61 
Q 1341 213 1159 525 
z
M 3116 1747 
Q 3116 2381 2855 2742 
Q 2594 3103 2138 3103 
Q 1681 3103 1420 2742 
Q 1159 2381 1159 1747 
Q 1159 1113 1420 752 
Q 1681 391 2138 391 
Q 2594 391 2855 752 
Q 3116 1113 3116 1747 
z
" transform="scale(0.015625)"/>
     <path id="DejaVuSans-73" d="M 2834 3397 
L 2834 2853 
Q 2591 2978 2328 3040 
Q 2066 3103 1784 3103 
Q 1356 3103 1142 2972 
Q 928 2841 928 2578 
Q 928 2378 1081 2264 
Q 1234 2150 1697 2047 
L 1894 2003 
Q 2506 1872 2764 1633 
Q 3022 1394 3022 966 
Q 3022 478 2636 193 
Q 2250 -91 1575 -91 
Q 1294 -91 989 -36 
Q 684 19 347 128 
L 347 722 
Q 666 556 975 473 
Q 1284 391 1588 391 
Q 1994 391 2212 530 
Q 2431 669 2431 922 
Q 2431 1156 2273 1281 
Q 2116 1406 1581 1522 
L 1381 1569 
Q 847 1681 609 1914 
Q 372 2147 372 2553 
Q 372 3047 722 3315 
Q 1072 3584 1716 3584 
Q 2034 3584 2315 3537 
Q 2597 3491 2834 3397 
z
" transform="scale(0.015625)"/>
     <path id="DejaVuSans-69" d="M 603 3500 
L 1178 3500 
L 1178 0 
L 603 0 
L 603 3500 
z
M 603 4863 
L 1178 4863 
L 1178 4134 
L 603 4134 
L 603 4863 
z
" transform="scale(0.015625)"/>
     <path id="DejaVuSans-74" d="M 1172 4494 
L 1172 3500 
L 2356 3500 
L 2356 3053 
L 1172 3053 
L 1172 1153 
Q 1172 725 1289 603 
Q 1406 481 1766 481 
L 2356 481 
L 2356 0 
L 1766 0 
Q 1100 0 847 248 
Q 594 497 594 1153 
L 594 3053 
L 172 3053 
L 172 3500 
L 594 3500 
L 594 4494 
L 1172 4494 
z
" transform="scale(0.015625)"/>
     <path id="DejaVuSans-65" d="M 3597 1894 
L 3597 1613 
L 953 1613 
Q 991 1019 1311 708 
Q 1631 397 2203 397 
Q 2534 397 2845 478 
Q 3156 559 3463 722 
L 3463 178 
Q 3153 47 2828 -22 
Q 2503 -91 2169 -91 
Q 1331 -91 842 396 
Q 353 884 353 1716 
Q 353 2575 817 3079 
Q 1281 3584 2069 3584 
Q 2775 3584 3186 3129 
Q 3597 2675 3597 1894 
z
M 3022 2063 
Q 3016 2534 2758 2815 
Q 2500 3097 2075 3097 
Q 1594 3097 1305 2825 
Q 1016 2553 972 2059 
L 3022 2063 
z
" transform="scale(0.015625)"/>
     <path id="DejaVuSans-6e" d="M 3513 2113 
L 3513 0 
L 2938 0 
L 2938 2094 
Q 2938 2591 2744 2837 
Q 2550 3084 2163 3084 
Q 1697 3084 1428 2787 
Q 1159 2491 1159 1978 
L 1159 0 
L 581 0 
L 581 3500 
L 1159 3500 
L 1159 2956 
Q 1366 3272 1645 3428 
Q 1925 3584 2291 3584 
Q 2894 3584 3203 3211 
Q 3513 2838 3513 2113 
z
" transform="scale(0.015625)"/>
     <path id="DejaVuSans-2e" d="M 684 794 
L 1344 794 
L 1344 0 
L 684 0 
L 684 794 
z
" transform="scale(0.015625)"/>
     <path id="DejaVuSans-49" d="M 628 4666 
L 1259 4666 
L 1259 0 
L 628 0 
L 628 4666 
z
" transform="scale(0.015625)"/>
     <path id="DejaVuSans-ab" d="M 3316 3309 
L 3316 2713 
L 2375 1875 
L 3316 1038 
L 3316 441 
L 1850 1747 
L 1850 2003 
L 3316 3309 
z
M 1959 3309 
L 1959 2713 
L 1019 1875 
L 1959 1038 
L 1959 441 
L 494 1747 
L 494 2003 
L 1959 3309 
z
" transform="scale(0.015625)"/>
     <path id="DejaVuSans-28" d="M 1984 4856 
Q 1566 4138 1362 3434 
Q 1159 2731 1159 2009 
Q 1159 1288 1364 580 
Q 1569 -128 1984 -844 
L 1484 -844 
Q 1016 -109 783 600 
Q 550 1309 550 2009 
Q 550 2706 781 3412 
Q 1013 4119 1484 4856 
L 1984 4856 
z
" transform="scale(0.015625)"/>
     <path id="DejaVuSans-62" d="M 3116 1747 
Q 3116 2381 2855 2742 
Q 2594 3103 2138 3103 
Q 1681 3103 1420 2742 
Q 1159 2381 1159 1747 
Q 1159 1113 1420 752 
Q 1681 391 2138 391 
Q 2594 391 2855 752 
Q 3116 1113 3116 1747 
z
M 1159 2969 
Q 1341 3281 1617 3432 
Q 1894 3584 2278 3584 
Q 2916 3584 3314 3078 
Q 3713 2572 3713 1747 
Q 3713 922 3314 415 
Q 2916 -91 2278 -91 
Q 1894 -91 1617 61 
Q 1341 213 1159 525 
L 1159 0 
L 581 0 
L 581 4863 
L 1159 4863 
L 1159 2969 
z
" transform="scale(0.015625)"/>
     <path id="DejaVuSans-31" d="M 794 531 
L 1825 531 
L 1825 4091 
L 703 3866 
L 703 4441 
L 1819 4666 
L 2450 4666 
L 2450 531 
L 3481 531 
L 3481 0 
L 794 0 
L 794 531 
z
" transform="scale(0.015625)"/>
     <path id="DejaVuSans-39" d="M 703 97 
L 703 672 
Q 941 559 1184 500 
Q 1428 441 1663 441 
Q 2288 441 2617 861 
Q 2947 1281 2994 2138 
Q 2813 1869 2534 1725 
Q 2256 1581 1919 1581 
Q 1219 1581 811 2004 
Q 403 2428 403 3163 
Q 403 3881 828 4315 
Q 1253 4750 1959 4750 
Q 2769 4750 3195 4129 
Q 3622 3509 3622 2328 
Q 3622 1225 3098 567 
Q 2575 -91 1691 -91 
Q 1453 -91 1209 -44 
Q 966 3 703 97 
z
M 1959 2075 
Q 2384 2075 2632 2365 
Q 2881 2656 2881 3163 
Q 2881 3666 2632 3958 
Q 2384 4250 1959 4250 
Q 1534 4250 1286 3958 
Q 1038 3666 1038 3163 
Q 1038 2656 1286 2365 
Q 1534 2075 1959 2075 
z
" transform="scale(0.015625)"/>
     <path id="DejaVuSans-32" d="M 1228 531 
L 3431 531 
L 3431 0 
L 469 0 
L 469 531 
Q 828 903 1448 1529 
Q 2069 2156 2228 2338 
Q 2531 2678 2651 2914 
Q 2772 3150 2772 3378 
Q 2772 3750 2511 3984 
Q 2250 4219 1831 4219 
Q 1534 4219 1204 4116 
Q 875 4013 500 3803 
L 500 4441 
Q 881 4594 1212 4672 
Q 1544 4750 1819 4750 
Q 2544 4750 2975 4387 
Q 3406 4025 3406 3419 
Q 3406 3131 3298 2873 
Q 3191 2616 2906 2266 
Q 2828 2175 2409 1742 
Q 1991 1309 1228 531 
z
" transform="scale(0.015625)"/>
     <path id="DejaVuSans-29" d="M 513 4856 
L 1013 4856 
Q 1481 4119 1714 3412 
Q 1947 2706 1947 2009 
Q 1947 1309 1714 600 
Q 1481 -109 1013 -844 
L 513 -844 
Q 928 -128 1133 580 
Q 1338 1288 1338 2009 
Q 1338 2731 1133 3434 
Q 928 4138 513 4856 
z
" transform="scale(0.015625)"/>
    </defs>
    <use xlink:href="#DejaVuSans-bb"/>
    <use xlink:href="#DejaVuSans-20" transform="translate(61.181641 0)"/>
    <use xlink:href="#DejaVuSans-43" transform="translate(92.96875 0)"/>
    <use xlink:href="#DejaVuSans-6f" transform="translate(162.792969 0)"/>
    <use xlink:href="#DejaVuSans-6d" transform="translate(223.974609 0)"/>
    <use xlink:href="#DejaVuSans-70" transform="translate(321.386719 0)"/>
    <use xlink:href="#DejaVuSans-6f" transform="translate(384.863281 0)"/>
    <use xlink:href="#DejaVuSans-73" transform="translate(446.044922 0)"/>
    <use xlink:href="#DejaVuSans-69" transform="translate(498.144531 0)"/>
    <use xlink:href="#DejaVuSans-74" transform="translate(525.927734 0)"/>
    <use xlink:href="#DejaVuSans-69" transform="translate(565.136719 0)"/>
    <use xlink:href="#DejaVuSans-65" transform="translate(592.919922 0)"/>
    <use xlink:href="#DejaVuSans-20" transform="translate(654.443359 0)"/>
    <use xlink:href="#DejaVuSans-6e" transform="translate(686.230469 0)"/>
    <use xlink:href="#DejaVuSans-6f" transform="translate(749.609375 0)"/>
    <use xlink:href="#DejaVuSans-2e" transform="translate(809.041016 0)"/>
    <use xlink:href="#DejaVuSans-20" transform="translate(840.828125 0)"/>
    <use xlink:href="#DejaVuSans-49" transform="translate(872.615234 0)"/>
    <use xlink:href="#DejaVuSans-20" transform="translate(902.107422 0)"/>
    <use xlink:href="#DejaVuSans-ab" transform="translate(933.894531 0)"/>
    <use xlink:href="#DejaVuSans-20" transform="translate(995.076172 0)"/>
    <use xlink:href="#DejaVuSans-28" transform="translate(1026.863281 0)"/>
    <use xlink:href="#DejaVuSans-62" transform="translate(1065.876953 0)"/>
    <use xlink:href="#DejaVuSans-31" transform="translate(1129.353516 0)"/>
    <use xlink:href="#DejaVuSans-39" transform="translate(1192.976562 0)"/>
    <use xlink:href="#DejaVuSans-32" transform="translate(1256.599609 0)"/>
    <use xlink:href="#DejaVuSans-29" transform="translate(1320.222656 0)"/>
   </g>
  </g>
 </g>
 <defs>
  <clipPath id="p5effe46722">
   <rect x="34.105263" y="25.92" width="153.189474" height="166.32"/>
  </clipPath>
 </defs>
</svg>
