<?xml version="1.0" encoding="utf-8" standalone="no"?>
<!DOCTYPE svg PUBLIC "-//W3C//DTD SVG 1.1//EN"
  "http://www.w3.org/Graphics/SVG/1.1/DTD/svg11.dtd">
<svg xmlns:xlink="http://www.w3.org/1999/xlink" width="216pt" height="216pt" viewBox="0 0 216 216" xmlns="http://www.w3.org/2000/svg" version="1.1">
 <metadata>
  <rdf:RDF xmlns:dc="http://purl.org/dc/elements/1.1/" xmlns:cc="http://creativecommons.org/ns#" xmlns:rdf="http://www.w3.org/1999/02/22-rdf-syntax-ns#">
   <cc:Work>
    <dc:type rdf:resource="http://purl.org/dc/dcmitype/StillImage"/>
    <dc:date>2026-01-21T11:50:06.962910</dc:date>
    <dc:format>image/svg+xml</dc:format>
    <dc:creator>
     <cc:Agent>
      <dc:title>Matplotlib v3.10.8, https://matplotlib.org/</dc:title>
     </cc:Agent>
    </dc:creator>
   </cc:Work>
  </rdf:RDF>
 </metadata>
 <defs>
  <style type="text/css">*{stroke-linejoin: round; stroke-linecap: butt}</style>
 </defs>
 <g id="figure_1">
  <g id="patch_1">
   <path d="M 0 216 
L 216 216 
L 216 0 
L 0 0 
z
" style="fill: #ffffff; stroke: #000000; stroke-width: 10; stroke-linejoin: miter"/>
  </g>
  <g id="axes_1">
   <g id="patch_2">
    <path d="M 30.990622 192.24 
L 97.472614 192.24 
L 97.472614 120.697095 
L 30.990622 120.697095 
z
" clip-path="url(#pbaeb1438d7)" style="fill: #f9ed1a"/>
   </g>
   <g id="patch_3">
    <path d="M 99.082905 192.24 
L 103.683734 192.24 
L 103.683734 120.697095 
L 99.082905 120.697095 
z
" clip-path="url(#pbaeb1438d7)" style="fill: #f8f1eb"/>
   </g>
   <g id="patch_4">
    <path d="M 105.294025 192.24 
L 190.409378 192.24 
L 190.409378 120.697095 
L 105.294025 120.697095 
z
" clip-path="url(#pbaeb1438d7)" style="fill: #f7f0ec"/>
   </g>
   <g id="patch_5">
    <path d="M 30.990622 118.856763 
L 97.472614 118.856763 
L 97.472614 110.57527 
L 30.990622 110.57527 
z
" clip-path="url(#pbaeb1438d7)" style="fill: #f7efea"/>
   </g>
   <g id="patch_6">
    <path d="M 99.082905 118.856763 
L 103.683734 118.856763 
L 103.683734 110.57527 
L 99.082905 110.57527 
z
" clip-path="url(#pbaeb1438d7)" style="fill: #f7f0ea"/>
   </g>
   <g id="patch_7">
    <path d="M 105.294025 118.856763 
L 190.409378 118.856763 
L 190.409378 110.57527 
L 105.294025 110.57527 
z
" clip-path="url(#pbaeb1438d7)" style="fill: #f6f0ec"/>
   </g>
   <g id="patch_8">
    <path d="M 30.990622 108.734938 
L 34.211203 108.734938 
L 34.211203 87.801162 
L 30.990622 87.801162 
z
" clip-path="url(#pbaeb1438d7)" style="fill: #f2ebe4"/>
   </g>
   <g id="patch_9">
    <path d="M 35.591452 108.734938 
L 97.472614 108.734938 
L 97.472614 87.801162 
L 35.591452 87.801162 
z
" clip-path="url(#pbaeb1438d7)" style="fill: #f4ece8"/>
   </g>
   <g id="patch_10">
    <path d="M 99.082905 108.734938 
L 103.683734 108.734938 
L 103.683734 87.801162 
L 99.082905 87.801162 
z
" clip-path="url(#pbaeb1438d7)" style="fill: #f5eeea"/>
   </g>
   <g id="patch_11">
    <path d="M 105.294025 108.734938 
L 190.409378 108.734938 
L 190.409378 87.801162 
L 105.294025 87.801162 
z
" clip-path="url(#pbaeb1438d7)" style="fill: #f6f0ec"/>
   </g>
   <g id="patch_12">
    <path d="M 30.990622 85.730788 
L 97.472614 85.730788 
L 97.472614 77.449295 
L 30.990622 77.449295 
z
" clip-path="url(#pbaeb1438d7)" style="fill: #f5eee9"/>
   </g>
   <g id="patch_13">
    <path d="M 99.082905 85.730788 
L 103.683734 85.730788 
L 103.683734 77.449295 
L 99.082905 77.449295 
z
" clip-path="url(#pbaeb1438d7)" style="fill: #f5efe9"/>
   </g>
   <g id="patch_14">
    <path d="M 105.294025 85.730788 
L 190.409378 85.730788 
L 190.409378 77.449295 
L 105.294025 77.449295 
z
" clip-path="url(#pbaeb1438d7)" style="fill: #f7f1ed"/>
   </g>
   <g id="patch_15">
    <path d="M 30.990622 75.378921 
L 97.472614 75.378921 
L 97.472614 25.92 
L 30.990622 25.92 
z
" clip-path="url(#pbaeb1438d7)" style="fill: #f6efeb"/>
   </g>
   <g id="patch_16">
    <path d="M 99.082905 75.378921 
L 103.683734 75.378921 
L 103.683734 25.92 
L 99.082905 25.92 
z
" clip-path="url(#pbaeb1438d7)" style="fill: #f6efeb"/>
   </g>
   <g id="patch_17">
    <path d="M 105.294025 75.378921 
L 146.241411 75.378921 
L 146.241411 35.12166 
L 105.294025 35.12166 
z
" clip-path="url(#pbaeb1438d7)" style="fill: #f7efec"/>
   </g>
   <g id="patch_18">
    <path d="M 147.851701 75.378921 
L 190.409378 75.378921 
L 190.409378 25.92 
L 147.851701 25.92 
z
" clip-path="url(#pbaeb1438d7)" style="fill: #f8f0ec"/>
   </g>
   <g id="patch_19">
    <path d="M 105.294025 32.821245 
L 146.241411 32.821245 
L 146.241411 25.92 
L 105.294025 25.92 
z
" clip-path="url(#pbaeb1438d7)" style="fill: #3860a0"/>
   </g>
   <g id="patch_20">
    <path d="M 30.990622 120.697095 
L 190.409378 120.697095 
L 190.409378 118.856763 
L 30.990622 118.856763 
z
" clip-path="url(#pbaeb1438d7)"/>
   </g>
   <g id="patch_21">
    <path d="M 30.990622 110.57527 
L 190.409378 110.57527 
L 190.409378 108.734938 
L 30.990622 108.734938 
z
" clip-path="url(#pbaeb1438d7)"/>
   </g>
   <g id="patch_22">
    <path d="M 30.990622 87.801162 
L 190.409378 87.801162 
L 190.409378 85.730788 
L 30.990622 85.730788 
z
" clip-path="url(#pbaeb1438d7)"/>
   </g>
   <g id="patch_23">
    <path d="M 30.990622 77.449295 
L 190.409378 77.449295 
L 190.409378 75.378921 
L 30.990622 75.378921 
z
" clip-path="url(#pbaeb1438d7)"/>
   </g>
   <g id="patch_24">
    <path d="M 97.472614 192.24 
L 99.082905 192.24 
L 99.082905 25.92 
L 97.472614 25.92 
z
" clip-path="url(#pbaeb1438d7)"/>
   </g>
   <g id="patch_25">
    <path d="M 103.683734 192.24 
L 105.294025 192.24 
L 105.294025 25.92 
L 103.683734 25.92 
z
" clip-path="url(#pbaeb1438d7)"/>
   </g>
   <g id="patch_26">
    <path d="M 34.211203 108.734938 
L 35.591452 108.734938 
L 35.591452 87.801162 
L 34.211203 87.801162 
z
" clip-path="url(#pbaeb1438d7)"/>
   </g>
   <g id="patch_27">
    <path d="M 146.241411 75.378921 
L 147.851701 75.378921 
L 147.851701 25.92 
L 146.241411 25.92 
z
" clip-path="url(#pbaeb1438d7)"/>
   </g>
   <g id="patch_28">
    <path d="M 105.294025 35.12166 
L 146.241411 35.12166 
L 146.241411 32.821245 
L 105.294025 32.821245 
z
" clip-path="url(#pbaeb1438d7)"/>
   </g>
  </g>
  <g id="text_1">
   <!-- » Composition (no. II) bleu-jaune « (b256) -->
   <g transform="translate(10.8 205.2) scale(0.12 -0.12)">
    <defs>
     <path id="DejaVuSans-bb" d="M 603 3309 
L 2069 2003 
L 2069 1747 
L 603 441 
L 603 1038 
L 1544 1875 
L 603 2713 
L 603 3309 
z
M 1959 3309 
L 3425 2003 
L 3425 1747 
L 1959 441 
L 1959 1038 
L 2900 1875 
L 1959 2713 
L 1959 3309 
z
" transform="scale(0.015625)"/>
     <path id="DejaVuSans-20" transform="scale(0.015625)"/>
     <path id="DejaVuSans-43" d="M 4122 4306 
L 4122 3641 
Q 3803 3938 3442 4084 
Q 3081 4231 2675 4231 
Q 1875 4231 1450 3742 
Q 1025 3253 1025 2328 
Q 1025 1406 1450 917 
Q 1875 428 2675 428 
Q 3081 428 3442 575 
Q 3803 722 4122 1019 
L 4122 359 
Q 3791 134 3420 21 
Q 3050 -91 2638 -91 
Q 1578 -91 968 557 
Q 359 1206 359 2328 
Q 359 3453 968 4101 
Q 1578 4750 2638 4750 
Q 3056 4750 3426 4639 
Q 3797 4528 4122 4306 
z
" transform="scale(0.015625)"/>
     <path id="DejaVuSans-6f" d="M 1959 3097 
Q 1497 3097 1228 2736 
Q 959 2375 959 1747 
Q 959 1119 1226 758 
Q 1494 397 1959 397 
Q 2419 397 2687 759 
Q 2956 1122 2956 1747 
Q 2956 2369 2687 2733 
Q 2419 3097 1959 3097 
z
M 1959 3584 
Q 2709 3584 3137 3096 
Q 3566 2609 3566 1747 
Q 3566 888 3137 398 
Q 2709 -91 1959 -91 
Q 1206 -91 779 398 
Q 353 888 353 1747 
Q 353 2609 779 3096 
Q 1206 3584 1959 3584 
z
" transform="scale(0.015625)"/>
     <path id="DejaVuSans-6d" d="M 3328 2828 
Q 3544 3216 3844 3400 
Q 4144 3584 4550 3584 
Q 5097 3584 5394 3201 
Q 5691 2819 5691 2113 
L 5691 0 
L 5113 0 
L 5113 2094 
Q 5113 2597 4934 2840 
Q 4756 3084 4391 3084 
Q 3944 3084 3684 2787 
Q 3425 2491 3425 1978 
L 3425 0 
L 2847 0 
L 2847 2094 
Q 2847 2600 2669 2842 
Q 2491 3084 2119 3084 
Q 1678 3084 1418 2786 
Q 1159 2488 1159 1978 
L 1159 0 
L 581 0 
L 581 3500 
L 1159 3500 
L 1159 2956 
Q 1356 3278 1631 3431 
Q 1906 3584 2284 3584 
Q 2666 3584 2933 3390 
Q 3200 3197 3328 2828 
z
" transform="scale(0.015625)"/>
     <path id="DejaVuSans-70" d="M 1159 525 
L 1159 -1331 
L 581 -1331 
L 581 3500 
L 1159 3500 
L 1159 2969 
Q 1341 3281 1617 3432 
Q 1894 3584 2278 3584 
Q 2916 3584 3314 3078 
Q 3713 2572 3713 1747 
Q 3713 922 3314 415 
Q 2916 -91 2278 -91 
Q 1894 -91 1617 61 
Q 1341 213 1159 525 
z
M 3116 1747 
Q 3116 2381 2855 2742 
Q 2594 3103 2138 3103 
Q 1681 3103 1420 2742 
Q 1159 2381 1159 1747 
Q 1159 1113 1420 752 
Q 1681 391 2138 391 
Q 2594 391 2855 752 
Q 3116 1113 3116 1747 
z
" transform="scale(0.015625)"/>
     <path id="DejaVuSans-73" d="M 2834 3397 
L 2834 2853 
Q 2591 2978 2328 3040 
Q 2066 3103 1784 3103 
Q 1356 3103 1142 2972 
Q 928 2841 928 2578 
Q 928 2378 1081 2264 
Q 1234 2150 1697 2047 
L 1894 2003 
Q 2506 1872 2764 1633 
Q 3022 1394 3022 966 
Q 3022 478 2636 193 
Q 2250 -91 1575 -91 
Q 1294 -91 989 -36 
Q 684 19 347 128 
L 347 722 
Q 666 556 975 473 
Q 1284 391 1588 391 
Q 1994 391 2212 530 
Q 2431 669 2431 922 
Q 2431 1156 2273 1281 
Q 2116 1406 1581 1522 
L 1381 1569 
Q 847 1681 609 1914 
Q 372 2147 372 2553 
Q 372 3047 722 3315 
Q 1072 3584 1716 3584 
Q 2034 3584 2315 3537 
Q 2597 3491 2834 3397 
z
" transform="scale(0.015625)"/>
     <path id="DejaVuSans-69" d="M 603 3500 
L 1178 3500 
L 1178 0 
L 603 0 
L 603 3500 
z
M 603 4863 
L 1178 4863 
L 1178 4134 
L 603 4134 
L 603 4863 
z
" transform="scale(0.015625)"/>
     <path id="DejaVuSans-74" d="M 1172 4494 
L 1172 3500 
L 2356 3500 
L 2356 3053 
L 1172 3053 
L 1172 1153 
Q 1172 725 1289 603 
Q 1406 481 1766 481 
L 2356 481 
L 2356 0 
L 1766 0 
Q 1100 0 847 248 
Q 594 497 594 1153 
L 594 3053 
L 172 3053 
L 172 3500 
L 594 3500 
L 594 4494 
L 1172 4494 
z
" transform="scale(0.015625)"/>
     <path id="DejaVuSans-6e" d="M 3513 2113 
L 3513 0 
L 2938 0 
L 2938 2094 
Q 2938 2591 2744 2837 
Q 2550 3084 2163 3084 
Q 1697 3084 1428 2787 
Q 1159 2491 1159 1978 
L 1159 0 
L 581 0 
L 581 3500 
L 1159 3500 
L 1159 2956 
Q 1366 3272 1645 3428 
Q 1925 3584 2291 3584 
Q 2894 3584 3203 3211 
Q 3513 2838 3513 2113 
z
" transform="scale(0.015625)"/>
     <path id="DejaVuSans-28" d="M 1984 4856 
Q 1566 4138 1362 3434 
Q 1159 2731 1159 2009 
Q 1159 1288 1364 580 
Q 1569 -128 1984 -844 
L 1484 -844 
Q 1016 -109 783 600 
Q 550 1309 550 2009 
Q 550 2706 781 3412 
Q 1013 4119 1484 4856 
L 1984 4856 
z
" transform="scale(0.015625)"/>
     <path id="DejaVuSans-2e" d="M 684 794 
L 1344 794 
L 1344 0 
L 684 0 
L 684 794 
z
" transform="scale(0.015625)"/>
     <path id="DejaVuSans-49" d="M 628 4666 
L 1259 4666 
L 1259 0 
L 628 0 
L 628 4666 
z
" transform="scale(0.015625)"/>
     <path id="DejaVuSans-29" d="M 513 4856 
L 1013 4856 
Q 1481 4119 1714 3412 
Q 1947 2706 1947 2009 
Q 1947 1309 1714 600 
Q 1481 -109 1013 -844 
L 513 -844 
Q 928 -128 1133 580 
Q 1338 1288 1338 2009 
Q 1338 2731 1133 3434 
Q 928 4138 513 4856 
z
" transform="scale(0.015625)"/>
     <path id="DejaVuSans-62" d="M 3116 1747 
Q 3116 2381 2855 2742 
Q 2594 3103 2138 3103 
Q 1681 3103 1420 2742 
Q 1159 2381 1159 1747 
Q 1159 1113 1420 752 
Q 1681 391 2138 391 
Q 2594 391 2855 752 
Q 3116 1113 3116 1747 
z
M 1159 2969 
Q 1341 3281 1617 3432 
Q 1894 3584 2278 3584 
Q 2916 3584 3314 3078 
Q 3713 2572 3713 1747 
Q 3713 922 3314 415 
Q 2916 -91 2278 -91 
Q 1894 -91 1617 61 
Q 1341 213 1159 525 
L 1159 0 
L 581 0 
L 581 4863 
L 1159 4863 
L 1159 2969 
z
" transform="scale(0.015625)"/>
     <path id="DejaVuSans-6c" d="M 603 4863 
L 1178 4863 
L 1178 0 
L 603 0 
L 603 4863 
z
" transform="scale(0.015625)"/>
     <path id="DejaVuSans-65" d="M 3597 1894 
L 3597 1613 
L 953 1613 
Q 991 1019 1311 708 
Q 1631 397 2203 397 
Q 2534 397 2845 478 
Q 3156 559 3463 722 
L 3463 178 
Q 3153 47 2828 -22 
Q 2503 -91 2169 -91 
Q 1331 -91 842 396 
Q 353 884 353 1716 
Q 353 2575 817 3079 
Q 1281 3584 2069 3584 
Q 2775 3584 3186 3129 
Q 3597 2675 3597 1894 
z
M 3022 2063 
Q 3016 2534 2758 2815 
Q 2500 3097 2075 3097 
Q 1594 3097 1305 2825 
Q 1016 2553 972 2059 
L 3022 2063 
z
" transform="scale(0.015625)"/>
     <path id="DejaVuSans-75" d="M 544 1381 
L 544 3500 
L 1119 3500 
L 1119 1403 
Q 1119 906 1312 657 
Q 1506 409 1894 409 
Q 2359 409 2629 706 
Q 2900 1003 2900 1516 
L 2900 3500 
L 3475 3500 
L 3475 0 
L 2900 0 
L 2900 538 
Q 2691 219 2414 64 
Q 2138 -91 1772 -91 
Q 1169 -91 856 284 
Q 544 659 544 1381 
z
M 1991 3584 
L 1991 3584 
z
" transform="scale(0.015625)"/>
     <path id="DejaVuSans-2d" d="M 313 2009 
L 1997 2009 
L 1997 1497 
L 313 1497 
L 313 2009 
z
" transform="scale(0.015625)"/>
     <path id="DejaVuSans-6a" d="M 603 3500 
L 1178 3500 
L 1178 -63 
Q 1178 -731 923 -1031 
Q 669 -1331 103 -1331 
L -116 -1331 
L -116 -844 
L 38 -844 
Q 366 -844 484 -692 
Q 603 -541 603 -63 
L 603 3500 
z
M 603 4863 
L 1178 4863 
L 1178 4134 
L 603 4134 
L 603 4863 
z
" transform="scale(0.015625)"/>
     <path id="DejaVuSans-61" d="M 2194 1759 
Q 1497 1759 1228 1600 
Q 959 1441 959 1056 
Q 959 750 1161 570 
Q 1363 391 1709 391 
Q 2188 391 2477 730 
Q 2766 1069 2766 1631 
L 2766 1759 
L 2194 1759 
z
M 3341 1997 
L 3341 0 
L 2766 0 
L 2766 531 
Q 2569 213 2275 61 
Q 1981 -91 1556 -91 
Q 1019 -91 701 211 
Q 384 513 384 1019 
Q 384 1609 779 1909 
Q 1175 2209 1959 2209 
L 2766 2209 
L 2766 2266 
Q 2766 2663 2505 2880 
Q 2244 3097 1772 3097 
Q 1472 3097 1187 3025 
Q 903 2953 641 2809 
L 641 3341 
Q 956 3463 1253 3523 
Q 1550 3584 1831 3584 
Q 2591 3584 2966 3190 
Q 3341 2797 3341 1997 
z
" transform="scale(0.015625)"/>
     <path id="DejaVuSans-ab" d="M 3316 3309 
L 3316 2713 
L 2375 1875 
L 3316 1038 
L 3316 441 
L 1850 1747 
L 1850 2003 
L 3316 3309 
z
M 1959 3309 
L 1959 2713 
L 1019 1875 
L 1959 1038 
L 1959 441 
L 494 1747 
L 494 2003 
L 1959 3309 
z
" transform="scale(0.015625)"/>
     <path id="DejaVuSans-32" d="M 1228 531 
L 3431 531 
L 3431 0 
L 469 0 
L 469 531 
Q 828 903 1448 1529 
Q 2069 2156 2228 2338 
Q 2531 2678 2651 2914 
Q 2772 3150 2772 3378 
Q 2772 3750 2511 3984 
Q 2250 4219 1831 4219 
Q 1534 4219 1204 4116 
Q 875 4013 500 3803 
L 500 4441 
Q 881 4594 1212 4672 
Q 1544 4750 1819 4750 
Q 2544 4750 2975 4387 
Q 3406 4025 3406 3419 
Q 3406 3131 3298 2873 
Q 3191 2616 2906 2266 
Q 2828 2175 2409 1742 
Q 1991 1309 1228 531 
z
" transform="scale(0.015625)"/>
     <path id="DejaVuSans-35" d="M 691 4666 
L 3169 4666 
L 3169 4134 
L 1269 4134 
L 1269 2991 
Q 1406 3038 1543 3061 
Q 1681 3084 1819 3084 
Q 2600 3084 3056 2656 
Q 3513 2228 3513 1497 
Q 3513 744 3044 326 
Q 2575 -91 1722 -91 
Q 1428 -91 1123 -41 
Q 819 9 494 109 
L 494 744 
Q 775 591 1075 516 
Q 1375 441 1709 441 
Q 2250 441 2565 725 
Q 2881 1009 2881 1497 
Q 2881 1984 2565 2268 
Q 2250 2553 1709 2553 
Q 1456 2553 1204 2497 
Q 953 2441 691 2322 
L 691 4666 
z
" transform="scale(0.015625)"/>
     <path id="DejaVuSans-36" d="M 2113 2584 
Q 1688 2584 1439 2293 
Q 1191 2003 1191 1497 
Q 1191 994 1439 701 
Q 1688 409 2113 409 
Q 2538 409 2786 701 
Q 3034 994 3034 1497 
Q 3034 2003 2786 2293 
Q 2538 2584 2113 2584 
z
M 3366 4563 
L 3366 3988 
Q 3128 4100 2886 4159 
Q 2644 4219 2406 4219 
Q 1781 4219 1451 3797 
Q 1122 3375 1075 2522 
Q 1259 2794 1537 2939 
Q 1816 3084 2150 3084 
Q 2853 3084 3261 2657 
Q 3669 2231 3669 1497 
Q 3669 778 3244 343 
Q 2819 -91 2113 -91 
Q 1303 -91 875 529 
Q 447 1150 447 2328 
Q 447 3434 972 4092 
Q 1497 4750 2381 4750 
Q 2619 4750 2861 4703 
Q 3103 4656 3366 4563 
z
" transform="scale(0.015625)"/>
    </defs>
    <use xlink:href="#DejaVuSans-bb"/>
    <use xlink:href="#DejaVuSans-20" transform="translate(61.181641 0)"/>
    <use xlink:href="#DejaVuSans-43" transform="translate(92.96875 0)"/>
    <use xlink:href="#DejaVuSans-6f" transform="translate(162.792969 0)"/>
    <use xlink:href="#DejaVuSans-6d" transform="translate(223.974609 0)"/>
    <use xlink:href="#DejaVuSans-70" transform="translate(321.386719 0)"/>
    <use xlink:href="#DejaVuSans-6f" transform="translate(384.863281 0)"/>
    <use xlink:href="#DejaVuSans-73" transform="translate(446.044922 0)"/>
    <use xlink:href="#DejaVuSans-69" transform="translate(498.144531 0)"/>
    <use xlink:href="#DejaVuSans-74" transform="translate(525.927734 0)"/>
    <use xlink:href="#DejaVuSans-69" transform="translate(565.136719 0)"/>
    <use xlink:href="#DejaVuSans-6f" transform="translate(592.919922 0)"/>
    <use xlink:href="#DejaVuSans-6e" transform="translate(654.101562 0)"/>
    <use xlink:href="#DejaVuSans-20" transform="translate(717.480469 0)"/>
    <use xlink:href="#DejaVuSans-28" transform="translate(749.267578 0)"/>
    <use xlink:href="#DejaVuSans-6e" transform="translate(788.28125 0)"/>
    <use xlink:href="#DejaVuSans-6f" transform="translate(851.660156 0)"/>
    <use xlink:href="#DejaVuSans-2e" transform="translate(911.091797 0)"/>
    <use xlink:href="#DejaVuSans-20" transform="translate(942.878906 0)"/>
    <use xlink:href="#DejaVuSans-49" transform="translate(974.666016 0)"/>
    <use xlink:href="#DejaVuSans-49" transform="translate(1004.158203 0)"/>
    <use xlink:href="#DejaVuSans-29" transform="translate(1033.650391 0)"/>
    <use xlink:href="#DejaVuSans-20" transform="translate(1072.664062 0)"/>
    <use xlink:href="#DejaVuSans-62" transform="translate(1104.451172 0)"/>
    <use xlink:href="#DejaVuSans-6c" transform="translate(1167.927734 0)"/>
    <use xlink:href="#DejaVuSans-65" transform="translate(1195.710938 0)"/>
    <use xlink:href="#DejaVuSans-75" transform="translate(1257.234375 0)"/>
    <use xlink:href="#DejaVuSans-2d" transform="translate(1320.613281 0)"/>
    <use xlink:href="#DejaVuSans-6a" transform="translate(1356.697266 0)"/>
    <use xlink:href="#DejaVuSans-61" transform="translate(1384.480469 0)"/>
    <use xlink:href="#DejaVuSans-75" transform="translate(1445.759766 0)"/>
    <use xlink:href="#DejaVuSans-6e" transform="translate(1509.138672 0)"/>
    <use xlink:href="#DejaVuSans-65" transform="translate(1572.517578 0)"/>
    <use xlink:href="#DejaVuSans-20" transform="translate(1634.041016 0)"/>
    <use xlink:href="#DejaVuSans-ab" transform="translate(1665.828125 0)"/>
    <use xlink:href="#DejaVuSans-20" transform="translate(1727.009766 0)"/>
    <use xlink:href="#DejaVuSans-28" transform="translate(1758.796875 0)"/>
    <use xlink:href="#DejaVuSans-62" transform="translate(1797.810547 0)"/>
    <use xlink:href="#DejaVuSans-32" transform="translate(1861.287109 0)"/>
    <use xlink:href="#DejaVuSans-35" transform="translate(1924.910156 0)"/>
    <use xlink:href="#DejaVuSans-36" transform="translate(1988.533203 0)"/>
    <use xlink:href="#DejaVuSans-29" transform="translate(2052.15625 0)"/>
   </g>
  </g>
 </g>
 <defs>
  <clipPath id="pbaeb1438d7">
   <rect x="30.990622" y="25.92" width="159.418755" height="166.32"/>
  </clipPath>
 </defs>
</svg>
