<?xml version="1.0" encoding="utf-8" standalone="no"?>
<!DOCTYPE svg PUBLIC "-//W3C//DTD SVG 1.1//EN"
  "http://www.w3.org/Graphics/SVG/1.1/DTD/svg11.dtd">
<svg xmlns:xlink="http://www.w3.org/1999/xlink" width="216pt" height="216pt" viewBox="0 0 216 216" xmlns="http://www.w3.org/2000/svg" version="1.1">
 <metadata>
  <rdf:RDF xmlns:dc="http://purl.org/dc/elements/1.1/" xmlns:cc="http://creativecommons.org/ns#" xmlns:rdf="http://www.w3.org/1999/02/22-rdf-syntax-ns#">
   <cc:Work>
    <dc:type rdf:resource="http://purl.org/dc/dcmitype/StillImage"/>
    <dc:date>2026-01-21T11:50:07.246944</dc:date>
    <dc:format>image/svg+xml</dc:format>
    <dc:creator>
     <cc:Agent>
      <dc:title>Matplotlib v3.10.8, https://matplotlib.org/</dc:title>
     </cc:Agent>
    </dc:creator>
   </cc:Work>
  </rdf:RDF>
 </metadata>
 <defs>
  <style type="text/css">*{stroke-linejoin: round; stroke-linecap: butt}</style>
 </defs>
 <g id="figure_1">
  <g id="patch_1">
   <path d="M 0 216 
L 216 216 
L 216 0 
L 0 0 
z
" style="fill: #ffffff; stroke: #000000; stroke-width: 10; stroke-linejoin: miter"/>
  </g>
  <g id="axes_1">
   <g id="patch_2">
    <path d="M 30.307145 192.24 
L 39.628056 192.24 
L 39.628056 122.33317 
L 30.307145 122.33317 
z
" clip-path="url(#pb13549b9bf)" style="fill: #f4f4f1"/>
   </g>
   <g id="patch_3">
    <path d="M 42.249562 192.24 
L 88.854116 192.24 
L 88.854116 189.327215 
L 42.249562 189.327215 
z
" clip-path="url(#pb13549b9bf)" style="fill: #f4f4f1"/>
   </g>
   <g id="patch_4">
    <path d="M 92.058179 192.24 
L 94.970963 192.24 
L 94.970963 189.327215 
L 92.058179 189.327215 
z
" clip-path="url(#pb13549b9bf)" style="fill: #f4f4f1"/>
   </g>
   <g id="patch_5">
    <path d="M 98.757583 192.24 
L 136.915061 192.24 
L 136.915061 189.327215 
L 98.757583 189.327215 
z
" clip-path="url(#pb13549b9bf)" style="fill: #f4f4f1"/>
   </g>
   <g id="patch_6">
    <path d="M 141.284238 192.24 
L 182.645779 192.24 
L 182.645779 189.327215 
L 141.284238 189.327215 
z
" clip-path="url(#pb13549b9bf)" style="fill: #f4f4f1"/>
   </g>
   <g id="patch_7">
    <path d="M 185.849842 192.24 
L 191.092855 192.24 
L 191.092855 85.049527 
L 185.849842 85.049527 
z
" clip-path="url(#pb13549b9bf)" style="fill: #f4f4f1"/>
   </g>
   <g id="patch_8">
    <path d="M 42.249562 186.123152 
L 88.854116 186.123152 
L 88.854116 165.151103 
L 42.249562 165.151103 
z
" clip-path="url(#pb13549b9bf)" style="fill: #f4f4f1"/>
   </g>
   <g id="patch_9">
    <path d="M 92.058179 186.123152 
L 94.970963 186.123152 
L 94.970963 165.151103 
L 92.058179 165.151103 
z
" clip-path="url(#pb13549b9bf)" style="fill: #f4f4f1"/>
   </g>
   <g id="patch_10">
    <path d="M 98.757583 186.123152 
L 136.915061 186.123152 
L 136.915061 165.151103 
L 98.757583 165.151103 
z
" clip-path="url(#pb13549b9bf)" style="fill: #f4f4f1"/>
   </g>
   <g id="patch_11">
    <path d="M 141.284238 186.123152 
L 182.645779 186.123152 
L 182.645779 165.151103 
L 141.284238 165.151103 
z
" clip-path="url(#pb13549b9bf)" style="fill: #f4f4f1"/>
   </g>
   <g id="patch_12">
    <path d="M 42.249562 159.034256 
L 88.854116 159.034256 
L 88.854116 122.33317 
L 42.249562 122.33317 
z
" clip-path="url(#pb13549b9bf)" style="fill: #f4f4f1"/>
   </g>
   <g id="patch_13">
    <path d="M 92.058179 159.034256 
L 94.970963 159.034256 
L 94.970963 122.33317 
L 92.058179 122.33317 
z
" clip-path="url(#pb13549b9bf)" style="fill: #f4f4f1"/>
   </g>
   <g id="patch_14">
    <path d="M 98.757583 159.034256 
L 136.915061 159.034256 
L 136.915061 122.33317 
L 98.757583 122.33317 
z
" clip-path="url(#pb13549b9bf)" style="fill: #f4f4f1"/>
   </g>
   <g id="patch_15">
    <path d="M 141.284238 159.034256 
L 182.645779 159.034256 
L 182.645779 122.33317 
L 141.284238 122.33317 
z
" clip-path="url(#pb13549b9bf)" style="fill: #f4f4f1"/>
   </g>
   <g id="patch_16">
    <path d="M 30.307145 116.216322 
L 39.628056 116.216322 
L 39.628056 85.049527 
L 30.307145 85.049527 
z
" clip-path="url(#pb13549b9bf)" style="fill: #f0ec19"/>
   </g>
   <g id="patch_17">
    <path d="M 42.249562 116.216322 
L 88.854116 116.216322 
L 88.854116 85.049527 
L 42.249562 85.049527 
z
" clip-path="url(#pb13549b9bf)" style="fill: #f4f4f1"/>
   </g>
   <g id="patch_18">
    <path d="M 92.058179 116.216322 
L 94.970963 116.216322 
L 94.970963 85.049527 
L 92.058179 85.049527 
z
" clip-path="url(#pb13549b9bf)" style="fill: #f4f4f1"/>
   </g>
   <g id="patch_19">
    <path d="M 98.757583 116.216322 
L 136.915061 116.216322 
L 136.915061 85.049527 
L 98.757583 85.049527 
z
" clip-path="url(#pb13549b9bf)" style="fill: #f4f4f1"/>
   </g>
   <g id="patch_20">
    <path d="M 141.284238 116.216322 
L 182.645779 116.216322 
L 182.645779 85.049527 
L 141.284238 85.049527 
z
" clip-path="url(#pb13549b9bf)" style="fill: #f4f4f1"/>
   </g>
   <g id="patch_21">
    <path d="M 30.307145 78.93268 
L 88.854116 78.93268 
L 88.854116 25.92 
L 30.307145 25.92 
z
" clip-path="url(#pb13549b9bf)" style="fill: #f4f4f1"/>
   </g>
   <g id="patch_22">
    <path d="M 92.058179 78.93268 
L 94.970963 78.93268 
L 94.970963 25.92 
L 92.058179 25.92 
z
" clip-path="url(#pb13549b9bf)" style="fill: #f4f4f1"/>
   </g>
   <g id="patch_23">
    <path d="M 98.757583 78.93268 
L 136.915061 78.93268 
L 136.915061 25.92 
L 98.757583 25.92 
z
" clip-path="url(#pb13549b9bf)" style="fill: #f4f4f1"/>
   </g>
   <g id="patch_24">
    <path d="M 141.284238 78.93268 
L 191.092855 78.93268 
L 191.092855 32.619405 
L 141.284238 32.619405 
z
" clip-path="url(#pb13549b9bf)" style="fill: #f4f4f1"/>
   </g>
   <g id="patch_25">
    <path d="M 141.284238 29.997898 
L 191.092855 29.997898 
L 191.092855 25.92 
L 141.284238 25.92 
z
" clip-path="url(#pb13549b9bf)" style="fill: #2e5b9b"/>
   </g>
   <g id="patch_26">
    <path d="M 39.628056 192.24 
L 42.249562 192.24 
L 42.249562 85.049527 
L 39.628056 85.049527 
z
" clip-path="url(#pb13549b9bf)"/>
   </g>
   <g id="patch_27">
    <path d="M 88.854116 192.24 
L 92.058179 192.24 
L 92.058179 25.92 
L 88.854116 25.92 
z
" clip-path="url(#pb13549b9bf)"/>
   </g>
   <g id="patch_28">
    <path d="M 94.970963 192.24 
L 98.757583 192.24 
L 98.757583 25.92 
L 94.970963 25.92 
z
" clip-path="url(#pb13549b9bf)"/>
   </g>
   <g id="patch_29">
    <path d="M 136.915061 192.24 
L 141.284238 192.24 
L 141.284238 25.92 
L 136.915061 25.92 
z
" clip-path="url(#pb13549b9bf)"/>
   </g>
   <g id="patch_30">
    <path d="M 182.645779 192.24 
L 185.849842 192.24 
L 185.849842 85.049527 
L 182.645779 85.049527 
z
" clip-path="url(#pb13549b9bf)"/>
   </g>
   <g id="patch_31">
    <path d="M 42.249562 189.327215 
L 182.645779 189.327215 
L 182.645779 186.123152 
L 42.249562 186.123152 
z
" clip-path="url(#pb13549b9bf)"/>
   </g>
   <g id="patch_32">
    <path d="M 42.249562 165.151103 
L 182.645779 165.151103 
L 182.645779 159.034256 
L 42.249562 159.034256 
z
" clip-path="url(#pb13549b9bf)"/>
   </g>
   <g id="patch_33">
    <path d="M 30.307145 122.33317 
L 182.645779 122.33317 
L 182.645779 116.216322 
L 30.307145 116.216322 
z
" clip-path="url(#pb13549b9bf)"/>
   </g>
   <g id="patch_34">
    <path d="M 30.307145 85.049527 
L 191.092855 85.049527 
L 191.092855 78.93268 
L 30.307145 78.93268 
z
" clip-path="url(#pb13549b9bf)"/>
   </g>
   <g id="patch_35">
    <path d="M 141.284238 32.619405 
L 191.092855 32.619405 
L 191.092855 29.997898 
L 141.284238 29.997898 
z
" clip-path="url(#pb13549b9bf)"/>
   </g>
  </g>
  <g id="text_1">
   <!-- » Composition en jaune, bleu et blanc: I « (b271) -->
   <g transform="translate(10.8 205.2) scale(0.12 -0.12)">
    <defs>
     <path id="DejaVuSans-bb" d="M 603 3309 
L 2069 2003 
L 2069 1747 
L 603 441 
L 603 1038 
L 1544 1875 
L 603 2713 
L 603 3309 
z
M 1959 3309 
L 3425 2003 
L 3425 1747 
L 1959 441 
L 1959 1038 
L 2900 1875 
L 1959 2713 
L 1959 3309 
z
" transform="scale(0.015625)"/>
     <path id="DejaVuSans-20" transform="scale(0.015625)"/>
     <path id="DejaVuSans-43" d="M 4122 4306 
L 4122 3641 
Q 3803 3938 3442 4084 
Q 3081 4231 2675 4231 
Q 1875 4231 1450 3742 
Q 1025 3253 1025 2328 
Q 1025 1406 1450 917 
Q 1875 428 2675 428 
Q 3081 428 3442 575 
Q 3803 722 4122 1019 
L 4122 359 
Q 3791 134 3420 21 
Q 3050 -91 2638 -91 
Q 1578 -91 968 557 
Q 359 1206 359 2328 
Q 359 3453 968 4101 
Q 1578 4750 2638 4750 
Q 3056 4750 3426 4639 
Q 3797 4528 4122 4306 
z
" transform="scale(0.015625)"/>
     <path id="DejaVuSans-6f" d="M 1959 3097 
Q 1497 3097 1228 2736 
Q 959 2375 959 1747 
Q 959 1119 1226 758 
Q 1494 397 1959 397 
Q 2419 397 2687 759 
Q 2956 1122 2956 1747 
Q 2956 2369 2687 2733 
Q 2419 3097 1959 3097 
z
M 1959 3584 
Q 2709 3584 3137 3096 
Q 3566 2609 3566 1747 
Q 3566 888 3137 398 
Q 2709 -91 1959 -91 
Q 1206 -91 779 398 
Q 353 888 353 1747 
Q 353 2609 779 3096 
Q 1206 3584 1959 3584 
z
" transform="scale(0.015625)"/>
     <path id="DejaVuSans-6d" d="M 3328 2828 
Q 3544 3216 3844 3400 
Q 4144 3584 4550 3584 
Q 5097 3584 5394 3201 
Q 5691 2819 5691 2113 
L 5691 0 
L 5113 0 
L 5113 2094 
Q 5113 2597 4934 2840 
Q 4756 3084 4391 3084 
Q 3944 3084 3684 2787 
Q 3425 2491 3425 1978 
L 3425 0 
L 2847 0 
L 2847 2094 
Q 2847 2600 2669 2842 
Q 2491 3084 2119 3084 
Q 1678 3084 1418 2786 
Q 1159 2488 1159 1978 
L 1159 0 
L 581 0 
L 581 3500 
L 1159 3500 
L 1159 2956 
Q 1356 3278 1631 3431 
Q 1906 3584 2284 3584 
Q 2666 3584 2933 3390 
Q 3200 3197 3328 2828 
z
" transform="scale(0.015625)"/>
     <path id="DejaVuSans-70" d="M 1159 525 
L 1159 -1331 
L 581 -1331 
L 581 3500 
L 1159 3500 
L 1159 2969 
Q 1341 3281 1617 3432 
Q 1894 3584 2278 3584 
Q 2916 3584 3314 3078 
Q 3713 2572 3713 1747 
Q 3713 922 3314 415 
Q 2916 -91 2278 -91 
Q 1894 -91 1617 61 
Q 1341 213 1159 525 
z
M 3116 1747 
Q 3116 2381 2855 2742 
Q 2594 3103 2138 3103 
Q 1681 3103 1420 2742 
Q 1159 2381 1159 1747 
Q 1159 1113 1420 752 
Q 1681 391 2138 391 
Q 2594 391 2855 752 
Q 3116 1113 3116 1747 
z
" transform="scale(0.015625)"/>
     <path id="DejaVuSans-73" d="M 2834 3397 
L 2834 2853 
Q 2591 2978 2328 3040 
Q 2066 3103 1784 3103 
Q 1356 3103 1142 2972 
Q 928 2841 928 2578 
Q 928 2378 1081 2264 
Q 1234 2150 1697 2047 
L 1894 2003 
Q 2506 1872 2764 1633 
Q 3022 1394 3022 966 
Q 3022 478 2636 193 
Q 2250 -91 1575 -91 
Q 1294 -91 989 -36 
Q 684 19 347 128 
L 347 722 
Q 666 556 975 473 
Q 1284 391 1588 391 
Q 1994 391 2212 530 
Q 2431 669 2431 922 
Q 2431 1156 2273 1281 
Q 2116 1406 1581 1522 
L 1381 1569 
Q 847 1681 609 1914 
Q 372 2147 372 2553 
Q 372 3047 722 3315 
Q 1072 3584 1716 3584 
Q 2034 3584 2315 3537 
Q 2597 3491 2834 3397 
z
" transform="scale(0.015625)"/>
     <path id="DejaVuSans-69" d="M 603 3500 
L 1178 3500 
L 1178 0 
L 603 0 
L 603 3500 
z
M 603 4863 
L 1178 4863 
L 1178 4134 
L 603 4134 
L 603 4863 
z
" transform="scale(0.015625)"/>
     <path id="DejaVuSans-74" d="M 1172 4494 
L 1172 3500 
L 2356 3500 
L 2356 3053 
L 1172 3053 
L 1172 1153 
Q 1172 725 1289 603 
Q 1406 481 1766 481 
L 2356 481 
L 2356 0 
L 1766 0 
Q 1100 0 847 248 
Q 594 497 594 1153 
L 594 3053 
L 172 3053 
L 172 3500 
L 594 3500 
L 594 4494 
L 1172 4494 
z
" transform="scale(0.015625)"/>
     <path id="DejaVuSans-6e" d="M 3513 2113 
L 3513 0 
L 2938 0 
L 2938 2094 
Q 2938 2591 2744 2837 
Q 2550 3084 2163 3084 
Q 1697 3084 1428 2787 
Q 1159 2491 1159 1978 
L 1159 0 
L 581 0 
L 581 3500 
L 1159 3500 
L 1159 2956 
Q 1366 3272 1645 3428 
Q 1925 3584 2291 3584 
Q 2894 3584 3203 3211 
Q 3513 2838 3513 2113 
z
" transform="scale(0.015625)"/>
     <path id="DejaVuSans-65" d="M 3597 1894 
L 3597 1613 
L 953 1613 
Q 991 1019 1311 708 
Q 1631 397 2203 397 
Q 2534 397 2845 478 
Q 3156 559 3463 722 
L 3463 178 
Q 3153 47 2828 -22 
Q 2503 -91 2169 -91 
Q 1331 -91 842 396 
Q 353 884 353 1716 
Q 353 2575 817 3079 
Q 1281 3584 2069 3584 
Q 2775 3584 3186 3129 
Q 3597 2675 3597 1894 
z
M 3022 2063 
Q 3016 2534 2758 2815 
Q 2500 3097 2075 3097 
Q 1594 3097 1305 2825 
Q 1016 2553 972 2059 
L 3022 2063 
z
" transform="scale(0.015625)"/>
     <path id="DejaVuSans-6a" d="M 603 3500 
L 1178 3500 
L 1178 -63 
Q 1178 -731 923 -1031 
Q 669 -1331 103 -1331 
L -116 -1331 
L -116 -844 
L 38 -844 
Q 366 -844 484 -692 
Q 603 -541 603 -63 
L 603 3500 
z
M 603 4863 
L 1178 4863 
L 1178 4134 
L 603 4134 
L 603 4863 
z
" transform="scale(0.015625)"/>
     <path id="DejaVuSans-61" d="M 2194 1759 
Q 1497 1759 1228 1600 
Q 959 1441 959 1056 
Q 959 750 1161 570 
Q 1363 391 1709 391 
Q 2188 391 2477 730 
Q 2766 1069 2766 1631 
L 2766 1759 
L 2194 1759 
z
M 3341 1997 
L 3341 0 
L 2766 0 
L 2766 531 
Q 2569 213 2275 61 
Q 1981 -91 1556 -91 
Q 1019 -91 701 211 
Q 384 513 384 1019 
Q 384 1609 779 1909 
Q 1175 2209 1959 2209 
L 2766 2209 
L 2766 2266 
Q 2766 2663 2505 2880 
Q 2244 3097 1772 3097 
Q 1472 3097 1187 3025 
Q 903 2953 641 2809 
L 641 3341 
Q 956 3463 1253 3523 
Q 1550 3584 1831 3584 
Q 2591 3584 2966 3190 
Q 3341 2797 3341 1997 
z
" transform="scale(0.015625)"/>
     <path id="DejaVuSans-75" d="M 544 1381 
L 544 3500 
L 1119 3500 
L 1119 1403 
Q 1119 906 1312 657 
Q 1506 409 1894 409 
Q 2359 409 2629 706 
Q 2900 1003 2900 1516 
L 2900 3500 
L 3475 3500 
L 3475 0 
L 2900 0 
L 2900 538 
Q 2691 219 2414 64 
Q 2138 -91 1772 -91 
Q 1169 -91 856 284 
Q 544 659 544 1381 
z
M 1991 3584 
L 1991 3584 
z
" transform="scale(0.015625)"/>
     <path id="DejaVuSans-2c" d="M 750 794 
L 1409 794 
L 1409 256 
L 897 -744 
L 494 -744 
L 750 256 
L 750 794 
z
" transform="scale(0.015625)"/>
     <path id="DejaVuSans-62" d="M 3116 1747 
Q 3116 2381 2855 2742 
Q 2594 3103 2138 3103 
Q 1681 3103 1420 2742 
Q 1159 2381 1159 1747 
Q 1159 1113 1420 752 
Q 1681 391 2138 391 
Q 2594 391 2855 752 
Q 3116 1113 3116 1747 
z
M 1159 2969 
Q 1341 3281 1617 3432 
Q 1894 3584 2278 3584 
Q 2916 3584 3314 3078 
Q 3713 2572 3713 1747 
Q 3713 922 3314 415 
Q 2916 -91 2278 -91 
Q 1894 -91 1617 61 
Q 1341 213 1159 525 
L 1159 0 
L 581 0 
L 581 4863 
L 1159 4863 
L 1159 2969 
z
" transform="scale(0.015625)"/>
     <path id="DejaVuSans-6c" d="M 603 4863 
L 1178 4863 
L 1178 0 
L 603 0 
L 603 4863 
z
" transform="scale(0.015625)"/>
     <path id="DejaVuSans-63" d="M 3122 3366 
L 3122 2828 
Q 2878 2963 2633 3030 
Q 2388 3097 2138 3097 
Q 1578 3097 1268 2742 
Q 959 2388 959 1747 
Q 959 1106 1268 751 
Q 1578 397 2138 397 
Q 2388 397 2633 464 
Q 2878 531 3122 666 
L 3122 134 
Q 2881 22 2623 -34 
Q 2366 -91 2075 -91 
Q 1284 -91 818 406 
Q 353 903 353 1747 
Q 353 2603 823 3093 
Q 1294 3584 2113 3584 
Q 2378 3584 2631 3529 
Q 2884 3475 3122 3366 
z
" transform="scale(0.015625)"/>
     <path id="DejaVuSans-3a" d="M 750 794 
L 1409 794 
L 1409 0 
L 750 0 
L 750 794 
z
M 750 3309 
L 1409 3309 
L 1409 2516 
L 750 2516 
L 750 3309 
z
" transform="scale(0.015625)"/>
     <path id="DejaVuSans-49" d="M 628 4666 
L 1259 4666 
L 1259 0 
L 628 0 
L 628 4666 
z
" transform="scale(0.015625)"/>
     <path id="DejaVuSans-ab" d="M 3316 3309 
L 3316 2713 
L 2375 1875 
L 3316 1038 
L 3316 441 
L 1850 1747 
L 1850 2003 
L 3316 3309 
z
M 1959 3309 
L 1959 2713 
L 1019 1875 
L 1959 1038 
L 1959 441 
L 494 1747 
L 494 2003 
L 1959 3309 
z
" transform="scale(0.015625)"/>
     <path id="DejaVuSans-28" d="M 1984 4856 
Q 1566 4138 1362 3434 
Q 1159 2731 1159 2009 
Q 1159 1288 1364 580 
Q 1569 -128 1984 -844 
L 1484 -844 
Q 1016 -109 783 600 
Q 550 1309 550 2009 
Q 550 2706 781 3412 
Q 1013 4119 1484 4856 
L 1984 4856 
z
" transform="scale(0.015625)"/>
     <path id="DejaVuSans-32" d="M 1228 531 
L 3431 531 
L 3431 0 
L 469 0 
L 469 531 
Q 828 903 1448 1529 
Q 2069 2156 2228 2338 
Q 2531 2678 2651 2914 
Q 2772 3150 2772 3378 
Q 2772 3750 2511 3984 
Q 2250 4219 1831 4219 
Q 1534 4219 1204 4116 
Q 875 4013 500 3803 
L 500 4441 
Q 881 4594 1212 4672 
Q 1544 4750 1819 4750 
Q 2544 4750 2975 4387 
Q 3406 4025 3406 3419 
Q 3406 3131 3298 2873 
Q 3191 2616 2906 2266 
Q 2828 2175 2409 1742 
Q 1991 1309 1228 531 
z
" transform="scale(0.015625)"/>
     <path id="DejaVuSans-37" d="M 525 4666 
L 3525 4666 
L 3525 4397 
L 1831 0 
L 1172 0 
L 2766 4134 
L 525 4134 
L 525 4666 
z
" transform="scale(0.015625)"/>
     <path id="DejaVuSans-31" d="M 794 531 
L 1825 531 
L 1825 4091 
L 703 3866 
L 703 4441 
L 1819 4666 
L 2450 4666 
L 2450 531 
L 3481 531 
L 3481 0 
L 794 0 
L 794 531 
z
" transform="scale(0.015625)"/>
     <path id="DejaVuSans-29" d="M 513 4856 
L 1013 4856 
Q 1481 4119 1714 3412 
Q 1947 2706 1947 2009 
Q 1947 1309 1714 600 
Q 1481 -109 1013 -844 
L 513 -844 
Q 928 -128 1133 580 
Q 1338 1288 1338 2009 
Q 1338 2731 1133 3434 
Q 928 4138 513 4856 
z
" transform="scale(0.015625)"/>
    </defs>
    <use xlink:href="#DejaVuSans-bb"/>
    <use xlink:href="#DejaVuSans-20" transform="translate(61.181641 0)"/>
    <use xlink:href="#DejaVuSans-43" transform="translate(92.96875 0)"/>
    <use xlink:href="#DejaVuSans-6f" transform="translate(162.792969 0)"/>
    <use xlink:href="#DejaVuSans-6d" transform="translate(223.974609 0)"/>
    <use xlink:href="#DejaVuSans-70" transform="translate(321.386719 0)"/>
    <use xlink:href="#DejaVuSans-6f" transform="translate(384.863281 0)"/>
    <use xlink:href="#DejaVuSans-73" transform="translate(446.044922 0)"/>
    <use xlink:href="#DejaVuSans-69" transform="translate(498.144531 0)"/>
    <use xlink:href="#DejaVuSans-74" transform="translate(525.927734 0)"/>
    <use xlink:href="#DejaVuSans-69" transform="translate(565.136719 0)"/>
    <use xlink:href="#DejaVuSans-6f" transform="translate(592.919922 0)"/>
    <use xlink:href="#DejaVuSans-6e" transform="translate(654.101562 0)"/>
    <use xlink:href="#DejaVuSans-20" transform="translate(717.480469 0)"/>
    <use xlink:href="#DejaVuSans-65" transform="translate(749.267578 0)"/>
    <use xlink:href="#DejaVuSans-6e" transform="translate(810.791016 0)"/>
    <use xlink:href="#DejaVuSans-20" transform="translate(874.169922 0)"/>
    <use xlink:href="#DejaVuSans-6a" transform="translate(905.957031 0)"/>
    <use xlink:href="#DejaVuSans-61" transform="translate(933.740234 0)"/>
    <use xlink:href="#DejaVuSans-75" transform="translate(995.019531 0)"/>
    <use xlink:href="#DejaVuSans-6e" transform="translate(1058.398438 0)"/>
    <use xlink:href="#DejaVuSans-65" transform="translate(1121.777344 0)"/>
    <use xlink:href="#DejaVuSans-2c" transform="translate(1183.300781 0)"/>
    <use xlink:href="#DejaVuSans-20" transform="translate(1215.087891 0)"/>
    <use xlink:href="#DejaVuSans-62" transform="translate(1246.875 0)"/>
    <use xlink:href="#DejaVuSans-6c" transform="translate(1310.351562 0)"/>
    <use xlink:href="#DejaVuSans-65" transform="translate(1338.134766 0)"/>
    <use xlink:href="#DejaVuSans-75" transform="translate(1399.658203 0)"/>
    <use xlink:href="#DejaVuSans-20" transform="translate(1463.037109 0)"/>
    <use xlink:href="#DejaVuSans-65" transform="translate(1494.824219 0)"/>
    <use xlink:href="#DejaVuSans-74" transform="translate(1556.347656 0)"/>
    <use xlink:href="#DejaVuSans-20" transform="translate(1595.556641 0)"/>
    <use xlink:href="#DejaVuSans-62" transform="translate(1627.34375 0)"/>
    <use xlink:href="#DejaVuSans-6c" transform="translate(1690.820312 0)"/>
    <use xlink:href="#DejaVuSans-61" transform="translate(1718.603516 0)"/>
    <use xlink:href="#DejaVuSans-6e" transform="translate(1779.882812 0)"/>
    <use xlink:href="#DejaVuSans-63" transform="translate(1843.261719 0)"/>
    <use xlink:href="#DejaVuSans-3a" transform="translate(1898.242188 0)"/>
    <use xlink:href="#DejaVuSans-20" transform="translate(1931.933594 0)"/>
    <use xlink:href="#DejaVuSans-49" transform="translate(1963.720703 0)"/>
    <use xlink:href="#DejaVuSans-20" transform="translate(1993.212891 0)"/>
    <use xlink:href="#DejaVuSans-ab" transform="translate(2025 0)"/>
    <use xlink:href="#DejaVuSans-20" transform="translate(2086.181641 0)"/>
    <use xlink:href="#DejaVuSans-28" transform="translate(2117.96875 0)"/>
    <use xlink:href="#DejaVuSans-62" transform="translate(2156.982422 0)"/>
    <use xlink:href="#DejaVuSans-32" transform="translate(2220.458984 0)"/>
    <use xlink:href="#DejaVuSans-37" transform="translate(2284.082031 0)"/>
    <use xlink:href="#DejaVuSans-31" transform="translate(2347.705078 0)"/>
    <use xlink:href="#DejaVuSans-29" transform="translate(2411.328125 0)"/>
   </g>
  </g>
 </g>
 <defs>
  <clipPath id="pb13549b9bf">
   <rect x="30.307145" y="25.92" width="160.785709" height="166.32"/>
  </clipPath>
 </defs>
</svg>
