<?xml version="1.0" encoding="utf-8" standalone="no"?>
<!DOCTYPE svg PUBLIC "-//W3C//DTD SVG 1.1//EN"
  "http://www.w3.org/Graphics/SVG/1.1/DTD/svg11.dtd">
<svg xmlns:xlink="http://www.w3.org/1999/xlink" width="216pt" height="216pt" viewBox="0 0 216 216" xmlns="http://www.w3.org/2000/svg" version="1.1">
 <metadata>
  <rdf:RDF xmlns:dc="http://purl.org/dc/elements/1.1/" xmlns:cc="http://creativecommons.org/ns#" xmlns:rdf="http://www.w3.org/1999/02/22-rdf-syntax-ns#">
   <cc:Work>
    <dc:type rdf:resource="http://purl.org/dc/dcmitype/StillImage"/>
    <dc:date>2026-01-21T11:50:07.293288</dc:date>
    <dc:format>image/svg+xml</dc:format>
    <dc:creator>
     <cc:Agent>
      <dc:title>Matplotlib v3.10.8, https://matplotlib.org/</dc:title>
     </cc:Agent>
    </dc:creator>
   </cc:Work>
  </rdf:RDF>
 </metadata>
 <defs>
  <style type="text/css">*{stroke-linejoin: round; stroke-linecap: butt}</style>
 </defs>
 <g id="figure_1">
  <g id="patch_1">
   <path d="M 0 216 
L 216 216 
L 216 0 
L 0 0 
z
" style="fill: #ffffff; stroke: #000000; stroke-width: 10; stroke-linejoin: miter"/>
  </g>
  <g id="axes_1">
   <g id="patch_2">
    <path d="M 46.657241 192.24 
L 78.009517 192.24 
L 78.009517 170.82869 
L 46.657241 170.82869 
z
" clip-path="url(#p3e129c15ba)" style="fill: #ffee03"/>
   </g>
   <g id="patch_3">
    <path d="M 81.832966 192.24 
L 97.126759 192.24 
L 97.126759 170.82869 
L 81.832966 170.82869 
z
" clip-path="url(#p3e129c15ba)" style="fill: #fded07"/>
   </g>
   <g id="patch_4">
    <path d="M 100.567862 192.24 
L 102.861931 192.24 
L 102.861931 170.82869 
L 100.567862 170.82869 
z
" clip-path="url(#p3e129c15ba)" style="fill: #fbf9f3"/>
   </g>
   <g id="patch_5">
    <path d="M 106.303034 192.24 
L 140.331724 192.24 
L 140.331724 170.82869 
L 106.303034 170.82869 
z
" clip-path="url(#p3e129c15ba)" style="fill: #fbf8f3"/>
   </g>
   <g id="patch_6">
    <path d="M 144.537517 192.24 
L 174.742759 192.24 
L 174.742759 170.82869 
L 144.537517 170.82869 
z
" clip-path="url(#p3e129c15ba)" style="fill: #fbf8f3"/>
   </g>
   <g id="patch_7">
    <path d="M 46.657241 166.240552 
L 78.009517 166.240552 
L 78.009517 153.240828 
L 46.657241 153.240828 
z
" clip-path="url(#p3e129c15ba)" style="fill: #fced07"/>
   </g>
   <g id="patch_8">
    <path d="M 81.832966 166.240552 
L 97.126759 166.240552 
L 97.126759 153.240828 
L 81.832966 153.240828 
z
" clip-path="url(#p3e129c15ba)" style="fill: #feee09"/>
   </g>
   <g id="patch_9">
    <path d="M 100.567862 166.240552 
L 102.861931 166.240552 
L 102.861931 153.240828 
L 100.567862 153.240828 
z
" clip-path="url(#p3e129c15ba)" style="fill: #f9f8f1"/>
   </g>
   <g id="patch_10">
    <path d="M 106.303034 166.240552 
L 140.331724 166.240552 
L 140.331724 153.240828 
L 106.303034 153.240828 
z
" clip-path="url(#p3e129c15ba)" style="fill: #f9f6f1"/>
   </g>
   <g id="patch_11">
    <path d="M 144.537517 166.240552 
L 174.742759 166.240552 
L 174.742759 153.240828 
L 144.537517 153.240828 
z
" clip-path="url(#p3e129c15ba)" style="fill: #f8f5f0"/>
   </g>
   <g id="patch_12">
    <path d="M 46.657241 148.65269 
L 78.009517 148.65269 
L 78.009517 136.417655 
L 46.657241 136.417655 
z
" clip-path="url(#p3e129c15ba)" style="fill: #fbf9f6"/>
   </g>
   <g id="patch_13">
    <path d="M 81.832966 148.65269 
L 97.126759 148.65269 
L 97.126759 136.417655 
L 81.832966 136.417655 
z
" clip-path="url(#p3e129c15ba)" style="fill: #fbf9f5"/>
   </g>
   <g id="patch_14">
    <path d="M 100.567862 148.65269 
L 102.861931 148.65269 
L 102.861931 136.417655 
L 100.567862 136.417655 
z
" clip-path="url(#p3e129c15ba)" style="fill: #fcf9f5"/>
   </g>
   <g id="patch_15">
    <path d="M 106.303034 148.65269 
L 140.331724 148.65269 
L 140.331724 136.417655 
L 106.303034 136.417655 
z
" clip-path="url(#p3e129c15ba)" style="fill: #faf9f4"/>
   </g>
   <g id="patch_16">
    <path d="M 144.537517 148.65269 
L 174.742759 148.65269 
L 174.742759 136.417655 
L 144.537517 136.417655 
z
" clip-path="url(#p3e129c15ba)" style="fill: #fbf8f3"/>
   </g>
   <g id="patch_17">
    <path d="M 46.657241 131.829517 
L 78.009517 131.829517 
L 78.009517 46.948966 
L 46.657241 46.948966 
z
" clip-path="url(#p3e129c15ba)" style="fill: #fcf9f3"/>
   </g>
   <g id="patch_18">
    <path d="M 81.832966 131.829517 
L 97.126759 131.829517 
L 97.126759 46.948966 
L 81.832966 46.948966 
z
" clip-path="url(#p3e129c15ba)" style="fill: #f9f7f4"/>
   </g>
   <g id="patch_19">
    <path d="M 100.567862 131.829517 
L 102.861931 131.829517 
L 102.861931 25.92 
L 100.567862 25.92 
z
" clip-path="url(#p3e129c15ba)" style="fill: #f9f7f2"/>
   </g>
   <g id="patch_20">
    <path d="M 106.303034 131.829517 
L 140.331724 131.829517 
L 140.331724 25.92 
L 106.303034 25.92 
z
" clip-path="url(#p3e129c15ba)" style="fill: #f9f7f2"/>
   </g>
   <g id="patch_21">
    <path d="M 144.537517 131.829517 
L 174.742759 131.829517 
L 174.742759 25.92 
L 144.537517 25.92 
z
" clip-path="url(#p3e129c15ba)" style="fill: #fbf9f4"/>
   </g>
   <g id="patch_22">
    <path d="M 46.657241 41.596138 
L 78.009517 41.596138 
L 78.009517 25.92 
L 46.657241 25.92 
z
" clip-path="url(#p3e129c15ba)" style="fill: #e51609"/>
   </g>
   <g id="patch_23">
    <path d="M 81.832966 41.596138 
L 97.126759 41.596138 
L 97.126759 25.92 
L 81.832966 25.92 
z
" clip-path="url(#p3e129c15ba)" style="fill: #f7f3ef"/>
   </g>
   <g id="patch_24">
    <path d="M 78.009517 192.24 
L 81.832966 192.24 
L 81.832966 25.92 
L 78.009517 25.92 
z
" clip-path="url(#p3e129c15ba)"/>
   </g>
   <g id="patch_25">
    <path d="M 97.126759 192.24 
L 100.567862 192.24 
L 100.567862 25.92 
L 97.126759 25.92 
z
" clip-path="url(#p3e129c15ba)"/>
   </g>
   <g id="patch_26">
    <path d="M 102.861931 192.24 
L 106.303034 192.24 
L 106.303034 25.92 
L 102.861931 25.92 
z
" clip-path="url(#p3e129c15ba)"/>
   </g>
   <g id="patch_27">
    <path d="M 140.331724 192.24 
L 144.537517 192.24 
L 144.537517 25.92 
L 140.331724 25.92 
z
" clip-path="url(#p3e129c15ba)"/>
   </g>
   <g id="patch_28">
    <path d="M 46.657241 170.82869 
L 174.742759 170.82869 
L 174.742759 166.240552 
L 46.657241 166.240552 
z
" clip-path="url(#p3e129c15ba)"/>
   </g>
   <g id="patch_29">
    <path d="M 46.657241 153.240828 
L 174.742759 153.240828 
L 174.742759 148.65269 
L 46.657241 148.65269 
z
" clip-path="url(#p3e129c15ba)"/>
   </g>
   <g id="patch_30">
    <path d="M 46.657241 136.417655 
L 174.742759 136.417655 
L 174.742759 131.829517 
L 46.657241 131.829517 
z
" clip-path="url(#p3e129c15ba)"/>
   </g>
   <g id="patch_31">
    <path d="M 46.657241 46.948966 
L 97.126759 46.948966 
L 97.126759 41.596138 
L 46.657241 41.596138 
z
" clip-path="url(#p3e129c15ba)"/>
   </g>
  </g>
  <g id="text_1">
   <!-- » No. I: Opposition de lignes, de rouge et jaune « (b273) -->
   <g transform="translate(10.8 205.2) scale(0.12 -0.12)">
    <defs>
     <path id="DejaVuSans-bb" d="M 603 3309 
L 2069 2003 
L 2069 1747 
L 603 441 
L 603 1038 
L 1544 1875 
L 603 2713 
L 603 3309 
z
M 1959 3309 
L 3425 2003 
L 3425 1747 
L 1959 441 
L 1959 1038 
L 2900 1875 
L 1959 2713 
L 1959 3309 
z
" transform="scale(0.015625)"/>
     <path id="DejaVuSans-20" transform="scale(0.015625)"/>
     <path id="DejaVuSans-4e" d="M 628 4666 
L 1478 4666 
L 3547 763 
L 3547 4666 
L 4159 4666 
L 4159 0 
L 3309 0 
L 1241 3903 
L 1241 0 
L 628 0 
L 628 4666 
z
" transform="scale(0.015625)"/>
     <path id="DejaVuSans-6f" d="M 1959 3097 
Q 1497 3097 1228 2736 
Q 959 2375 959 1747 
Q 959 1119 1226 758 
Q 1494 397 1959 397 
Q 2419 397 2687 759 
Q 2956 1122 2956 1747 
Q 2956 2369 2687 2733 
Q 2419 3097 1959 3097 
z
M 1959 3584 
Q 2709 3584 3137 3096 
Q 3566 2609 3566 1747 
Q 3566 888 3137 398 
Q 2709 -91 1959 -91 
Q 1206 -91 779 398 
Q 353 888 353 1747 
Q 353 2609 779 3096 
Q 1206 3584 1959 3584 
z
" transform="scale(0.015625)"/>
     <path id="DejaVuSans-2e" d="M 684 794 
L 1344 794 
L 1344 0 
L 684 0 
L 684 794 
z
" transform="scale(0.015625)"/>
     <path id="DejaVuSans-49" d="M 628 4666 
L 1259 4666 
L 1259 0 
L 628 0 
L 628 4666 
z
" transform="scale(0.015625)"/>
     <path id="DejaVuSans-3a" d="M 750 794 
L 1409 794 
L 1409 0 
L 750 0 
L 750 794 
z
M 750 3309 
L 1409 3309 
L 1409 2516 
L 750 2516 
L 750 3309 
z
" transform="scale(0.015625)"/>
     <path id="DejaVuSans-4f" d="M 2522 4238 
Q 1834 4238 1429 3725 
Q 1025 3213 1025 2328 
Q 1025 1447 1429 934 
Q 1834 422 2522 422 
Q 3209 422 3611 934 
Q 4013 1447 4013 2328 
Q 4013 3213 3611 3725 
Q 3209 4238 2522 4238 
z
M 2522 4750 
Q 3503 4750 4090 4092 
Q 4678 3434 4678 2328 
Q 4678 1225 4090 567 
Q 3503 -91 2522 -91 
Q 1538 -91 948 565 
Q 359 1222 359 2328 
Q 359 3434 948 4092 
Q 1538 4750 2522 4750 
z
" transform="scale(0.015625)"/>
     <path id="DejaVuSans-70" d="M 1159 525 
L 1159 -1331 
L 581 -1331 
L 581 3500 
L 1159 3500 
L 1159 2969 
Q 1341 3281 1617 3432 
Q 1894 3584 2278 3584 
Q 2916 3584 3314 3078 
Q 3713 2572 3713 1747 
Q 3713 922 3314 415 
Q 2916 -91 2278 -91 
Q 1894 -91 1617 61 
Q 1341 213 1159 525 
z
M 3116 1747 
Q 3116 2381 2855 2742 
Q 2594 3103 2138 3103 
Q 1681 3103 1420 2742 
Q 1159 2381 1159 1747 
Q 1159 1113 1420 752 
Q 1681 391 2138 391 
Q 2594 391 2855 752 
Q 3116 1113 3116 1747 
z
" transform="scale(0.015625)"/>
     <path id="DejaVuSans-73" d="M 2834 3397 
L 2834 2853 
Q 2591 2978 2328 3040 
Q 2066 3103 1784 3103 
Q 1356 3103 1142 2972 
Q 928 2841 928 2578 
Q 928 2378 1081 2264 
Q 1234 2150 1697 2047 
L 1894 2003 
Q 2506 1872 2764 1633 
Q 3022 1394 3022 966 
Q 3022 478 2636 193 
Q 2250 -91 1575 -91 
Q 1294 -91 989 -36 
Q 684 19 347 128 
L 347 722 
Q 666 556 975 473 
Q 1284 391 1588 391 
Q 1994 391 2212 530 
Q 2431 669 2431 922 
Q 2431 1156 2273 1281 
Q 2116 1406 1581 1522 
L 1381 1569 
Q 847 1681 609 1914 
Q 372 2147 372 2553 
Q 372 3047 722 3315 
Q 1072 3584 1716 3584 
Q 2034 3584 2315 3537 
Q 2597 3491 2834 3397 
z
" transform="scale(0.015625)"/>
     <path id="DejaVuSans-69" d="M 603 3500 
L 1178 3500 
L 1178 0 
L 603 0 
L 603 3500 
z
M 603 4863 
L 1178 4863 
L 1178 4134 
L 603 4134 
L 603 4863 
z
" transform="scale(0.015625)"/>
     <path id="DejaVuSans-74" d="M 1172 4494 
L 1172 3500 
L 2356 3500 
L 2356 3053 
L 1172 3053 
L 1172 1153 
Q 1172 725 1289 603 
Q 1406 481 1766 481 
L 2356 481 
L 2356 0 
L 1766 0 
Q 1100 0 847 248 
Q 594 497 594 1153 
L 594 3053 
L 172 3053 
L 172 3500 
L 594 3500 
L 594 4494 
L 1172 4494 
z
" transform="scale(0.015625)"/>
     <path id="DejaVuSans-6e" d="M 3513 2113 
L 3513 0 
L 2938 0 
L 2938 2094 
Q 2938 2591 2744 2837 
Q 2550 3084 2163 3084 
Q 1697 3084 1428 2787 
Q 1159 2491 1159 1978 
L 1159 0 
L 581 0 
L 581 3500 
L 1159 3500 
L 1159 2956 
Q 1366 3272 1645 3428 
Q 1925 3584 2291 3584 
Q 2894 3584 3203 3211 
Q 3513 2838 3513 2113 
z
" transform="scale(0.015625)"/>
     <path id="DejaVuSans-64" d="M 2906 2969 
L 2906 4863 
L 3481 4863 
L 3481 0 
L 2906 0 
L 2906 525 
Q 2725 213 2448 61 
Q 2172 -91 1784 -91 
Q 1150 -91 751 415 
Q 353 922 353 1747 
Q 353 2572 751 3078 
Q 1150 3584 1784 3584 
Q 2172 3584 2448 3432 
Q 2725 3281 2906 2969 
z
M 947 1747 
Q 947 1113 1208 752 
Q 1469 391 1925 391 
Q 2381 391 2643 752 
Q 2906 1113 2906 1747 
Q 2906 2381 2643 2742 
Q 2381 3103 1925 3103 
Q 1469 3103 1208 2742 
Q 947 2381 947 1747 
z
" transform="scale(0.015625)"/>
     <path id="DejaVuSans-65" d="M 3597 1894 
L 3597 1613 
L 953 1613 
Q 991 1019 1311 708 
Q 1631 397 2203 397 
Q 2534 397 2845 478 
Q 3156 559 3463 722 
L 3463 178 
Q 3153 47 2828 -22 
Q 2503 -91 2169 -91 
Q 1331 -91 842 396 
Q 353 884 353 1716 
Q 353 2575 817 3079 
Q 1281 3584 2069 3584 
Q 2775 3584 3186 3129 
Q 3597 2675 3597 1894 
z
M 3022 2063 
Q 3016 2534 2758 2815 
Q 2500 3097 2075 3097 
Q 1594 3097 1305 2825 
Q 1016 2553 972 2059 
L 3022 2063 
z
" transform="scale(0.015625)"/>
     <path id="DejaVuSans-6c" d="M 603 4863 
L 1178 4863 
L 1178 0 
L 603 0 
L 603 4863 
z
" transform="scale(0.015625)"/>
     <path id="DejaVuSans-67" d="M 2906 1791 
Q 2906 2416 2648 2759 
Q 2391 3103 1925 3103 
Q 1463 3103 1205 2759 
Q 947 2416 947 1791 
Q 947 1169 1205 825 
Q 1463 481 1925 481 
Q 2391 481 2648 825 
Q 2906 1169 2906 1791 
z
M 3481 434 
Q 3481 -459 3084 -895 
Q 2688 -1331 1869 -1331 
Q 1566 -1331 1297 -1286 
Q 1028 -1241 775 -1147 
L 775 -588 
Q 1028 -725 1275 -790 
Q 1522 -856 1778 -856 
Q 2344 -856 2625 -561 
Q 2906 -266 2906 331 
L 2906 616 
Q 2728 306 2450 153 
Q 2172 0 1784 0 
Q 1141 0 747 490 
Q 353 981 353 1791 
Q 353 2603 747 3093 
Q 1141 3584 1784 3584 
Q 2172 3584 2450 3431 
Q 2728 3278 2906 2969 
L 2906 3500 
L 3481 3500 
L 3481 434 
z
" transform="scale(0.015625)"/>
     <path id="DejaVuSans-2c" d="M 750 794 
L 1409 794 
L 1409 256 
L 897 -744 
L 494 -744 
L 750 256 
L 750 794 
z
" transform="scale(0.015625)"/>
     <path id="DejaVuSans-72" d="M 2631 2963 
Q 2534 3019 2420 3045 
Q 2306 3072 2169 3072 
Q 1681 3072 1420 2755 
Q 1159 2438 1159 1844 
L 1159 0 
L 581 0 
L 581 3500 
L 1159 3500 
L 1159 2956 
Q 1341 3275 1631 3429 
Q 1922 3584 2338 3584 
Q 2397 3584 2469 3576 
Q 2541 3569 2628 3553 
L 2631 2963 
z
" transform="scale(0.015625)"/>
     <path id="DejaVuSans-75" d="M 544 1381 
L 544 3500 
L 1119 3500 
L 1119 1403 
Q 1119 906 1312 657 
Q 1506 409 1894 409 
Q 2359 409 2629 706 
Q 2900 1003 2900 1516 
L 2900 3500 
L 3475 3500 
L 3475 0 
L 2900 0 
L 2900 538 
Q 2691 219 2414 64 
Q 2138 -91 1772 -91 
Q 1169 -91 856 284 
Q 544 659 544 1381 
z
M 1991 3584 
L 1991 3584 
z
" transform="scale(0.015625)"/>
     <path id="DejaVuSans-6a" d="M 603 3500 
L 1178 3500 
L 1178 -63 
Q 1178 -731 923 -1031 
Q 669 -1331 103 -1331 
L -116 -1331 
L -116 -844 
L 38 -844 
Q 366 -844 484 -692 
Q 603 -541 603 -63 
L 603 3500 
z
M 603 4863 
L 1178 4863 
L 1178 4134 
L 603 4134 
L 603 4863 
z
" transform="scale(0.015625)"/>
     <path id="DejaVuSans-61" d="M 2194 1759 
Q 1497 1759 1228 1600 
Q 959 1441 959 1056 
Q 959 750 1161 570 
Q 1363 391 1709 391 
Q 2188 391 2477 730 
Q 2766 1069 2766 1631 
L 2766 1759 
L 2194 1759 
z
M 3341 1997 
L 3341 0 
L 2766 0 
L 2766 531 
Q 2569 213 2275 61 
Q 1981 -91 1556 -91 
Q 1019 -91 701 211 
Q 384 513 384 1019 
Q 384 1609 779 1909 
Q 1175 2209 1959 2209 
L 2766 2209 
L 2766 2266 
Q 2766 2663 2505 2880 
Q 2244 3097 1772 3097 
Q 1472 3097 1187 3025 
Q 903 2953 641 2809 
L 641 3341 
Q 956 3463 1253 3523 
Q 1550 3584 1831 3584 
Q 2591 3584 2966 3190 
Q 3341 2797 3341 1997 
z
" transform="scale(0.015625)"/>
     <path id="DejaVuSans-ab" d="M 3316 3309 
L 3316 2713 
L 2375 1875 
L 3316 1038 
L 3316 441 
L 1850 1747 
L 1850 2003 
L 3316 3309 
z
M 1959 3309 
L 1959 2713 
L 1019 1875 
L 1959 1038 
L 1959 441 
L 494 1747 
L 494 2003 
L 1959 3309 
z
" transform="scale(0.015625)"/>
     <path id="DejaVuSans-28" d="M 1984 4856 
Q 1566 4138 1362 3434 
Q 1159 2731 1159 2009 
Q 1159 1288 1364 580 
Q 1569 -128 1984 -844 
L 1484 -844 
Q 1016 -109 783 600 
Q 550 1309 550 2009 
Q 550 2706 781 3412 
Q 1013 4119 1484 4856 
L 1984 4856 
z
" transform="scale(0.015625)"/>
     <path id="DejaVuSans-62" d="M 3116 1747 
Q 3116 2381 2855 2742 
Q 2594 3103 2138 3103 
Q 1681 3103 1420 2742 
Q 1159 2381 1159 1747 
Q 1159 1113 1420 752 
Q 1681 391 2138 391 
Q 2594 391 2855 752 
Q 3116 1113 3116 1747 
z
M 1159 2969 
Q 1341 3281 1617 3432 
Q 1894 3584 2278 3584 
Q 2916 3584 3314 3078 
Q 3713 2572 3713 1747 
Q 3713 922 3314 415 
Q 2916 -91 2278 -91 
Q 1894 -91 1617 61 
Q 1341 213 1159 525 
L 1159 0 
L 581 0 
L 581 4863 
L 1159 4863 
L 1159 2969 
z
" transform="scale(0.015625)"/>
     <path id="DejaVuSans-32" d="M 1228 531 
L 3431 531 
L 3431 0 
L 469 0 
L 469 531 
Q 828 903 1448 1529 
Q 2069 2156 2228 2338 
Q 2531 2678 2651 2914 
Q 2772 3150 2772 3378 
Q 2772 3750 2511 3984 
Q 2250 4219 1831 4219 
Q 1534 4219 1204 4116 
Q 875 4013 500 3803 
L 500 4441 
Q 881 4594 1212 4672 
Q 1544 4750 1819 4750 
Q 2544 4750 2975 4387 
Q 3406 4025 3406 3419 
Q 3406 3131 3298 2873 
Q 3191 2616 2906 2266 
Q 2828 2175 2409 1742 
Q 1991 1309 1228 531 
z
" transform="scale(0.015625)"/>
     <path id="DejaVuSans-37" d="M 525 4666 
L 3525 4666 
L 3525 4397 
L 1831 0 
L 1172 0 
L 2766 4134 
L 525 4134 
L 525 4666 
z
" transform="scale(0.015625)"/>
     <path id="DejaVuSans-33" d="M 2597 2516 
Q 3050 2419 3304 2112 
Q 3559 1806 3559 1356 
Q 3559 666 3084 287 
Q 2609 -91 1734 -91 
Q 1441 -91 1130 -33 
Q 819 25 488 141 
L 488 750 
Q 750 597 1062 519 
Q 1375 441 1716 441 
Q 2309 441 2620 675 
Q 2931 909 2931 1356 
Q 2931 1769 2642 2001 
Q 2353 2234 1838 2234 
L 1294 2234 
L 1294 2753 
L 1863 2753 
Q 2328 2753 2575 2939 
Q 2822 3125 2822 3475 
Q 2822 3834 2567 4026 
Q 2313 4219 1838 4219 
Q 1578 4219 1281 4162 
Q 984 4106 628 3988 
L 628 4550 
Q 988 4650 1302 4700 
Q 1616 4750 1894 4750 
Q 2613 4750 3031 4423 
Q 3450 4097 3450 3541 
Q 3450 3153 3228 2886 
Q 3006 2619 2597 2516 
z
" transform="scale(0.015625)"/>
     <path id="DejaVuSans-29" d="M 513 4856 
L 1013 4856 
Q 1481 4119 1714 3412 
Q 1947 2706 1947 2009 
Q 1947 1309 1714 600 
Q 1481 -109 1013 -844 
L 513 -844 
Q 928 -128 1133 580 
Q 1338 1288 1338 2009 
Q 1338 2731 1133 3434 
Q 928 4138 513 4856 
z
" transform="scale(0.015625)"/>
    </defs>
    <use xlink:href="#DejaVuSans-bb"/>
    <use xlink:href="#DejaVuSans-20" transform="translate(61.181641 0)"/>
    <use xlink:href="#DejaVuSans-4e" transform="translate(92.96875 0)"/>
    <use xlink:href="#DejaVuSans-6f" transform="translate(167.773438 0)"/>
    <use xlink:href="#DejaVuSans-2e" transform="translate(227.205078 0)"/>
    <use xlink:href="#DejaVuSans-20" transform="translate(258.992188 0)"/>
    <use xlink:href="#DejaVuSans-49" transform="translate(290.779297 0)"/>
    <use xlink:href="#DejaVuSans-3a" transform="translate(320.271484 0)"/>
    <use xlink:href="#DejaVuSans-20" transform="translate(353.962891 0)"/>
    <use xlink:href="#DejaVuSans-4f" transform="translate(385.75 0)"/>
    <use xlink:href="#DejaVuSans-70" transform="translate(464.460938 0)"/>
    <use xlink:href="#DejaVuSans-70" transform="translate(527.9375 0)"/>
    <use xlink:href="#DejaVuSans-6f" transform="translate(591.414062 0)"/>
    <use xlink:href="#DejaVuSans-73" transform="translate(652.595703 0)"/>
    <use xlink:href="#DejaVuSans-69" transform="translate(704.695312 0)"/>
    <use xlink:href="#DejaVuSans-74" transform="translate(732.478516 0)"/>
    <use xlink:href="#DejaVuSans-69" transform="translate(771.6875 0)"/>
    <use xlink:href="#DejaVuSans-6f" transform="translate(799.470703 0)"/>
    <use xlink:href="#DejaVuSans-6e" transform="translate(860.652344 0)"/>
    <use xlink:href="#DejaVuSans-20" transform="translate(924.03125 0)"/>
    <use xlink:href="#DejaVuSans-64" transform="translate(955.818359 0)"/>
    <use xlink:href="#DejaVuSans-65" transform="translate(1019.294922 0)"/>
    <use xlink:href="#DejaVuSans-20" transform="translate(1080.818359 0)"/>
    <use xlink:href="#DejaVuSans-6c" transform="translate(1112.605469 0)"/>
    <use xlink:href="#DejaVuSans-69" transform="translate(1140.388672 0)"/>
    <use xlink:href="#DejaVuSans-67" transform="translate(1168.171875 0)"/>
    <use xlink:href="#DejaVuSans-6e" transform="translate(1231.648438 0)"/>
    <use xlink:href="#DejaVuSans-65" transform="translate(1295.027344 0)"/>
    <use xlink:href="#DejaVuSans-73" transform="translate(1356.550781 0)"/>
    <use xlink:href="#DejaVuSans-2c" transform="translate(1408.650391 0)"/>
    <use xlink:href="#DejaVuSans-20" transform="translate(1440.4375 0)"/>
    <use xlink:href="#DejaVuSans-64" transform="translate(1472.224609 0)"/>
    <use xlink:href="#DejaVuSans-65" transform="translate(1535.701172 0)"/>
    <use xlink:href="#DejaVuSans-20" transform="translate(1597.224609 0)"/>
    <use xlink:href="#DejaVuSans-72" transform="translate(1629.011719 0)"/>
    <use xlink:href="#DejaVuSans-6f" transform="translate(1667.875 0)"/>
    <use xlink:href="#DejaVuSans-75" transform="translate(1729.056641 0)"/>
    <use xlink:href="#DejaVuSans-67" transform="translate(1792.435547 0)"/>
    <use xlink:href="#DejaVuSans-65" transform="translate(1855.912109 0)"/>
    <use xlink:href="#DejaVuSans-20" transform="translate(1917.435547 0)"/>
    <use xlink:href="#DejaVuSans-65" transform="translate(1949.222656 0)"/>
    <use xlink:href="#DejaVuSans-74" transform="translate(2010.746094 0)"/>
    <use xlink:href="#DejaVuSans-20" transform="translate(2049.955078 0)"/>
    <use xlink:href="#DejaVuSans-6a" transform="translate(2081.742188 0)"/>
    <use xlink:href="#DejaVuSans-61" transform="translate(2109.525391 0)"/>
    <use xlink:href="#DejaVuSans-75" transform="translate(2170.804688 0)"/>
    <use xlink:href="#DejaVuSans-6e" transform="translate(2234.183594 0)"/>
    <use xlink:href="#DejaVuSans-65" transform="translate(2297.5625 0)"/>
    <use xlink:href="#DejaVuSans-20" transform="translate(2359.085938 0)"/>
    <use xlink:href="#DejaVuSans-ab" transform="translate(2390.873047 0)"/>
    <use xlink:href="#DejaVuSans-20" transform="translate(2452.054688 0)"/>
    <use xlink:href="#DejaVuSans-28" transform="translate(2483.841797 0)"/>
    <use xlink:href="#DejaVuSans-62" transform="translate(2522.855469 0)"/>
    <use xlink:href="#DejaVuSans-32" transform="translate(2586.332031 0)"/>
    <use xlink:href="#DejaVuSans-37" transform="translate(2649.955078 0)"/>
    <use xlink:href="#DejaVuSans-33" transform="translate(2713.578125 0)"/>
    <use xlink:href="#DejaVuSans-29" transform="translate(2777.201172 0)"/>
   </g>
  </g>
 </g>
 <defs>
  <clipPath id="p3e129c15ba">
   <rect x="46.657241" y="25.92" width="128.085517" height="166.32"/>
  </clipPath>
 </defs>
</svg>
