<?xml version="1.0" encoding="utf-8" standalone="no"?>
<!DOCTYPE svg PUBLIC "-//W3C//DTD SVG 1.1//EN"
  "http://www.w3.org/Graphics/SVG/1.1/DTD/svg11.dtd">
<svg xmlns:xlink="http://www.w3.org/1999/xlink" width="216pt" height="216pt" viewBox="0 0 216 216" xmlns="http://www.w3.org/2000/svg" version="1.1">
 <metadata>
  <rdf:RDF xmlns:dc="http://purl.org/dc/elements/1.1/" xmlns:cc="http://creativecommons.org/ns#" xmlns:rdf="http://www.w3.org/1999/02/22-rdf-syntax-ns#">
   <cc:Work>
    <dc:type rdf:resource="http://purl.org/dc/dcmitype/StillImage"/>
    <dc:date>2026-01-21T11:50:07.320928</dc:date>
    <dc:format>image/svg+xml</dc:format>
    <dc:creator>
     <cc:Agent>
      <dc:title>Matplotlib v3.10.8, https://matplotlib.org/</dc:title>
     </cc:Agent>
    </dc:creator>
   </cc:Work>
  </rdf:RDF>
 </metadata>
 <defs>
  <style type="text/css">*{stroke-linejoin: round; stroke-linecap: butt}</style>
 </defs>
 <g id="figure_1">
  <g id="patch_1">
   <path d="M 0 216 
L 216 216 
L 216 0 
L 0 0 
z
" style="fill: #ffffff; stroke: #000000; stroke-width: 10; stroke-linejoin: miter"/>
  </g>
  <g id="axes_1">
   <g id="patch_2">
    <path d="M 34.573433 192.24 
L 43.399701 192.24 
L 43.399701 178.173134 
L 34.573433 178.173134 
z
" clip-path="url(#p43bb02ad03)" style="fill: #db1712"/>
   </g>
   <g id="patch_3">
    <path d="M 46.985373 192.24 
L 79.80806 192.24 
L 79.80806 178.173134 
L 46.985373 178.173134 
z
" clip-path="url(#p43bb02ad03)" style="fill: #f8f9f6"/>
   </g>
   <g id="patch_4">
    <path d="M 83.393731 192.24 
L 100.218806 192.24 
L 100.218806 178.173134 
L 83.393731 178.173134 
z
" clip-path="url(#p43bb02ad03)" style="fill: #3e6fae"/>
   </g>
   <g id="patch_5">
    <path d="M 103.804478 192.24 
L 137.730448 192.24 
L 137.730448 178.173134 
L 103.804478 178.173134 
z
" clip-path="url(#p43bb02ad03)" style="fill: #f9f9f7"/>
   </g>
   <g id="patch_6">
    <path d="M 141.316119 192.24 
L 143.522687 192.24 
L 143.522687 178.173134 
L 141.316119 178.173134 
z
" clip-path="url(#p43bb02ad03)" style="fill: #f5f5f4"/>
   </g>
   <g id="patch_7">
    <path d="M 147.108358 192.24 
L 151.521493 192.24 
L 151.521493 178.173134 
L 147.108358 178.173134 
z
" clip-path="url(#p43bb02ad03)" style="fill: #f7f8f7"/>
   </g>
   <g id="patch_8">
    <path d="M 155.107164 192.24 
L 163.381791 192.24 
L 163.381791 178.173134 
L 155.107164 178.173134 
z
" clip-path="url(#p43bb02ad03)" style="fill: #f8f8f6"/>
   </g>
   <g id="patch_9">
    <path d="M 167.243284 192.24 
L 180.482687 192.24 
L 180.482687 178.173134 
L 167.243284 178.173134 
z
" clip-path="url(#p43bb02ad03)" style="fill: #f9f9f7"/>
   </g>
   <g id="patch_10">
    <path d="M 183.516716 192.24 
L 186.826567 192.24 
L 186.826567 94.875224 
L 183.516716 94.875224 
z
" clip-path="url(#p43bb02ad03)" style="fill: #f5f5f3"/>
   </g>
   <g id="patch_11">
    <path d="M 34.573433 174.035821 
L 43.399701 174.035821 
L 43.399701 156.659104 
L 34.573433 156.659104 
z
" clip-path="url(#p43bb02ad03)" style="fill: #db1712"/>
   </g>
   <g id="patch_12">
    <path d="M 46.985373 174.035821 
L 79.80806 174.035821 
L 79.80806 135.145075 
L 46.985373 135.145075 
z
" clip-path="url(#p43bb02ad03)" style="fill: #f7f8f5"/>
   </g>
   <g id="patch_13">
    <path d="M 83.393731 174.035821 
L 100.218806 174.035821 
L 100.218806 135.145075 
L 83.393731 135.145075 
z
" clip-path="url(#p43bb02ad03)" style="fill: #f9f9f7"/>
   </g>
   <g id="patch_14">
    <path d="M 103.804478 174.035821 
L 137.730448 174.035821 
L 137.730448 135.145075 
L 103.804478 135.145075 
z
" clip-path="url(#p43bb02ad03)" style="fill: #fafaf8"/>
   </g>
   <g id="patch_15">
    <path d="M 141.316119 174.035821 
L 143.522687 174.035821 
L 143.522687 135.145075 
L 141.316119 135.145075 
z
" clip-path="url(#p43bb02ad03)" style="fill: #f4f5f2"/>
   </g>
   <g id="patch_16">
    <path d="M 147.108358 174.035821 
L 151.521493 174.035821 
L 151.521493 135.145075 
L 147.108358 135.145075 
z
" clip-path="url(#p43bb02ad03)" style="fill: #f7f7f4"/>
   </g>
   <g id="patch_17">
    <path d="M 155.107164 174.035821 
L 163.381791 174.035821 
L 163.381791 135.145075 
L 155.107164 135.145075 
z
" clip-path="url(#p43bb02ad03)" style="fill: #f8f8f7"/>
   </g>
   <g id="patch_18">
    <path d="M 167.243284 174.035821 
L 180.482687 174.035821 
L 180.482687 135.145075 
L 167.243284 135.145075 
z
" clip-path="url(#p43bb02ad03)" style="fill: #f6f7f5"/>
   </g>
   <g id="patch_19">
    <path d="M 34.573433 156.659104 
L 43.399701 156.659104 
L 43.399701 104.253134 
L 34.573433 104.253134 
z
" clip-path="url(#p43bb02ad03)" style="fill: #f6f7f1"/>
   </g>
   <g id="patch_20">
    <path d="M 46.985373 130.456119 
L 79.80806 130.456119 
L 79.80806 94.875224 
L 46.985373 94.875224 
z
" clip-path="url(#p43bb02ad03)" style="fill: #f6f7f3"/>
   </g>
   <g id="patch_21">
    <path d="M 83.393731 130.456119 
L 100.218806 130.456119 
L 100.218806 94.875224 
L 83.393731 94.875224 
z
" clip-path="url(#p43bb02ad03)" style="fill: #eee314"/>
   </g>
   <g id="patch_22">
    <path d="M 103.804478 130.456119 
L 137.730448 130.456119 
L 137.730448 94.875224 
L 103.804478 94.875224 
z
" clip-path="url(#p43bb02ad03)" style="fill: #f6f6f4"/>
   </g>
   <g id="patch_23">
    <path d="M 141.316119 130.456119 
L 143.522687 130.456119 
L 143.522687 94.875224 
L 141.316119 94.875224 
z
" clip-path="url(#p43bb02ad03)" style="fill: #f5f6f3"/>
   </g>
   <g id="patch_24">
    <path d="M 147.108358 130.456119 
L 151.521493 130.456119 
L 151.521493 94.875224 
L 147.108358 94.875224 
z
" clip-path="url(#p43bb02ad03)" style="fill: #f4f3f1"/>
   </g>
   <g id="patch_25">
    <path d="M 155.107164 130.456119 
L 163.381791 130.456119 
L 163.381791 94.875224 
L 155.107164 94.875224 
z
" clip-path="url(#p43bb02ad03)" style="fill: #f6f6f5"/>
   </g>
   <g id="patch_26">
    <path d="M 167.243284 130.456119 
L 180.482687 130.456119 
L 180.482687 116.389254 
L 167.243284 116.389254 
z
" clip-path="url(#p43bb02ad03)" style="fill: #f7f7f3"/>
   </g>
   <g id="patch_27">
    <path d="M 167.243284 116.389254 
L 180.482687 116.389254 
L 180.482687 104.528955 
L 167.243284 104.528955 
z
" clip-path="url(#p43bb02ad03)" style="fill: #da110b"/>
   </g>
   <g id="patch_28">
    <path d="M 167.243284 104.528955 
L 180.482687 104.528955 
L 180.482687 94.875224 
L 167.243284 94.875224 
z
" clip-path="url(#p43bb02ad03)" style="fill: #f3f6f3"/>
   </g>
   <g id="patch_29">
    <path d="M 34.573433 104.253134 
L 43.399701 104.253134 
L 43.399701 94.875224 
L 34.573433 94.875224 
z
" clip-path="url(#p43bb02ad03)" style="fill: #dc130f"/>
   </g>
   <g id="patch_30">
    <path d="M 34.573433 90.46209 
L 79.80806 90.46209 
L 79.80806 25.92 
L 34.573433 25.92 
z
" clip-path="url(#p43bb02ad03)" style="fill: #f7f7f4"/>
   </g>
   <g id="patch_31">
    <path d="M 83.393731 90.46209 
L 137.730448 90.46209 
L 137.730448 34.746269 
L 83.393731 34.746269 
z
" clip-path="url(#p43bb02ad03)" style="fill: #f6f6f2"/>
   </g>
   <g id="patch_32">
    <path d="M 141.316119 90.46209 
L 143.522687 90.46209 
L 143.522687 67.017313 
L 141.316119 67.017313 
z
" clip-path="url(#p43bb02ad03)" style="fill: #f5f5f4"/>
   </g>
   <g id="patch_33">
    <path d="M 147.108358 90.46209 
L 151.521493 90.46209 
L 151.521493 67.017313 
L 147.108358 67.017313 
z
" clip-path="url(#p43bb02ad03)" style="fill: #f6f7f4"/>
   </g>
   <g id="patch_34">
    <path d="M 155.107164 90.46209 
L 163.381791 90.46209 
L 163.381791 67.017313 
L 155.107164 67.017313 
z
" clip-path="url(#p43bb02ad03)" style="fill: #f5f5f4"/>
   </g>
   <g id="patch_35">
    <path d="M 167.243284 90.46209 
L 186.826567 90.46209 
L 186.826567 67.017313 
L 167.243284 67.017313 
z
" clip-path="url(#p43bb02ad03)" style="fill: #f6f7f3"/>
   </g>
   <g id="patch_36">
    <path d="M 141.316119 63.431642 
L 143.522687 63.431642 
L 143.522687 34.746269 
L 141.316119 34.746269 
z
" clip-path="url(#p43bb02ad03)" style="fill: #f2f2f2"/>
   </g>
   <g id="patch_37">
    <path d="M 147.108358 63.431642 
L 151.521493 63.431642 
L 151.521493 34.746269 
L 147.108358 34.746269 
z
" clip-path="url(#p43bb02ad03)" style="fill: #f4f4f3"/>
   </g>
   <g id="patch_38">
    <path d="M 155.107164 63.431642 
L 163.381791 63.431642 
L 163.381791 34.746269 
L 155.107164 34.746269 
z
" clip-path="url(#p43bb02ad03)" style="fill: #f6f6f3"/>
   </g>
   <g id="patch_39">
    <path d="M 167.243284 63.431642 
L 186.826567 63.431642 
L 186.826567 34.746269 
L 167.243284 34.746269 
z
" clip-path="url(#p43bb02ad03)" style="fill: #f6f7f5"/>
   </g>
   <g id="patch_40">
    <path d="M 83.393731 30.608955 
L 137.730448 30.608955 
L 137.730448 25.92 
L 83.393731 25.92 
z
" clip-path="url(#p43bb02ad03)" style="fill: #f7f8f4"/>
   </g>
   <g id="patch_41">
    <path d="M 141.316119 30.608955 
L 143.522687 30.608955 
L 143.522687 25.92 
L 141.316119 25.92 
z
" clip-path="url(#p43bb02ad03)" style="fill: #f4f2f3"/>
   </g>
   <g id="patch_42">
    <path d="M 147.108358 30.608955 
L 163.381791 30.608955 
L 163.381791 25.92 
L 147.108358 25.92 
z
" clip-path="url(#p43bb02ad03)" style="fill: #f6f6f5"/>
   </g>
   <g id="patch_43">
    <path d="M 167.243284 30.608955 
L 186.826567 30.608955 
L 186.826567 25.92 
L 167.243284 25.92 
z
" clip-path="url(#p43bb02ad03)" style="fill: #3968a8"/>
   </g>
   <g id="patch_44">
    <path d="M 43.399701 192.24 
L 46.985373 192.24 
L 46.985373 94.875224 
L 43.399701 94.875224 
z
" clip-path="url(#p43bb02ad03)"/>
   </g>
   <g id="patch_45">
    <path d="M 79.80806 192.24 
L 83.393731 192.24 
L 83.393731 25.92 
L 79.80806 25.92 
z
" clip-path="url(#p43bb02ad03)"/>
   </g>
   <g id="patch_46">
    <path d="M 100.218806 192.24 
L 103.804478 192.24 
L 103.804478 94.875224 
L 100.218806 94.875224 
z
" clip-path="url(#p43bb02ad03)"/>
   </g>
   <g id="patch_47">
    <path d="M 137.730448 192.24 
L 141.316119 192.24 
L 141.316119 25.92 
L 137.730448 25.92 
z
" clip-path="url(#p43bb02ad03)"/>
   </g>
   <g id="patch_48">
    <path d="M 143.522687 192.24 
L 147.108358 192.24 
L 147.108358 25.92 
L 143.522687 25.92 
z
" clip-path="url(#p43bb02ad03)"/>
   </g>
   <g id="patch_49">
    <path d="M 151.521493 192.24 
L 155.107164 192.24 
L 155.107164 34.746269 
L 151.521493 34.746269 
z
" clip-path="url(#p43bb02ad03)"/>
   </g>
   <g id="patch_50">
    <path d="M 163.381791 192.24 
L 167.243284 192.24 
L 167.243284 25.92 
L 163.381791 25.92 
z
" clip-path="url(#p43bb02ad03)"/>
   </g>
   <g id="patch_51">
    <path d="M 180.482687 192.24 
L 183.516716 192.24 
L 183.516716 94.875224 
L 180.482687 94.875224 
z
" clip-path="url(#p43bb02ad03)"/>
   </g>
   <g id="patch_52">
    <path d="M 34.573433 178.173134 
L 180.482687 178.173134 
L 180.482687 174.035821 
L 34.573433 174.035821 
z
" clip-path="url(#p43bb02ad03)"/>
   </g>
   <g id="patch_53">
    <path d="M 46.985373 135.145075 
L 180.482687 135.145075 
L 180.482687 130.456119 
L 46.985373 130.456119 
z
" clip-path="url(#p43bb02ad03)"/>
   </g>
   <g id="patch_54">
    <path d="M 34.573433 94.875224 
L 186.826567 94.875224 
L 186.826567 90.46209 
L 34.573433 90.46209 
z
" clip-path="url(#p43bb02ad03)"/>
   </g>
   <g id="patch_55">
    <path d="M 141.316119 67.017313 
L 186.826567 67.017313 
L 186.826567 63.431642 
L 141.316119 63.431642 
z
" clip-path="url(#p43bb02ad03)"/>
   </g>
   <g id="patch_56">
    <path d="M 83.393731 34.746269 
L 186.826567 34.746269 
L 186.826567 30.608955 
L 83.393731 30.608955 
z
" clip-path="url(#p43bb02ad03)"/>
   </g>
  </g>
  <g id="text_1">
   <!-- » No. II: Blanc et rouge « (b274) -->
   <g transform="translate(10.8 205.2) scale(0.12 -0.12)">
    <defs>
     <path id="DejaVuSans-bb" d="M 603 3309 
L 2069 2003 
L 2069 1747 
L 603 441 
L 603 1038 
L 1544 1875 
L 603 2713 
L 603 3309 
z
M 1959 3309 
L 3425 2003 
L 3425 1747 
L 1959 441 
L 1959 1038 
L 2900 1875 
L 1959 2713 
L 1959 3309 
z
" transform="scale(0.015625)"/>
     <path id="DejaVuSans-20" transform="scale(0.015625)"/>
     <path id="DejaVuSans-4e" d="M 628 4666 
L 1478 4666 
L 3547 763 
L 3547 4666 
L 4159 4666 
L 4159 0 
L 3309 0 
L 1241 3903 
L 1241 0 
L 628 0 
L 628 4666 
z
" transform="scale(0.015625)"/>
     <path id="DejaVuSans-6f" d="M 1959 3097 
Q 1497 3097 1228 2736 
Q 959 2375 959 1747 
Q 959 1119 1226 758 
Q 1494 397 1959 397 
Q 2419 397 2687 759 
Q 2956 1122 2956 1747 
Q 2956 2369 2687 2733 
Q 2419 3097 1959 3097 
z
M 1959 3584 
Q 2709 3584 3137 3096 
Q 3566 2609 3566 1747 
Q 3566 888 3137 398 
Q 2709 -91 1959 -91 
Q 1206 -91 779 398 
Q 353 888 353 1747 
Q 353 2609 779 3096 
Q 1206 3584 1959 3584 
z
" transform="scale(0.015625)"/>
     <path id="DejaVuSans-2e" d="M 684 794 
L 1344 794 
L 1344 0 
L 684 0 
L 684 794 
z
" transform="scale(0.015625)"/>
     <path id="DejaVuSans-49" d="M 628 4666 
L 1259 4666 
L 1259 0 
L 628 0 
L 628 4666 
z
" transform="scale(0.015625)"/>
     <path id="DejaVuSans-3a" d="M 750 794 
L 1409 794 
L 1409 0 
L 750 0 
L 750 794 
z
M 750 3309 
L 1409 3309 
L 1409 2516 
L 750 2516 
L 750 3309 
z
" transform="scale(0.015625)"/>
     <path id="DejaVuSans-42" d="M 1259 2228 
L 1259 519 
L 2272 519 
Q 2781 519 3026 730 
Q 3272 941 3272 1375 
Q 3272 1813 3026 2020 
Q 2781 2228 2272 2228 
L 1259 2228 
z
M 1259 4147 
L 1259 2741 
L 2194 2741 
Q 2656 2741 2882 2914 
Q 3109 3088 3109 3444 
Q 3109 3797 2882 3972 
Q 2656 4147 2194 4147 
L 1259 4147 
z
M 628 4666 
L 2241 4666 
Q 2963 4666 3353 4366 
Q 3744 4066 3744 3513 
Q 3744 3084 3544 2831 
Q 3344 2578 2956 2516 
Q 3422 2416 3680 2098 
Q 3938 1781 3938 1306 
Q 3938 681 3513 340 
Q 3088 0 2303 0 
L 628 0 
L 628 4666 
z
" transform="scale(0.015625)"/>
     <path id="DejaVuSans-6c" d="M 603 4863 
L 1178 4863 
L 1178 0 
L 603 0 
L 603 4863 
z
" transform="scale(0.015625)"/>
     <path id="DejaVuSans-61" d="M 2194 1759 
Q 1497 1759 1228 1600 
Q 959 1441 959 1056 
Q 959 750 1161 570 
Q 1363 391 1709 391 
Q 2188 391 2477 730 
Q 2766 1069 2766 1631 
L 2766 1759 
L 2194 1759 
z
M 3341 1997 
L 3341 0 
L 2766 0 
L 2766 531 
Q 2569 213 2275 61 
Q 1981 -91 1556 -91 
Q 1019 -91 701 211 
Q 384 513 384 1019 
Q 384 1609 779 1909 
Q 1175 2209 1959 2209 
L 2766 2209 
L 2766 2266 
Q 2766 2663 2505 2880 
Q 2244 3097 1772 3097 
Q 1472 3097 1187 3025 
Q 903 2953 641 2809 
L 641 3341 
Q 956 3463 1253 3523 
Q 1550 3584 1831 3584 
Q 2591 3584 2966 3190 
Q 3341 2797 3341 1997 
z
" transform="scale(0.015625)"/>
     <path id="DejaVuSans-6e" d="M 3513 2113 
L 3513 0 
L 2938 0 
L 2938 2094 
Q 2938 2591 2744 2837 
Q 2550 3084 2163 3084 
Q 1697 3084 1428 2787 
Q 1159 2491 1159 1978 
L 1159 0 
L 581 0 
L 581 3500 
L 1159 3500 
L 1159 2956 
Q 1366 3272 1645 3428 
Q 1925 3584 2291 3584 
Q 2894 3584 3203 3211 
Q 3513 2838 3513 2113 
z
" transform="scale(0.015625)"/>
     <path id="DejaVuSans-63" d="M 3122 3366 
L 3122 2828 
Q 2878 2963 2633 3030 
Q 2388 3097 2138 3097 
Q 1578 3097 1268 2742 
Q 959 2388 959 1747 
Q 959 1106 1268 751 
Q 1578 397 2138 397 
Q 2388 397 2633 464 
Q 2878 531 3122 666 
L 3122 134 
Q 2881 22 2623 -34 
Q 2366 -91 2075 -91 
Q 1284 -91 818 406 
Q 353 903 353 1747 
Q 353 2603 823 3093 
Q 1294 3584 2113 3584 
Q 2378 3584 2631 3529 
Q 2884 3475 3122 3366 
z
" transform="scale(0.015625)"/>
     <path id="DejaVuSans-65" d="M 3597 1894 
L 3597 1613 
L 953 1613 
Q 991 1019 1311 708 
Q 1631 397 2203 397 
Q 2534 397 2845 478 
Q 3156 559 3463 722 
L 3463 178 
Q 3153 47 2828 -22 
Q 2503 -91 2169 -91 
Q 1331 -91 842 396 
Q 353 884 353 1716 
Q 353 2575 817 3079 
Q 1281 3584 2069 3584 
Q 2775 3584 3186 3129 
Q 3597 2675 3597 1894 
z
M 3022 2063 
Q 3016 2534 2758 2815 
Q 2500 3097 2075 3097 
Q 1594 3097 1305 2825 
Q 1016 2553 972 2059 
L 3022 2063 
z
" transform="scale(0.015625)"/>
     <path id="DejaVuSans-74" d="M 1172 4494 
L 1172 3500 
L 2356 3500 
L 2356 3053 
L 1172 3053 
L 1172 1153 
Q 1172 725 1289 603 
Q 1406 481 1766 481 
L 2356 481 
L 2356 0 
L 1766 0 
Q 1100 0 847 248 
Q 594 497 594 1153 
L 594 3053 
L 172 3053 
L 172 3500 
L 594 3500 
L 594 4494 
L 1172 4494 
z
" transform="scale(0.015625)"/>
     <path id="DejaVuSans-72" d="M 2631 2963 
Q 2534 3019 2420 3045 
Q 2306 3072 2169 3072 
Q 1681 3072 1420 2755 
Q 1159 2438 1159 1844 
L 1159 0 
L 581 0 
L 581 3500 
L 1159 3500 
L 1159 2956 
Q 1341 3275 1631 3429 
Q 1922 3584 2338 3584 
Q 2397 3584 2469 3576 
Q 2541 3569 2628 3553 
L 2631 2963 
z
" transform="scale(0.015625)"/>
     <path id="DejaVuSans-75" d="M 544 1381 
L 544 3500 
L 1119 3500 
L 1119 1403 
Q 1119 906 1312 657 
Q 1506 409 1894 409 
Q 2359 409 2629 706 
Q 2900 1003 2900 1516 
L 2900 3500 
L 3475 3500 
L 3475 0 
L 2900 0 
L 2900 538 
Q 2691 219 2414 64 
Q 2138 -91 1772 -91 
Q 1169 -91 856 284 
Q 544 659 544 1381 
z
M 1991 3584 
L 1991 3584 
z
" transform="scale(0.015625)"/>
     <path id="DejaVuSans-67" d="M 2906 1791 
Q 2906 2416 2648 2759 
Q 2391 3103 1925 3103 
Q 1463 3103 1205 2759 
Q 947 2416 947 1791 
Q 947 1169 1205 825 
Q 1463 481 1925 481 
Q 2391 481 2648 825 
Q 2906 1169 2906 1791 
z
M 3481 434 
Q 3481 -459 3084 -895 
Q 2688 -1331 1869 -1331 
Q 1566 -1331 1297 -1286 
Q 1028 -1241 775 -1147 
L 775 -588 
Q 1028 -725 1275 -790 
Q 1522 -856 1778 -856 
Q 2344 -856 2625 -561 
Q 2906 -266 2906 331 
L 2906 616 
Q 2728 306 2450 153 
Q 2172 0 1784 0 
Q 1141 0 747 490 
Q 353 981 353 1791 
Q 353 2603 747 3093 
Q 1141 3584 1784 3584 
Q 2172 3584 2450 3431 
Q 2728 3278 2906 2969 
L 2906 3500 
L 3481 3500 
L 3481 434 
z
" transform="scale(0.015625)"/>
     <path id="DejaVuSans-ab" d="M 3316 3309 
L 3316 2713 
L 2375 1875 
L 3316 1038 
L 3316 441 
L 1850 1747 
L 1850 2003 
L 3316 3309 
z
M 1959 3309 
L 1959 2713 
L 1019 1875 
L 1959 1038 
L 1959 441 
L 494 1747 
L 494 2003 
L 1959 3309 
z
" transform="scale(0.015625)"/>
     <path id="DejaVuSans-28" d="M 1984 4856 
Q 1566 4138 1362 3434 
Q 1159 2731 1159 2009 
Q 1159 1288 1364 580 
Q 1569 -128 1984 -844 
L 1484 -844 
Q 1016 -109 783 600 
Q 550 1309 550 2009 
Q 550 2706 781 3412 
Q 1013 4119 1484 4856 
L 1984 4856 
z
" transform="scale(0.015625)"/>
     <path id="DejaVuSans-62" d="M 3116 1747 
Q 3116 2381 2855 2742 
Q 2594 3103 2138 3103 
Q 1681 3103 1420 2742 
Q 1159 2381 1159 1747 
Q 1159 1113 1420 752 
Q 1681 391 2138 391 
Q 2594 391 2855 752 
Q 3116 1113 3116 1747 
z
M 1159 2969 
Q 1341 3281 1617 3432 
Q 1894 3584 2278 3584 
Q 2916 3584 3314 3078 
Q 3713 2572 3713 1747 
Q 3713 922 3314 415 
Q 2916 -91 2278 -91 
Q 1894 -91 1617 61 
Q 1341 213 1159 525 
L 1159 0 
L 581 0 
L 581 4863 
L 1159 4863 
L 1159 2969 
z
" transform="scale(0.015625)"/>
     <path id="DejaVuSans-32" d="M 1228 531 
L 3431 531 
L 3431 0 
L 469 0 
L 469 531 
Q 828 903 1448 1529 
Q 2069 2156 2228 2338 
Q 2531 2678 2651 2914 
Q 2772 3150 2772 3378 
Q 2772 3750 2511 3984 
Q 2250 4219 1831 4219 
Q 1534 4219 1204 4116 
Q 875 4013 500 3803 
L 500 4441 
Q 881 4594 1212 4672 
Q 1544 4750 1819 4750 
Q 2544 4750 2975 4387 
Q 3406 4025 3406 3419 
Q 3406 3131 3298 2873 
Q 3191 2616 2906 2266 
Q 2828 2175 2409 1742 
Q 1991 1309 1228 531 
z
" transform="scale(0.015625)"/>
     <path id="DejaVuSans-37" d="M 525 4666 
L 3525 4666 
L 3525 4397 
L 1831 0 
L 1172 0 
L 2766 4134 
L 525 4134 
L 525 4666 
z
" transform="scale(0.015625)"/>
     <path id="DejaVuSans-34" d="M 2419 4116 
L 825 1625 
L 2419 1625 
L 2419 4116 
z
M 2253 4666 
L 3047 4666 
L 3047 1625 
L 3713 1625 
L 3713 1100 
L 3047 1100 
L 3047 0 
L 2419 0 
L 2419 1100 
L 313 1100 
L 313 1709 
L 2253 4666 
z
" transform="scale(0.015625)"/>
     <path id="DejaVuSans-29" d="M 513 4856 
L 1013 4856 
Q 1481 4119 1714 3412 
Q 1947 2706 1947 2009 
Q 1947 1309 1714 600 
Q 1481 -109 1013 -844 
L 513 -844 
Q 928 -128 1133 580 
Q 1338 1288 1338 2009 
Q 1338 2731 1133 3434 
Q 928 4138 513 4856 
z
" transform="scale(0.015625)"/>
    </defs>
    <use xlink:href="#DejaVuSans-bb"/>
    <use xlink:href="#DejaVuSans-20" transform="translate(61.181641 0)"/>
    <use xlink:href="#DejaVuSans-4e" transform="translate(92.96875 0)"/>
    <use xlink:href="#DejaVuSans-6f" transform="translate(167.773438 0)"/>
    <use xlink:href="#DejaVuSans-2e" transform="translate(227.205078 0)"/>
    <use xlink:href="#DejaVuSans-20" transform="translate(258.992188 0)"/>
    <use xlink:href="#DejaVuSans-49" transform="translate(290.779297 0)"/>
    <use xlink:href="#DejaVuSans-49" transform="translate(320.271484 0)"/>
    <use xlink:href="#DejaVuSans-3a" transform="translate(349.763672 0)"/>
    <use xlink:href="#DejaVuSans-20" transform="translate(383.455078 0)"/>
    <use xlink:href="#DejaVuSans-42" transform="translate(415.242188 0)"/>
    <use xlink:href="#DejaVuSans-6c" transform="translate(483.845703 0)"/>
    <use xlink:href="#DejaVuSans-61" transform="translate(511.628906 0)"/>
    <use xlink:href="#DejaVuSans-6e" transform="translate(572.908203 0)"/>
    <use xlink:href="#DejaVuSans-63" transform="translate(636.287109 0)"/>
    <use xlink:href="#DejaVuSans-20" transform="translate(691.267578 0)"/>
    <use xlink:href="#DejaVuSans-65" transform="translate(723.054688 0)"/>
    <use xlink:href="#DejaVuSans-74" transform="translate(784.578125 0)"/>
    <use xlink:href="#DejaVuSans-20" transform="translate(823.787109 0)"/>
    <use xlink:href="#DejaVuSans-72" transform="translate(855.574219 0)"/>
    <use xlink:href="#DejaVuSans-6f" transform="translate(894.4375 0)"/>
    <use xlink:href="#DejaVuSans-75" transform="translate(955.619141 0)"/>
    <use xlink:href="#DejaVuSans-67" transform="translate(1018.998047 0)"/>
    <use xlink:href="#DejaVuSans-65" transform="translate(1082.474609 0)"/>
    <use xlink:href="#DejaVuSans-20" transform="translate(1143.998047 0)"/>
    <use xlink:href="#DejaVuSans-ab" transform="translate(1175.785156 0)"/>
    <use xlink:href="#DejaVuSans-20" transform="translate(1236.966797 0)"/>
    <use xlink:href="#DejaVuSans-28" transform="translate(1268.753906 0)"/>
    <use xlink:href="#DejaVuSans-62" transform="translate(1307.767578 0)"/>
    <use xlink:href="#DejaVuSans-32" transform="translate(1371.244141 0)"/>
    <use xlink:href="#DejaVuSans-37" transform="translate(1434.867188 0)"/>
    <use xlink:href="#DejaVuSans-34" transform="translate(1498.490234 0)"/>
    <use xlink:href="#DejaVuSans-29" transform="translate(1562.113281 0)"/>
   </g>
  </g>
 </g>
 <defs>
  <clipPath id="p43bb02ad03">
   <rect x="34.573433" y="25.92" width="152.253134" height="166.32"/>
  </clipPath>
 </defs>
</svg>
