<?xml version="1.0" encoding="utf-8" standalone="no"?>
<!DOCTYPE svg PUBLIC "-//W3C//DTD SVG 1.1//EN"
  "http://www.w3.org/Graphics/SVG/1.1/DTD/svg11.dtd">
<svg xmlns:xlink="http://www.w3.org/1999/xlink" width="216pt" height="216pt" viewBox="0 0 216 216" xmlns="http://www.w3.org/2000/svg" version="1.1">
 <metadata>
  <rdf:RDF xmlns:dc="http://purl.org/dc/elements/1.1/" xmlns:cc="http://creativecommons.org/ns#" xmlns:rdf="http://www.w3.org/1999/02/22-rdf-syntax-ns#">
   <cc:Work>
    <dc:type rdf:resource="http://purl.org/dc/dcmitype/StillImage"/>
    <dc:date>2026-01-21T11:50:07.376199</dc:date>
    <dc:format>image/svg+xml</dc:format>
    <dc:creator>
     <cc:Agent>
      <dc:title>Matplotlib v3.10.8, https://matplotlib.org/</dc:title>
     </cc:Agent>
    </dc:creator>
   </cc:Work>
  </rdf:RDF>
 </metadata>
 <defs>
  <style type="text/css">*{stroke-linejoin: round; stroke-linecap: butt}</style>
 </defs>
 <g id="figure_1">
  <g id="patch_1">
   <path d="M 0 216 
L 216 216 
L 216 0 
L 0 0 
z
" style="fill: #ffffff; stroke: #000000; stroke-width: 10; stroke-linejoin: miter"/>
  </g>
  <g id="axes_1">
   <g id="patch_2">
    <path d="M 30.649861 192.24 
L 58.984155 192.24 
L 58.984155 160.450305 
L 30.649861 160.450305 
z
" clip-path="url(#p8bc8f71c9c)" style="fill: #3264a7"/>
   </g>
   <g id="patch_3">
    <path d="M 61.518116 192.24 
L 64.743158 192.24 
L 64.743158 160.450305 
L 61.518116 160.450305 
z
" clip-path="url(#p8bc8f71c9c)" style="fill: #3565a8"/>
   </g>
   <g id="patch_4">
    <path d="M 68.19856 192.24 
L 82.711247 192.24 
L 82.711247 160.450305 
L 68.19856 160.450305 
z
" clip-path="url(#p8bc8f71c9c)" style="fill: #f5f6f3"/>
   </g>
   <g id="patch_5">
    <path d="M 86.166648 192.24 
L 93.998892 192.24 
L 93.998892 160.450305 
L 86.166648 160.450305 
z
" clip-path="url(#p8bc8f71c9c)" style="fill: #f4f6f3"/>
   </g>
   <g id="patch_6">
    <path d="M 97.454294 192.24 
L 134.311911 192.24 
L 134.311911 160.450305 
L 97.454294 160.450305 
z
" clip-path="url(#p8bc8f71c9c)" style="fill: #f2f2f1"/>
   </g>
   <g id="patch_7">
    <path d="M 138.228033 192.24 
L 148.824598 192.24 
L 148.824598 160.450305 
L 138.228033 160.450305 
z
" clip-path="url(#p8bc8f71c9c)" style="fill: #f1f2f0"/>
   </g>
   <g id="patch_8">
    <path d="M 152.51036 192.24 
L 165.410526 192.24 
L 165.410526 160.450305 
L 152.51036 160.450305 
z
" clip-path="url(#p8bc8f71c9c)" style="fill: #f2f3f1"/>
   </g>
   <g id="patch_9">
    <path d="M 169.096288 192.24 
L 190.750139 192.24 
L 190.750139 160.450305 
L 169.096288 160.450305 
z
" clip-path="url(#p8bc8f71c9c)" style="fill: #f2f3f2"/>
   </g>
   <g id="patch_10">
    <path d="M 30.649861 155.382382 
L 58.984155 155.382382 
L 58.984155 131.655291 
L 30.649861 131.655291 
z
" clip-path="url(#p8bc8f71c9c)" style="fill: #3365a9"/>
   </g>
   <g id="patch_11">
    <path d="M 61.518116 155.382382 
L 64.743158 155.382382 
L 64.743158 131.655291 
L 61.518116 131.655291 
z
" clip-path="url(#p8bc8f71c9c)" style="fill: #3568aa"/>
   </g>
   <g id="patch_12">
    <path d="M 68.19856 155.382382 
L 82.711247 155.382382 
L 82.711247 131.655291 
L 68.19856 131.655291 
z
" clip-path="url(#p8bc8f71c9c)" style="fill: #f5f6f4"/>
   </g>
   <g id="patch_13">
    <path d="M 86.166648 155.382382 
L 93.998892 155.382382 
L 93.998892 131.655291 
L 86.166648 131.655291 
z
" clip-path="url(#p8bc8f71c9c)" style="fill: #f5f6f4"/>
   </g>
   <g id="patch_14">
    <path d="M 97.454294 155.382382 
L 134.311911 155.382382 
L 134.311911 131.655291 
L 97.454294 131.655291 
z
" clip-path="url(#p8bc8f71c9c)" style="fill: #f5f6f4"/>
   </g>
   <g id="patch_15">
    <path d="M 138.228033 155.382382 
L 148.824598 155.382382 
L 148.824598 131.655291 
L 138.228033 131.655291 
z
" clip-path="url(#p8bc8f71c9c)" style="fill: #f5f6f5"/>
   </g>
   <g id="patch_16">
    <path d="M 152.51036 155.382382 
L 165.410526 155.382382 
L 165.410526 131.655291 
L 152.51036 131.655291 
z
" clip-path="url(#p8bc8f71c9c)" style="fill: #f4f5f4"/>
   </g>
   <g id="patch_17">
    <path d="M 169.096288 155.382382 
L 190.750139 155.382382 
L 190.750139 131.655291 
L 169.096288 131.655291 
z
" clip-path="url(#p8bc8f71c9c)" style="fill: #f5f6f4"/>
   </g>
   <g id="patch_18">
    <path d="M 30.649861 126.587368 
L 58.984155 126.587368 
L 58.984155 103.781717 
L 30.649861 103.781717 
z
" clip-path="url(#p8bc8f71c9c)" style="fill: #f6f7f5"/>
   </g>
   <g id="patch_19">
    <path d="M 61.518116 126.587368 
L 64.743158 126.587368 
L 64.743158 103.781717 
L 61.518116 103.781717 
z
" clip-path="url(#p8bc8f71c9c)" style="fill: #f5f8f5"/>
   </g>
   <g id="patch_20">
    <path d="M 68.19856 126.587368 
L 82.711247 126.587368 
L 82.711247 103.781717 
L 68.19856 103.781717 
z
" clip-path="url(#p8bc8f71c9c)" style="fill: #f6f7f6"/>
   </g>
   <g id="patch_21">
    <path d="M 86.166648 126.587368 
L 93.998892 126.587368 
L 93.998892 103.781717 
L 86.166648 103.781717 
z
" clip-path="url(#p8bc8f71c9c)" style="fill: #f7f8f6"/>
   </g>
   <g id="patch_22">
    <path d="M 97.454294 126.587368 
L 134.311911 126.587368 
L 134.311911 103.781717 
L 97.454294 103.781717 
z
" clip-path="url(#p8bc8f71c9c)" style="fill: #f6f8f6"/>
   </g>
   <g id="patch_23">
    <path d="M 138.228033 126.587368 
L 148.824598 126.587368 
L 148.824598 103.781717 
L 138.228033 103.781717 
z
" clip-path="url(#p8bc8f71c9c)" style="fill: #f6f7f5"/>
   </g>
   <g id="patch_24">
    <path d="M 152.51036 126.587368 
L 165.410526 126.587368 
L 165.410526 103.781717 
L 152.51036 103.781717 
z
" clip-path="url(#p8bc8f71c9c)" style="fill: #f7f8f6"/>
   </g>
   <g id="patch_25">
    <path d="M 169.096288 126.587368 
L 190.750139 126.587368 
L 190.750139 103.781717 
L 169.096288 103.781717 
z
" clip-path="url(#p8bc8f71c9c)" style="fill: #f7f8f6"/>
   </g>
   <g id="patch_26">
    <path d="M 30.649861 98.713795 
L 58.984155 98.713795 
L 58.984155 70.379501 
L 30.649861 70.379501 
z
" clip-path="url(#p8bc8f71c9c)" style="fill: #f7f8f6"/>
   </g>
   <g id="patch_27">
    <path d="M 61.518116 98.713795 
L 64.743158 98.713795 
L 64.743158 70.379501 
L 61.518116 70.379501 
z
" clip-path="url(#p8bc8f71c9c)" style="fill: #f6f7f5"/>
   </g>
   <g id="patch_28">
    <path d="M 68.19856 98.713795 
L 82.711247 98.713795 
L 82.711247 70.379501 
L 68.19856 70.379501 
z
" clip-path="url(#p8bc8f71c9c)" style="fill: #f8f9f7"/>
   </g>
   <g id="patch_29">
    <path d="M 86.166648 98.713795 
L 93.998892 98.713795 
L 93.998892 70.379501 
L 86.166648 70.379501 
z
" clip-path="url(#p8bc8f71c9c)" style="fill: #f8f9f7"/>
   </g>
   <g id="patch_30">
    <path d="M 97.454294 98.713795 
L 134.311911 98.713795 
L 134.311911 70.379501 
L 97.454294 70.379501 
z
" clip-path="url(#p8bc8f71c9c)" style="fill: #f7f8f7"/>
   </g>
   <g id="patch_31">
    <path d="M 138.228033 98.713795 
L 148.824598 98.713795 
L 148.824598 70.379501 
L 138.228033 70.379501 
z
" clip-path="url(#p8bc8f71c9c)" style="fill: #f6f7f5"/>
   </g>
   <g id="patch_32">
    <path d="M 152.51036 98.713795 
L 165.410526 98.713795 
L 165.410526 70.379501 
L 152.51036 70.379501 
z
" clip-path="url(#p8bc8f71c9c)" style="fill: #f7f8f6"/>
   </g>
   <g id="patch_33">
    <path d="M 169.096288 98.713795 
L 186.142936 98.713795 
L 186.142936 70.379501 
L 169.096288 70.379501 
z
" clip-path="url(#p8bc8f71c9c)" style="fill: #f7f8f6"/>
   </g>
   <g id="patch_34">
    <path d="M 189.598338 98.713795 
L 190.750139 98.713795 
L 190.750139 70.379501 
L 189.598338 70.379501 
z
" clip-path="url(#p8bc8f71c9c)" style="fill: #eb1917"/>
   </g>
   <g id="patch_35">
    <path d="M 30.649861 66.233019 
L 58.984155 66.233019 
L 58.984155 25.92 
L 30.649861 25.92 
z
" clip-path="url(#p8bc8f71c9c)" style="fill: #f8f9f6"/>
   </g>
   <g id="patch_36">
    <path d="M 61.518116 66.233019 
L 64.743158 66.233019 
L 64.743158 25.92 
L 61.518116 25.92 
z
" clip-path="url(#p8bc8f71c9c)" style="fill: #f8f9f7"/>
   </g>
   <g id="patch_37">
    <path d="M 68.19856 66.233019 
L 82.711247 66.233019 
L 82.711247 25.92 
L 68.19856 25.92 
z
" clip-path="url(#p8bc8f71c9c)" style="fill: #f8f9f8"/>
   </g>
   <g id="patch_38">
    <path d="M 86.166648 66.233019 
L 93.998892 66.233019 
L 93.998892 25.92 
L 86.166648 25.92 
z
" clip-path="url(#p8bc8f71c9c)" style="fill: #f7f8f7"/>
   </g>
   <g id="patch_39">
    <path d="M 97.454294 66.233019 
L 134.311911 66.233019 
L 134.311911 25.92 
L 97.454294 25.92 
z
" clip-path="url(#p8bc8f71c9c)" style="fill: #f6f7f6"/>
   </g>
   <g id="patch_40">
    <path d="M 138.228033 66.233019 
L 148.824598 66.233019 
L 148.824598 42.045208 
L 138.228033 42.045208 
z
" clip-path="url(#p8bc8f71c9c)" style="fill: #f5f7f4"/>
   </g>
   <g id="patch_41">
    <path d="M 152.51036 66.233019 
L 165.410526 66.233019 
L 165.410526 42.045208 
L 152.51036 42.045208 
z
" clip-path="url(#p8bc8f71c9c)" style="fill: #fafc04"/>
   </g>
   <g id="patch_42">
    <path d="M 169.096288 66.233019 
L 190.750139 66.233019 
L 190.750139 25.92 
L 169.096288 25.92 
z
" clip-path="url(#p8bc8f71c9c)" style="fill: #f6f8f6"/>
   </g>
   <g id="patch_43">
    <path d="M 138.228033 37.207645 
L 148.824598 37.207645 
L 148.824598 25.92 
L 138.228033 25.92 
z
" clip-path="url(#p8bc8f71c9c)" style="fill: #f5f6f5"/>
   </g>
   <g id="patch_44">
    <path d="M 152.51036 37.207645 
L 165.410526 37.207645 
L 165.410526 25.92 
L 152.51036 25.92 
z
" clip-path="url(#p8bc8f71c9c)" style="fill: #f4f5f4"/>
   </g>
   <g id="patch_45">
    <path d="M 58.984155 192.24 
L 61.518116 192.24 
L 61.518116 25.92 
L 58.984155 25.92 
z
" clip-path="url(#p8bc8f71c9c)"/>
   </g>
   <g id="patch_46">
    <path d="M 64.743158 192.24 
L 68.19856 192.24 
L 68.19856 25.92 
L 64.743158 25.92 
z
" clip-path="url(#p8bc8f71c9c)"/>
   </g>
   <g id="patch_47">
    <path d="M 82.711247 192.24 
L 86.166648 192.24 
L 86.166648 25.92 
L 82.711247 25.92 
z
" clip-path="url(#p8bc8f71c9c)"/>
   </g>
   <g id="patch_48">
    <path d="M 93.998892 192.24 
L 97.454294 192.24 
L 97.454294 25.92 
L 93.998892 25.92 
z
" clip-path="url(#p8bc8f71c9c)"/>
   </g>
   <g id="patch_49">
    <path d="M 134.311911 192.24 
L 138.228033 192.24 
L 138.228033 25.92 
L 134.311911 25.92 
z
" clip-path="url(#p8bc8f71c9c)"/>
   </g>
   <g id="patch_50">
    <path d="M 148.824598 192.24 
L 152.51036 192.24 
L 152.51036 25.92 
L 148.824598 25.92 
z
" clip-path="url(#p8bc8f71c9c)"/>
   </g>
   <g id="patch_51">
    <path d="M 165.410526 192.24 
L 169.096288 192.24 
L 169.096288 25.92 
L 165.410526 25.92 
z
" clip-path="url(#p8bc8f71c9c)"/>
   </g>
   <g id="patch_52">
    <path d="M 186.142936 98.713795 
L 189.598338 98.713795 
L 189.598338 70.379501 
L 186.142936 70.379501 
z
" clip-path="url(#p8bc8f71c9c)"/>
   </g>
   <g id="patch_53">
    <path d="M 30.649861 160.450305 
L 190.750139 160.450305 
L 190.750139 155.382382 
L 30.649861 155.382382 
z
" clip-path="url(#p8bc8f71c9c)"/>
   </g>
   <g id="patch_54">
    <path d="M 30.649861 131.655291 
L 190.750139 131.655291 
L 190.750139 126.587368 
L 30.649861 126.587368 
z
" clip-path="url(#p8bc8f71c9c)"/>
   </g>
   <g id="patch_55">
    <path d="M 30.649861 103.781717 
L 190.750139 103.781717 
L 190.750139 98.713795 
L 30.649861 98.713795 
z
" clip-path="url(#p8bc8f71c9c)"/>
   </g>
   <g id="patch_56">
    <path d="M 30.649861 70.379501 
L 190.750139 70.379501 
L 190.750139 66.233019 
L 30.649861 66.233019 
z
" clip-path="url(#p8bc8f71c9c)"/>
   </g>
   <g id="patch_57">
    <path d="M 138.228033 42.045208 
L 165.410526 42.045208 
L 165.410526 37.207645 
L 138.228033 37.207645 
z
" clip-path="url(#p8bc8f71c9c)"/>
   </g>
  </g>
  <g id="text_1">
   <!-- » Rythme de lignes droites « (b276) -->
   <g transform="translate(10.8 205.2) scale(0.12 -0.12)">
    <defs>
     <path id="DejaVuSans-bb" d="M 603 3309 
L 2069 2003 
L 2069 1747 
L 603 441 
L 603 1038 
L 1544 1875 
L 603 2713 
L 603 3309 
z
M 1959 3309 
L 3425 2003 
L 3425 1747 
L 1959 441 
L 1959 1038 
L 2900 1875 
L 1959 2713 
L 1959 3309 
z
" transform="scale(0.015625)"/>
     <path id="DejaVuSans-20" transform="scale(0.015625)"/>
     <path id="DejaVuSans-52" d="M 2841 2188 
Q 3044 2119 3236 1894 
Q 3428 1669 3622 1275 
L 4263 0 
L 3584 0 
L 2988 1197 
Q 2756 1666 2539 1819 
Q 2322 1972 1947 1972 
L 1259 1972 
L 1259 0 
L 628 0 
L 628 4666 
L 2053 4666 
Q 2853 4666 3247 4331 
Q 3641 3997 3641 3322 
Q 3641 2881 3436 2590 
Q 3231 2300 2841 2188 
z
M 1259 4147 
L 1259 2491 
L 2053 2491 
Q 2509 2491 2742 2702 
Q 2975 2913 2975 3322 
Q 2975 3731 2742 3939 
Q 2509 4147 2053 4147 
L 1259 4147 
z
" transform="scale(0.015625)"/>
     <path id="DejaVuSans-79" d="M 2059 -325 
Q 1816 -950 1584 -1140 
Q 1353 -1331 966 -1331 
L 506 -1331 
L 506 -850 
L 844 -850 
Q 1081 -850 1212 -737 
Q 1344 -625 1503 -206 
L 1606 56 
L 191 3500 
L 800 3500 
L 1894 763 
L 2988 3500 
L 3597 3500 
L 2059 -325 
z
" transform="scale(0.015625)"/>
     <path id="DejaVuSans-74" d="M 1172 4494 
L 1172 3500 
L 2356 3500 
L 2356 3053 
L 1172 3053 
L 1172 1153 
Q 1172 725 1289 603 
Q 1406 481 1766 481 
L 2356 481 
L 2356 0 
L 1766 0 
Q 1100 0 847 248 
Q 594 497 594 1153 
L 594 3053 
L 172 3053 
L 172 3500 
L 594 3500 
L 594 4494 
L 1172 4494 
z
" transform="scale(0.015625)"/>
     <path id="DejaVuSans-68" d="M 3513 2113 
L 3513 0 
L 2938 0 
L 2938 2094 
Q 2938 2591 2744 2837 
Q 2550 3084 2163 3084 
Q 1697 3084 1428 2787 
Q 1159 2491 1159 1978 
L 1159 0 
L 581 0 
L 581 4863 
L 1159 4863 
L 1159 2956 
Q 1366 3272 1645 3428 
Q 1925 3584 2291 3584 
Q 2894 3584 3203 3211 
Q 3513 2838 3513 2113 
z
" transform="scale(0.015625)"/>
     <path id="DejaVuSans-6d" d="M 3328 2828 
Q 3544 3216 3844 3400 
Q 4144 3584 4550 3584 
Q 5097 3584 5394 3201 
Q 5691 2819 5691 2113 
L 5691 0 
L 5113 0 
L 5113 2094 
Q 5113 2597 4934 2840 
Q 4756 3084 4391 3084 
Q 3944 3084 3684 2787 
Q 3425 2491 3425 1978 
L 3425 0 
L 2847 0 
L 2847 2094 
Q 2847 2600 2669 2842 
Q 2491 3084 2119 3084 
Q 1678 3084 1418 2786 
Q 1159 2488 1159 1978 
L 1159 0 
L 581 0 
L 581 3500 
L 1159 3500 
L 1159 2956 
Q 1356 3278 1631 3431 
Q 1906 3584 2284 3584 
Q 2666 3584 2933 3390 
Q 3200 3197 3328 2828 
z
" transform="scale(0.015625)"/>
     <path id="DejaVuSans-65" d="M 3597 1894 
L 3597 1613 
L 953 1613 
Q 991 1019 1311 708 
Q 1631 397 2203 397 
Q 2534 397 2845 478 
Q 3156 559 3463 722 
L 3463 178 
Q 3153 47 2828 -22 
Q 2503 -91 2169 -91 
Q 1331 -91 842 396 
Q 353 884 353 1716 
Q 353 2575 817 3079 
Q 1281 3584 2069 3584 
Q 2775 3584 3186 3129 
Q 3597 2675 3597 1894 
z
M 3022 2063 
Q 3016 2534 2758 2815 
Q 2500 3097 2075 3097 
Q 1594 3097 1305 2825 
Q 1016 2553 972 2059 
L 3022 2063 
z
" transform="scale(0.015625)"/>
     <path id="DejaVuSans-64" d="M 2906 2969 
L 2906 4863 
L 3481 4863 
L 3481 0 
L 2906 0 
L 2906 525 
Q 2725 213 2448 61 
Q 2172 -91 1784 -91 
Q 1150 -91 751 415 
Q 353 922 353 1747 
Q 353 2572 751 3078 
Q 1150 3584 1784 3584 
Q 2172 3584 2448 3432 
Q 2725 3281 2906 2969 
z
M 947 1747 
Q 947 1113 1208 752 
Q 1469 391 1925 391 
Q 2381 391 2643 752 
Q 2906 1113 2906 1747 
Q 2906 2381 2643 2742 
Q 2381 3103 1925 3103 
Q 1469 3103 1208 2742 
Q 947 2381 947 1747 
z
" transform="scale(0.015625)"/>
     <path id="DejaVuSans-6c" d="M 603 4863 
L 1178 4863 
L 1178 0 
L 603 0 
L 603 4863 
z
" transform="scale(0.015625)"/>
     <path id="DejaVuSans-69" d="M 603 3500 
L 1178 3500 
L 1178 0 
L 603 0 
L 603 3500 
z
M 603 4863 
L 1178 4863 
L 1178 4134 
L 603 4134 
L 603 4863 
z
" transform="scale(0.015625)"/>
     <path id="DejaVuSans-67" d="M 2906 1791 
Q 2906 2416 2648 2759 
Q 2391 3103 1925 3103 
Q 1463 3103 1205 2759 
Q 947 2416 947 1791 
Q 947 1169 1205 825 
Q 1463 481 1925 481 
Q 2391 481 2648 825 
Q 2906 1169 2906 1791 
z
M 3481 434 
Q 3481 -459 3084 -895 
Q 2688 -1331 1869 -1331 
Q 1566 -1331 1297 -1286 
Q 1028 -1241 775 -1147 
L 775 -588 
Q 1028 -725 1275 -790 
Q 1522 -856 1778 -856 
Q 2344 -856 2625 -561 
Q 2906 -266 2906 331 
L 2906 616 
Q 2728 306 2450 153 
Q 2172 0 1784 0 
Q 1141 0 747 490 
Q 353 981 353 1791 
Q 353 2603 747 3093 
Q 1141 3584 1784 3584 
Q 2172 3584 2450 3431 
Q 2728 3278 2906 2969 
L 2906 3500 
L 3481 3500 
L 3481 434 
z
" transform="scale(0.015625)"/>
     <path id="DejaVuSans-6e" d="M 3513 2113 
L 3513 0 
L 2938 0 
L 2938 2094 
Q 2938 2591 2744 2837 
Q 2550 3084 2163 3084 
Q 1697 3084 1428 2787 
Q 1159 2491 1159 1978 
L 1159 0 
L 581 0 
L 581 3500 
L 1159 3500 
L 1159 2956 
Q 1366 3272 1645 3428 
Q 1925 3584 2291 3584 
Q 2894 3584 3203 3211 
Q 3513 2838 3513 2113 
z
" transform="scale(0.015625)"/>
     <path id="DejaVuSans-73" d="M 2834 3397 
L 2834 2853 
Q 2591 2978 2328 3040 
Q 2066 3103 1784 3103 
Q 1356 3103 1142 2972 
Q 928 2841 928 2578 
Q 928 2378 1081 2264 
Q 1234 2150 1697 2047 
L 1894 2003 
Q 2506 1872 2764 1633 
Q 3022 1394 3022 966 
Q 3022 478 2636 193 
Q 2250 -91 1575 -91 
Q 1294 -91 989 -36 
Q 684 19 347 128 
L 347 722 
Q 666 556 975 473 
Q 1284 391 1588 391 
Q 1994 391 2212 530 
Q 2431 669 2431 922 
Q 2431 1156 2273 1281 
Q 2116 1406 1581 1522 
L 1381 1569 
Q 847 1681 609 1914 
Q 372 2147 372 2553 
Q 372 3047 722 3315 
Q 1072 3584 1716 3584 
Q 2034 3584 2315 3537 
Q 2597 3491 2834 3397 
z
" transform="scale(0.015625)"/>
     <path id="DejaVuSans-72" d="M 2631 2963 
Q 2534 3019 2420 3045 
Q 2306 3072 2169 3072 
Q 1681 3072 1420 2755 
Q 1159 2438 1159 1844 
L 1159 0 
L 581 0 
L 581 3500 
L 1159 3500 
L 1159 2956 
Q 1341 3275 1631 3429 
Q 1922 3584 2338 3584 
Q 2397 3584 2469 3576 
Q 2541 3569 2628 3553 
L 2631 2963 
z
" transform="scale(0.015625)"/>
     <path id="DejaVuSans-6f" d="M 1959 3097 
Q 1497 3097 1228 2736 
Q 959 2375 959 1747 
Q 959 1119 1226 758 
Q 1494 397 1959 397 
Q 2419 397 2687 759 
Q 2956 1122 2956 1747 
Q 2956 2369 2687 2733 
Q 2419 3097 1959 3097 
z
M 1959 3584 
Q 2709 3584 3137 3096 
Q 3566 2609 3566 1747 
Q 3566 888 3137 398 
Q 2709 -91 1959 -91 
Q 1206 -91 779 398 
Q 353 888 353 1747 
Q 353 2609 779 3096 
Q 1206 3584 1959 3584 
z
" transform="scale(0.015625)"/>
     <path id="DejaVuSans-ab" d="M 3316 3309 
L 3316 2713 
L 2375 1875 
L 3316 1038 
L 3316 441 
L 1850 1747 
L 1850 2003 
L 3316 3309 
z
M 1959 3309 
L 1959 2713 
L 1019 1875 
L 1959 1038 
L 1959 441 
L 494 1747 
L 494 2003 
L 1959 3309 
z
" transform="scale(0.015625)"/>
     <path id="DejaVuSans-28" d="M 1984 4856 
Q 1566 4138 1362 3434 
Q 1159 2731 1159 2009 
Q 1159 1288 1364 580 
Q 1569 -128 1984 -844 
L 1484 -844 
Q 1016 -109 783 600 
Q 550 1309 550 2009 
Q 550 2706 781 3412 
Q 1013 4119 1484 4856 
L 1984 4856 
z
" transform="scale(0.015625)"/>
     <path id="DejaVuSans-62" d="M 3116 1747 
Q 3116 2381 2855 2742 
Q 2594 3103 2138 3103 
Q 1681 3103 1420 2742 
Q 1159 2381 1159 1747 
Q 1159 1113 1420 752 
Q 1681 391 2138 391 
Q 2594 391 2855 752 
Q 3116 1113 3116 1747 
z
M 1159 2969 
Q 1341 3281 1617 3432 
Q 1894 3584 2278 3584 
Q 2916 3584 3314 3078 
Q 3713 2572 3713 1747 
Q 3713 922 3314 415 
Q 2916 -91 2278 -91 
Q 1894 -91 1617 61 
Q 1341 213 1159 525 
L 1159 0 
L 581 0 
L 581 4863 
L 1159 4863 
L 1159 2969 
z
" transform="scale(0.015625)"/>
     <path id="DejaVuSans-32" d="M 1228 531 
L 3431 531 
L 3431 0 
L 469 0 
L 469 531 
Q 828 903 1448 1529 
Q 2069 2156 2228 2338 
Q 2531 2678 2651 2914 
Q 2772 3150 2772 3378 
Q 2772 3750 2511 3984 
Q 2250 4219 1831 4219 
Q 1534 4219 1204 4116 
Q 875 4013 500 3803 
L 500 4441 
Q 881 4594 1212 4672 
Q 1544 4750 1819 4750 
Q 2544 4750 2975 4387 
Q 3406 4025 3406 3419 
Q 3406 3131 3298 2873 
Q 3191 2616 2906 2266 
Q 2828 2175 2409 1742 
Q 1991 1309 1228 531 
z
" transform="scale(0.015625)"/>
     <path id="DejaVuSans-37" d="M 525 4666 
L 3525 4666 
L 3525 4397 
L 1831 0 
L 1172 0 
L 2766 4134 
L 525 4134 
L 525 4666 
z
" transform="scale(0.015625)"/>
     <path id="DejaVuSans-36" d="M 2113 2584 
Q 1688 2584 1439 2293 
Q 1191 2003 1191 1497 
Q 1191 994 1439 701 
Q 1688 409 2113 409 
Q 2538 409 2786 701 
Q 3034 994 3034 1497 
Q 3034 2003 2786 2293 
Q 2538 2584 2113 2584 
z
M 3366 4563 
L 3366 3988 
Q 3128 4100 2886 4159 
Q 2644 4219 2406 4219 
Q 1781 4219 1451 3797 
Q 1122 3375 1075 2522 
Q 1259 2794 1537 2939 
Q 1816 3084 2150 3084 
Q 2853 3084 3261 2657 
Q 3669 2231 3669 1497 
Q 3669 778 3244 343 
Q 2819 -91 2113 -91 
Q 1303 -91 875 529 
Q 447 1150 447 2328 
Q 447 3434 972 4092 
Q 1497 4750 2381 4750 
Q 2619 4750 2861 4703 
Q 3103 4656 3366 4563 
z
" transform="scale(0.015625)"/>
     <path id="DejaVuSans-29" d="M 513 4856 
L 1013 4856 
Q 1481 4119 1714 3412 
Q 1947 2706 1947 2009 
Q 1947 1309 1714 600 
Q 1481 -109 1013 -844 
L 513 -844 
Q 928 -128 1133 580 
Q 1338 1288 1338 2009 
Q 1338 2731 1133 3434 
Q 928 4138 513 4856 
z
" transform="scale(0.015625)"/>
    </defs>
    <use xlink:href="#DejaVuSans-bb"/>
    <use xlink:href="#DejaVuSans-20" transform="translate(61.181641 0)"/>
    <use xlink:href="#DejaVuSans-52" transform="translate(92.96875 0)"/>
    <use xlink:href="#DejaVuSans-79" transform="translate(156.951172 0)"/>
    <use xlink:href="#DejaVuSans-74" transform="translate(216.130859 0)"/>
    <use xlink:href="#DejaVuSans-68" transform="translate(255.339844 0)"/>
    <use xlink:href="#DejaVuSans-6d" transform="translate(318.71875 0)"/>
    <use xlink:href="#DejaVuSans-65" transform="translate(416.130859 0)"/>
    <use xlink:href="#DejaVuSans-20" transform="translate(477.654297 0)"/>
    <use xlink:href="#DejaVuSans-64" transform="translate(509.441406 0)"/>
    <use xlink:href="#DejaVuSans-65" transform="translate(572.917969 0)"/>
    <use xlink:href="#DejaVuSans-20" transform="translate(634.441406 0)"/>
    <use xlink:href="#DejaVuSans-6c" transform="translate(666.228516 0)"/>
    <use xlink:href="#DejaVuSans-69" transform="translate(694.011719 0)"/>
    <use xlink:href="#DejaVuSans-67" transform="translate(721.794922 0)"/>
    <use xlink:href="#DejaVuSans-6e" transform="translate(785.271484 0)"/>
    <use xlink:href="#DejaVuSans-65" transform="translate(848.650391 0)"/>
    <use xlink:href="#DejaVuSans-73" transform="translate(910.173828 0)"/>
    <use xlink:href="#DejaVuSans-20" transform="translate(962.273438 0)"/>
    <use xlink:href="#DejaVuSans-64" transform="translate(994.060547 0)"/>
    <use xlink:href="#DejaVuSans-72" transform="translate(1057.537109 0)"/>
    <use xlink:href="#DejaVuSans-6f" transform="translate(1096.400391 0)"/>
    <use xlink:href="#DejaVuSans-69" transform="translate(1157.582031 0)"/>
    <use xlink:href="#DejaVuSans-74" transform="translate(1185.365234 0)"/>
    <use xlink:href="#DejaVuSans-65" transform="translate(1224.574219 0)"/>
    <use xlink:href="#DejaVuSans-73" transform="translate(1286.097656 0)"/>
    <use xlink:href="#DejaVuSans-20" transform="translate(1338.197266 0)"/>
    <use xlink:href="#DejaVuSans-ab" transform="translate(1369.984375 0)"/>
    <use xlink:href="#DejaVuSans-20" transform="translate(1431.166016 0)"/>
    <use xlink:href="#DejaVuSans-28" transform="translate(1462.953125 0)"/>
    <use xlink:href="#DejaVuSans-62" transform="translate(1501.966797 0)"/>
    <use xlink:href="#DejaVuSans-32" transform="translate(1565.443359 0)"/>
    <use xlink:href="#DejaVuSans-37" transform="translate(1629.066406 0)"/>
    <use xlink:href="#DejaVuSans-36" transform="translate(1692.689453 0)"/>
    <use xlink:href="#DejaVuSans-29" transform="translate(1756.3125 0)"/>
   </g>
  </g>
 </g>
 <defs>
  <clipPath id="p8bc8f71c9c">
   <rect x="30.649861" y="25.92" width="160.100277" height="166.32"/>
  </clipPath>
 </defs>
</svg>
