<?xml version="1.0" encoding="utf-8" standalone="no"?>
<!DOCTYPE svg PUBLIC "-//W3C//DTD SVG 1.1//EN"
  "http://www.w3.org/Graphics/SVG/1.1/DTD/svg11.dtd">
<svg xmlns:xlink="http://www.w3.org/1999/xlink" width="216pt" height="216pt" viewBox="0 0 216 216" xmlns="http://www.w3.org/2000/svg" version="1.1">
 <metadata>
  <rdf:RDF xmlns:dc="http://purl.org/dc/elements/1.1/" xmlns:cc="http://creativecommons.org/ns#" xmlns:rdf="http://www.w3.org/1999/02/22-rdf-syntax-ns#">
   <cc:Work>
    <dc:type rdf:resource="http://purl.org/dc/dcmitype/StillImage"/>
    <dc:date>2026-01-21T11:50:07.438681</dc:date>
    <dc:format>image/svg+xml</dc:format>
    <dc:creator>
     <cc:Agent>
      <dc:title>Matplotlib v3.10.8, https://matplotlib.org/</dc:title>
     </cc:Agent>
    </dc:creator>
   </cc:Work>
  </rdf:RDF>
 </metadata>
 <defs>
  <style type="text/css">*{stroke-linejoin: round; stroke-linecap: butt}</style>
 </defs>
 <g id="figure_1">
  <g id="patch_1">
   <path d="M 0 216 
L 216 216 
L 216 0 
L 0 0 
z
" style="fill: #ffffff; stroke: #000000; stroke-width: 10; stroke-linejoin: miter"/>
  </g>
  <g id="axes_1">
   <g id="patch_2">
    <path d="M 31.554621 192.24 
L 43.713186 192.24 
L 43.713186 155.764303 
L 31.554621 155.764303 
z
" clip-path="url(#pc4e5eef486)" style="fill: #fdfe25"/>
   </g>
   <g id="patch_3">
    <path d="M 47.613103 192.24 
L 63.900993 192.24 
L 63.900993 155.764303 
L 47.613103 155.764303 
z
" clip-path="url(#pc4e5eef486)" style="fill: #ffffff"/>
   </g>
   <g id="patch_4">
    <path d="M 67.80091 192.24 
L 77.436 192.24 
L 77.436 155.764303 
L 67.80091 155.764303 
z
" clip-path="url(#pc4e5eef486)" style="fill: #fffffe"/>
   </g>
   <g id="patch_5">
    <path d="M 80.877103 192.24 
L 86.612276 192.24 
L 86.612276 155.764303 
L 80.877103 155.764303 
z
" clip-path="url(#pc4e5eef486)" style="fill: #feffff"/>
   </g>
   <g id="patch_6">
    <path d="M 90.053379 192.24 
L 121.252717 192.24 
L 121.252717 155.764303 
L 90.053379 155.764303 
z
" clip-path="url(#pc4e5eef486)" style="fill: #ffffff"/>
   </g>
   <g id="patch_7">
    <path d="M 125.152634 192.24 
L 152.910869 192.24 
L 152.910869 155.764303 
L 125.152634 155.764303 
z
" clip-path="url(#pc4e5eef486)" style="fill: #ffffff"/>
   </g>
   <g id="patch_8">
    <path d="M 156.810786 192.24 
L 163.234179 192.24 
L 163.234179 155.764303 
L 156.810786 155.764303 
z
" clip-path="url(#pc4e5eef486)" style="fill: #fffffe"/>
   </g>
   <g id="patch_9">
    <path d="M 166.675283 192.24 
L 181.816138 192.24 
L 181.816138 155.764303 
L 166.675283 155.764303 
z
" clip-path="url(#pc4e5eef486)" style="fill: #ffffff"/>
   </g>
   <g id="patch_10">
    <path d="M 185.257241 192.24 
L 189.845379 192.24 
L 189.845379 155.764303 
L 185.257241 155.764303 
z
" clip-path="url(#pc4e5eef486)" style="fill: #fffffe"/>
   </g>
   <g id="patch_11">
    <path d="M 31.554621 151.405572 
L 43.713186 151.405572 
L 43.713186 131.217766 
L 31.554621 131.217766 
z
" clip-path="url(#pc4e5eef486)" style="fill: #ffffff"/>
   </g>
   <g id="patch_12">
    <path d="M 47.613103 151.405572 
L 63.900993 151.405572 
L 63.900993 131.217766 
L 47.613103 131.217766 
z
" clip-path="url(#pc4e5eef486)" style="fill: #ffffff"/>
   </g>
   <g id="patch_13">
    <path d="M 67.80091 151.405572 
L 77.436 151.405572 
L 77.436 131.217766 
L 67.80091 131.217766 
z
" clip-path="url(#pc4e5eef486)" style="fill: #ffffff"/>
   </g>
   <g id="patch_14">
    <path d="M 80.877103 151.405572 
L 86.612276 151.405572 
L 86.612276 131.217766 
L 80.877103 131.217766 
z
" clip-path="url(#pc4e5eef486)" style="fill: #feffff"/>
   </g>
   <g id="patch_15">
    <path d="M 90.053379 151.405572 
L 121.252717 151.405572 
L 121.252717 131.217766 
L 90.053379 131.217766 
z
" clip-path="url(#pc4e5eef486)" style="fill: #ffffff"/>
   </g>
   <g id="patch_16">
    <path d="M 125.152634 151.405572 
L 152.910869 151.405572 
L 152.910869 131.217766 
L 125.152634 131.217766 
z
" clip-path="url(#pc4e5eef486)" style="fill: #ffffff"/>
   </g>
   <g id="patch_17">
    <path d="M 156.810786 151.405572 
L 163.234179 151.405572 
L 163.234179 131.217766 
L 156.810786 131.217766 
z
" clip-path="url(#pc4e5eef486)" style="fill: #ffffff"/>
   </g>
   <g id="patch_18">
    <path d="M 166.675283 151.405572 
L 181.816138 151.405572 
L 181.816138 131.217766 
L 166.675283 131.217766 
z
" clip-path="url(#pc4e5eef486)" style="fill: #ffffff"/>
   </g>
   <g id="patch_19">
    <path d="M 185.257241 151.405572 
L 189.845379 151.405572 
L 189.845379 131.217766 
L 185.257241 131.217766 
z
" clip-path="url(#pc4e5eef486)" style="fill: #fffffe"/>
   </g>
   <g id="patch_20">
    <path d="M 31.554621 126.859034 
L 43.713186 126.859034 
L 43.713186 111.488772 
L 31.554621 111.488772 
z
" clip-path="url(#pc4e5eef486)" style="fill: #fffffd"/>
   </g>
   <g id="patch_21">
    <path d="M 47.613103 126.859034 
L 63.900993 126.859034 
L 63.900993 111.488772 
L 47.613103 111.488772 
z
" clip-path="url(#pc4e5eef486)" style="fill: #ffffff"/>
   </g>
   <g id="patch_22">
    <path d="M 67.80091 126.859034 
L 77.436 126.859034 
L 77.436 111.488772 
L 67.80091 111.488772 
z
" clip-path="url(#pc4e5eef486)" style="fill: #ffffff"/>
   </g>
   <g id="patch_23">
    <path d="M 80.877103 126.859034 
L 86.612276 126.859034 
L 86.612276 111.488772 
L 80.877103 111.488772 
z
" clip-path="url(#pc4e5eef486)" style="fill: #fefffe"/>
   </g>
   <g id="patch_24">
    <path d="M 90.053379 126.859034 
L 121.252717 126.859034 
L 121.252717 111.488772 
L 90.053379 111.488772 
z
" clip-path="url(#pc4e5eef486)" style="fill: #ffffff"/>
   </g>
   <g id="patch_25">
    <path d="M 125.152634 126.859034 
L 152.910869 126.859034 
L 152.910869 111.488772 
L 125.152634 111.488772 
z
" clip-path="url(#pc4e5eef486)" style="fill: #ffffff"/>
   </g>
   <g id="patch_26">
    <path d="M 156.810786 126.859034 
L 163.234179 126.859034 
L 163.234179 111.488772 
L 156.810786 111.488772 
z
" clip-path="url(#pc4e5eef486)" style="fill: #fffffe"/>
   </g>
   <g id="patch_27">
    <path d="M 166.675283 126.859034 
L 181.816138 126.859034 
L 181.816138 111.488772 
L 166.675283 111.488772 
z
" clip-path="url(#pc4e5eef486)" style="fill: #ffffff"/>
   </g>
   <g id="patch_28">
    <path d="M 185.257241 126.859034 
L 189.845379 126.859034 
L 189.845379 111.488772 
L 185.257241 111.488772 
z
" clip-path="url(#pc4e5eef486)" style="fill: #fffffe"/>
   </g>
   <g id="patch_29">
    <path d="M 31.554621 107.130041 
L 43.713186 107.130041 
L 43.713186 84.418759 
L 31.554621 84.418759 
z
" clip-path="url(#pc4e5eef486)" style="fill: #fdfffd"/>
   </g>
   <g id="patch_30">
    <path d="M 47.613103 107.130041 
L 63.900993 107.130041 
L 63.900993 84.418759 
L 47.613103 84.418759 
z
" clip-path="url(#pc4e5eef486)" style="fill: #ffffff"/>
   </g>
   <g id="patch_31">
    <path d="M 67.80091 107.130041 
L 77.436 107.130041 
L 77.436 84.418759 
L 67.80091 84.418759 
z
" clip-path="url(#pc4e5eef486)" style="fill: #ffffff"/>
   </g>
   <g id="patch_32">
    <path d="M 80.877103 107.130041 
L 86.612276 107.130041 
L 86.612276 84.418759 
L 80.877103 84.418759 
z
" clip-path="url(#pc4e5eef486)" style="fill: #feffff"/>
   </g>
   <g id="patch_33">
    <path d="M 90.053379 107.130041 
L 121.252717 107.130041 
L 121.252717 84.418759 
L 90.053379 84.418759 
z
" clip-path="url(#pc4e5eef486)" style="fill: #ffffff"/>
   </g>
   <g id="patch_34">
    <path d="M 125.152634 107.130041 
L 152.910869 107.130041 
L 152.910869 84.418759 
L 125.152634 84.418759 
z
" clip-path="url(#pc4e5eef486)" style="fill: #ffffff"/>
   </g>
   <g id="patch_35">
    <path d="M 156.810786 107.130041 
L 163.234179 107.130041 
L 163.234179 84.418759 
L 156.810786 84.418759 
z
" clip-path="url(#pc4e5eef486)" style="fill: #ffffff"/>
   </g>
   <g id="patch_36">
    <path d="M 166.675283 107.130041 
L 181.816138 107.130041 
L 181.816138 84.418759 
L 166.675283 84.418759 
z
" clip-path="url(#pc4e5eef486)" style="fill: #ffffff"/>
   </g>
   <g id="patch_37">
    <path d="M 185.257241 107.130041 
L 189.845379 107.130041 
L 189.845379 84.418759 
L 185.257241 84.418759 
z
" clip-path="url(#pc4e5eef486)" style="fill: #fffffe"/>
   </g>
   <g id="patch_38">
    <path d="M 31.554621 79.601214 
L 43.713186 79.601214 
L 43.713186 25.92 
L 31.554621 25.92 
z
" clip-path="url(#pc4e5eef486)" style="fill: #ffffff"/>
   </g>
   <g id="patch_39">
    <path d="M 47.613103 79.601214 
L 63.900993 79.601214 
L 63.900993 48.631283 
L 47.613103 48.631283 
z
" clip-path="url(#pc4e5eef486)" style="fill: #ffffff"/>
   </g>
   <g id="patch_40">
    <path d="M 67.80091 79.601214 
L 77.436 79.601214 
L 77.436 48.631283 
L 67.80091 48.631283 
z
" clip-path="url(#pc4e5eef486)" style="fill: #ffffff"/>
   </g>
   <g id="patch_41">
    <path d="M 80.877103 79.601214 
L 86.612276 79.601214 
L 86.612276 48.631283 
L 80.877103 48.631283 
z
" clip-path="url(#pc4e5eef486)" style="fill: #fffffe"/>
   </g>
   <g id="patch_42">
    <path d="M 90.053379 79.601214 
L 121.252717 79.601214 
L 121.252717 25.92 
L 90.053379 25.92 
z
" clip-path="url(#pc4e5eef486)" style="fill: #ffffff"/>
   </g>
   <g id="patch_43">
    <path d="M 125.152634 79.601214 
L 152.910869 79.601214 
L 152.910869 52.5312 
L 125.152634 52.5312 
z
" clip-path="url(#pc4e5eef486)" style="fill: #f12e0f"/>
   </g>
   <g id="patch_44">
    <path d="M 156.810786 79.601214 
L 163.234179 79.601214 
L 163.234179 52.5312 
L 156.810786 52.5312 
z
" clip-path="url(#pc4e5eef486)" style="fill: #fdfffd"/>
   </g>
   <g id="patch_45">
    <path d="M 166.675283 79.601214 
L 181.816138 79.601214 
L 181.816138 25.92 
L 166.675283 25.92 
z
" clip-path="url(#pc4e5eef486)" style="fill: #ffffff"/>
   </g>
   <g id="patch_46">
    <path d="M 185.257241 79.601214 
L 189.845379 79.601214 
L 189.845379 48.631283 
L 185.257241 48.631283 
z
" clip-path="url(#pc4e5eef486)" style="fill: #fefffd"/>
   </g>
   <g id="patch_47">
    <path d="M 125.152634 48.172469 
L 152.910869 48.172469 
L 152.910869 33.031614 
L 125.152634 33.031614 
z
" clip-path="url(#pc4e5eef486)" style="fill: #ffffff"/>
   </g>
   <g id="patch_48">
    <path d="M 156.810786 48.172469 
L 163.234179 48.172469 
L 163.234179 33.031614 
L 156.810786 33.031614 
z
" clip-path="url(#pc4e5eef486)" style="fill: #ffffff"/>
   </g>
   <g id="patch_49">
    <path d="M 47.613103 48.631283 
L 63.900993 48.631283 
L 63.900993 41.978483 
L 47.613103 41.978483 
z
" clip-path="url(#pc4e5eef486)" style="fill: #4f61cc"/>
   </g>
   <g id="patch_50">
    <path d="M 67.80091 48.631283 
L 77.436 48.631283 
L 77.436 41.978483 
L 67.80091 41.978483 
z
" clip-path="url(#pc4e5eef486)" style="fill: #5062ce"/>
   </g>
   <g id="patch_51">
    <path d="M 80.877103 48.631283 
L 86.612276 48.631283 
L 86.612276 41.978483 
L 80.877103 41.978483 
z
" clip-path="url(#pc4e5eef486)" style="fill: #4e61cf"/>
   </g>
   <g id="patch_52">
    <path d="M 185.257241 48.631283 
L 189.845379 48.631283 
L 189.845379 41.519669 
L 185.257241 41.519669 
z
" clip-path="url(#pc4e5eef486)" style="fill: #ef2b0d"/>
   </g>
   <g id="patch_53">
    <path d="M 47.613103 41.749076 
L 63.900993 41.749076 
L 63.900993 25.92 
L 47.613103 25.92 
z
" clip-path="url(#pc4e5eef486)" style="fill: #ffffff"/>
   </g>
   <g id="patch_54">
    <path d="M 67.80091 41.749076 
L 77.436 41.749076 
L 77.436 25.92 
L 67.80091 25.92 
z
" clip-path="url(#pc4e5eef486)" style="fill: #ffffff"/>
   </g>
   <g id="patch_55">
    <path d="M 80.877103 41.749076 
L 86.612276 41.749076 
L 86.612276 25.92 
L 80.877103 25.92 
z
" clip-path="url(#pc4e5eef486)" style="fill: #fefefe"/>
   </g>
   <g id="patch_56">
    <path d="M 185.257241 41.749076 
L 189.845379 41.749076 
L 189.845379 25.92 
L 185.257241 25.92 
z
" clip-path="url(#pc4e5eef486)" style="fill: #ffffff"/>
   </g>
   <g id="patch_57">
    <path d="M 125.152634 29.361103 
L 152.910869 29.361103 
L 152.910869 25.92 
L 125.152634 25.92 
z
" clip-path="url(#pc4e5eef486)" style="fill: #ffffff"/>
   </g>
   <g id="patch_58">
    <path d="M 156.810786 29.361103 
L 163.234179 29.361103 
L 163.234179 25.92 
L 156.810786 25.92 
z
" clip-path="url(#pc4e5eef486)" style="fill: #fffffd"/>
   </g>
   <g id="patch_59">
    <path d="M 31.554621 155.764303 
L 189.845379 155.764303 
L 189.845379 151.405572 
L 31.554621 151.405572 
z
" clip-path="url(#pc4e5eef486)"/>
   </g>
   <g id="patch_60">
    <path d="M 31.554621 131.217766 
L 189.845379 131.217766 
L 189.845379 126.859034 
L 31.554621 126.859034 
z
" clip-path="url(#pc4e5eef486)"/>
   </g>
   <g id="patch_61">
    <path d="M 31.554621 111.488772 
L 189.845379 111.488772 
L 189.845379 107.130041 
L 31.554621 107.130041 
z
" clip-path="url(#pc4e5eef486)"/>
   </g>
   <g id="patch_62">
    <path d="M 31.554621 84.418759 
L 189.845379 84.418759 
L 189.845379 79.601214 
L 31.554621 79.601214 
z
" clip-path="url(#pc4e5eef486)"/>
   </g>
   <g id="patch_63">
    <path d="M 125.152634 52.5312 
L 163.234179 52.5312 
L 163.234179 48.172469 
L 125.152634 48.172469 
z
" clip-path="url(#pc4e5eef486)"/>
   </g>
   <g id="patch_64">
    <path d="M 43.713186 192.24 
L 47.613103 192.24 
L 47.613103 25.92 
L 43.713186 25.92 
z
" clip-path="url(#pc4e5eef486)"/>
   </g>
   <g id="patch_65">
    <path d="M 63.900993 192.24 
L 67.80091 192.24 
L 67.80091 25.92 
L 63.900993 25.92 
z
" clip-path="url(#pc4e5eef486)"/>
   </g>
   <g id="patch_66">
    <path d="M 77.436 192.24 
L 80.877103 192.24 
L 80.877103 25.92 
L 77.436 25.92 
z
" clip-path="url(#pc4e5eef486)"/>
   </g>
   <g id="patch_67">
    <path d="M 86.612276 192.24 
L 90.053379 192.24 
L 90.053379 25.92 
L 86.612276 25.92 
z
" clip-path="url(#pc4e5eef486)"/>
   </g>
   <g id="patch_68">
    <path d="M 121.252717 192.24 
L 125.152634 192.24 
L 125.152634 25.92 
L 121.252717 25.92 
z
" clip-path="url(#pc4e5eef486)"/>
   </g>
   <g id="patch_69">
    <path d="M 152.910869 192.24 
L 156.810786 192.24 
L 156.810786 25.92 
L 152.910869 25.92 
z
" clip-path="url(#pc4e5eef486)"/>
   </g>
   <g id="patch_70">
    <path d="M 163.234179 192.24 
L 166.675283 192.24 
L 166.675283 25.92 
L 163.234179 25.92 
z
" clip-path="url(#pc4e5eef486)"/>
   </g>
   <g id="patch_71">
    <path d="M 181.816138 192.24 
L 185.257241 192.24 
L 185.257241 25.92 
L 181.816138 25.92 
z
" clip-path="url(#pc4e5eef486)"/>
   </g>
   <g id="patch_72">
    <path d="M 125.152634 33.031614 
L 163.234179 33.031614 
L 163.234179 29.361103 
L 125.152634 29.361103 
z
" clip-path="url(#pc4e5eef486)"/>
   </g>
  </g>
  <g id="text_1">
   <!-- » Composition with Yellow, Blue and Red « (b279) -->
   <g transform="translate(10.8 205.2) scale(0.12 -0.12)">
    <defs>
     <path id="DejaVuSans-bb" d="M 603 3309 
L 2069 2003 
L 2069 1747 
L 603 441 
L 603 1038 
L 1544 1875 
L 603 2713 
L 603 3309 
z
M 1959 3309 
L 3425 2003 
L 3425 1747 
L 1959 441 
L 1959 1038 
L 2900 1875 
L 1959 2713 
L 1959 3309 
z
" transform="scale(0.015625)"/>
     <path id="DejaVuSans-20" transform="scale(0.015625)"/>
     <path id="DejaVuSans-43" d="M 4122 4306 
L 4122 3641 
Q 3803 3938 3442 4084 
Q 3081 4231 2675 4231 
Q 1875 4231 1450 3742 
Q 1025 3253 1025 2328 
Q 1025 1406 1450 917 
Q 1875 428 2675 428 
Q 3081 428 3442 575 
Q 3803 722 4122 1019 
L 4122 359 
Q 3791 134 3420 21 
Q 3050 -91 2638 -91 
Q 1578 -91 968 557 
Q 359 1206 359 2328 
Q 359 3453 968 4101 
Q 1578 4750 2638 4750 
Q 3056 4750 3426 4639 
Q 3797 4528 4122 4306 
z
" transform="scale(0.015625)"/>
     <path id="DejaVuSans-6f" d="M 1959 3097 
Q 1497 3097 1228 2736 
Q 959 2375 959 1747 
Q 959 1119 1226 758 
Q 1494 397 1959 397 
Q 2419 397 2687 759 
Q 2956 1122 2956 1747 
Q 2956 2369 2687 2733 
Q 2419 3097 1959 3097 
z
M 1959 3584 
Q 2709 3584 3137 3096 
Q 3566 2609 3566 1747 
Q 3566 888 3137 398 
Q 2709 -91 1959 -91 
Q 1206 -91 779 398 
Q 353 888 353 1747 
Q 353 2609 779 3096 
Q 1206 3584 1959 3584 
z
" transform="scale(0.015625)"/>
     <path id="DejaVuSans-6d" d="M 3328 2828 
Q 3544 3216 3844 3400 
Q 4144 3584 4550 3584 
Q 5097 3584 5394 3201 
Q 5691 2819 5691 2113 
L 5691 0 
L 5113 0 
L 5113 2094 
Q 5113 2597 4934 2840 
Q 4756 3084 4391 3084 
Q 3944 3084 3684 2787 
Q 3425 2491 3425 1978 
L 3425 0 
L 2847 0 
L 2847 2094 
Q 2847 2600 2669 2842 
Q 2491 3084 2119 3084 
Q 1678 3084 1418 2786 
Q 1159 2488 1159 1978 
L 1159 0 
L 581 0 
L 581 3500 
L 1159 3500 
L 1159 2956 
Q 1356 3278 1631 3431 
Q 1906 3584 2284 3584 
Q 2666 3584 2933 3390 
Q 3200 3197 3328 2828 
z
" transform="scale(0.015625)"/>
     <path id="DejaVuSans-70" d="M 1159 525 
L 1159 -1331 
L 581 -1331 
L 581 3500 
L 1159 3500 
L 1159 2969 
Q 1341 3281 1617 3432 
Q 1894 3584 2278 3584 
Q 2916 3584 3314 3078 
Q 3713 2572 3713 1747 
Q 3713 922 3314 415 
Q 2916 -91 2278 -91 
Q 1894 -91 1617 61 
Q 1341 213 1159 525 
z
M 3116 1747 
Q 3116 2381 2855 2742 
Q 2594 3103 2138 3103 
Q 1681 3103 1420 2742 
Q 1159 2381 1159 1747 
Q 1159 1113 1420 752 
Q 1681 391 2138 391 
Q 2594 391 2855 752 
Q 3116 1113 3116 1747 
z
" transform="scale(0.015625)"/>
     <path id="DejaVuSans-73" d="M 2834 3397 
L 2834 2853 
Q 2591 2978 2328 3040 
Q 2066 3103 1784 3103 
Q 1356 3103 1142 2972 
Q 928 2841 928 2578 
Q 928 2378 1081 2264 
Q 1234 2150 1697 2047 
L 1894 2003 
Q 2506 1872 2764 1633 
Q 3022 1394 3022 966 
Q 3022 478 2636 193 
Q 2250 -91 1575 -91 
Q 1294 -91 989 -36 
Q 684 19 347 128 
L 347 722 
Q 666 556 975 473 
Q 1284 391 1588 391 
Q 1994 391 2212 530 
Q 2431 669 2431 922 
Q 2431 1156 2273 1281 
Q 2116 1406 1581 1522 
L 1381 1569 
Q 847 1681 609 1914 
Q 372 2147 372 2553 
Q 372 3047 722 3315 
Q 1072 3584 1716 3584 
Q 2034 3584 2315 3537 
Q 2597 3491 2834 3397 
z
" transform="scale(0.015625)"/>
     <path id="DejaVuSans-69" d="M 603 3500 
L 1178 3500 
L 1178 0 
L 603 0 
L 603 3500 
z
M 603 4863 
L 1178 4863 
L 1178 4134 
L 603 4134 
L 603 4863 
z
" transform="scale(0.015625)"/>
     <path id="DejaVuSans-74" d="M 1172 4494 
L 1172 3500 
L 2356 3500 
L 2356 3053 
L 1172 3053 
L 1172 1153 
Q 1172 725 1289 603 
Q 1406 481 1766 481 
L 2356 481 
L 2356 0 
L 1766 0 
Q 1100 0 847 248 
Q 594 497 594 1153 
L 594 3053 
L 172 3053 
L 172 3500 
L 594 3500 
L 594 4494 
L 1172 4494 
z
" transform="scale(0.015625)"/>
     <path id="DejaVuSans-6e" d="M 3513 2113 
L 3513 0 
L 2938 0 
L 2938 2094 
Q 2938 2591 2744 2837 
Q 2550 3084 2163 3084 
Q 1697 3084 1428 2787 
Q 1159 2491 1159 1978 
L 1159 0 
L 581 0 
L 581 3500 
L 1159 3500 
L 1159 2956 
Q 1366 3272 1645 3428 
Q 1925 3584 2291 3584 
Q 2894 3584 3203 3211 
Q 3513 2838 3513 2113 
z
" transform="scale(0.015625)"/>
     <path id="DejaVuSans-77" d="M 269 3500 
L 844 3500 
L 1563 769 
L 2278 3500 
L 2956 3500 
L 3675 769 
L 4391 3500 
L 4966 3500 
L 4050 0 
L 3372 0 
L 2619 2869 
L 1863 0 
L 1184 0 
L 269 3500 
z
" transform="scale(0.015625)"/>
     <path id="DejaVuSans-68" d="M 3513 2113 
L 3513 0 
L 2938 0 
L 2938 2094 
Q 2938 2591 2744 2837 
Q 2550 3084 2163 3084 
Q 1697 3084 1428 2787 
Q 1159 2491 1159 1978 
L 1159 0 
L 581 0 
L 581 4863 
L 1159 4863 
L 1159 2956 
Q 1366 3272 1645 3428 
Q 1925 3584 2291 3584 
Q 2894 3584 3203 3211 
Q 3513 2838 3513 2113 
z
" transform="scale(0.015625)"/>
     <path id="DejaVuSans-59" d="M -13 4666 
L 666 4666 
L 1959 2747 
L 3244 4666 
L 3922 4666 
L 2272 2222 
L 2272 0 
L 1638 0 
L 1638 2222 
L -13 4666 
z
" transform="scale(0.015625)"/>
     <path id="DejaVuSans-65" d="M 3597 1894 
L 3597 1613 
L 953 1613 
Q 991 1019 1311 708 
Q 1631 397 2203 397 
Q 2534 397 2845 478 
Q 3156 559 3463 722 
L 3463 178 
Q 3153 47 2828 -22 
Q 2503 -91 2169 -91 
Q 1331 -91 842 396 
Q 353 884 353 1716 
Q 353 2575 817 3079 
Q 1281 3584 2069 3584 
Q 2775 3584 3186 3129 
Q 3597 2675 3597 1894 
z
M 3022 2063 
Q 3016 2534 2758 2815 
Q 2500 3097 2075 3097 
Q 1594 3097 1305 2825 
Q 1016 2553 972 2059 
L 3022 2063 
z
" transform="scale(0.015625)"/>
     <path id="DejaVuSans-6c" d="M 603 4863 
L 1178 4863 
L 1178 0 
L 603 0 
L 603 4863 
z
" transform="scale(0.015625)"/>
     <path id="DejaVuSans-2c" d="M 750 794 
L 1409 794 
L 1409 256 
L 897 -744 
L 494 -744 
L 750 256 
L 750 794 
z
" transform="scale(0.015625)"/>
     <path id="DejaVuSans-42" d="M 1259 2228 
L 1259 519 
L 2272 519 
Q 2781 519 3026 730 
Q 3272 941 3272 1375 
Q 3272 1813 3026 2020 
Q 2781 2228 2272 2228 
L 1259 2228 
z
M 1259 4147 
L 1259 2741 
L 2194 2741 
Q 2656 2741 2882 2914 
Q 3109 3088 3109 3444 
Q 3109 3797 2882 3972 
Q 2656 4147 2194 4147 
L 1259 4147 
z
M 628 4666 
L 2241 4666 
Q 2963 4666 3353 4366 
Q 3744 4066 3744 3513 
Q 3744 3084 3544 2831 
Q 3344 2578 2956 2516 
Q 3422 2416 3680 2098 
Q 3938 1781 3938 1306 
Q 3938 681 3513 340 
Q 3088 0 2303 0 
L 628 0 
L 628 4666 
z
" transform="scale(0.015625)"/>
     <path id="DejaVuSans-75" d="M 544 1381 
L 544 3500 
L 1119 3500 
L 1119 1403 
Q 1119 906 1312 657 
Q 1506 409 1894 409 
Q 2359 409 2629 706 
Q 2900 1003 2900 1516 
L 2900 3500 
L 3475 3500 
L 3475 0 
L 2900 0 
L 2900 538 
Q 2691 219 2414 64 
Q 2138 -91 1772 -91 
Q 1169 -91 856 284 
Q 544 659 544 1381 
z
M 1991 3584 
L 1991 3584 
z
" transform="scale(0.015625)"/>
     <path id="DejaVuSans-61" d="M 2194 1759 
Q 1497 1759 1228 1600 
Q 959 1441 959 1056 
Q 959 750 1161 570 
Q 1363 391 1709 391 
Q 2188 391 2477 730 
Q 2766 1069 2766 1631 
L 2766 1759 
L 2194 1759 
z
M 3341 1997 
L 3341 0 
L 2766 0 
L 2766 531 
Q 2569 213 2275 61 
Q 1981 -91 1556 -91 
Q 1019 -91 701 211 
Q 384 513 384 1019 
Q 384 1609 779 1909 
Q 1175 2209 1959 2209 
L 2766 2209 
L 2766 2266 
Q 2766 2663 2505 2880 
Q 2244 3097 1772 3097 
Q 1472 3097 1187 3025 
Q 903 2953 641 2809 
L 641 3341 
Q 956 3463 1253 3523 
Q 1550 3584 1831 3584 
Q 2591 3584 2966 3190 
Q 3341 2797 3341 1997 
z
" transform="scale(0.015625)"/>
     <path id="DejaVuSans-64" d="M 2906 2969 
L 2906 4863 
L 3481 4863 
L 3481 0 
L 2906 0 
L 2906 525 
Q 2725 213 2448 61 
Q 2172 -91 1784 -91 
Q 1150 -91 751 415 
Q 353 922 353 1747 
Q 353 2572 751 3078 
Q 1150 3584 1784 3584 
Q 2172 3584 2448 3432 
Q 2725 3281 2906 2969 
z
M 947 1747 
Q 947 1113 1208 752 
Q 1469 391 1925 391 
Q 2381 391 2643 752 
Q 2906 1113 2906 1747 
Q 2906 2381 2643 2742 
Q 2381 3103 1925 3103 
Q 1469 3103 1208 2742 
Q 947 2381 947 1747 
z
" transform="scale(0.015625)"/>
     <path id="DejaVuSans-52" d="M 2841 2188 
Q 3044 2119 3236 1894 
Q 3428 1669 3622 1275 
L 4263 0 
L 3584 0 
L 2988 1197 
Q 2756 1666 2539 1819 
Q 2322 1972 1947 1972 
L 1259 1972 
L 1259 0 
L 628 0 
L 628 4666 
L 2053 4666 
Q 2853 4666 3247 4331 
Q 3641 3997 3641 3322 
Q 3641 2881 3436 2590 
Q 3231 2300 2841 2188 
z
M 1259 4147 
L 1259 2491 
L 2053 2491 
Q 2509 2491 2742 2702 
Q 2975 2913 2975 3322 
Q 2975 3731 2742 3939 
Q 2509 4147 2053 4147 
L 1259 4147 
z
" transform="scale(0.015625)"/>
     <path id="DejaVuSans-ab" d="M 3316 3309 
L 3316 2713 
L 2375 1875 
L 3316 1038 
L 3316 441 
L 1850 1747 
L 1850 2003 
L 3316 3309 
z
M 1959 3309 
L 1959 2713 
L 1019 1875 
L 1959 1038 
L 1959 441 
L 494 1747 
L 494 2003 
L 1959 3309 
z
" transform="scale(0.015625)"/>
     <path id="DejaVuSans-28" d="M 1984 4856 
Q 1566 4138 1362 3434 
Q 1159 2731 1159 2009 
Q 1159 1288 1364 580 
Q 1569 -128 1984 -844 
L 1484 -844 
Q 1016 -109 783 600 
Q 550 1309 550 2009 
Q 550 2706 781 3412 
Q 1013 4119 1484 4856 
L 1984 4856 
z
" transform="scale(0.015625)"/>
     <path id="DejaVuSans-62" d="M 3116 1747 
Q 3116 2381 2855 2742 
Q 2594 3103 2138 3103 
Q 1681 3103 1420 2742 
Q 1159 2381 1159 1747 
Q 1159 1113 1420 752 
Q 1681 391 2138 391 
Q 2594 391 2855 752 
Q 3116 1113 3116 1747 
z
M 1159 2969 
Q 1341 3281 1617 3432 
Q 1894 3584 2278 3584 
Q 2916 3584 3314 3078 
Q 3713 2572 3713 1747 
Q 3713 922 3314 415 
Q 2916 -91 2278 -91 
Q 1894 -91 1617 61 
Q 1341 213 1159 525 
L 1159 0 
L 581 0 
L 581 4863 
L 1159 4863 
L 1159 2969 
z
" transform="scale(0.015625)"/>
     <path id="DejaVuSans-32" d="M 1228 531 
L 3431 531 
L 3431 0 
L 469 0 
L 469 531 
Q 828 903 1448 1529 
Q 2069 2156 2228 2338 
Q 2531 2678 2651 2914 
Q 2772 3150 2772 3378 
Q 2772 3750 2511 3984 
Q 2250 4219 1831 4219 
Q 1534 4219 1204 4116 
Q 875 4013 500 3803 
L 500 4441 
Q 881 4594 1212 4672 
Q 1544 4750 1819 4750 
Q 2544 4750 2975 4387 
Q 3406 4025 3406 3419 
Q 3406 3131 3298 2873 
Q 3191 2616 2906 2266 
Q 2828 2175 2409 1742 
Q 1991 1309 1228 531 
z
" transform="scale(0.015625)"/>
     <path id="DejaVuSans-37" d="M 525 4666 
L 3525 4666 
L 3525 4397 
L 1831 0 
L 1172 0 
L 2766 4134 
L 525 4134 
L 525 4666 
z
" transform="scale(0.015625)"/>
     <path id="DejaVuSans-39" d="M 703 97 
L 703 672 
Q 941 559 1184 500 
Q 1428 441 1663 441 
Q 2288 441 2617 861 
Q 2947 1281 2994 2138 
Q 2813 1869 2534 1725 
Q 2256 1581 1919 1581 
Q 1219 1581 811 2004 
Q 403 2428 403 3163 
Q 403 3881 828 4315 
Q 1253 4750 1959 4750 
Q 2769 4750 3195 4129 
Q 3622 3509 3622 2328 
Q 3622 1225 3098 567 
Q 2575 -91 1691 -91 
Q 1453 -91 1209 -44 
Q 966 3 703 97 
z
M 1959 2075 
Q 2384 2075 2632 2365 
Q 2881 2656 2881 3163 
Q 2881 3666 2632 3958 
Q 2384 4250 1959 4250 
Q 1534 4250 1286 3958 
Q 1038 3666 1038 3163 
Q 1038 2656 1286 2365 
Q 1534 2075 1959 2075 
z
" transform="scale(0.015625)"/>
     <path id="DejaVuSans-29" d="M 513 4856 
L 1013 4856 
Q 1481 4119 1714 3412 
Q 1947 2706 1947 2009 
Q 1947 1309 1714 600 
Q 1481 -109 1013 -844 
L 513 -844 
Q 928 -128 1133 580 
Q 1338 1288 1338 2009 
Q 1338 2731 1133 3434 
Q 928 4138 513 4856 
z
" transform="scale(0.015625)"/>
    </defs>
    <use xlink:href="#DejaVuSans-bb"/>
    <use xlink:href="#DejaVuSans-20" transform="translate(61.181641 0)"/>
    <use xlink:href="#DejaVuSans-43" transform="translate(92.96875 0)"/>
    <use xlink:href="#DejaVuSans-6f" transform="translate(162.792969 0)"/>
    <use xlink:href="#DejaVuSans-6d" transform="translate(223.974609 0)"/>
    <use xlink:href="#DejaVuSans-70" transform="translate(321.386719 0)"/>
    <use xlink:href="#DejaVuSans-6f" transform="translate(384.863281 0)"/>
    <use xlink:href="#DejaVuSans-73" transform="translate(446.044922 0)"/>
    <use xlink:href="#DejaVuSans-69" transform="translate(498.144531 0)"/>
    <use xlink:href="#DejaVuSans-74" transform="translate(525.927734 0)"/>
    <use xlink:href="#DejaVuSans-69" transform="translate(565.136719 0)"/>
    <use xlink:href="#DejaVuSans-6f" transform="translate(592.919922 0)"/>
    <use xlink:href="#DejaVuSans-6e" transform="translate(654.101562 0)"/>
    <use xlink:href="#DejaVuSans-20" transform="translate(717.480469 0)"/>
    <use xlink:href="#DejaVuSans-77" transform="translate(749.267578 0)"/>
    <use xlink:href="#DejaVuSans-69" transform="translate(831.054688 0)"/>
    <use xlink:href="#DejaVuSans-74" transform="translate(858.837891 0)"/>
    <use xlink:href="#DejaVuSans-68" transform="translate(898.046875 0)"/>
    <use xlink:href="#DejaVuSans-20" transform="translate(961.425781 0)"/>
    <use xlink:href="#DejaVuSans-59" transform="translate(993.212891 0)"/>
    <use xlink:href="#DejaVuSans-65" transform="translate(1041.046875 0)"/>
    <use xlink:href="#DejaVuSans-6c" transform="translate(1102.570312 0)"/>
    <use xlink:href="#DejaVuSans-6c" transform="translate(1130.353516 0)"/>
    <use xlink:href="#DejaVuSans-6f" transform="translate(1158.136719 0)"/>
    <use xlink:href="#DejaVuSans-77" transform="translate(1219.318359 0)"/>
    <use xlink:href="#DejaVuSans-2c" transform="translate(1301.105469 0)"/>
    <use xlink:href="#DejaVuSans-20" transform="translate(1332.892578 0)"/>
    <use xlink:href="#DejaVuSans-42" transform="translate(1364.679688 0)"/>
    <use xlink:href="#DejaVuSans-6c" transform="translate(1433.283203 0)"/>
    <use xlink:href="#DejaVuSans-75" transform="translate(1461.066406 0)"/>
    <use xlink:href="#DejaVuSans-65" transform="translate(1524.445312 0)"/>
    <use xlink:href="#DejaVuSans-20" transform="translate(1585.96875 0)"/>
    <use xlink:href="#DejaVuSans-61" transform="translate(1617.755859 0)"/>
    <use xlink:href="#DejaVuSans-6e" transform="translate(1679.035156 0)"/>
    <use xlink:href="#DejaVuSans-64" transform="translate(1742.414062 0)"/>
    <use xlink:href="#DejaVuSans-20" transform="translate(1805.890625 0)"/>
    <use xlink:href="#DejaVuSans-52" transform="translate(1837.677734 0)"/>
    <use xlink:href="#DejaVuSans-65" transform="translate(1902.660156 0)"/>
    <use xlink:href="#DejaVuSans-64" transform="translate(1964.183594 0)"/>
    <use xlink:href="#DejaVuSans-20" transform="translate(2027.660156 0)"/>
    <use xlink:href="#DejaVuSans-ab" transform="translate(2059.447266 0)"/>
    <use xlink:href="#DejaVuSans-20" transform="translate(2120.628906 0)"/>
    <use xlink:href="#DejaVuSans-28" transform="translate(2152.416016 0)"/>
    <use xlink:href="#DejaVuSans-62" transform="translate(2191.429688 0)"/>
    <use xlink:href="#DejaVuSans-32" transform="translate(2254.90625 0)"/>
    <use xlink:href="#DejaVuSans-37" transform="translate(2318.529297 0)"/>
    <use xlink:href="#DejaVuSans-39" transform="translate(2382.152344 0)"/>
    <use xlink:href="#DejaVuSans-29" transform="translate(2445.775391 0)"/>
   </g>
  </g>
 </g>
 <defs>
  <clipPath id="pc4e5eef486">
   <rect x="31.554621" y="25.92" width="158.290759" height="166.32"/>
  </clipPath>
 </defs>
</svg>
