<?xml version="1.0" encoding="utf-8" standalone="no"?>
<!DOCTYPE svg PUBLIC "-//W3C//DTD SVG 1.1//EN"
  "http://www.w3.org/Graphics/SVG/1.1/DTD/svg11.dtd">
<svg xmlns:xlink="http://www.w3.org/1999/xlink" width="216pt" height="216pt" viewBox="0 0 216 216" xmlns="http://www.w3.org/2000/svg" version="1.1">
 <metadata>
  <rdf:RDF xmlns:dc="http://purl.org/dc/elements/1.1/" xmlns:cc="http://creativecommons.org/ns#" xmlns:rdf="http://www.w3.org/1999/02/22-rdf-syntax-ns#">
   <cc:Work>
    <dc:type rdf:resource="http://purl.org/dc/dcmitype/StillImage"/>
    <dc:date>2026-01-21T11:50:07.494275</dc:date>
    <dc:format>image/svg+xml</dc:format>
    <dc:creator>
     <cc:Agent>
      <dc:title>Matplotlib v3.10.8, https://matplotlib.org/</dc:title>
     </cc:Agent>
    </dc:creator>
   </cc:Work>
  </rdf:RDF>
 </metadata>
 <defs>
  <style type="text/css">*{stroke-linejoin: round; stroke-linecap: butt}</style>
 </defs>
 <g id="figure_1">
  <g id="patch_1">
   <path d="M 0 216 
L 216 216 
L 216 0 
L 0 0 
z
" style="fill: #ffffff; stroke: #000000; stroke-width: 10; stroke-linejoin: miter"/>
  </g>
  <g id="axes_1">
   <g id="patch_2">
    <path d="M 29.551935 192.24 
L 64.425484 192.24 
L 64.425484 146.904387 
L 29.551935 146.904387 
z
" clip-path="url(#p93f9c3a225)" style="fill: #ffffff"/>
   </g>
   <g id="patch_3">
    <path d="M 67.644581 192.24 
L 78.911419 192.24 
L 78.911419 146.904387 
L 67.644581 146.904387 
z
" clip-path="url(#p93f9c3a225)" style="fill: #ffffff"/>
   </g>
   <g id="patch_4">
    <path d="M 82.130516 192.24 
L 92.860839 192.24 
L 92.860839 146.904387 
L 82.130516 146.904387 
z
" clip-path="url(#p93f9c3a225)" style="fill: #ffffff"/>
   </g>
   <g id="patch_5">
    <path d="M 96.079935 192.24 
L 114.321484 192.24 
L 114.321484 146.904387 
L 96.079935 146.904387 
z
" clip-path="url(#p93f9c3a225)" style="fill: #ffffff"/>
   </g>
   <g id="patch_6">
    <path d="M 117.540581 192.24 
L 124.247032 192.24 
L 124.247032 146.904387 
L 117.540581 146.904387 
z
" clip-path="url(#p93f9c3a225)" style="fill: #ffffff"/>
   </g>
   <g id="patch_7">
    <path d="M 127.466129 192.24 
L 144.902903 192.24 
L 144.902903 146.904387 
L 127.466129 146.904387 
z
" clip-path="url(#p93f9c3a225)" style="fill: #ffffff"/>
   </g>
   <g id="patch_8">
    <path d="M 148.122 192.24 
L 161.534903 192.24 
L 161.534903 146.904387 
L 148.122 146.904387 
z
" clip-path="url(#p93f9c3a225)" style="fill: #ffffff"/>
   </g>
   <g id="patch_9">
    <path d="M 164.754 192.24 
L 191.848065 192.24 
L 191.848065 146.904387 
L 164.754 146.904387 
z
" clip-path="url(#p93f9c3a225)" style="fill: #ffffff"/>
   </g>
   <g id="patch_10">
    <path d="M 29.551935 143.417032 
L 64.425484 143.417032 
L 64.425484 130.808903 
L 29.551935 130.808903 
z
" clip-path="url(#p93f9c3a225)" style="fill: #fffeff"/>
   </g>
   <g id="patch_11">
    <path d="M 67.644581 143.417032 
L 78.911419 143.417032 
L 78.911419 130.808903 
L 67.644581 130.808903 
z
" clip-path="url(#p93f9c3a225)" style="fill: #fefefd"/>
   </g>
   <g id="patch_12">
    <path d="M 82.130516 143.417032 
L 92.860839 143.417032 
L 92.860839 130.808903 
L 82.130516 130.808903 
z
" clip-path="url(#p93f9c3a225)" style="fill: #ffffff"/>
   </g>
   <g id="patch_13">
    <path d="M 96.079935 143.417032 
L 114.321484 143.417032 
L 114.321484 130.808903 
L 96.079935 130.808903 
z
" clip-path="url(#p93f9c3a225)" style="fill: #ffffff"/>
   </g>
   <g id="patch_14">
    <path d="M 117.540581 143.417032 
L 124.247032 143.417032 
L 124.247032 130.808903 
L 117.540581 130.808903 
z
" clip-path="url(#p93f9c3a225)" style="fill: #ffffff"/>
   </g>
   <g id="patch_15">
    <path d="M 127.466129 143.417032 
L 144.902903 143.417032 
L 144.902903 130.808903 
L 127.466129 130.808903 
z
" clip-path="url(#p93f9c3a225)" style="fill: #ffffff"/>
   </g>
   <g id="patch_16">
    <path d="M 148.122 143.417032 
L 161.534903 143.417032 
L 161.534903 130.808903 
L 148.122 130.808903 
z
" clip-path="url(#p93f9c3a225)" style="fill: #ffffff"/>
   </g>
   <g id="patch_17">
    <path d="M 164.754 143.417032 
L 191.848065 143.417032 
L 191.848065 130.808903 
L 164.754 130.808903 
z
" clip-path="url(#p93f9c3a225)" style="fill: #ffffff"/>
   </g>
   <g id="patch_18">
    <path d="M 29.551935 127.321548 
L 64.425484 127.321548 
L 64.425484 112.835613 
L 29.551935 112.835613 
z
" clip-path="url(#p93f9c3a225)" style="fill: #fefefe"/>
   </g>
   <g id="patch_19">
    <path d="M 67.644581 127.321548 
L 78.911419 127.321548 
L 78.911419 112.835613 
L 67.644581 112.835613 
z
" clip-path="url(#p93f9c3a225)" style="fill: #fefeff"/>
   </g>
   <g id="patch_20">
    <path d="M 82.130516 127.321548 
L 92.860839 127.321548 
L 92.860839 112.835613 
L 82.130516 112.835613 
z
" clip-path="url(#p93f9c3a225)" style="fill: #ffffff"/>
   </g>
   <g id="patch_21">
    <path d="M 96.079935 127.321548 
L 114.321484 127.321548 
L 114.321484 112.835613 
L 96.079935 112.835613 
z
" clip-path="url(#p93f9c3a225)" style="fill: #ffffff"/>
   </g>
   <g id="patch_22">
    <path d="M 117.540581 127.321548 
L 124.247032 127.321548 
L 124.247032 112.835613 
L 117.540581 112.835613 
z
" clip-path="url(#p93f9c3a225)" style="fill: #ffffff"/>
   </g>
   <g id="patch_23">
    <path d="M 127.466129 127.321548 
L 144.902903 127.321548 
L 144.902903 112.835613 
L 127.466129 112.835613 
z
" clip-path="url(#p93f9c3a225)" style="fill: #ffffff"/>
   </g>
   <g id="patch_24">
    <path d="M 148.122 127.321548 
L 161.534903 127.321548 
L 161.534903 112.835613 
L 148.122 112.835613 
z
" clip-path="url(#p93f9c3a225)" style="fill: #ffffff"/>
   </g>
   <g id="patch_25">
    <path d="M 164.754 127.321548 
L 191.848065 127.321548 
L 191.848065 112.835613 
L 164.754 112.835613 
z
" clip-path="url(#p93f9c3a225)" style="fill: #ffffff"/>
   </g>
   <g id="patch_26">
    <path d="M 29.551935 109.348258 
L 64.425484 109.348258 
L 64.425484 94.325806 
L 29.551935 94.325806 
z
" clip-path="url(#p93f9c3a225)" style="fill: #fefdfd"/>
   </g>
   <g id="patch_27">
    <path d="M 67.644581 109.348258 
L 78.911419 109.348258 
L 78.911419 94.325806 
L 67.644581 94.325806 
z
" clip-path="url(#p93f9c3a225)" style="fill: #ffffff"/>
   </g>
   <g id="patch_28">
    <path d="M 82.130516 109.348258 
L 92.860839 109.348258 
L 92.860839 94.325806 
L 82.130516 94.325806 
z
" clip-path="url(#p93f9c3a225)" style="fill: #fffffe"/>
   </g>
   <g id="patch_29">
    <path d="M 96.079935 109.348258 
L 114.321484 109.348258 
L 114.321484 94.325806 
L 96.079935 94.325806 
z
" clip-path="url(#p93f9c3a225)" style="fill: #ffffff"/>
   </g>
   <g id="patch_30">
    <path d="M 117.540581 109.348258 
L 124.247032 109.348258 
L 124.247032 94.325806 
L 117.540581 94.325806 
z
" clip-path="url(#p93f9c3a225)" style="fill: #fefeff"/>
   </g>
   <g id="patch_31">
    <path d="M 127.466129 109.348258 
L 144.902903 109.348258 
L 144.902903 94.325806 
L 127.466129 94.325806 
z
" clip-path="url(#p93f9c3a225)" style="fill: #ffffff"/>
   </g>
   <g id="patch_32">
    <path d="M 148.122 109.348258 
L 161.534903 109.348258 
L 161.534903 94.325806 
L 148.122 94.325806 
z
" clip-path="url(#p93f9c3a225)" style="fill: #ffffff"/>
   </g>
   <g id="patch_33">
    <path d="M 164.754 109.348258 
L 191.848065 109.348258 
L 191.848065 94.325806 
L 164.754 94.325806 
z
" clip-path="url(#p93f9c3a225)" style="fill: #ffffff"/>
   </g>
   <g id="patch_34">
    <path d="M 29.551935 91.10671 
L 64.425484 91.10671 
L 64.425484 85.47329 
L 29.551935 85.47329 
z
" clip-path="url(#p93f9c3a225)" style="fill: #fffdfe"/>
   </g>
   <g id="patch_35">
    <path d="M 67.644581 91.10671 
L 78.911419 91.10671 
L 78.911419 85.47329 
L 67.644581 85.47329 
z
" clip-path="url(#p93f9c3a225)" style="fill: #fffdff"/>
   </g>
   <g id="patch_36">
    <path d="M 82.130516 91.10671 
L 92.860839 91.10671 
L 92.860839 85.47329 
L 82.130516 85.47329 
z
" clip-path="url(#p93f9c3a225)" style="fill: #fefeff"/>
   </g>
   <g id="patch_37">
    <path d="M 96.079935 91.10671 
L 114.321484 91.10671 
L 114.321484 85.47329 
L 96.079935 85.47329 
z
" clip-path="url(#p93f9c3a225)" style="fill: #fdffff"/>
   </g>
   <g id="patch_38">
    <path d="M 117.540581 91.10671 
L 124.247032 91.10671 
L 124.247032 85.47329 
L 117.540581 85.47329 
z
" clip-path="url(#p93f9c3a225)" style="fill: #fffffe"/>
   </g>
   <g id="patch_39">
    <path d="M 127.466129 91.10671 
L 144.902903 91.10671 
L 144.902903 85.47329 
L 127.466129 85.47329 
z
" clip-path="url(#p93f9c3a225)" style="fill: #fdfffe"/>
   </g>
   <g id="patch_40">
    <path d="M 148.122 91.10671 
L 161.534903 91.10671 
L 161.534903 85.47329 
L 148.122 85.47329 
z
" clip-path="url(#p93f9c3a225)" style="fill: #ffffff"/>
   </g>
   <g id="patch_41">
    <path d="M 164.754 91.10671 
L 191.848065 91.10671 
L 191.848065 85.47329 
L 164.754 85.47329 
z
" clip-path="url(#p93f9c3a225)" style="fill: #fffffe"/>
   </g>
   <g id="patch_42">
    <path d="M 29.551935 82.254194 
L 64.425484 82.254194 
L 64.425484 72.596903 
L 29.551935 72.596903 
z
" clip-path="url(#p93f9c3a225)" style="fill: #fefeff"/>
   </g>
   <g id="patch_43">
    <path d="M 67.644581 82.254194 
L 78.911419 82.254194 
L 78.911419 72.596903 
L 67.644581 72.596903 
z
" clip-path="url(#p93f9c3a225)" style="fill: #fffeff"/>
   </g>
   <g id="patch_44">
    <path d="M 82.130516 82.254194 
L 92.860839 82.254194 
L 92.860839 72.596903 
L 82.130516 72.596903 
z
" clip-path="url(#p93f9c3a225)" style="fill: #fefeff"/>
   </g>
   <g id="patch_45">
    <path d="M 96.079935 82.254194 
L 114.321484 82.254194 
L 114.321484 72.596903 
L 96.079935 72.596903 
z
" clip-path="url(#p93f9c3a225)" style="fill: #ffffff"/>
   </g>
   <g id="patch_46">
    <path d="M 117.540581 82.254194 
L 124.247032 82.254194 
L 124.247032 72.596903 
L 117.540581 72.596903 
z
" clip-path="url(#p93f9c3a225)" style="fill: #ffffff"/>
   </g>
   <g id="patch_47">
    <path d="M 127.466129 82.254194 
L 144.902903 82.254194 
L 144.902903 72.596903 
L 127.466129 72.596903 
z
" clip-path="url(#p93f9c3a225)" style="fill: #ffffff"/>
   </g>
   <g id="patch_48">
    <path d="M 148.122 82.254194 
L 161.534903 82.254194 
L 161.534903 72.596903 
L 148.122 72.596903 
z
" clip-path="url(#p93f9c3a225)" style="fill: #feffff"/>
   </g>
   <g id="patch_49">
    <path d="M 164.754 82.254194 
L 191.848065 82.254194 
L 191.848065 72.596903 
L 164.754 72.596903 
z
" clip-path="url(#p93f9c3a225)" style="fill: #ffffff"/>
   </g>
   <g id="patch_50">
    <path d="M 29.551935 69.377806 
L 64.425484 69.377806 
L 64.425484 25.92 
L 29.551935 25.92 
z
" clip-path="url(#p93f9c3a225)" style="fill: #fffdfc"/>
   </g>
   <g id="patch_51">
    <path d="M 67.644581 69.377806 
L 78.911419 69.377806 
L 78.911419 25.92 
L 67.644581 25.92 
z
" clip-path="url(#p93f9c3a225)" style="fill: #fffeff"/>
   </g>
   <g id="patch_52">
    <path d="M 82.130516 69.377806 
L 92.860839 69.377806 
L 92.860839 25.92 
L 82.130516 25.92 
z
" clip-path="url(#p93f9c3a225)" style="fill: #fffdff"/>
   </g>
   <g id="patch_53">
    <path d="M 96.079935 69.377806 
L 114.321484 69.377806 
L 114.321484 25.92 
L 96.079935 25.92 
z
" clip-path="url(#p93f9c3a225)" style="fill: #fefeff"/>
   </g>
   <g id="patch_54">
    <path d="M 117.540581 69.377806 
L 124.247032 69.377806 
L 124.247032 25.92 
L 117.540581 25.92 
z
" clip-path="url(#p93f9c3a225)" style="fill: #fefffe"/>
   </g>
   <g id="patch_55">
    <path d="M 127.466129 69.377806 
L 144.902903 69.377806 
L 144.902903 53.282323 
L 127.466129 53.282323 
z
" clip-path="url(#p93f9c3a225)" style="fill: #ffffff"/>
   </g>
   <g id="patch_56">
    <path d="M 148.122 69.377806 
L 161.534903 69.377806 
L 161.534903 53.282323 
L 148.122 53.282323 
z
" clip-path="url(#p93f9c3a225)" style="fill: #ffffff"/>
   </g>
   <g id="patch_57">
    <path d="M 164.754 69.377806 
L 173.606516 69.377806 
L 173.606516 25.92 
L 164.754 25.92 
z
" clip-path="url(#p93f9c3a225)" style="fill: #ffffff"/>
   </g>
   <g id="patch_58">
    <path d="M 176.825613 69.377806 
L 191.848065 69.377806 
L 191.848065 50.599742 
L 176.825613 50.599742 
z
" clip-path="url(#p93f9c3a225)" style="fill: #ffffff"/>
   </g>
   <g id="patch_59">
    <path d="M 127.466129 50.063226 
L 144.902903 50.063226 
L 144.902903 33.699484 
L 127.466129 33.699484 
z
" clip-path="url(#p93f9c3a225)" style="fill: #467ecc"/>
   </g>
   <g id="patch_60">
    <path d="M 148.122 50.063226 
L 161.534903 50.063226 
L 161.534903 33.699484 
L 148.122 33.699484 
z
" clip-path="url(#p93f9c3a225)" style="fill: #ffffff"/>
   </g>
   <g id="patch_61">
    <path d="M 176.825613 47.112387 
L 191.848065 47.112387 
L 191.848065 25.92 
L 176.825613 25.92 
z
" clip-path="url(#p93f9c3a225)" style="fill: #ffffff"/>
   </g>
   <g id="patch_62">
    <path d="M 127.466129 30.480387 
L 144.902903 30.480387 
L 144.902903 25.92 
L 127.466129 25.92 
z
" clip-path="url(#p93f9c3a225)" style="fill: #fffdfd"/>
   </g>
   <g id="patch_63">
    <path d="M 148.122 30.480387 
L 161.534903 30.480387 
L 161.534903 25.92 
L 148.122 25.92 
z
" clip-path="url(#p93f9c3a225)" style="fill: #fffdfd"/>
   </g>
   <g id="patch_64">
    <path d="M 64.425484 192.24 
L 67.644581 192.24 
L 67.644581 25.92 
L 64.425484 25.92 
z
" clip-path="url(#p93f9c3a225)"/>
   </g>
   <g id="patch_65">
    <path d="M 78.911419 192.24 
L 82.130516 192.24 
L 82.130516 25.92 
L 78.911419 25.92 
z
" clip-path="url(#p93f9c3a225)"/>
   </g>
   <g id="patch_66">
    <path d="M 92.860839 192.24 
L 96.079935 192.24 
L 96.079935 25.92 
L 92.860839 25.92 
z
" clip-path="url(#p93f9c3a225)"/>
   </g>
   <g id="patch_67">
    <path d="M 114.321484 192.24 
L 117.540581 192.24 
L 117.540581 25.92 
L 114.321484 25.92 
z
" clip-path="url(#p93f9c3a225)"/>
   </g>
   <g id="patch_68">
    <path d="M 124.247032 192.24 
L 127.466129 192.24 
L 127.466129 25.92 
L 124.247032 25.92 
z
" clip-path="url(#p93f9c3a225)"/>
   </g>
   <g id="patch_69">
    <path d="M 144.902903 192.24 
L 148.122 192.24 
L 148.122 25.92 
L 144.902903 25.92 
z
" clip-path="url(#p93f9c3a225)"/>
   </g>
   <g id="patch_70">
    <path d="M 161.534903 192.24 
L 164.754 192.24 
L 164.754 25.92 
L 161.534903 25.92 
z
" clip-path="url(#p93f9c3a225)"/>
   </g>
   <g id="patch_71">
    <path d="M 173.606516 69.377806 
L 176.825613 69.377806 
L 176.825613 25.92 
L 173.606516 25.92 
z
" clip-path="url(#p93f9c3a225)"/>
   </g>
   <g id="patch_72">
    <path d="M 29.551935 146.904387 
L 191.848065 146.904387 
L 191.848065 143.417032 
L 29.551935 143.417032 
z
" clip-path="url(#p93f9c3a225)"/>
   </g>
   <g id="patch_73">
    <path d="M 29.551935 130.808903 
L 191.848065 130.808903 
L 191.848065 127.321548 
L 29.551935 127.321548 
z
" clip-path="url(#p93f9c3a225)"/>
   </g>
   <g id="patch_74">
    <path d="M 29.551935 112.835613 
L 191.848065 112.835613 
L 191.848065 109.348258 
L 29.551935 109.348258 
z
" clip-path="url(#p93f9c3a225)"/>
   </g>
   <g id="patch_75">
    <path d="M 29.551935 94.325806 
L 191.848065 94.325806 
L 191.848065 91.10671 
L 29.551935 91.10671 
z
" clip-path="url(#p93f9c3a225)"/>
   </g>
   <g id="patch_76">
    <path d="M 29.551935 85.47329 
L 191.848065 85.47329 
L 191.848065 82.254194 
L 29.551935 82.254194 
z
" clip-path="url(#p93f9c3a225)"/>
   </g>
   <g id="patch_77">
    <path d="M 29.551935 72.596903 
L 191.848065 72.596903 
L 191.848065 69.377806 
L 29.551935 69.377806 
z
" clip-path="url(#p93f9c3a225)"/>
   </g>
   <g id="patch_78">
    <path d="M 127.466129 53.282323 
L 161.534903 53.282323 
L 161.534903 50.063226 
L 127.466129 50.063226 
z
" clip-path="url(#p93f9c3a225)"/>
   </g>
   <g id="patch_79">
    <path d="M 176.825613 50.599742 
L 191.848065 50.599742 
L 191.848065 47.112387 
L 176.825613 47.112387 
z
" clip-path="url(#p93f9c3a225)"/>
   </g>
   <g id="patch_80">
    <path d="M 127.466129 33.699484 
L 161.534903 33.699484 
L 161.534903 30.480387 
L 127.466129 30.480387 
z
" clip-path="url(#p93f9c3a225)"/>
   </g>
  </g>
  <g id="text_1">
   <!-- » Composition no. 12 « (b280) -->
   <g transform="translate(10.8 205.2) scale(0.12 -0.12)">
    <defs>
     <path id="DejaVuSans-bb" d="M 603 3309 
L 2069 2003 
L 2069 1747 
L 603 441 
L 603 1038 
L 1544 1875 
L 603 2713 
L 603 3309 
z
M 1959 3309 
L 3425 2003 
L 3425 1747 
L 1959 441 
L 1959 1038 
L 2900 1875 
L 1959 2713 
L 1959 3309 
z
" transform="scale(0.015625)"/>
     <path id="DejaVuSans-20" transform="scale(0.015625)"/>
     <path id="DejaVuSans-43" d="M 4122 4306 
L 4122 3641 
Q 3803 3938 3442 4084 
Q 3081 4231 2675 4231 
Q 1875 4231 1450 3742 
Q 1025 3253 1025 2328 
Q 1025 1406 1450 917 
Q 1875 428 2675 428 
Q 3081 428 3442 575 
Q 3803 722 4122 1019 
L 4122 359 
Q 3791 134 3420 21 
Q 3050 -91 2638 -91 
Q 1578 -91 968 557 
Q 359 1206 359 2328 
Q 359 3453 968 4101 
Q 1578 4750 2638 4750 
Q 3056 4750 3426 4639 
Q 3797 4528 4122 4306 
z
" transform="scale(0.015625)"/>
     <path id="DejaVuSans-6f" d="M 1959 3097 
Q 1497 3097 1228 2736 
Q 959 2375 959 1747 
Q 959 1119 1226 758 
Q 1494 397 1959 397 
Q 2419 397 2687 759 
Q 2956 1122 2956 1747 
Q 2956 2369 2687 2733 
Q 2419 3097 1959 3097 
z
M 1959 3584 
Q 2709 3584 3137 3096 
Q 3566 2609 3566 1747 
Q 3566 888 3137 398 
Q 2709 -91 1959 -91 
Q 1206 -91 779 398 
Q 353 888 353 1747 
Q 353 2609 779 3096 
Q 1206 3584 1959 3584 
z
" transform="scale(0.015625)"/>
     <path id="DejaVuSans-6d" d="M 3328 2828 
Q 3544 3216 3844 3400 
Q 4144 3584 4550 3584 
Q 5097 3584 5394 3201 
Q 5691 2819 5691 2113 
L 5691 0 
L 5113 0 
L 5113 2094 
Q 5113 2597 4934 2840 
Q 4756 3084 4391 3084 
Q 3944 3084 3684 2787 
Q 3425 2491 3425 1978 
L 3425 0 
L 2847 0 
L 2847 2094 
Q 2847 2600 2669 2842 
Q 2491 3084 2119 3084 
Q 1678 3084 1418 2786 
Q 1159 2488 1159 1978 
L 1159 0 
L 581 0 
L 581 3500 
L 1159 3500 
L 1159 2956 
Q 1356 3278 1631 3431 
Q 1906 3584 2284 3584 
Q 2666 3584 2933 3390 
Q 3200 3197 3328 2828 
z
" transform="scale(0.015625)"/>
     <path id="DejaVuSans-70" d="M 1159 525 
L 1159 -1331 
L 581 -1331 
L 581 3500 
L 1159 3500 
L 1159 2969 
Q 1341 3281 1617 3432 
Q 1894 3584 2278 3584 
Q 2916 3584 3314 3078 
Q 3713 2572 3713 1747 
Q 3713 922 3314 415 
Q 2916 -91 2278 -91 
Q 1894 -91 1617 61 
Q 1341 213 1159 525 
z
M 3116 1747 
Q 3116 2381 2855 2742 
Q 2594 3103 2138 3103 
Q 1681 3103 1420 2742 
Q 1159 2381 1159 1747 
Q 1159 1113 1420 752 
Q 1681 391 2138 391 
Q 2594 391 2855 752 
Q 3116 1113 3116 1747 
z
" transform="scale(0.015625)"/>
     <path id="DejaVuSans-73" d="M 2834 3397 
L 2834 2853 
Q 2591 2978 2328 3040 
Q 2066 3103 1784 3103 
Q 1356 3103 1142 2972 
Q 928 2841 928 2578 
Q 928 2378 1081 2264 
Q 1234 2150 1697 2047 
L 1894 2003 
Q 2506 1872 2764 1633 
Q 3022 1394 3022 966 
Q 3022 478 2636 193 
Q 2250 -91 1575 -91 
Q 1294 -91 989 -36 
Q 684 19 347 128 
L 347 722 
Q 666 556 975 473 
Q 1284 391 1588 391 
Q 1994 391 2212 530 
Q 2431 669 2431 922 
Q 2431 1156 2273 1281 
Q 2116 1406 1581 1522 
L 1381 1569 
Q 847 1681 609 1914 
Q 372 2147 372 2553 
Q 372 3047 722 3315 
Q 1072 3584 1716 3584 
Q 2034 3584 2315 3537 
Q 2597 3491 2834 3397 
z
" transform="scale(0.015625)"/>
     <path id="DejaVuSans-69" d="M 603 3500 
L 1178 3500 
L 1178 0 
L 603 0 
L 603 3500 
z
M 603 4863 
L 1178 4863 
L 1178 4134 
L 603 4134 
L 603 4863 
z
" transform="scale(0.015625)"/>
     <path id="DejaVuSans-74" d="M 1172 4494 
L 1172 3500 
L 2356 3500 
L 2356 3053 
L 1172 3053 
L 1172 1153 
Q 1172 725 1289 603 
Q 1406 481 1766 481 
L 2356 481 
L 2356 0 
L 1766 0 
Q 1100 0 847 248 
Q 594 497 594 1153 
L 594 3053 
L 172 3053 
L 172 3500 
L 594 3500 
L 594 4494 
L 1172 4494 
z
" transform="scale(0.015625)"/>
     <path id="DejaVuSans-6e" d="M 3513 2113 
L 3513 0 
L 2938 0 
L 2938 2094 
Q 2938 2591 2744 2837 
Q 2550 3084 2163 3084 
Q 1697 3084 1428 2787 
Q 1159 2491 1159 1978 
L 1159 0 
L 581 0 
L 581 3500 
L 1159 3500 
L 1159 2956 
Q 1366 3272 1645 3428 
Q 1925 3584 2291 3584 
Q 2894 3584 3203 3211 
Q 3513 2838 3513 2113 
z
" transform="scale(0.015625)"/>
     <path id="DejaVuSans-2e" d="M 684 794 
L 1344 794 
L 1344 0 
L 684 0 
L 684 794 
z
" transform="scale(0.015625)"/>
     <path id="DejaVuSans-31" d="M 794 531 
L 1825 531 
L 1825 4091 
L 703 3866 
L 703 4441 
L 1819 4666 
L 2450 4666 
L 2450 531 
L 3481 531 
L 3481 0 
L 794 0 
L 794 531 
z
" transform="scale(0.015625)"/>
     <path id="DejaVuSans-32" d="M 1228 531 
L 3431 531 
L 3431 0 
L 469 0 
L 469 531 
Q 828 903 1448 1529 
Q 2069 2156 2228 2338 
Q 2531 2678 2651 2914 
Q 2772 3150 2772 3378 
Q 2772 3750 2511 3984 
Q 2250 4219 1831 4219 
Q 1534 4219 1204 4116 
Q 875 4013 500 3803 
L 500 4441 
Q 881 4594 1212 4672 
Q 1544 4750 1819 4750 
Q 2544 4750 2975 4387 
Q 3406 4025 3406 3419 
Q 3406 3131 3298 2873 
Q 3191 2616 2906 2266 
Q 2828 2175 2409 1742 
Q 1991 1309 1228 531 
z
" transform="scale(0.015625)"/>
     <path id="DejaVuSans-ab" d="M 3316 3309 
L 3316 2713 
L 2375 1875 
L 3316 1038 
L 3316 441 
L 1850 1747 
L 1850 2003 
L 3316 3309 
z
M 1959 3309 
L 1959 2713 
L 1019 1875 
L 1959 1038 
L 1959 441 
L 494 1747 
L 494 2003 
L 1959 3309 
z
" transform="scale(0.015625)"/>
     <path id="DejaVuSans-28" d="M 1984 4856 
Q 1566 4138 1362 3434 
Q 1159 2731 1159 2009 
Q 1159 1288 1364 580 
Q 1569 -128 1984 -844 
L 1484 -844 
Q 1016 -109 783 600 
Q 550 1309 550 2009 
Q 550 2706 781 3412 
Q 1013 4119 1484 4856 
L 1984 4856 
z
" transform="scale(0.015625)"/>
     <path id="DejaVuSans-62" d="M 3116 1747 
Q 3116 2381 2855 2742 
Q 2594 3103 2138 3103 
Q 1681 3103 1420 2742 
Q 1159 2381 1159 1747 
Q 1159 1113 1420 752 
Q 1681 391 2138 391 
Q 2594 391 2855 752 
Q 3116 1113 3116 1747 
z
M 1159 2969 
Q 1341 3281 1617 3432 
Q 1894 3584 2278 3584 
Q 2916 3584 3314 3078 
Q 3713 2572 3713 1747 
Q 3713 922 3314 415 
Q 2916 -91 2278 -91 
Q 1894 -91 1617 61 
Q 1341 213 1159 525 
L 1159 0 
L 581 0 
L 581 4863 
L 1159 4863 
L 1159 2969 
z
" transform="scale(0.015625)"/>
     <path id="DejaVuSans-38" d="M 2034 2216 
Q 1584 2216 1326 1975 
Q 1069 1734 1069 1313 
Q 1069 891 1326 650 
Q 1584 409 2034 409 
Q 2484 409 2743 651 
Q 3003 894 3003 1313 
Q 3003 1734 2745 1975 
Q 2488 2216 2034 2216 
z
M 1403 2484 
Q 997 2584 770 2862 
Q 544 3141 544 3541 
Q 544 4100 942 4425 
Q 1341 4750 2034 4750 
Q 2731 4750 3128 4425 
Q 3525 4100 3525 3541 
Q 3525 3141 3298 2862 
Q 3072 2584 2669 2484 
Q 3125 2378 3379 2068 
Q 3634 1759 3634 1313 
Q 3634 634 3220 271 
Q 2806 -91 2034 -91 
Q 1263 -91 848 271 
Q 434 634 434 1313 
Q 434 1759 690 2068 
Q 947 2378 1403 2484 
z
M 1172 3481 
Q 1172 3119 1398 2916 
Q 1625 2713 2034 2713 
Q 2441 2713 2670 2916 
Q 2900 3119 2900 3481 
Q 2900 3844 2670 4047 
Q 2441 4250 2034 4250 
Q 1625 4250 1398 4047 
Q 1172 3844 1172 3481 
z
" transform="scale(0.015625)"/>
     <path id="DejaVuSans-30" d="M 2034 4250 
Q 1547 4250 1301 3770 
Q 1056 3291 1056 2328 
Q 1056 1369 1301 889 
Q 1547 409 2034 409 
Q 2525 409 2770 889 
Q 3016 1369 3016 2328 
Q 3016 3291 2770 3770 
Q 2525 4250 2034 4250 
z
M 2034 4750 
Q 2819 4750 3233 4129 
Q 3647 3509 3647 2328 
Q 3647 1150 3233 529 
Q 2819 -91 2034 -91 
Q 1250 -91 836 529 
Q 422 1150 422 2328 
Q 422 3509 836 4129 
Q 1250 4750 2034 4750 
z
" transform="scale(0.015625)"/>
     <path id="DejaVuSans-29" d="M 513 4856 
L 1013 4856 
Q 1481 4119 1714 3412 
Q 1947 2706 1947 2009 
Q 1947 1309 1714 600 
Q 1481 -109 1013 -844 
L 513 -844 
Q 928 -128 1133 580 
Q 1338 1288 1338 2009 
Q 1338 2731 1133 3434 
Q 928 4138 513 4856 
z
" transform="scale(0.015625)"/>
    </defs>
    <use xlink:href="#DejaVuSans-bb"/>
    <use xlink:href="#DejaVuSans-20" transform="translate(61.181641 0)"/>
    <use xlink:href="#DejaVuSans-43" transform="translate(92.96875 0)"/>
    <use xlink:href="#DejaVuSans-6f" transform="translate(162.792969 0)"/>
    <use xlink:href="#DejaVuSans-6d" transform="translate(223.974609 0)"/>
    <use xlink:href="#DejaVuSans-70" transform="translate(321.386719 0)"/>
    <use xlink:href="#DejaVuSans-6f" transform="translate(384.863281 0)"/>
    <use xlink:href="#DejaVuSans-73" transform="translate(446.044922 0)"/>
    <use xlink:href="#DejaVuSans-69" transform="translate(498.144531 0)"/>
    <use xlink:href="#DejaVuSans-74" transform="translate(525.927734 0)"/>
    <use xlink:href="#DejaVuSans-69" transform="translate(565.136719 0)"/>
    <use xlink:href="#DejaVuSans-6f" transform="translate(592.919922 0)"/>
    <use xlink:href="#DejaVuSans-6e" transform="translate(654.101562 0)"/>
    <use xlink:href="#DejaVuSans-20" transform="translate(717.480469 0)"/>
    <use xlink:href="#DejaVuSans-6e" transform="translate(749.267578 0)"/>
    <use xlink:href="#DejaVuSans-6f" transform="translate(812.646484 0)"/>
    <use xlink:href="#DejaVuSans-2e" transform="translate(872.078125 0)"/>
    <use xlink:href="#DejaVuSans-20" transform="translate(903.865234 0)"/>
    <use xlink:href="#DejaVuSans-31" transform="translate(935.652344 0)"/>
    <use xlink:href="#DejaVuSans-32" transform="translate(999.275391 0)"/>
    <use xlink:href="#DejaVuSans-20" transform="translate(1062.898438 0)"/>
    <use xlink:href="#DejaVuSans-ab" transform="translate(1094.685547 0)"/>
    <use xlink:href="#DejaVuSans-20" transform="translate(1155.867188 0)"/>
    <use xlink:href="#DejaVuSans-28" transform="translate(1187.654297 0)"/>
    <use xlink:href="#DejaVuSans-62" transform="translate(1226.667969 0)"/>
    <use xlink:href="#DejaVuSans-32" transform="translate(1290.144531 0)"/>
    <use xlink:href="#DejaVuSans-38" transform="translate(1353.767578 0)"/>
    <use xlink:href="#DejaVuSans-30" transform="translate(1417.390625 0)"/>
    <use xlink:href="#DejaVuSans-29" transform="translate(1481.013672 0)"/>
   </g>
  </g>
 </g>
 <defs>
  <clipPath id="p93f9c3a225">
   <rect x="29.551935" y="25.92" width="162.296129" height="166.32"/>
  </clipPath>
 </defs>
</svg>
