<?xml version="1.0" encoding="utf-8" standalone="no"?>
<!DOCTYPE svg PUBLIC "-//W3C//DTD SVG 1.1//EN"
  "http://www.w3.org/Graphics/SVG/1.1/DTD/svg11.dtd">
<svg xmlns:xlink="http://www.w3.org/1999/xlink" width="216pt" height="216pt" viewBox="0 0 216 216" xmlns="http://www.w3.org/2000/svg" version="1.1">
 <metadata>
  <rdf:RDF xmlns:dc="http://purl.org/dc/elements/1.1/" xmlns:cc="http://creativecommons.org/ns#" xmlns:rdf="http://www.w3.org/1999/02/22-rdf-syntax-ns#">
   <cc:Work>
    <dc:type rdf:resource="http://purl.org/dc/dcmitype/StillImage"/>
    <dc:date>2026-01-21T11:50:07.551712</dc:date>
    <dc:format>image/svg+xml</dc:format>
    <dc:creator>
     <cc:Agent>
      <dc:title>Matplotlib v3.10.8, https://matplotlib.org/</dc:title>
     </cc:Agent>
    </dc:creator>
   </cc:Work>
  </rdf:RDF>
 </metadata>
 <defs>
  <style type="text/css">*{stroke-linejoin: round; stroke-linecap: butt}</style>
 </defs>
 <g id="figure_1">
  <g id="patch_1">
   <path d="M 0 216 
L 216 216 
L 216 0 
L 0 0 
z
" style="fill: #ffffff; stroke: #000000; stroke-width: 10; stroke-linejoin: miter"/>
  </g>
  <g id="axes_1">
   <g id="patch_2">
    <path d="M 27.186128 192.24 
L 28.601617 192.24 
L 28.601617 175.608 
L 27.186128 175.608 
z
" clip-path="url(#pb7cbeee673)" style="fill: #f9fdfb"/>
   </g>
   <g id="patch_3">
    <path d="M 31.432596 192.24 
L 58.857702 192.24 
L 58.857702 175.608 
L 31.432596 175.608 
z
" clip-path="url(#pb7cbeee673)" style="fill: #f7f9fa"/>
   </g>
   <g id="patch_4">
    <path d="M 62.042553 192.24 
L 159.534383 192.24 
L 159.534383 175.608 
L 62.042553 175.608 
z
" clip-path="url(#pb7cbeee673)" style="fill: #fef91e"/>
   </g>
   <g id="patch_5">
    <path d="M 162.542298 192.24 
L 174.573957 192.24 
L 174.573957 175.608 
L 162.542298 175.608 
z
" clip-path="url(#pb7cbeee673)" style="fill: #fff71d"/>
   </g>
   <g id="patch_6">
    <path d="M 177.581872 192.24 
L 188.905787 192.24 
L 188.905787 175.608 
L 177.581872 175.608 
z
" clip-path="url(#pb7cbeee673)" style="fill: #f6f9f9"/>
   </g>
   <g id="patch_7">
    <path d="M 191.913702 192.24 
L 194.213872 192.24 
L 194.213872 175.608 
L 191.913702 175.608 
z
" clip-path="url(#pb7cbeee673)" style="fill: #f7fbfa"/>
   </g>
   <g id="patch_8">
    <path d="M 27.186128 172.246213 
L 28.601617 172.246213 
L 28.601617 161.630043 
L 27.186128 161.630043 
z
" clip-path="url(#pb7cbeee673)" style="fill: #f9fdfb"/>
   </g>
   <g id="patch_9">
    <path d="M 31.432596 172.246213 
L 58.857702 172.246213 
L 58.857702 161.630043 
L 31.432596 161.630043 
z
" clip-path="url(#pb7cbeee673)" style="fill: #f8fafa"/>
   </g>
   <g id="patch_10">
    <path d="M 62.042553 172.246213 
L 159.534383 172.246213 
L 159.534383 161.630043 
L 62.042553 161.630043 
z
" clip-path="url(#pb7cbeee673)" style="fill: #fffb1f"/>
   </g>
   <g id="patch_11">
    <path d="M 162.542298 172.246213 
L 174.573957 172.246213 
L 174.573957 161.630043 
L 162.542298 161.630043 
z
" clip-path="url(#pb7cbeee673)" style="fill: #fff91e"/>
   </g>
   <g id="patch_12">
    <path d="M 177.581872 172.246213 
L 188.905787 172.246213 
L 188.905787 161.630043 
L 177.581872 161.630043 
z
" clip-path="url(#pb7cbeee673)" style="fill: #f6fafa"/>
   </g>
   <g id="patch_13">
    <path d="M 191.913702 172.246213 
L 194.213872 172.246213 
L 194.213872 161.630043 
L 191.913702 161.630043 
z
" clip-path="url(#pb7cbeee673)" style="fill: #f7fbfa"/>
   </g>
   <g id="patch_14">
    <path d="M 27.186128 158.268255 
L 28.601617 158.268255 
L 28.601617 110.672426 
L 27.186128 110.672426 
z
" clip-path="url(#pb7cbeee673)" style="fill: #f8f9fb"/>
   </g>
   <g id="patch_15">
    <path d="M 31.432596 158.268255 
L 58.857702 158.268255 
L 58.857702 89.970894 
L 31.432596 89.970894 
z
" clip-path="url(#pb7cbeee673)" style="fill: #f6f9f9"/>
   </g>
   <g id="patch_16">
    <path d="M 62.042553 158.268255 
L 159.534383 158.268255 
L 159.534383 89.970894 
L 62.042553 89.970894 
z
" clip-path="url(#pb7cbeee673)" style="fill: #f6f7f8"/>
   </g>
   <g id="patch_17">
    <path d="M 162.542298 158.268255 
L 174.573957 158.268255 
L 174.573957 143.051745 
L 162.542298 143.051745 
z
" clip-path="url(#pb7cbeee673)" style="fill: #f7f8f9"/>
   </g>
   <g id="patch_18">
    <path d="M 177.581872 158.268255 
L 188.905787 158.268255 
L 188.905787 143.051745 
L 177.581872 143.051745 
z
" clip-path="url(#pb7cbeee673)" style="fill: #f6f8fa"/>
   </g>
   <g id="patch_19">
    <path d="M 191.913702 158.268255 
L 194.213872 158.268255 
L 194.213872 143.051745 
L 191.913702 143.051745 
z
" clip-path="url(#pb7cbeee673)" style="fill: #f7fcfc"/>
   </g>
   <g id="patch_20">
    <path d="M 162.542298 143.051745 
L 174.573957 143.051745 
L 174.573957 137.212851 
L 162.542298 137.212851 
z
" clip-path="url(#pb7cbeee673)" style="fill: #2d62ae"/>
   </g>
   <g id="patch_21">
    <path d="M 177.581872 143.051745 
L 188.905787 143.051745 
L 188.905787 137.212851 
L 177.581872 137.212851 
z
" clip-path="url(#pb7cbeee673)" style="fill: #2a64b2"/>
   </g>
   <g id="patch_22">
    <path d="M 191.913702 143.051745 
L 194.213872 143.051745 
L 194.213872 137.212851 
L 191.913702 137.212851 
z
" clip-path="url(#pb7cbeee673)" style="fill: #2e67b5"/>
   </g>
   <g id="patch_23">
    <path d="M 162.542298 137.212851 
L 174.573957 137.212851 
L 174.573957 119.519234 
L 162.542298 119.519234 
z
" clip-path="url(#pb7cbeee673)" style="fill: #f5f8f8"/>
   </g>
   <g id="patch_24">
    <path d="M 177.581872 137.212851 
L 188.905787 137.212851 
L 188.905787 89.970894 
L 177.581872 89.970894 
z
" clip-path="url(#pb7cbeee673)" style="fill: #f5f9f8"/>
   </g>
   <g id="patch_25">
    <path d="M 191.913702 137.212851 
L 194.213872 137.212851 
L 194.213872 119.519234 
L 191.913702 119.519234 
z
" clip-path="url(#pb7cbeee673)" style="fill: #fafbfe"/>
   </g>
   <g id="patch_26">
    <path d="M 162.542298 119.519234 
L 174.573957 119.519234 
L 174.573957 108.726128 
L 162.542298 108.726128 
z
" clip-path="url(#pb7cbeee673)" style="fill: #eb0110"/>
   </g>
   <g id="patch_27">
    <path d="M 191.913702 119.519234 
L 194.213872 119.519234 
L 194.213872 108.726128 
L 191.913702 108.726128 
z
" clip-path="url(#pb7cbeee673)" style="fill: #ef0416"/>
   </g>
   <g id="patch_28">
    <path d="M 27.186128 110.672426 
L 28.601617 110.672426 
L 28.601617 105.010468 
L 27.186128 105.010468 
z
" clip-path="url(#pb7cbeee673)" style="fill: #e71414"/>
   </g>
   <g id="patch_29">
    <path d="M 162.542298 108.726128 
L 174.573957 108.726128 
L 174.573957 89.970894 
L 162.542298 89.970894 
z
" clip-path="url(#pb7cbeee673)" style="fill: #f5f7f8"/>
   </g>
   <g id="patch_30">
    <path d="M 191.913702 108.726128 
L 194.213872 108.726128 
L 194.213872 89.970894 
L 191.913702 89.970894 
z
" clip-path="url(#pb7cbeee673)" style="fill: #f5f9f8"/>
   </g>
   <g id="patch_31">
    <path d="M 27.186128 105.010468 
L 28.601617 105.010468 
L 28.601617 89.970894 
L 27.186128 89.970894 
z
" clip-path="url(#pb7cbeee673)" style="fill: #f8f8fb"/>
   </g>
   <g id="patch_32">
    <path d="M 27.186128 86.255234 
L 28.601617 86.255234 
L 28.601617 66.969191 
L 27.186128 66.969191 
z
" clip-path="url(#pb7cbeee673)" style="fill: #f6faf9"/>
   </g>
   <g id="patch_33">
    <path d="M 31.432596 86.255234 
L 58.857702 86.255234 
L 58.857702 25.92 
L 31.432596 25.92 
z
" clip-path="url(#pb7cbeee673)" style="fill: #f4f8f8"/>
   </g>
   <g id="patch_34">
    <path d="M 62.042553 86.255234 
L 159.534383 86.255234 
L 159.534383 67.853872 
L 62.042553 67.853872 
z
" clip-path="url(#pb7cbeee673)" style="fill: #f2f5f7"/>
   </g>
   <g id="patch_35">
    <path d="M 162.542298 86.255234 
L 174.573957 86.255234 
L 174.573957 69.977106 
L 162.542298 69.977106 
z
" clip-path="url(#pb7cbeee673)" style="fill: #f4f7f8"/>
   </g>
   <g id="patch_36">
    <path d="M 177.581872 86.255234 
L 188.905787 86.255234 
L 188.905787 25.92 
L 177.581872 25.92 
z
" clip-path="url(#pb7cbeee673)" style="fill: #f2f7f7"/>
   </g>
   <g id="patch_37">
    <path d="M 191.913702 86.255234 
L 194.213872 86.255234 
L 194.213872 69.977106 
L 191.913702 69.977106 
z
" clip-path="url(#pb7cbeee673)" style="fill: #f5fafa"/>
   </g>
   <g id="patch_38">
    <path d="M 162.542298 69.977106 
L 174.573957 69.977106 
L 174.573957 63.253532 
L 162.542298 63.253532 
z
" clip-path="url(#pb7cbeee673)" style="fill: #e8000e"/>
   </g>
   <g id="patch_39">
    <path d="M 191.913702 69.977106 
L 194.213872 69.977106 
L 194.213872 63.253532 
L 191.913702 63.253532 
z
" clip-path="url(#pb7cbeee673)" style="fill: #2b62ae"/>
   </g>
   <g id="patch_40">
    <path d="M 27.186128 66.969191 
L 28.601617 66.969191 
L 28.601617 62.722723 
L 27.186128 62.722723 
z
" clip-path="url(#pb7cbeee673)" style="fill: #110f10"/>
   </g>
   <g id="patch_41">
    <path d="M 62.042553 64.138213 
L 159.534383 64.138213 
L 159.534383 49.983319 
L 62.042553 49.983319 
z
" clip-path="url(#pb7cbeee673)" style="fill: #f1f4f6"/>
   </g>
   <g id="patch_42">
    <path d="M 162.542298 63.430468 
L 174.573957 63.430468 
L 174.573957 49.983319 
L 162.542298 49.983319 
z
" clip-path="url(#pb7cbeee673)" style="fill: #f2f5f7"/>
   </g>
   <g id="patch_43">
    <path d="M 191.913702 63.430468 
L 194.213872 63.430468 
L 194.213872 49.806383 
L 191.913702 49.806383 
z
" clip-path="url(#pb7cbeee673)" style="fill: #f3f8f9"/>
   </g>
   <g id="patch_44">
    <path d="M 27.186128 62.722723 
L 28.601617 62.722723 
L 28.601617 56.353021 
L 27.186128 56.353021 
z
" clip-path="url(#pb7cbeee673)" style="fill: #f5f8f7"/>
   </g>
   <g id="patch_45">
    <path d="M 27.186128 56.353021 
L 28.601617 56.353021 
L 28.601617 51.752681 
L 27.186128 51.752681 
z
" clip-path="url(#pb7cbeee673)" style="fill: #d70f0d"/>
   </g>
   <g id="patch_46">
    <path d="M 27.186128 51.752681 
L 28.601617 51.752681 
L 28.601617 25.92 
L 27.186128 25.92 
z
" clip-path="url(#pb7cbeee673)" style="fill: #f9f9f2"/>
   </g>
   <g id="patch_47">
    <path d="M 191.913702 49.629447 
L 194.213872 49.629447 
L 194.213872 44.675234 
L 191.913702 44.675234 
z
" clip-path="url(#pb7cbeee673)" style="fill: #0e0a0d"/>
   </g>
   <g id="patch_48">
    <path d="M 62.042553 46.26766 
L 85.221191 46.26766 
L 85.221191 25.92 
L 62.042553 25.92 
z
" clip-path="url(#pb7cbeee673)" style="fill: #f3f5f7"/>
   </g>
   <g id="patch_49">
    <path d="M 85.398128 46.26766 
L 90.706213 46.26766 
L 90.706213 25.92 
L 85.398128 25.92 
z
" clip-path="url(#pb7cbeee673)" style="fill: #255ea8"/>
   </g>
   <g id="patch_50">
    <path d="M 90.529277 46.26766 
L 114.238723 46.26766 
L 114.238723 25.92 
L 90.529277 25.92 
z
" clip-path="url(#pb7cbeee673)" style="fill: #f1f5f6"/>
   </g>
   <g id="patch_51">
    <path d="M 114.41566 46.26766 
L 120.254553 46.26766 
L 120.254553 25.92 
L 114.41566 25.92 
z
" clip-path="url(#pb7cbeee673)" style="fill: #e7010a"/>
   </g>
   <g id="patch_52">
    <path d="M 120.254553 46.26766 
L 131.93234 46.26766 
L 131.93234 25.92 
L 120.254553 25.92 
z
" clip-path="url(#pb7cbeee673)" style="fill: #f3f5f7"/>
   </g>
   <g id="patch_53">
    <path d="M 131.93234 46.26766 
L 136.709617 46.26766 
L 136.709617 25.92 
L 131.93234 25.92 
z
" clip-path="url(#pb7cbeee673)" style="fill: #fdf416"/>
   </g>
   <g id="patch_54">
    <path d="M 136.709617 46.26766 
L 146.087234 46.26766 
L 146.087234 25.92 
L 136.709617 25.92 
z
" clip-path="url(#pb7cbeee673)" style="fill: #f2f7f7"/>
   </g>
   <g id="patch_55">
    <path d="M 146.087234 46.26766 
L 150.864511 46.26766 
L 150.864511 25.92 
L 146.087234 25.92 
z
" clip-path="url(#pb7cbeee673)" style="fill: #040003"/>
   </g>
   <g id="patch_56">
    <path d="M 150.687574 46.26766 
L 159.534383 46.26766 
L 159.534383 25.92 
L 150.687574 25.92 
z
" clip-path="url(#pb7cbeee673)" style="fill: #f2f5f8"/>
   </g>
   <g id="patch_57">
    <path d="M 162.542298 46.26766 
L 174.573957 46.26766 
L 174.573957 25.92 
L 162.542298 25.92 
z
" clip-path="url(#pb7cbeee673)" style="fill: #f0f5f5"/>
   </g>
   <g id="patch_58">
    <path d="M 191.913702 44.675234 
L 194.213872 44.675234 
L 194.213872 30.166468 
L 191.913702 30.166468 
z
" clip-path="url(#pb7cbeee673)" style="fill: #f1f8f8"/>
   </g>
   <g id="patch_59">
    <path d="M 191.913702 30.166468 
L 194.213872 30.166468 
L 194.213872 25.92 
L 191.913702 25.92 
z
" clip-path="url(#pb7cbeee673)" style="fill: #e00612"/>
   </g>
   <g id="patch_60">
    <path d="M 27.186128 175.608 
L 194.213872 175.608 
L 194.213872 172.246213 
L 27.186128 172.246213 
z
" clip-path="url(#pb7cbeee673)"/>
   </g>
   <g id="patch_61">
    <path d="M 27.186128 161.630043 
L 194.213872 161.630043 
L 194.213872 158.268255 
L 27.186128 158.268255 
z
" clip-path="url(#pb7cbeee673)"/>
   </g>
   <g id="patch_62">
    <path d="M 28.601617 192.24 
L 31.432596 192.24 
L 31.432596 25.92 
L 28.601617 25.92 
z
" clip-path="url(#pb7cbeee673)"/>
   </g>
   <g id="patch_63">
    <path d="M 58.857702 192.24 
L 62.042553 192.24 
L 62.042553 25.92 
L 58.857702 25.92 
z
" clip-path="url(#pb7cbeee673)"/>
   </g>
   <g id="patch_64">
    <path d="M 159.534383 192.24 
L 162.542298 192.24 
L 162.542298 25.92 
L 159.534383 25.92 
z
" clip-path="url(#pb7cbeee673)"/>
   </g>
   <g id="patch_65">
    <path d="M 174.573957 192.24 
L 177.581872 192.24 
L 177.581872 25.92 
L 174.573957 25.92 
z
" clip-path="url(#pb7cbeee673)"/>
   </g>
   <g id="patch_66">
    <path d="M 188.905787 192.24 
L 191.913702 192.24 
L 191.913702 25.92 
L 188.905787 25.92 
z
" clip-path="url(#pb7cbeee673)"/>
   </g>
   <g id="patch_67">
    <path d="M 27.186128 89.970894 
L 194.213872 89.970894 
L 194.213872 86.255234 
L 27.186128 86.255234 
z
" clip-path="url(#pb7cbeee673)"/>
   </g>
   <g id="patch_68">
    <path d="M 62.042553 67.853872 
L 159.534383 67.853872 
L 159.534383 64.138213 
L 62.042553 64.138213 
z
" clip-path="url(#pb7cbeee673)"/>
   </g>
   <g id="patch_69">
    <path d="M 62.042553 49.983319 
L 174.573957 49.983319 
L 174.573957 46.26766 
L 62.042553 46.26766 
z
" clip-path="url(#pb7cbeee673)"/>
   </g>
  </g>
  <g id="text_1">
   <!-- » Place de la Concorde « (b283) -->
   <g transform="translate(10.8 205.2) scale(0.12 -0.12)">
    <defs>
     <path id="DejaVuSans-bb" d="M 603 3309 
L 2069 2003 
L 2069 1747 
L 603 441 
L 603 1038 
L 1544 1875 
L 603 2713 
L 603 3309 
z
M 1959 3309 
L 3425 2003 
L 3425 1747 
L 1959 441 
L 1959 1038 
L 2900 1875 
L 1959 2713 
L 1959 3309 
z
" transform="scale(0.015625)"/>
     <path id="DejaVuSans-20" transform="scale(0.015625)"/>
     <path id="DejaVuSans-50" d="M 1259 4147 
L 1259 2394 
L 2053 2394 
Q 2494 2394 2734 2622 
Q 2975 2850 2975 3272 
Q 2975 3691 2734 3919 
Q 2494 4147 2053 4147 
L 1259 4147 
z
M 628 4666 
L 2053 4666 
Q 2838 4666 3239 4311 
Q 3641 3956 3641 3272 
Q 3641 2581 3239 2228 
Q 2838 1875 2053 1875 
L 1259 1875 
L 1259 0 
L 628 0 
L 628 4666 
z
" transform="scale(0.015625)"/>
     <path id="DejaVuSans-6c" d="M 603 4863 
L 1178 4863 
L 1178 0 
L 603 0 
L 603 4863 
z
" transform="scale(0.015625)"/>
     <path id="DejaVuSans-61" d="M 2194 1759 
Q 1497 1759 1228 1600 
Q 959 1441 959 1056 
Q 959 750 1161 570 
Q 1363 391 1709 391 
Q 2188 391 2477 730 
Q 2766 1069 2766 1631 
L 2766 1759 
L 2194 1759 
z
M 3341 1997 
L 3341 0 
L 2766 0 
L 2766 531 
Q 2569 213 2275 61 
Q 1981 -91 1556 -91 
Q 1019 -91 701 211 
Q 384 513 384 1019 
Q 384 1609 779 1909 
Q 1175 2209 1959 2209 
L 2766 2209 
L 2766 2266 
Q 2766 2663 2505 2880 
Q 2244 3097 1772 3097 
Q 1472 3097 1187 3025 
Q 903 2953 641 2809 
L 641 3341 
Q 956 3463 1253 3523 
Q 1550 3584 1831 3584 
Q 2591 3584 2966 3190 
Q 3341 2797 3341 1997 
z
" transform="scale(0.015625)"/>
     <path id="DejaVuSans-63" d="M 3122 3366 
L 3122 2828 
Q 2878 2963 2633 3030 
Q 2388 3097 2138 3097 
Q 1578 3097 1268 2742 
Q 959 2388 959 1747 
Q 959 1106 1268 751 
Q 1578 397 2138 397 
Q 2388 397 2633 464 
Q 2878 531 3122 666 
L 3122 134 
Q 2881 22 2623 -34 
Q 2366 -91 2075 -91 
Q 1284 -91 818 406 
Q 353 903 353 1747 
Q 353 2603 823 3093 
Q 1294 3584 2113 3584 
Q 2378 3584 2631 3529 
Q 2884 3475 3122 3366 
z
" transform="scale(0.015625)"/>
     <path id="DejaVuSans-65" d="M 3597 1894 
L 3597 1613 
L 953 1613 
Q 991 1019 1311 708 
Q 1631 397 2203 397 
Q 2534 397 2845 478 
Q 3156 559 3463 722 
L 3463 178 
Q 3153 47 2828 -22 
Q 2503 -91 2169 -91 
Q 1331 -91 842 396 
Q 353 884 353 1716 
Q 353 2575 817 3079 
Q 1281 3584 2069 3584 
Q 2775 3584 3186 3129 
Q 3597 2675 3597 1894 
z
M 3022 2063 
Q 3016 2534 2758 2815 
Q 2500 3097 2075 3097 
Q 1594 3097 1305 2825 
Q 1016 2553 972 2059 
L 3022 2063 
z
" transform="scale(0.015625)"/>
     <path id="DejaVuSans-64" d="M 2906 2969 
L 2906 4863 
L 3481 4863 
L 3481 0 
L 2906 0 
L 2906 525 
Q 2725 213 2448 61 
Q 2172 -91 1784 -91 
Q 1150 -91 751 415 
Q 353 922 353 1747 
Q 353 2572 751 3078 
Q 1150 3584 1784 3584 
Q 2172 3584 2448 3432 
Q 2725 3281 2906 2969 
z
M 947 1747 
Q 947 1113 1208 752 
Q 1469 391 1925 391 
Q 2381 391 2643 752 
Q 2906 1113 2906 1747 
Q 2906 2381 2643 2742 
Q 2381 3103 1925 3103 
Q 1469 3103 1208 2742 
Q 947 2381 947 1747 
z
" transform="scale(0.015625)"/>
     <path id="DejaVuSans-43" d="M 4122 4306 
L 4122 3641 
Q 3803 3938 3442 4084 
Q 3081 4231 2675 4231 
Q 1875 4231 1450 3742 
Q 1025 3253 1025 2328 
Q 1025 1406 1450 917 
Q 1875 428 2675 428 
Q 3081 428 3442 575 
Q 3803 722 4122 1019 
L 4122 359 
Q 3791 134 3420 21 
Q 3050 -91 2638 -91 
Q 1578 -91 968 557 
Q 359 1206 359 2328 
Q 359 3453 968 4101 
Q 1578 4750 2638 4750 
Q 3056 4750 3426 4639 
Q 3797 4528 4122 4306 
z
" transform="scale(0.015625)"/>
     <path id="DejaVuSans-6f" d="M 1959 3097 
Q 1497 3097 1228 2736 
Q 959 2375 959 1747 
Q 959 1119 1226 758 
Q 1494 397 1959 397 
Q 2419 397 2687 759 
Q 2956 1122 2956 1747 
Q 2956 2369 2687 2733 
Q 2419 3097 1959 3097 
z
M 1959 3584 
Q 2709 3584 3137 3096 
Q 3566 2609 3566 1747 
Q 3566 888 3137 398 
Q 2709 -91 1959 -91 
Q 1206 -91 779 398 
Q 353 888 353 1747 
Q 353 2609 779 3096 
Q 1206 3584 1959 3584 
z
" transform="scale(0.015625)"/>
     <path id="DejaVuSans-6e" d="M 3513 2113 
L 3513 0 
L 2938 0 
L 2938 2094 
Q 2938 2591 2744 2837 
Q 2550 3084 2163 3084 
Q 1697 3084 1428 2787 
Q 1159 2491 1159 1978 
L 1159 0 
L 581 0 
L 581 3500 
L 1159 3500 
L 1159 2956 
Q 1366 3272 1645 3428 
Q 1925 3584 2291 3584 
Q 2894 3584 3203 3211 
Q 3513 2838 3513 2113 
z
" transform="scale(0.015625)"/>
     <path id="DejaVuSans-72" d="M 2631 2963 
Q 2534 3019 2420 3045 
Q 2306 3072 2169 3072 
Q 1681 3072 1420 2755 
Q 1159 2438 1159 1844 
L 1159 0 
L 581 0 
L 581 3500 
L 1159 3500 
L 1159 2956 
Q 1341 3275 1631 3429 
Q 1922 3584 2338 3584 
Q 2397 3584 2469 3576 
Q 2541 3569 2628 3553 
L 2631 2963 
z
" transform="scale(0.015625)"/>
     <path id="DejaVuSans-ab" d="M 3316 3309 
L 3316 2713 
L 2375 1875 
L 3316 1038 
L 3316 441 
L 1850 1747 
L 1850 2003 
L 3316 3309 
z
M 1959 3309 
L 1959 2713 
L 1019 1875 
L 1959 1038 
L 1959 441 
L 494 1747 
L 494 2003 
L 1959 3309 
z
" transform="scale(0.015625)"/>
     <path id="DejaVuSans-28" d="M 1984 4856 
Q 1566 4138 1362 3434 
Q 1159 2731 1159 2009 
Q 1159 1288 1364 580 
Q 1569 -128 1984 -844 
L 1484 -844 
Q 1016 -109 783 600 
Q 550 1309 550 2009 
Q 550 2706 781 3412 
Q 1013 4119 1484 4856 
L 1984 4856 
z
" transform="scale(0.015625)"/>
     <path id="DejaVuSans-62" d="M 3116 1747 
Q 3116 2381 2855 2742 
Q 2594 3103 2138 3103 
Q 1681 3103 1420 2742 
Q 1159 2381 1159 1747 
Q 1159 1113 1420 752 
Q 1681 391 2138 391 
Q 2594 391 2855 752 
Q 3116 1113 3116 1747 
z
M 1159 2969 
Q 1341 3281 1617 3432 
Q 1894 3584 2278 3584 
Q 2916 3584 3314 3078 
Q 3713 2572 3713 1747 
Q 3713 922 3314 415 
Q 2916 -91 2278 -91 
Q 1894 -91 1617 61 
Q 1341 213 1159 525 
L 1159 0 
L 581 0 
L 581 4863 
L 1159 4863 
L 1159 2969 
z
" transform="scale(0.015625)"/>
     <path id="DejaVuSans-32" d="M 1228 531 
L 3431 531 
L 3431 0 
L 469 0 
L 469 531 
Q 828 903 1448 1529 
Q 2069 2156 2228 2338 
Q 2531 2678 2651 2914 
Q 2772 3150 2772 3378 
Q 2772 3750 2511 3984 
Q 2250 4219 1831 4219 
Q 1534 4219 1204 4116 
Q 875 4013 500 3803 
L 500 4441 
Q 881 4594 1212 4672 
Q 1544 4750 1819 4750 
Q 2544 4750 2975 4387 
Q 3406 4025 3406 3419 
Q 3406 3131 3298 2873 
Q 3191 2616 2906 2266 
Q 2828 2175 2409 1742 
Q 1991 1309 1228 531 
z
" transform="scale(0.015625)"/>
     <path id="DejaVuSans-38" d="M 2034 2216 
Q 1584 2216 1326 1975 
Q 1069 1734 1069 1313 
Q 1069 891 1326 650 
Q 1584 409 2034 409 
Q 2484 409 2743 651 
Q 3003 894 3003 1313 
Q 3003 1734 2745 1975 
Q 2488 2216 2034 2216 
z
M 1403 2484 
Q 997 2584 770 2862 
Q 544 3141 544 3541 
Q 544 4100 942 4425 
Q 1341 4750 2034 4750 
Q 2731 4750 3128 4425 
Q 3525 4100 3525 3541 
Q 3525 3141 3298 2862 
Q 3072 2584 2669 2484 
Q 3125 2378 3379 2068 
Q 3634 1759 3634 1313 
Q 3634 634 3220 271 
Q 2806 -91 2034 -91 
Q 1263 -91 848 271 
Q 434 634 434 1313 
Q 434 1759 690 2068 
Q 947 2378 1403 2484 
z
M 1172 3481 
Q 1172 3119 1398 2916 
Q 1625 2713 2034 2713 
Q 2441 2713 2670 2916 
Q 2900 3119 2900 3481 
Q 2900 3844 2670 4047 
Q 2441 4250 2034 4250 
Q 1625 4250 1398 4047 
Q 1172 3844 1172 3481 
z
" transform="scale(0.015625)"/>
     <path id="DejaVuSans-33" d="M 2597 2516 
Q 3050 2419 3304 2112 
Q 3559 1806 3559 1356 
Q 3559 666 3084 287 
Q 2609 -91 1734 -91 
Q 1441 -91 1130 -33 
Q 819 25 488 141 
L 488 750 
Q 750 597 1062 519 
Q 1375 441 1716 441 
Q 2309 441 2620 675 
Q 2931 909 2931 1356 
Q 2931 1769 2642 2001 
Q 2353 2234 1838 2234 
L 1294 2234 
L 1294 2753 
L 1863 2753 
Q 2328 2753 2575 2939 
Q 2822 3125 2822 3475 
Q 2822 3834 2567 4026 
Q 2313 4219 1838 4219 
Q 1578 4219 1281 4162 
Q 984 4106 628 3988 
L 628 4550 
Q 988 4650 1302 4700 
Q 1616 4750 1894 4750 
Q 2613 4750 3031 4423 
Q 3450 4097 3450 3541 
Q 3450 3153 3228 2886 
Q 3006 2619 2597 2516 
z
" transform="scale(0.015625)"/>
     <path id="DejaVuSans-29" d="M 513 4856 
L 1013 4856 
Q 1481 4119 1714 3412 
Q 1947 2706 1947 2009 
Q 1947 1309 1714 600 
Q 1481 -109 1013 -844 
L 513 -844 
Q 928 -128 1133 580 
Q 1338 1288 1338 2009 
Q 1338 2731 1133 3434 
Q 928 4138 513 4856 
z
" transform="scale(0.015625)"/>
    </defs>
    <use xlink:href="#DejaVuSans-bb"/>
    <use xlink:href="#DejaVuSans-20" transform="translate(61.181641 0)"/>
    <use xlink:href="#DejaVuSans-50" transform="translate(92.96875 0)"/>
    <use xlink:href="#DejaVuSans-6c" transform="translate(153.271484 0)"/>
    <use xlink:href="#DejaVuSans-61" transform="translate(181.054688 0)"/>
    <use xlink:href="#DejaVuSans-63" transform="translate(242.333984 0)"/>
    <use xlink:href="#DejaVuSans-65" transform="translate(297.314453 0)"/>
    <use xlink:href="#DejaVuSans-20" transform="translate(358.837891 0)"/>
    <use xlink:href="#DejaVuSans-64" transform="translate(390.625 0)"/>
    <use xlink:href="#DejaVuSans-65" transform="translate(454.101562 0)"/>
    <use xlink:href="#DejaVuSans-20" transform="translate(515.625 0)"/>
    <use xlink:href="#DejaVuSans-6c" transform="translate(547.412109 0)"/>
    <use xlink:href="#DejaVuSans-61" transform="translate(575.195312 0)"/>
    <use xlink:href="#DejaVuSans-20" transform="translate(636.474609 0)"/>
    <use xlink:href="#DejaVuSans-43" transform="translate(668.261719 0)"/>
    <use xlink:href="#DejaVuSans-6f" transform="translate(738.085938 0)"/>
    <use xlink:href="#DejaVuSans-6e" transform="translate(799.267578 0)"/>
    <use xlink:href="#DejaVuSans-63" transform="translate(862.646484 0)"/>
    <use xlink:href="#DejaVuSans-6f" transform="translate(917.626953 0)"/>
    <use xlink:href="#DejaVuSans-72" transform="translate(978.808594 0)"/>
    <use xlink:href="#DejaVuSans-64" transform="translate(1018.171875 0)"/>
    <use xlink:href="#DejaVuSans-65" transform="translate(1081.648438 0)"/>
    <use xlink:href="#DejaVuSans-20" transform="translate(1143.171875 0)"/>
    <use xlink:href="#DejaVuSans-ab" transform="translate(1174.958984 0)"/>
    <use xlink:href="#DejaVuSans-20" transform="translate(1236.140625 0)"/>
    <use xlink:href="#DejaVuSans-28" transform="translate(1267.927734 0)"/>
    <use xlink:href="#DejaVuSans-62" transform="translate(1306.941406 0)"/>
    <use xlink:href="#DejaVuSans-32" transform="translate(1370.417969 0)"/>
    <use xlink:href="#DejaVuSans-38" transform="translate(1434.041016 0)"/>
    <use xlink:href="#DejaVuSans-33" transform="translate(1497.664062 0)"/>
    <use xlink:href="#DejaVuSans-29" transform="translate(1561.287109 0)"/>
   </g>
  </g>
 </g>
 <defs>
  <clipPath id="pb7cbeee673">
   <rect x="27.186128" y="25.92" width="167.027745" height="166.32"/>
  </clipPath>
 </defs>
</svg>
