<?xml version="1.0" encoding="utf-8" standalone="no"?>
<!DOCTYPE svg PUBLIC "-//W3C//DTD SVG 1.1//EN"
  "http://www.w3.org/Graphics/SVG/1.1/DTD/svg11.dtd">
<svg xmlns:xlink="http://www.w3.org/1999/xlink" width="216pt" height="216pt" viewBox="0 0 216 216" xmlns="http://www.w3.org/2000/svg" version="1.1">
 <metadata>
  <rdf:RDF xmlns:dc="http://purl.org/dc/elements/1.1/" xmlns:cc="http://creativecommons.org/ns#" xmlns:rdf="http://www.w3.org/1999/02/22-rdf-syntax-ns#">
   <cc:Work>
    <dc:type rdf:resource="http://purl.org/dc/dcmitype/StillImage"/>
    <dc:date>2026-01-21T11:50:07.629426</dc:date>
    <dc:format>image/svg+xml</dc:format>
    <dc:creator>
     <cc:Agent>
      <dc:title>Matplotlib v3.10.8, https://matplotlib.org/</dc:title>
     </cc:Agent>
    </dc:creator>
   </cc:Work>
  </rdf:RDF>
 </metadata>
 <defs>
  <style type="text/css">*{stroke-linejoin: round; stroke-linecap: butt}</style>
 </defs>
 <g id="figure_1">
  <g id="patch_1">
   <path d="M 0 216 
L 216 216 
L 216 0 
L 0 0 
z
" style="fill: #ffffff; stroke: #000000; stroke-width: 10; stroke-linejoin: miter"/>
  </g>
  <g id="axes_1">
   <g id="patch_2">
    <path d="M 38.628 192.24 
L 42.61968 192.24 
L 42.61968 174.4992 
L 38.628 174.4992 
z
" clip-path="url(#ped4d1be22a)" style="fill: #4368aa"/>
   </g>
   <g id="patch_3">
    <path d="M 45.94608 192.24 
L 56.81232 192.24 
L 56.81232 174.4992 
L 45.94608 174.4992 
z
" clip-path="url(#ped4d1be22a)" style="fill: #4368aa"/>
   </g>
   <g id="patch_4">
    <path d="M 60.13872 192.24 
L 75.44016 192.24 
L 75.44016 174.4992 
L 60.13872 174.4992 
z
" clip-path="url(#ped4d1be22a)" style="fill: #f7f8f3"/>
   </g>
   <g id="patch_5">
    <path d="M 151.94736 192.24 
L 163.9224 192.24 
L 163.9224 138.13056 
L 151.94736 138.13056 
z
" clip-path="url(#ped4d1be22a)" style="fill: #f5f4ec"/>
   </g>
   <g id="patch_6">
    <path d="M 167.2488 192.24 
L 179.00208 192.24 
L 179.00208 138.13056 
L 167.2488 138.13056 
z
" clip-path="url(#ped4d1be22a)" style="fill: #f5f4ec"/>
   </g>
   <g id="patch_7">
    <path d="M 182.32848 192.24 
L 182.772 192.24 
L 182.772 138.13056 
L 182.32848 138.13056 
z
" clip-path="url(#ped4d1be22a)" style="fill: #f7f8f1"/>
   </g>
   <g id="patch_8">
    <path d="M 78.76656 189.35712 
L 148.62096 189.35712 
L 148.62096 155.87136 
L 78.76656 155.87136 
z
" clip-path="url(#ped4d1be22a)" style="fill: #f5f7ef"/>
   </g>
   <g id="patch_9">
    <path d="M 38.628 170.50752 
L 42.61968 170.50752 
L 42.61968 160.52832 
L 38.628 160.52832 
z
" clip-path="url(#ped4d1be22a)" style="fill: #4368aa"/>
   </g>
   <g id="patch_10">
    <path d="M 45.94608 170.50752 
L 56.81232 170.50752 
L 56.81232 160.52832 
L 45.94608 160.52832 
z
" clip-path="url(#ped4d1be22a)" style="fill: #4368aa"/>
   </g>
   <g id="patch_11">
    <path d="M 60.13872 170.50752 
L 75.44016 170.50752 
L 75.44016 138.13056 
L 60.13872 138.13056 
z
" clip-path="url(#ped4d1be22a)" style="fill: #f7f7f1"/>
   </g>
   <g id="patch_12">
    <path d="M 38.628 154.98432 
L 42.61968 154.98432 
L 42.61968 138.13056 
L 38.628 138.13056 
z
" clip-path="url(#ped4d1be22a)" style="fill: #f7f7f1"/>
   </g>
   <g id="patch_13">
    <path d="M 45.94608 154.98432 
L 56.81232 154.98432 
L 56.81232 138.13056 
L 45.94608 138.13056 
z
" clip-path="url(#ped4d1be22a)" style="fill: #f8f8f3"/>
   </g>
   <g id="patch_14">
    <path d="M 78.76656 152.3232 
L 148.62096 152.3232 
L 148.62096 138.13056 
L 78.76656 138.13056 
z
" clip-path="url(#ped4d1be22a)" style="fill: #f6f5eb"/>
   </g>
   <g id="patch_15">
    <path d="M 38.628 134.13888 
L 42.61968 134.13888 
L 42.61968 106.8624 
L 38.628 106.8624 
z
" clip-path="url(#ped4d1be22a)" style="fill: #f8f9f2"/>
   </g>
   <g id="patch_16">
    <path d="M 45.94608 134.13888 
L 56.81232 134.13888 
L 56.81232 106.8624 
L 45.94608 106.8624 
z
" clip-path="url(#ped4d1be22a)" style="fill: #f9f9f4"/>
   </g>
   <g id="patch_17">
    <path d="M 60.13872 134.13888 
L 75.44016 134.13888 
L 75.44016 106.8624 
L 60.13872 106.8624 
z
" clip-path="url(#ped4d1be22a)" style="fill: #f7f8f2"/>
   </g>
   <g id="patch_18">
    <path d="M 78.76656 134.13888 
L 148.62096 134.13888 
L 148.62096 106.8624 
L 78.76656 106.8624 
z
" clip-path="url(#ped4d1be22a)" style="fill: #f6f6ed"/>
   </g>
   <g id="patch_19">
    <path d="M 151.94736 134.13888 
L 163.9224 134.13888 
L 163.9224 106.8624 
L 151.94736 106.8624 
z
" clip-path="url(#ped4d1be22a)" style="fill: #f7f6f1"/>
   </g>
   <g id="patch_20">
    <path d="M 167.2488 134.13888 
L 179.00208 134.13888 
L 179.00208 106.8624 
L 167.2488 106.8624 
z
" clip-path="url(#ped4d1be22a)" style="fill: #f7f7ef"/>
   </g>
   <g id="patch_21">
    <path d="M 182.32848 134.13888 
L 182.772 134.13888 
L 182.772 106.8624 
L 182.32848 106.8624 
z
" clip-path="url(#ped4d1be22a)" style="fill: #f7f7ef"/>
   </g>
   <g id="patch_22">
    <path d="M 38.628 102.87072 
L 42.61968 102.87072 
L 42.61968 98.65728 
L 38.628 98.65728 
z
" clip-path="url(#ped4d1be22a)" style="fill: #f7f7f0"/>
   </g>
   <g id="patch_23">
    <path d="M 45.94608 102.87072 
L 56.81232 102.87072 
L 56.81232 98.65728 
L 45.94608 98.65728 
z
" clip-path="url(#ped4d1be22a)" style="fill: #f7f9f3"/>
   </g>
   <g id="patch_24">
    <path d="M 60.13872 102.87072 
L 75.44016 102.87072 
L 75.44016 98.65728 
L 60.13872 98.65728 
z
" clip-path="url(#ped4d1be22a)" style="fill: #f5f7f2"/>
   </g>
   <g id="patch_25">
    <path d="M 78.76656 102.87072 
L 148.62096 102.87072 
L 148.62096 98.65728 
L 78.76656 98.65728 
z
" clip-path="url(#ped4d1be22a)" style="fill: #f6f6f1"/>
   </g>
   <g id="patch_26">
    <path d="M 151.94736 102.87072 
L 163.9224 102.87072 
L 163.9224 98.65728 
L 151.94736 98.65728 
z
" clip-path="url(#ped4d1be22a)" style="fill: #f7f5ef"/>
   </g>
   <g id="patch_27">
    <path d="M 167.2488 102.87072 
L 179.00208 102.87072 
L 179.00208 98.65728 
L 167.2488 98.65728 
z
" clip-path="url(#ped4d1be22a)" style="fill: #f7f6ef"/>
   </g>
   <g id="patch_28">
    <path d="M 182.32848 102.87072 
L 182.772 102.87072 
L 182.772 98.65728 
L 182.32848 98.65728 
z
" clip-path="url(#ped4d1be22a)" style="fill: #f7f7ef"/>
   </g>
   <g id="patch_29">
    <path d="M 38.628 95.10912 
L 42.61968 95.10912 
L 42.61968 80.91648 
L 38.628 80.91648 
z
" clip-path="url(#ped4d1be22a)" style="fill: #f4e401"/>
   </g>
   <g id="patch_30">
    <path d="M 45.94608 95.10912 
L 56.81232 95.10912 
L 56.81232 80.91648 
L 45.94608 80.91648 
z
" clip-path="url(#ped4d1be22a)" style="fill: #f5e401"/>
   </g>
   <g id="patch_31">
    <path d="M 60.13872 95.10912 
L 75.44016 95.10912 
L 75.44016 80.91648 
L 60.13872 80.91648 
z
" clip-path="url(#ped4d1be22a)" style="fill: #f8f8f1"/>
   </g>
   <g id="patch_32">
    <path d="M 78.76656 95.10912 
L 148.62096 95.10912 
L 148.62096 80.91648 
L 78.76656 80.91648 
z
" clip-path="url(#ped4d1be22a)" style="fill: #f6f7ef"/>
   </g>
   <g id="patch_33">
    <path d="M 151.94736 95.10912 
L 163.9224 95.10912 
L 163.9224 80.91648 
L 151.94736 80.91648 
z
" clip-path="url(#ped4d1be22a)" style="fill: #f6f6ef"/>
   </g>
   <g id="patch_34">
    <path d="M 167.2488 95.10912 
L 179.00208 95.10912 
L 179.00208 80.91648 
L 167.2488 80.91648 
z
" clip-path="url(#ped4d1be22a)" style="fill: #f7f8f1"/>
   </g>
   <g id="patch_35">
    <path d="M 182.32848 95.10912 
L 182.772 95.10912 
L 182.772 80.91648 
L 182.32848 80.91648 
z
" clip-path="url(#ped4d1be22a)" style="fill: #f7f7ef"/>
   </g>
   <g id="patch_36">
    <path d="M 38.628 76.70304 
L 42.61968 76.70304 
L 42.61968 25.92 
L 38.628 25.92 
z
" clip-path="url(#ped4d1be22a)" style="fill: #f8f8f1"/>
   </g>
   <g id="patch_37">
    <path d="M 45.94608 76.70304 
L 56.81232 76.70304 
L 56.81232 61.17984 
L 45.94608 61.17984 
z
" clip-path="url(#ped4d1be22a)" style="fill: #fafaf5"/>
   </g>
   <g id="patch_38">
    <path d="M 60.13872 76.70304 
L 75.44016 76.70304 
L 75.44016 25.92 
L 60.13872 25.92 
z
" clip-path="url(#ped4d1be22a)" style="fill: #f8f9f3"/>
   </g>
   <g id="patch_39">
    <path d="M 78.76656 76.70304 
L 148.62096 76.70304 
L 148.62096 43.21728 
L 78.76656 43.21728 
z
" clip-path="url(#ped4d1be22a)" style="fill: #f7f8f0"/>
   </g>
   <g id="patch_40">
    <path d="M 151.94736 76.70304 
L 163.9224 76.70304 
L 163.9224 61.84512 
L 151.94736 61.84512 
z
" clip-path="url(#ped4d1be22a)" style="fill: #f7f7f0"/>
   </g>
   <g id="patch_41">
    <path d="M 167.2488 76.70304 
L 179.00208 76.70304 
L 179.00208 61.84512 
L 167.2488 61.84512 
z
" clip-path="url(#ped4d1be22a)" style="fill: #f6f6f1"/>
   </g>
   <g id="patch_42">
    <path d="M 182.32848 76.70304 
L 182.772 76.70304 
L 182.772 61.84512 
L 182.32848 61.84512 
z
" clip-path="url(#ped4d1be22a)" style="fill: #f7f7ef"/>
   </g>
   <g id="patch_43">
    <path d="M 45.94608 60.95808 
L 56.81232 60.95808 
L 56.81232 50.53536 
L 45.94608 50.53536 
z
" clip-path="url(#ped4d1be22a)" style="fill: #e8140b"/>
   </g>
   <g id="patch_44">
    <path d="M 151.94736 57.63168 
L 163.9224 57.63168 
L 163.9224 43.21728 
L 151.94736 43.21728 
z
" clip-path="url(#ped4d1be22a)" style="fill: #f7f7f0"/>
   </g>
   <g id="patch_45">
    <path d="M 167.2488 57.63168 
L 179.00208 57.63168 
L 179.00208 43.21728 
L 167.2488 43.21728 
z
" clip-path="url(#ped4d1be22a)" style="fill: #f7f8f1"/>
   </g>
   <g id="patch_46">
    <path d="M 182.32848 57.63168 
L 182.772 57.63168 
L 182.772 43.21728 
L 182.32848 43.21728 
z
" clip-path="url(#ped4d1be22a)" style="fill: #f7f7ef"/>
   </g>
   <g id="patch_47">
    <path d="M 45.94608 50.75712 
L 56.81232 50.75712 
L 56.81232 25.92 
L 45.94608 25.92 
z
" clip-path="url(#ped4d1be22a)" style="fill: #fafaf5"/>
   </g>
   <g id="patch_48">
    <path d="M 78.76656 39.44736 
L 148.62096 39.44736 
L 148.62096 31.90752 
L 78.76656 31.90752 
z
" clip-path="url(#ped4d1be22a)" style="fill: #f6f7f0"/>
   </g>
   <g id="patch_49">
    <path d="M 151.94736 39.44736 
L 163.9224 39.44736 
L 163.9224 31.90752 
L 151.94736 31.90752 
z
" clip-path="url(#ped4d1be22a)" style="fill: #e51410"/>
   </g>
   <g id="patch_50">
    <path d="M 167.2488 39.44736 
L 179.00208 39.44736 
L 179.00208 31.90752 
L 167.2488 31.90752 
z
" clip-path="url(#ped4d1be22a)" style="fill: #e41111"/>
   </g>
   <g id="patch_51">
    <path d="M 182.32848 39.44736 
L 182.772 39.44736 
L 182.772 31.90752 
L 182.32848 31.90752 
z
" clip-path="url(#ped4d1be22a)" style="fill: #f7f8f1"/>
   </g>
   <g id="patch_52">
    <path d="M 78.76656 29.02464 
L 107.15184 29.02464 
L 107.15184 25.92 
L 78.76656 25.92 
z
" clip-path="url(#ped4d1be22a)" style="fill: #f9f9f4"/>
   </g>
   <g id="patch_53">
    <path d="M 106.93008 29.02464 
L 119.34864 29.02464 
L 119.34864 25.92 
L 106.93008 25.92 
z
" clip-path="url(#ped4d1be22a)" style="fill: #4366aa"/>
   </g>
   <g id="patch_54">
    <path d="M 119.34864 29.02464 
L 148.62096 29.02464 
L 148.62096 25.92 
L 119.34864 25.92 
z
" clip-path="url(#ped4d1be22a)" style="fill: #f7f7ee"/>
   </g>
   <g id="patch_55">
    <path d="M 151.94736 29.02464 
L 163.9224 29.02464 
L 163.9224 25.92 
L 151.94736 25.92 
z
" clip-path="url(#ped4d1be22a)" style="fill: #e31410"/>
   </g>
   <g id="patch_56">
    <path d="M 167.2488 29.02464 
L 179.00208 29.02464 
L 179.00208 25.92 
L 167.2488 25.92 
z
" clip-path="url(#ped4d1be22a)" style="fill: #e31312"/>
   </g>
   <g id="patch_57">
    <path d="M 182.32848 29.02464 
L 182.772 29.02464 
L 182.772 25.92 
L 182.32848 25.92 
z
" clip-path="url(#ped4d1be22a)" style="fill: #f7f8f1"/>
   </g>
   <g id="patch_58">
    <path d="M 42.61968 192.24 
L 45.94608 192.24 
L 45.94608 25.92 
L 42.61968 25.92 
z
" clip-path="url(#ped4d1be22a)"/>
   </g>
   <g id="patch_59">
    <path d="M 56.81232 192.24 
L 60.13872 192.24 
L 60.13872 25.92 
L 56.81232 25.92 
z
" clip-path="url(#ped4d1be22a)"/>
   </g>
   <g id="patch_60">
    <path d="M 75.44016 192.24 
L 78.76656 192.24 
L 78.76656 25.92 
L 75.44016 25.92 
z
" clip-path="url(#ped4d1be22a)"/>
   </g>
   <g id="patch_61">
    <path d="M 148.62096 192.24 
L 151.94736 192.24 
L 151.94736 25.92 
L 148.62096 25.92 
z
" clip-path="url(#ped4d1be22a)"/>
   </g>
   <g id="patch_62">
    <path d="M 163.9224 192.24 
L 167.2488 192.24 
L 167.2488 25.92 
L 163.9224 25.92 
z
" clip-path="url(#ped4d1be22a)"/>
   </g>
   <g id="patch_63">
    <path d="M 179.00208 192.24 
L 182.32848 192.24 
L 182.32848 25.92 
L 179.00208 25.92 
z
" clip-path="url(#ped4d1be22a)"/>
   </g>
   <g id="patch_64">
    <path d="M 78.76656 192.24 
L 148.62096 192.24 
L 148.62096 189.35712 
L 78.76656 189.35712 
z
" clip-path="url(#ped4d1be22a)"/>
   </g>
   <g id="patch_65">
    <path d="M 38.628 174.4992 
L 75.44016 174.4992 
L 75.44016 170.50752 
L 38.628 170.50752 
z
" clip-path="url(#ped4d1be22a)"/>
   </g>
   <g id="patch_66">
    <path d="M 38.628 160.52832 
L 56.81232 160.52832 
L 56.81232 154.98432 
L 38.628 154.98432 
z
" clip-path="url(#ped4d1be22a)"/>
   </g>
   <g id="patch_67">
    <path d="M 38.628 138.13056 
L 182.772 138.13056 
L 182.772 134.13888 
L 38.628 134.13888 
z
" clip-path="url(#ped4d1be22a)"/>
   </g>
   <g id="patch_68">
    <path d="M 38.628 106.8624 
L 182.772 106.8624 
L 182.772 102.87072 
L 38.628 102.87072 
z
" clip-path="url(#ped4d1be22a)"/>
   </g>
   <g id="patch_69">
    <path d="M 38.628 98.65728 
L 182.772 98.65728 
L 182.772 95.10912 
L 38.628 95.10912 
z
" clip-path="url(#ped4d1be22a)"/>
   </g>
   <g id="patch_70">
    <path d="M 38.628 80.91648 
L 182.772 80.91648 
L 182.772 76.70304 
L 38.628 76.70304 
z
" clip-path="url(#ped4d1be22a)"/>
   </g>
   <g id="patch_71">
    <path d="M 151.94736 61.84512 
L 182.772 61.84512 
L 182.772 57.63168 
L 151.94736 57.63168 
z
" clip-path="url(#ped4d1be22a)"/>
   </g>
   <g id="patch_72">
    <path d="M 78.76656 155.87136 
L 148.62096 155.87136 
L 148.62096 152.3232 
L 78.76656 152.3232 
z
" clip-path="url(#ped4d1be22a)"/>
   </g>
   <g id="patch_73">
    <path d="M 78.76656 43.21728 
L 182.772 43.21728 
L 182.772 39.44736 
L 78.76656 39.44736 
z
" clip-path="url(#ped4d1be22a)"/>
   </g>
   <g id="patch_74">
    <path d="M 78.76656 31.90752 
L 182.772 31.90752 
L 182.772 29.02464 
L 78.76656 29.02464 
z
" clip-path="url(#ped4d1be22a)"/>
   </g>
  </g>
  <g id="text_1">
   <!-- » Composition no. 5 « (b286) -->
   <g transform="translate(10.8 205.2) scale(0.12 -0.12)">
    <defs>
     <path id="DejaVuSans-bb" d="M 603 3309 
L 2069 2003 
L 2069 1747 
L 603 441 
L 603 1038 
L 1544 1875 
L 603 2713 
L 603 3309 
z
M 1959 3309 
L 3425 2003 
L 3425 1747 
L 1959 441 
L 1959 1038 
L 2900 1875 
L 1959 2713 
L 1959 3309 
z
" transform="scale(0.015625)"/>
     <path id="DejaVuSans-20" transform="scale(0.015625)"/>
     <path id="DejaVuSans-43" d="M 4122 4306 
L 4122 3641 
Q 3803 3938 3442 4084 
Q 3081 4231 2675 4231 
Q 1875 4231 1450 3742 
Q 1025 3253 1025 2328 
Q 1025 1406 1450 917 
Q 1875 428 2675 428 
Q 3081 428 3442 575 
Q 3803 722 4122 1019 
L 4122 359 
Q 3791 134 3420 21 
Q 3050 -91 2638 -91 
Q 1578 -91 968 557 
Q 359 1206 359 2328 
Q 359 3453 968 4101 
Q 1578 4750 2638 4750 
Q 3056 4750 3426 4639 
Q 3797 4528 4122 4306 
z
" transform="scale(0.015625)"/>
     <path id="DejaVuSans-6f" d="M 1959 3097 
Q 1497 3097 1228 2736 
Q 959 2375 959 1747 
Q 959 1119 1226 758 
Q 1494 397 1959 397 
Q 2419 397 2687 759 
Q 2956 1122 2956 1747 
Q 2956 2369 2687 2733 
Q 2419 3097 1959 3097 
z
M 1959 3584 
Q 2709 3584 3137 3096 
Q 3566 2609 3566 1747 
Q 3566 888 3137 398 
Q 2709 -91 1959 -91 
Q 1206 -91 779 398 
Q 353 888 353 1747 
Q 353 2609 779 3096 
Q 1206 3584 1959 3584 
z
" transform="scale(0.015625)"/>
     <path id="DejaVuSans-6d" d="M 3328 2828 
Q 3544 3216 3844 3400 
Q 4144 3584 4550 3584 
Q 5097 3584 5394 3201 
Q 5691 2819 5691 2113 
L 5691 0 
L 5113 0 
L 5113 2094 
Q 5113 2597 4934 2840 
Q 4756 3084 4391 3084 
Q 3944 3084 3684 2787 
Q 3425 2491 3425 1978 
L 3425 0 
L 2847 0 
L 2847 2094 
Q 2847 2600 2669 2842 
Q 2491 3084 2119 3084 
Q 1678 3084 1418 2786 
Q 1159 2488 1159 1978 
L 1159 0 
L 581 0 
L 581 3500 
L 1159 3500 
L 1159 2956 
Q 1356 3278 1631 3431 
Q 1906 3584 2284 3584 
Q 2666 3584 2933 3390 
Q 3200 3197 3328 2828 
z
" transform="scale(0.015625)"/>
     <path id="DejaVuSans-70" d="M 1159 525 
L 1159 -1331 
L 581 -1331 
L 581 3500 
L 1159 3500 
L 1159 2969 
Q 1341 3281 1617 3432 
Q 1894 3584 2278 3584 
Q 2916 3584 3314 3078 
Q 3713 2572 3713 1747 
Q 3713 922 3314 415 
Q 2916 -91 2278 -91 
Q 1894 -91 1617 61 
Q 1341 213 1159 525 
z
M 3116 1747 
Q 3116 2381 2855 2742 
Q 2594 3103 2138 3103 
Q 1681 3103 1420 2742 
Q 1159 2381 1159 1747 
Q 1159 1113 1420 752 
Q 1681 391 2138 391 
Q 2594 391 2855 752 
Q 3116 1113 3116 1747 
z
" transform="scale(0.015625)"/>
     <path id="DejaVuSans-73" d="M 2834 3397 
L 2834 2853 
Q 2591 2978 2328 3040 
Q 2066 3103 1784 3103 
Q 1356 3103 1142 2972 
Q 928 2841 928 2578 
Q 928 2378 1081 2264 
Q 1234 2150 1697 2047 
L 1894 2003 
Q 2506 1872 2764 1633 
Q 3022 1394 3022 966 
Q 3022 478 2636 193 
Q 2250 -91 1575 -91 
Q 1294 -91 989 -36 
Q 684 19 347 128 
L 347 722 
Q 666 556 975 473 
Q 1284 391 1588 391 
Q 1994 391 2212 530 
Q 2431 669 2431 922 
Q 2431 1156 2273 1281 
Q 2116 1406 1581 1522 
L 1381 1569 
Q 847 1681 609 1914 
Q 372 2147 372 2553 
Q 372 3047 722 3315 
Q 1072 3584 1716 3584 
Q 2034 3584 2315 3537 
Q 2597 3491 2834 3397 
z
" transform="scale(0.015625)"/>
     <path id="DejaVuSans-69" d="M 603 3500 
L 1178 3500 
L 1178 0 
L 603 0 
L 603 3500 
z
M 603 4863 
L 1178 4863 
L 1178 4134 
L 603 4134 
L 603 4863 
z
" transform="scale(0.015625)"/>
     <path id="DejaVuSans-74" d="M 1172 4494 
L 1172 3500 
L 2356 3500 
L 2356 3053 
L 1172 3053 
L 1172 1153 
Q 1172 725 1289 603 
Q 1406 481 1766 481 
L 2356 481 
L 2356 0 
L 1766 0 
Q 1100 0 847 248 
Q 594 497 594 1153 
L 594 3053 
L 172 3053 
L 172 3500 
L 594 3500 
L 594 4494 
L 1172 4494 
z
" transform="scale(0.015625)"/>
     <path id="DejaVuSans-6e" d="M 3513 2113 
L 3513 0 
L 2938 0 
L 2938 2094 
Q 2938 2591 2744 2837 
Q 2550 3084 2163 3084 
Q 1697 3084 1428 2787 
Q 1159 2491 1159 1978 
L 1159 0 
L 581 0 
L 581 3500 
L 1159 3500 
L 1159 2956 
Q 1366 3272 1645 3428 
Q 1925 3584 2291 3584 
Q 2894 3584 3203 3211 
Q 3513 2838 3513 2113 
z
" transform="scale(0.015625)"/>
     <path id="DejaVuSans-2e" d="M 684 794 
L 1344 794 
L 1344 0 
L 684 0 
L 684 794 
z
" transform="scale(0.015625)"/>
     <path id="DejaVuSans-35" d="M 691 4666 
L 3169 4666 
L 3169 4134 
L 1269 4134 
L 1269 2991 
Q 1406 3038 1543 3061 
Q 1681 3084 1819 3084 
Q 2600 3084 3056 2656 
Q 3513 2228 3513 1497 
Q 3513 744 3044 326 
Q 2575 -91 1722 -91 
Q 1428 -91 1123 -41 
Q 819 9 494 109 
L 494 744 
Q 775 591 1075 516 
Q 1375 441 1709 441 
Q 2250 441 2565 725 
Q 2881 1009 2881 1497 
Q 2881 1984 2565 2268 
Q 2250 2553 1709 2553 
Q 1456 2553 1204 2497 
Q 953 2441 691 2322 
L 691 4666 
z
" transform="scale(0.015625)"/>
     <path id="DejaVuSans-ab" d="M 3316 3309 
L 3316 2713 
L 2375 1875 
L 3316 1038 
L 3316 441 
L 1850 1747 
L 1850 2003 
L 3316 3309 
z
M 1959 3309 
L 1959 2713 
L 1019 1875 
L 1959 1038 
L 1959 441 
L 494 1747 
L 494 2003 
L 1959 3309 
z
" transform="scale(0.015625)"/>
     <path id="DejaVuSans-28" d="M 1984 4856 
Q 1566 4138 1362 3434 
Q 1159 2731 1159 2009 
Q 1159 1288 1364 580 
Q 1569 -128 1984 -844 
L 1484 -844 
Q 1016 -109 783 600 
Q 550 1309 550 2009 
Q 550 2706 781 3412 
Q 1013 4119 1484 4856 
L 1984 4856 
z
" transform="scale(0.015625)"/>
     <path id="DejaVuSans-62" d="M 3116 1747 
Q 3116 2381 2855 2742 
Q 2594 3103 2138 3103 
Q 1681 3103 1420 2742 
Q 1159 2381 1159 1747 
Q 1159 1113 1420 752 
Q 1681 391 2138 391 
Q 2594 391 2855 752 
Q 3116 1113 3116 1747 
z
M 1159 2969 
Q 1341 3281 1617 3432 
Q 1894 3584 2278 3584 
Q 2916 3584 3314 3078 
Q 3713 2572 3713 1747 
Q 3713 922 3314 415 
Q 2916 -91 2278 -91 
Q 1894 -91 1617 61 
Q 1341 213 1159 525 
L 1159 0 
L 581 0 
L 581 4863 
L 1159 4863 
L 1159 2969 
z
" transform="scale(0.015625)"/>
     <path id="DejaVuSans-32" d="M 1228 531 
L 3431 531 
L 3431 0 
L 469 0 
L 469 531 
Q 828 903 1448 1529 
Q 2069 2156 2228 2338 
Q 2531 2678 2651 2914 
Q 2772 3150 2772 3378 
Q 2772 3750 2511 3984 
Q 2250 4219 1831 4219 
Q 1534 4219 1204 4116 
Q 875 4013 500 3803 
L 500 4441 
Q 881 4594 1212 4672 
Q 1544 4750 1819 4750 
Q 2544 4750 2975 4387 
Q 3406 4025 3406 3419 
Q 3406 3131 3298 2873 
Q 3191 2616 2906 2266 
Q 2828 2175 2409 1742 
Q 1991 1309 1228 531 
z
" transform="scale(0.015625)"/>
     <path id="DejaVuSans-38" d="M 2034 2216 
Q 1584 2216 1326 1975 
Q 1069 1734 1069 1313 
Q 1069 891 1326 650 
Q 1584 409 2034 409 
Q 2484 409 2743 651 
Q 3003 894 3003 1313 
Q 3003 1734 2745 1975 
Q 2488 2216 2034 2216 
z
M 1403 2484 
Q 997 2584 770 2862 
Q 544 3141 544 3541 
Q 544 4100 942 4425 
Q 1341 4750 2034 4750 
Q 2731 4750 3128 4425 
Q 3525 4100 3525 3541 
Q 3525 3141 3298 2862 
Q 3072 2584 2669 2484 
Q 3125 2378 3379 2068 
Q 3634 1759 3634 1313 
Q 3634 634 3220 271 
Q 2806 -91 2034 -91 
Q 1263 -91 848 271 
Q 434 634 434 1313 
Q 434 1759 690 2068 
Q 947 2378 1403 2484 
z
M 1172 3481 
Q 1172 3119 1398 2916 
Q 1625 2713 2034 2713 
Q 2441 2713 2670 2916 
Q 2900 3119 2900 3481 
Q 2900 3844 2670 4047 
Q 2441 4250 2034 4250 
Q 1625 4250 1398 4047 
Q 1172 3844 1172 3481 
z
" transform="scale(0.015625)"/>
     <path id="DejaVuSans-36" d="M 2113 2584 
Q 1688 2584 1439 2293 
Q 1191 2003 1191 1497 
Q 1191 994 1439 701 
Q 1688 409 2113 409 
Q 2538 409 2786 701 
Q 3034 994 3034 1497 
Q 3034 2003 2786 2293 
Q 2538 2584 2113 2584 
z
M 3366 4563 
L 3366 3988 
Q 3128 4100 2886 4159 
Q 2644 4219 2406 4219 
Q 1781 4219 1451 3797 
Q 1122 3375 1075 2522 
Q 1259 2794 1537 2939 
Q 1816 3084 2150 3084 
Q 2853 3084 3261 2657 
Q 3669 2231 3669 1497 
Q 3669 778 3244 343 
Q 2819 -91 2113 -91 
Q 1303 -91 875 529 
Q 447 1150 447 2328 
Q 447 3434 972 4092 
Q 1497 4750 2381 4750 
Q 2619 4750 2861 4703 
Q 3103 4656 3366 4563 
z
" transform="scale(0.015625)"/>
     <path id="DejaVuSans-29" d="M 513 4856 
L 1013 4856 
Q 1481 4119 1714 3412 
Q 1947 2706 1947 2009 
Q 1947 1309 1714 600 
Q 1481 -109 1013 -844 
L 513 -844 
Q 928 -128 1133 580 
Q 1338 1288 1338 2009 
Q 1338 2731 1133 3434 
Q 928 4138 513 4856 
z
" transform="scale(0.015625)"/>
    </defs>
    <use xlink:href="#DejaVuSans-bb"/>
    <use xlink:href="#DejaVuSans-20" transform="translate(61.181641 0)"/>
    <use xlink:href="#DejaVuSans-43" transform="translate(92.96875 0)"/>
    <use xlink:href="#DejaVuSans-6f" transform="translate(162.792969 0)"/>
    <use xlink:href="#DejaVuSans-6d" transform="translate(223.974609 0)"/>
    <use xlink:href="#DejaVuSans-70" transform="translate(321.386719 0)"/>
    <use xlink:href="#DejaVuSans-6f" transform="translate(384.863281 0)"/>
    <use xlink:href="#DejaVuSans-73" transform="translate(446.044922 0)"/>
    <use xlink:href="#DejaVuSans-69" transform="translate(498.144531 0)"/>
    <use xlink:href="#DejaVuSans-74" transform="translate(525.927734 0)"/>
    <use xlink:href="#DejaVuSans-69" transform="translate(565.136719 0)"/>
    <use xlink:href="#DejaVuSans-6f" transform="translate(592.919922 0)"/>
    <use xlink:href="#DejaVuSans-6e" transform="translate(654.101562 0)"/>
    <use xlink:href="#DejaVuSans-20" transform="translate(717.480469 0)"/>
    <use xlink:href="#DejaVuSans-6e" transform="translate(749.267578 0)"/>
    <use xlink:href="#DejaVuSans-6f" transform="translate(812.646484 0)"/>
    <use xlink:href="#DejaVuSans-2e" transform="translate(872.078125 0)"/>
    <use xlink:href="#DejaVuSans-20" transform="translate(903.865234 0)"/>
    <use xlink:href="#DejaVuSans-35" transform="translate(935.652344 0)"/>
    <use xlink:href="#DejaVuSans-20" transform="translate(999.275391 0)"/>
    <use xlink:href="#DejaVuSans-ab" transform="translate(1031.0625 0)"/>
    <use xlink:href="#DejaVuSans-20" transform="translate(1092.244141 0)"/>
    <use xlink:href="#DejaVuSans-28" transform="translate(1124.03125 0)"/>
    <use xlink:href="#DejaVuSans-62" transform="translate(1163.044922 0)"/>
    <use xlink:href="#DejaVuSans-32" transform="translate(1226.521484 0)"/>
    <use xlink:href="#DejaVuSans-38" transform="translate(1290.144531 0)"/>
    <use xlink:href="#DejaVuSans-36" transform="translate(1353.767578 0)"/>
    <use xlink:href="#DejaVuSans-29" transform="translate(1417.390625 0)"/>
   </g>
  </g>
 </g>
 <defs>
  <clipPath id="ped4d1be22a">
   <rect x="38.628" y="25.92" width="144.144" height="166.32"/>
  </clipPath>
 </defs>
</svg>
