<?xml version="1.0" encoding="utf-8" standalone="no"?>
<!DOCTYPE svg PUBLIC "-//W3C//DTD SVG 1.1//EN"
  "http://www.w3.org/Graphics/SVG/1.1/DTD/svg11.dtd">
<svg xmlns:xlink="http://www.w3.org/1999/xlink" width="216pt" height="216pt" viewBox="0 0 216 216" xmlns="http://www.w3.org/2000/svg" version="1.1">
 <metadata>
  <rdf:RDF xmlns:dc="http://purl.org/dc/elements/1.1/" xmlns:cc="http://creativecommons.org/ns#" xmlns:rdf="http://www.w3.org/1999/02/22-rdf-syntax-ns#">
   <cc:Work>
    <dc:type rdf:resource="http://purl.org/dc/dcmitype/StillImage"/>
    <dc:date>2026-01-21T11:50:07.658570</dc:date>
    <dc:format>image/svg+xml</dc:format>
    <dc:creator>
     <cc:Agent>
      <dc:title>Matplotlib v3.10.8, https://matplotlib.org/</dc:title>
     </cc:Agent>
    </dc:creator>
   </cc:Work>
  </rdf:RDF>
 </metadata>
 <defs>
  <style type="text/css">*{stroke-linejoin: round; stroke-linecap: butt}</style>
 </defs>
 <g id="figure_1">
  <g id="patch_1">
   <path d="M 0 216 
L 216 216 
L 216 0 
L 0 0 
z
" style="fill: #ffffff; stroke: #000000; stroke-width: 10; stroke-linejoin: miter"/>
  </g>
  <g id="axes_1">
   <g id="patch_2">
    <path d="M 33.487453 192.24 
L 36.826374 192.24 
L 36.826374 144.034329 
L 33.487453 144.034329 
z
" clip-path="url(#pf66d6349da)" style="fill: #f5f5f6"/>
   </g>
   <g id="patch_3">
    <path d="M 39.956612 192.24 
L 89.623061 192.24 
L 89.623061 144.034329 
L 39.956612 144.034329 
z
" clip-path="url(#pf66d6349da)" style="fill: #f6f5f8"/>
   </g>
   <g id="patch_4">
    <path d="M 92.7533 192.24 
L 166.835609 192.24 
L 166.835609 144.034329 
L 92.7533 144.034329 
z
" clip-path="url(#pf66d6349da)" style="fill: #f8e71f"/>
   </g>
   <g id="patch_5">
    <path d="M 169.548482 192.24 
L 175.182911 192.24 
L 175.182911 144.034329 
L 169.548482 144.034329 
z
" clip-path="url(#pf66d6349da)" style="fill: #f6f5f6"/>
   </g>
   <g id="patch_6">
    <path d="M 177.895784 192.24 
L 183.321531 192.24 
L 183.321531 144.034329 
L 177.895784 144.034329 
z
" clip-path="url(#pf66d6349da)" style="fill: #f5f4f5"/>
   </g>
   <g id="patch_7">
    <path d="M 185.617039 192.24 
L 187.912547 192.24 
L 187.912547 144.034329 
L 185.617039 144.034329 
z
" clip-path="url(#pf66d6349da)" style="fill: #f5f2f4"/>
   </g>
   <g id="patch_8">
    <path d="M 33.487453 140.695408 
L 36.826374 140.695408 
L 36.826374 110.645119 
L 33.487453 110.645119 
z
" clip-path="url(#pf66d6349da)" style="fill: #f6f6f7"/>
   </g>
   <g id="patch_9">
    <path d="M 39.956612 140.695408 
L 89.623061 140.695408 
L 89.623061 110.645119 
L 39.956612 110.645119 
z
" clip-path="url(#pf66d6349da)" style="fill: #f6f6f8"/>
   </g>
   <g id="patch_10">
    <path d="M 92.7533 140.695408 
L 166.835609 140.695408 
L 166.835609 138.191217 
L 92.7533 138.191217 
z
" clip-path="url(#pf66d6349da)" style="fill: #fae71c"/>
   </g>
   <g id="patch_11">
    <path d="M 169.548482 140.695408 
L 175.182911 140.695408 
L 175.182911 110.645119 
L 169.548482 110.645119 
z
" clip-path="url(#pf66d6349da)" style="fill: #f6f6f6"/>
   </g>
   <g id="patch_12">
    <path d="M 177.895784 140.695408 
L 183.321531 140.695408 
L 183.321531 110.645119 
L 177.895784 110.645119 
z
" clip-path="url(#pf66d6349da)" style="fill: #f6f6f7"/>
   </g>
   <g id="patch_13">
    <path d="M 185.617039 140.695408 
L 187.912547 140.695408 
L 187.912547 110.645119 
L 185.617039 110.645119 
z
" clip-path="url(#pf66d6349da)" style="fill: #f4f4f5"/>
   </g>
   <g id="patch_14">
    <path d="M 92.7533 135.478344 
L 166.835609 135.478344 
L 166.835609 110.645119 
L 92.7533 110.645119 
z
" clip-path="url(#pf66d6349da)" style="fill: #f6f6f7"/>
   </g>
   <g id="patch_15">
    <path d="M 42.669486 110.853802 
L 46.843137 110.853802 
L 46.843137 92.489737 
L 42.669486 92.489737 
z
" clip-path="url(#pf66d6349da)" style="fill: #eb0f10"/>
   </g>
   <g id="patch_16">
    <path d="M 33.487453 107.514881 
L 36.826374 107.514881 
L 36.826374 103.967277 
L 33.487453 103.967277 
z
" clip-path="url(#pf66d6349da)" style="fill: #f4f5f6"/>
   </g>
   <g id="patch_17">
    <path d="M 39.956612 107.514881 
L 42.669486 107.514881 
L 42.669486 103.967277 
L 39.956612 103.967277 
z
" clip-path="url(#pf66d6349da)" style="fill: #f6f5f9"/>
   </g>
   <g id="patch_18">
    <path d="M 46.843137 107.514881 
L 89.623061 107.514881 
L 89.623061 103.967277 
L 46.843137 103.967277 
z
" clip-path="url(#pf66d6349da)" style="fill: #f6f6f7"/>
   </g>
   <g id="patch_19">
    <path d="M 92.7533 107.514881 
L 166.835609 107.514881 
L 166.835609 103.967277 
L 92.7533 103.967277 
z
" clip-path="url(#pf66d6349da)" style="fill: #f7f7f8"/>
   </g>
   <g id="patch_20">
    <path d="M 169.548482 107.514881 
L 175.182911 107.514881 
L 175.182911 103.967277 
L 169.548482 103.967277 
z
" clip-path="url(#pf66d6349da)" style="fill: #f5f4f5"/>
   </g>
   <g id="patch_21">
    <path d="M 177.895784 107.514881 
L 183.321531 107.514881 
L 183.321531 103.967277 
L 177.895784 103.967277 
z
" clip-path="url(#pf66d6349da)" style="fill: #f6f6f7"/>
   </g>
   <g id="patch_22">
    <path d="M 185.617039 107.514881 
L 187.912547 107.514881 
L 187.912547 103.967277 
L 185.617039 103.967277 
z
" clip-path="url(#pf66d6349da)" style="fill: #f3f1f3"/>
   </g>
   <g id="patch_23">
    <path d="M 33.487453 100.837039 
L 36.826374 100.837039 
L 36.826374 95.619975 
L 33.487453 95.619975 
z
" clip-path="url(#pf66d6349da)" style="fill: #f3f3f4"/>
   </g>
   <g id="patch_24">
    <path d="M 39.956612 100.837039 
L 42.669486 100.837039 
L 42.669486 95.619975 
L 39.956612 95.619975 
z
" clip-path="url(#pf66d6349da)" style="fill: #f7f7f8"/>
   </g>
   <g id="patch_25">
    <path d="M 46.843137 100.837039 
L 89.623061 100.837039 
L 89.623061 95.619975 
L 46.843137 95.619975 
z
" clip-path="url(#pf66d6349da)" style="fill: #f6f6f7"/>
   </g>
   <g id="patch_26">
    <path d="M 92.7533 100.837039 
L 166.835609 100.837039 
L 166.835609 95.619975 
L 92.7533 95.619975 
z
" clip-path="url(#pf66d6349da)" style="fill: #f6f4f6"/>
   </g>
   <g id="patch_27">
    <path d="M 169.548482 100.837039 
L 175.182911 100.837039 
L 175.182911 95.619975 
L 169.548482 95.619975 
z
" clip-path="url(#pf66d6349da)" style="fill: #f7f6f7"/>
   </g>
   <g id="patch_28">
    <path d="M 177.895784 100.837039 
L 183.321531 100.837039 
L 183.321531 95.619975 
L 177.895784 95.619975 
z
" clip-path="url(#pf66d6349da)" style="fill: #f6f6f7"/>
   </g>
   <g id="patch_29">
    <path d="M 185.617039 100.837039 
L 187.912547 100.837039 
L 187.912547 95.619975 
L 185.617039 95.619975 
z
" clip-path="url(#pf66d6349da)" style="fill: #f5f2f5"/>
   </g>
   <g id="patch_30">
    <path d="M 33.487453 92.489737 
L 36.826374 92.489737 
L 36.826374 67.239147 
L 33.487453 67.239147 
z
" clip-path="url(#pf66d6349da)" style="fill: #f5f5f6"/>
   </g>
   <g id="patch_31">
    <path d="M 39.956612 92.489737 
L 89.623061 92.489737 
L 89.623061 25.92 
L 39.956612 25.92 
z
" clip-path="url(#pf66d6349da)" style="fill: #f5f4f5"/>
   </g>
   <g id="patch_32">
    <path d="M 92.7533 92.489737 
L 166.835609 92.489737 
L 166.835609 69.11729 
L 92.7533 69.11729 
z
" clip-path="url(#pf66d6349da)" style="fill: #f6f4f6"/>
   </g>
   <g id="patch_33">
    <path d="M 169.548482 92.489737 
L 175.182911 92.489737 
L 175.182911 87.481355 
L 169.548482 87.481355 
z
" clip-path="url(#pf66d6349da)" style="fill: #f9f3f8"/>
   </g>
   <g id="patch_34">
    <path d="M 177.895784 92.489737 
L 183.321531 92.489737 
L 183.321531 33.432572 
L 177.895784 33.432572 
z
" clip-path="url(#pf66d6349da)" style="fill: #f6f5f9"/>
   </g>
   <g id="patch_35">
    <path d="M 185.617039 92.489737 
L 187.912547 92.489737 
L 187.912547 33.432572 
L 185.617039 33.432572 
z
" clip-path="url(#pf66d6349da)" style="fill: #f6f3f5"/>
   </g>
   <g id="patch_36">
    <path d="M 169.548482 87.481355 
L 175.182911 87.481355 
L 175.182911 81.846926 
L 169.548482 81.846926 
z
" clip-path="url(#pf66d6349da)" style="fill: #eb060e"/>
   </g>
   <g id="patch_37">
    <path d="M 169.548482 81.846926 
L 175.182911 81.846926 
L 175.182911 69.11729 
L 169.548482 69.11729 
z
" clip-path="url(#pf66d6349da)" style="fill: #f5f5f6"/>
   </g>
   <g id="patch_38">
    <path d="M 92.7533 65.152321 
L 166.835609 65.152321 
L 166.835609 33.432572 
L 92.7533 33.432572 
z
" clip-path="url(#pf66d6349da)" style="fill: #f5f4f6"/>
   </g>
   <g id="patch_39">
    <path d="M 169.548482 65.152321 
L 175.182911 65.152321 
L 175.182911 61.396035 
L 169.548482 61.396035 
z
" clip-path="url(#pf66d6349da)" style="fill: #f3f3f2"/>
   </g>
   <g id="patch_40">
    <path d="M 33.487453 61.396035 
L 36.826374 61.396035 
L 36.826374 25.92 
L 33.487453 25.92 
z
" clip-path="url(#pf66d6349da)" style="fill: #f4f3f4"/>
   </g>
   <g id="patch_41">
    <path d="M 169.548482 61.187353 
L 175.182911 61.187353 
L 175.182911 55.970289 
L 169.548482 55.970289 
z
" clip-path="url(#pf66d6349da)" style="fill: #e20708"/>
   </g>
   <g id="patch_42">
    <path d="M 169.548482 56.178971 
L 175.182911 56.178971 
L 175.182911 33.432572 
L 169.548482 33.432572 
z
" clip-path="url(#pf66d6349da)" style="fill: #f4f3f6"/>
   </g>
   <g id="patch_43">
    <path d="M 92.7533 30.511016 
L 127.394605 30.511016 
L 127.394605 25.92 
L 92.7533 25.92 
z
" clip-path="url(#pf66d6349da)" style="fill: #f4f2f3"/>
   </g>
   <g id="patch_44">
    <path d="M 127.185922 30.511016 
L 134.072447 30.511016 
L 134.072447 25.92 
L 127.185922 25.92 
z
" clip-path="url(#pf66d6349da)" style="fill: #ea0e0f"/>
   </g>
   <g id="patch_45">
    <path d="M 134.072447 30.511016 
L 166.835609 30.511016 
L 166.835609 25.92 
L 134.072447 25.92 
z
" clip-path="url(#pf66d6349da)" style="fill: #f5f2f3"/>
   </g>
   <g id="patch_46">
    <path d="M 169.548482 30.511016 
L 175.182911 30.511016 
L 175.182911 25.92 
L 169.548482 25.92 
z
" clip-path="url(#pf66d6349da)" style="fill: #f3f1f2"/>
   </g>
   <g id="patch_47">
    <path d="M 177.895784 30.511016 
L 183.321531 30.511016 
L 183.321531 25.92 
L 177.895784 25.92 
z
" clip-path="url(#pf66d6349da)" style="fill: #f4eef4"/>
   </g>
   <g id="patch_48">
    <path d="M 185.617039 30.511016 
L 187.912547 30.511016 
L 187.912547 25.92 
L 185.617039 25.92 
z
" clip-path="url(#pf66d6349da)" style="fill: #f3f2f3"/>
   </g>
   <g id="patch_49">
    <path d="M 36.826374 192.24 
L 39.956612 192.24 
L 39.956612 25.92 
L 36.826374 25.92 
z
" clip-path="url(#pf66d6349da)"/>
   </g>
   <g id="patch_50">
    <path d="M 89.623061 192.24 
L 92.7533 192.24 
L 92.7533 25.92 
L 89.623061 25.92 
z
" clip-path="url(#pf66d6349da)"/>
   </g>
   <g id="patch_51">
    <path d="M 33.487453 144.034329 
L 187.912547 144.034329 
L 187.912547 140.695408 
L 33.487453 140.695408 
z
" clip-path="url(#pf66d6349da)"/>
   </g>
   <g id="patch_52">
    <path d="M 33.487453 110.645119 
L 42.669486 110.645119 
L 42.669486 107.514881 
L 33.487453 107.514881 
z
" clip-path="url(#pf66d6349da)"/>
   </g>
   <g id="patch_53">
    <path d="M 46.843137 110.645119 
L 187.912547 110.645119 
L 187.912547 107.514881 
L 46.843137 107.514881 
z
" clip-path="url(#pf66d6349da)"/>
   </g>
   <g id="patch_54">
    <path d="M 46.843137 103.967277 
L 187.912547 103.967277 
L 187.912547 100.837039 
L 46.843137 100.837039 
z
" clip-path="url(#pf66d6349da)"/>
   </g>
   <g id="patch_55">
    <path d="M 46.843137 95.619975 
L 187.912547 95.619975 
L 187.912547 92.489737 
L 46.843137 92.489737 
z
" clip-path="url(#pf66d6349da)"/>
   </g>
   <g id="patch_56">
    <path d="M 92.7533 69.11729 
L 175.182911 69.11729 
L 175.182911 65.152321 
L 92.7533 65.152321 
z
" clip-path="url(#pf66d6349da)"/>
   </g>
   <g id="patch_57">
    <path d="M 92.7533 138.191217 
L 166.835609 138.191217 
L 166.835609 135.478344 
L 92.7533 135.478344 
z
" clip-path="url(#pf66d6349da)"/>
   </g>
   <g id="patch_58">
    <path d="M 166.835609 192.24 
L 169.548482 192.24 
L 169.548482 25.92 
L 166.835609 25.92 
z
" clip-path="url(#pf66d6349da)"/>
   </g>
   <g id="patch_59">
    <path d="M 175.182911 192.24 
L 177.895784 192.24 
L 177.895784 25.92 
L 175.182911 25.92 
z
" clip-path="url(#pf66d6349da)"/>
   </g>
   <g id="patch_60">
    <path d="M 183.321531 192.24 
L 185.617039 192.24 
L 185.617039 25.92 
L 183.321531 25.92 
z
" clip-path="url(#pf66d6349da)"/>
   </g>
   <g id="patch_61">
    <path d="M 33.487453 103.967277 
L 42.669486 103.967277 
L 42.669486 100.837039 
L 33.487453 100.837039 
z
" clip-path="url(#pf66d6349da)"/>
   </g>
   <g id="patch_62">
    <path d="M 33.487453 95.619975 
L 42.669486 95.619975 
L 42.669486 92.489737 
L 33.487453 92.489737 
z
" clip-path="url(#pf66d6349da)"/>
   </g>
   <g id="patch_63">
    <path d="M 33.487453 67.239147 
L 36.826374 67.239147 
L 36.826374 61.396035 
L 33.487453 61.396035 
z
" clip-path="url(#pf66d6349da)"/>
   </g>
   <g id="patch_64">
    <path d="M 92.7533 33.432572 
L 187.912547 33.432572 
L 187.912547 30.511016 
L 92.7533 30.511016 
z
" clip-path="url(#pf66d6349da)"/>
   </g>
  </g>
  <g id="text_1">
   <!-- » Composition no. 9 « (b287) -->
   <g transform="translate(10.8 205.2) scale(0.12 -0.12)">
    <defs>
     <path id="DejaVuSans-bb" d="M 603 3309 
L 2069 2003 
L 2069 1747 
L 603 441 
L 603 1038 
L 1544 1875 
L 603 2713 
L 603 3309 
z
M 1959 3309 
L 3425 2003 
L 3425 1747 
L 1959 441 
L 1959 1038 
L 2900 1875 
L 1959 2713 
L 1959 3309 
z
" transform="scale(0.015625)"/>
     <path id="DejaVuSans-20" transform="scale(0.015625)"/>
     <path id="DejaVuSans-43" d="M 4122 4306 
L 4122 3641 
Q 3803 3938 3442 4084 
Q 3081 4231 2675 4231 
Q 1875 4231 1450 3742 
Q 1025 3253 1025 2328 
Q 1025 1406 1450 917 
Q 1875 428 2675 428 
Q 3081 428 3442 575 
Q 3803 722 4122 1019 
L 4122 359 
Q 3791 134 3420 21 
Q 3050 -91 2638 -91 
Q 1578 -91 968 557 
Q 359 1206 359 2328 
Q 359 3453 968 4101 
Q 1578 4750 2638 4750 
Q 3056 4750 3426 4639 
Q 3797 4528 4122 4306 
z
" transform="scale(0.015625)"/>
     <path id="DejaVuSans-6f" d="M 1959 3097 
Q 1497 3097 1228 2736 
Q 959 2375 959 1747 
Q 959 1119 1226 758 
Q 1494 397 1959 397 
Q 2419 397 2687 759 
Q 2956 1122 2956 1747 
Q 2956 2369 2687 2733 
Q 2419 3097 1959 3097 
z
M 1959 3584 
Q 2709 3584 3137 3096 
Q 3566 2609 3566 1747 
Q 3566 888 3137 398 
Q 2709 -91 1959 -91 
Q 1206 -91 779 398 
Q 353 888 353 1747 
Q 353 2609 779 3096 
Q 1206 3584 1959 3584 
z
" transform="scale(0.015625)"/>
     <path id="DejaVuSans-6d" d="M 3328 2828 
Q 3544 3216 3844 3400 
Q 4144 3584 4550 3584 
Q 5097 3584 5394 3201 
Q 5691 2819 5691 2113 
L 5691 0 
L 5113 0 
L 5113 2094 
Q 5113 2597 4934 2840 
Q 4756 3084 4391 3084 
Q 3944 3084 3684 2787 
Q 3425 2491 3425 1978 
L 3425 0 
L 2847 0 
L 2847 2094 
Q 2847 2600 2669 2842 
Q 2491 3084 2119 3084 
Q 1678 3084 1418 2786 
Q 1159 2488 1159 1978 
L 1159 0 
L 581 0 
L 581 3500 
L 1159 3500 
L 1159 2956 
Q 1356 3278 1631 3431 
Q 1906 3584 2284 3584 
Q 2666 3584 2933 3390 
Q 3200 3197 3328 2828 
z
" transform="scale(0.015625)"/>
     <path id="DejaVuSans-70" d="M 1159 525 
L 1159 -1331 
L 581 -1331 
L 581 3500 
L 1159 3500 
L 1159 2969 
Q 1341 3281 1617 3432 
Q 1894 3584 2278 3584 
Q 2916 3584 3314 3078 
Q 3713 2572 3713 1747 
Q 3713 922 3314 415 
Q 2916 -91 2278 -91 
Q 1894 -91 1617 61 
Q 1341 213 1159 525 
z
M 3116 1747 
Q 3116 2381 2855 2742 
Q 2594 3103 2138 3103 
Q 1681 3103 1420 2742 
Q 1159 2381 1159 1747 
Q 1159 1113 1420 752 
Q 1681 391 2138 391 
Q 2594 391 2855 752 
Q 3116 1113 3116 1747 
z
" transform="scale(0.015625)"/>
     <path id="DejaVuSans-73" d="M 2834 3397 
L 2834 2853 
Q 2591 2978 2328 3040 
Q 2066 3103 1784 3103 
Q 1356 3103 1142 2972 
Q 928 2841 928 2578 
Q 928 2378 1081 2264 
Q 1234 2150 1697 2047 
L 1894 2003 
Q 2506 1872 2764 1633 
Q 3022 1394 3022 966 
Q 3022 478 2636 193 
Q 2250 -91 1575 -91 
Q 1294 -91 989 -36 
Q 684 19 347 128 
L 347 722 
Q 666 556 975 473 
Q 1284 391 1588 391 
Q 1994 391 2212 530 
Q 2431 669 2431 922 
Q 2431 1156 2273 1281 
Q 2116 1406 1581 1522 
L 1381 1569 
Q 847 1681 609 1914 
Q 372 2147 372 2553 
Q 372 3047 722 3315 
Q 1072 3584 1716 3584 
Q 2034 3584 2315 3537 
Q 2597 3491 2834 3397 
z
" transform="scale(0.015625)"/>
     <path id="DejaVuSans-69" d="M 603 3500 
L 1178 3500 
L 1178 0 
L 603 0 
L 603 3500 
z
M 603 4863 
L 1178 4863 
L 1178 4134 
L 603 4134 
L 603 4863 
z
" transform="scale(0.015625)"/>
     <path id="DejaVuSans-74" d="M 1172 4494 
L 1172 3500 
L 2356 3500 
L 2356 3053 
L 1172 3053 
L 1172 1153 
Q 1172 725 1289 603 
Q 1406 481 1766 481 
L 2356 481 
L 2356 0 
L 1766 0 
Q 1100 0 847 248 
Q 594 497 594 1153 
L 594 3053 
L 172 3053 
L 172 3500 
L 594 3500 
L 594 4494 
L 1172 4494 
z
" transform="scale(0.015625)"/>
     <path id="DejaVuSans-6e" d="M 3513 2113 
L 3513 0 
L 2938 0 
L 2938 2094 
Q 2938 2591 2744 2837 
Q 2550 3084 2163 3084 
Q 1697 3084 1428 2787 
Q 1159 2491 1159 1978 
L 1159 0 
L 581 0 
L 581 3500 
L 1159 3500 
L 1159 2956 
Q 1366 3272 1645 3428 
Q 1925 3584 2291 3584 
Q 2894 3584 3203 3211 
Q 3513 2838 3513 2113 
z
" transform="scale(0.015625)"/>
     <path id="DejaVuSans-2e" d="M 684 794 
L 1344 794 
L 1344 0 
L 684 0 
L 684 794 
z
" transform="scale(0.015625)"/>
     <path id="DejaVuSans-39" d="M 703 97 
L 703 672 
Q 941 559 1184 500 
Q 1428 441 1663 441 
Q 2288 441 2617 861 
Q 2947 1281 2994 2138 
Q 2813 1869 2534 1725 
Q 2256 1581 1919 1581 
Q 1219 1581 811 2004 
Q 403 2428 403 3163 
Q 403 3881 828 4315 
Q 1253 4750 1959 4750 
Q 2769 4750 3195 4129 
Q 3622 3509 3622 2328 
Q 3622 1225 3098 567 
Q 2575 -91 1691 -91 
Q 1453 -91 1209 -44 
Q 966 3 703 97 
z
M 1959 2075 
Q 2384 2075 2632 2365 
Q 2881 2656 2881 3163 
Q 2881 3666 2632 3958 
Q 2384 4250 1959 4250 
Q 1534 4250 1286 3958 
Q 1038 3666 1038 3163 
Q 1038 2656 1286 2365 
Q 1534 2075 1959 2075 
z
" transform="scale(0.015625)"/>
     <path id="DejaVuSans-ab" d="M 3316 3309 
L 3316 2713 
L 2375 1875 
L 3316 1038 
L 3316 441 
L 1850 1747 
L 1850 2003 
L 3316 3309 
z
M 1959 3309 
L 1959 2713 
L 1019 1875 
L 1959 1038 
L 1959 441 
L 494 1747 
L 494 2003 
L 1959 3309 
z
" transform="scale(0.015625)"/>
     <path id="DejaVuSans-28" d="M 1984 4856 
Q 1566 4138 1362 3434 
Q 1159 2731 1159 2009 
Q 1159 1288 1364 580 
Q 1569 -128 1984 -844 
L 1484 -844 
Q 1016 -109 783 600 
Q 550 1309 550 2009 
Q 550 2706 781 3412 
Q 1013 4119 1484 4856 
L 1984 4856 
z
" transform="scale(0.015625)"/>
     <path id="DejaVuSans-62" d="M 3116 1747 
Q 3116 2381 2855 2742 
Q 2594 3103 2138 3103 
Q 1681 3103 1420 2742 
Q 1159 2381 1159 1747 
Q 1159 1113 1420 752 
Q 1681 391 2138 391 
Q 2594 391 2855 752 
Q 3116 1113 3116 1747 
z
M 1159 2969 
Q 1341 3281 1617 3432 
Q 1894 3584 2278 3584 
Q 2916 3584 3314 3078 
Q 3713 2572 3713 1747 
Q 3713 922 3314 415 
Q 2916 -91 2278 -91 
Q 1894 -91 1617 61 
Q 1341 213 1159 525 
L 1159 0 
L 581 0 
L 581 4863 
L 1159 4863 
L 1159 2969 
z
" transform="scale(0.015625)"/>
     <path id="DejaVuSans-32" d="M 1228 531 
L 3431 531 
L 3431 0 
L 469 0 
L 469 531 
Q 828 903 1448 1529 
Q 2069 2156 2228 2338 
Q 2531 2678 2651 2914 
Q 2772 3150 2772 3378 
Q 2772 3750 2511 3984 
Q 2250 4219 1831 4219 
Q 1534 4219 1204 4116 
Q 875 4013 500 3803 
L 500 4441 
Q 881 4594 1212 4672 
Q 1544 4750 1819 4750 
Q 2544 4750 2975 4387 
Q 3406 4025 3406 3419 
Q 3406 3131 3298 2873 
Q 3191 2616 2906 2266 
Q 2828 2175 2409 1742 
Q 1991 1309 1228 531 
z
" transform="scale(0.015625)"/>
     <path id="DejaVuSans-38" d="M 2034 2216 
Q 1584 2216 1326 1975 
Q 1069 1734 1069 1313 
Q 1069 891 1326 650 
Q 1584 409 2034 409 
Q 2484 409 2743 651 
Q 3003 894 3003 1313 
Q 3003 1734 2745 1975 
Q 2488 2216 2034 2216 
z
M 1403 2484 
Q 997 2584 770 2862 
Q 544 3141 544 3541 
Q 544 4100 942 4425 
Q 1341 4750 2034 4750 
Q 2731 4750 3128 4425 
Q 3525 4100 3525 3541 
Q 3525 3141 3298 2862 
Q 3072 2584 2669 2484 
Q 3125 2378 3379 2068 
Q 3634 1759 3634 1313 
Q 3634 634 3220 271 
Q 2806 -91 2034 -91 
Q 1263 -91 848 271 
Q 434 634 434 1313 
Q 434 1759 690 2068 
Q 947 2378 1403 2484 
z
M 1172 3481 
Q 1172 3119 1398 2916 
Q 1625 2713 2034 2713 
Q 2441 2713 2670 2916 
Q 2900 3119 2900 3481 
Q 2900 3844 2670 4047 
Q 2441 4250 2034 4250 
Q 1625 4250 1398 4047 
Q 1172 3844 1172 3481 
z
" transform="scale(0.015625)"/>
     <path id="DejaVuSans-37" d="M 525 4666 
L 3525 4666 
L 3525 4397 
L 1831 0 
L 1172 0 
L 2766 4134 
L 525 4134 
L 525 4666 
z
" transform="scale(0.015625)"/>
     <path id="DejaVuSans-29" d="M 513 4856 
L 1013 4856 
Q 1481 4119 1714 3412 
Q 1947 2706 1947 2009 
Q 1947 1309 1714 600 
Q 1481 -109 1013 -844 
L 513 -844 
Q 928 -128 1133 580 
Q 1338 1288 1338 2009 
Q 1338 2731 1133 3434 
Q 928 4138 513 4856 
z
" transform="scale(0.015625)"/>
    </defs>
    <use xlink:href="#DejaVuSans-bb"/>
    <use xlink:href="#DejaVuSans-20" transform="translate(61.181641 0)"/>
    <use xlink:href="#DejaVuSans-43" transform="translate(92.96875 0)"/>
    <use xlink:href="#DejaVuSans-6f" transform="translate(162.792969 0)"/>
    <use xlink:href="#DejaVuSans-6d" transform="translate(223.974609 0)"/>
    <use xlink:href="#DejaVuSans-70" transform="translate(321.386719 0)"/>
    <use xlink:href="#DejaVuSans-6f" transform="translate(384.863281 0)"/>
    <use xlink:href="#DejaVuSans-73" transform="translate(446.044922 0)"/>
    <use xlink:href="#DejaVuSans-69" transform="translate(498.144531 0)"/>
    <use xlink:href="#DejaVuSans-74" transform="translate(525.927734 0)"/>
    <use xlink:href="#DejaVuSans-69" transform="translate(565.136719 0)"/>
    <use xlink:href="#DejaVuSans-6f" transform="translate(592.919922 0)"/>
    <use xlink:href="#DejaVuSans-6e" transform="translate(654.101562 0)"/>
    <use xlink:href="#DejaVuSans-20" transform="translate(717.480469 0)"/>
    <use xlink:href="#DejaVuSans-6e" transform="translate(749.267578 0)"/>
    <use xlink:href="#DejaVuSans-6f" transform="translate(812.646484 0)"/>
    <use xlink:href="#DejaVuSans-2e" transform="translate(872.078125 0)"/>
    <use xlink:href="#DejaVuSans-20" transform="translate(903.865234 0)"/>
    <use xlink:href="#DejaVuSans-39" transform="translate(935.652344 0)"/>
    <use xlink:href="#DejaVuSans-20" transform="translate(999.275391 0)"/>
    <use xlink:href="#DejaVuSans-ab" transform="translate(1031.0625 0)"/>
    <use xlink:href="#DejaVuSans-20" transform="translate(1092.244141 0)"/>
    <use xlink:href="#DejaVuSans-28" transform="translate(1124.03125 0)"/>
    <use xlink:href="#DejaVuSans-62" transform="translate(1163.044922 0)"/>
    <use xlink:href="#DejaVuSans-32" transform="translate(1226.521484 0)"/>
    <use xlink:href="#DejaVuSans-38" transform="translate(1290.144531 0)"/>
    <use xlink:href="#DejaVuSans-37" transform="translate(1353.767578 0)"/>
    <use xlink:href="#DejaVuSans-29" transform="translate(1417.390625 0)"/>
   </g>
  </g>
 </g>
 <defs>
  <clipPath id="pf66d6349da">
   <rect x="33.487453" y="25.92" width="154.425094" height="166.32"/>
  </clipPath>
 </defs>
</svg>
