<?xml version="1.0" encoding="utf-8" standalone="no"?>
<!DOCTYPE svg PUBLIC "-//W3C//DTD SVG 1.1//EN"
  "http://www.w3.org/Graphics/SVG/1.1/DTD/svg11.dtd">
<svg xmlns:xlink="http://www.w3.org/1999/xlink" width="216pt" height="216pt" viewBox="0 0 216 216" xmlns="http://www.w3.org/2000/svg" version="1.1">
 <metadata>
  <rdf:RDF xmlns:dc="http://purl.org/dc/elements/1.1/" xmlns:cc="http://creativecommons.org/ns#" xmlns:rdf="http://www.w3.org/1999/02/22-rdf-syntax-ns#">
   <cc:Work>
    <dc:type rdf:resource="http://purl.org/dc/dcmitype/StillImage"/>
    <dc:date>2026-01-21T11:50:07.759583</dc:date>
    <dc:format>image/svg+xml</dc:format>
    <dc:creator>
     <cc:Agent>
      <dc:title>Matplotlib v3.10.8, https://matplotlib.org/</dc:title>
     </cc:Agent>
    </dc:creator>
   </cc:Work>
  </rdf:RDF>
 </metadata>
 <defs>
  <style type="text/css">*{stroke-linejoin: round; stroke-linecap: butt}</style>
 </defs>
 <g id="figure_1">
  <g id="patch_1">
   <path d="M 0 216 
L 216 216 
L 216 0 
L 0 0 
z
" style="fill: #ffffff; stroke: #000000; stroke-width: 10; stroke-linejoin: miter"/>
  </g>
  <g id="axes_1">
   <g id="patch_2">
    <path d="M 41.972727 192.24 
L 44.836364 192.24 
L 44.836364 158.678182 
L 41.972727 158.678182 
z
" clip-path="url(#p4544f24e55)" style="fill: #eed907"/>
   </g>
   <g id="patch_3">
    <path d="M 47.7 192.24 
L 59.612727 192.24 
L 59.612727 158.678182 
L 47.7 158.678182 
z
" clip-path="url(#p4544f24e55)" style="fill: #ecdd01"/>
   </g>
   <g id="patch_4">
    <path d="M 62.82 192.24 
L 79.887273 192.24 
L 79.887273 158.678182 
L 62.82 158.678182 
z
" clip-path="url(#p4544f24e55)" style="fill: #efeeeb"/>
   </g>
   <g id="patch_5">
    <path d="M 83.094545 192.24 
L 161.214545 192.24 
L 161.214545 158.678182 
L 83.094545 158.678182 
z
" clip-path="url(#p4544f24e55)" style="fill: #f0f0ec"/>
   </g>
   <g id="patch_6">
    <path d="M 164.421818 192.24 
L 172.44 192.24 
L 172.44 158.678182 
L 164.421818 158.678182 
z
" clip-path="url(#p4544f24e55)" style="fill: #eeeeea"/>
   </g>
   <g id="patch_7">
    <path d="M 175.647273 192.24 
L 179.427273 192.24 
L 179.427273 158.678182 
L 175.647273 158.678182 
z
" clip-path="url(#p4544f24e55)" style="fill: #edede8"/>
   </g>
   <g id="patch_8">
    <path d="M 41.972727 155.356364 
L 44.836364 155.356364 
L 44.836364 131.645455 
L 41.972727 131.645455 
z
" clip-path="url(#p4544f24e55)" style="fill: #eff0e8"/>
   </g>
   <g id="patch_9">
    <path d="M 47.7 155.356364 
L 59.612727 155.356364 
L 59.612727 131.645455 
L 47.7 131.645455 
z
" clip-path="url(#p4544f24e55)" style="fill: #f0f1ed"/>
   </g>
   <g id="patch_10">
    <path d="M 62.82 155.356364 
L 79.887273 155.356364 
L 79.887273 131.645455 
L 62.82 131.645455 
z
" clip-path="url(#p4544f24e55)" style="fill: #f2f2ee"/>
   </g>
   <g id="patch_11">
    <path d="M 83.094545 155.356364 
L 161.214545 155.356364 
L 161.214545 131.645455 
L 83.094545 131.645455 
z
" clip-path="url(#p4544f24e55)" style="fill: #f3f3f0"/>
   </g>
   <g id="patch_12">
    <path d="M 164.421818 155.356364 
L 172.44 155.356364 
L 172.44 131.645455 
L 164.421818 131.645455 
z
" clip-path="url(#p4544f24e55)" style="fill: #f0f0ee"/>
   </g>
   <g id="patch_13">
    <path d="M 175.647273 155.356364 
L 179.427273 155.356364 
L 179.427273 131.645455 
L 175.647273 131.645455 
z
" clip-path="url(#p4544f24e55)" style="fill: #f0f0ec"/>
   </g>
   <g id="patch_14">
    <path d="M 41.972727 128.209091 
L 44.836364 128.209091 
L 44.836364 106.101818 
L 41.972727 106.101818 
z
" clip-path="url(#p4544f24e55)" style="fill: #edede8"/>
   </g>
   <g id="patch_15">
    <path d="M 47.7 128.209091 
L 59.612727 128.209091 
L 59.612727 106.101818 
L 47.7 106.101818 
z
" clip-path="url(#p4544f24e55)" style="fill: #efefeb"/>
   </g>
   <g id="patch_16">
    <path d="M 62.82 128.209091 
L 79.887273 128.209091 
L 79.887273 106.101818 
L 62.82 106.101818 
z
" clip-path="url(#p4544f24e55)" style="fill: #f1f1ee"/>
   </g>
   <g id="patch_17">
    <path d="M 83.094545 128.209091 
L 161.214545 128.209091 
L 161.214545 106.101818 
L 83.094545 106.101818 
z
" clip-path="url(#p4544f24e55)" style="fill: #f2f2ef"/>
   </g>
   <g id="patch_18">
    <path d="M 164.421818 128.209091 
L 172.44 128.209091 
L 172.44 106.101818 
L 164.421818 106.101818 
z
" clip-path="url(#p4544f24e55)" style="fill: #f0efee"/>
   </g>
   <g id="patch_19">
    <path d="M 175.647273 128.209091 
L 179.427273 128.209091 
L 179.427273 106.101818 
L 175.647273 106.101818 
z
" clip-path="url(#p4544f24e55)" style="fill: #f0f0eb"/>
   </g>
   <g id="patch_20">
    <path d="M 41.972727 102.665455 
L 44.836364 102.665455 
L 44.836364 79.756364 
L 41.972727 79.756364 
z
" clip-path="url(#p4544f24e55)" style="fill: #ecda01"/>
   </g>
   <g id="patch_21">
    <path d="M 47.7 102.665455 
L 59.612727 102.665455 
L 59.612727 79.756364 
L 47.7 79.756364 
z
" clip-path="url(#p4544f24e55)" style="fill: #efeeeb"/>
   </g>
   <g id="patch_22">
    <path d="M 62.82 102.665455 
L 79.887273 102.665455 
L 79.887273 79.756364 
L 62.82 79.756364 
z
" clip-path="url(#p4544f24e55)" style="fill: #dc110c"/>
   </g>
   <g id="patch_23">
    <path d="M 83.094545 102.665455 
L 161.214545 102.665455 
L 161.214545 79.756364 
L 83.094545 79.756364 
z
" clip-path="url(#p4544f24e55)" style="fill: #f0f0ee"/>
   </g>
   <g id="patch_24">
    <path d="M 164.421818 102.665455 
L 172.44 102.665455 
L 172.44 94.303636 
L 164.421818 94.303636 
z
" clip-path="url(#p4544f24e55)" style="fill: #efefed"/>
   </g>
   <g id="patch_25">
    <path d="M 175.647273 102.665455 
L 179.427273 102.665455 
L 179.427273 79.756364 
L 175.647273 79.756364 
z
" clip-path="url(#p4544f24e55)" style="fill: #3c64bb"/>
   </g>
   <g id="patch_26">
    <path d="M 164.421818 94.303636 
L 172.44 94.303636 
L 172.44 87.087273 
L 164.421818 87.087273 
z
" clip-path="url(#p4544f24e55)" style="fill: #111015"/>
   </g>
   <g id="patch_27">
    <path d="M 164.421818 87.087273 
L 172.44 87.087273 
L 172.44 79.756364 
L 164.421818 79.756364 
z
" clip-path="url(#p4544f24e55)" style="fill: #efeeed"/>
   </g>
   <g id="patch_28">
    <path d="M 41.972727 76.205455 
L 44.836364 76.205455 
L 44.836364 25.92 
L 41.972727 25.92 
z
" clip-path="url(#p4544f24e55)" style="fill: #ececea"/>
   </g>
   <g id="patch_29">
    <path d="M 47.7 76.205455 
L 59.612727 76.205455 
L 59.612727 67.729091 
L 47.7 67.729091 
z
" clip-path="url(#p4544f24e55)" style="fill: #eeeeeb"/>
   </g>
   <g id="patch_30">
    <path d="M 62.82 76.205455 
L 79.887273 76.205455 
L 79.887273 67.729091 
L 62.82 67.729091 
z
" clip-path="url(#p4544f24e55)" style="fill: #f0f0ec"/>
   </g>
   <g id="patch_31">
    <path d="M 83.094545 76.205455 
L 161.214545 76.205455 
L 161.214545 35.656364 
L 83.094545 35.656364 
z
" clip-path="url(#p4544f24e55)" style="fill: #f1f1ef"/>
   </g>
   <g id="patch_32">
    <path d="M 164.421818 76.205455 
L 172.44 76.205455 
L 172.44 69.561818 
L 164.421818 69.561818 
z
" clip-path="url(#p4544f24e55)" style="fill: #eeeeea"/>
   </g>
   <g id="patch_33">
    <path d="M 175.647273 76.205455 
L 179.427273 76.205455 
L 179.427273 25.92 
L 175.647273 25.92 
z
" clip-path="url(#p4544f24e55)" style="fill: #efeee9"/>
   </g>
   <g id="patch_34">
    <path d="M 164.421818 69.447273 
L 172.44 69.447273 
L 172.44 61.314545 
L 164.421818 61.314545 
z
" clip-path="url(#p4544f24e55)" style="fill: #d60f12"/>
   </g>
   <g id="patch_35">
    <path d="M 47.7 63.72 
L 59.612727 63.72 
L 59.612727 57.076364 
L 47.7 57.076364 
z
" clip-path="url(#p4544f24e55)" style="fill: #ebece8"/>
   </g>
   <g id="patch_36">
    <path d="M 62.82 63.72 
L 79.887273 63.72 
L 79.887273 54.327273 
L 62.82 54.327273 
z
" clip-path="url(#p4544f24e55)" style="fill: #efefec"/>
   </g>
   <g id="patch_37">
    <path d="M 164.421818 61.314545 
L 172.44 61.314545 
L 172.44 49.401818 
L 164.421818 49.401818 
z
" clip-path="url(#p4544f24e55)" style="fill: #ecece9"/>
   </g>
   <g id="patch_38">
    <path d="M 47.7 52.609091 
L 59.612727 52.609091 
L 59.612727 42.987273 
L 47.7 42.987273 
z
" clip-path="url(#p4544f24e55)" style="fill: #ebd503"/>
   </g>
   <g id="patch_39">
    <path d="M 62.82 49.058182 
L 79.887273 49.058182 
L 79.887273 25.92 
L 62.82 25.92 
z
" clip-path="url(#p4544f24e55)" style="fill: #ebede9"/>
   </g>
   <g id="patch_40">
    <path d="M 164.421818 49.401818 
L 172.44 49.401818 
L 172.44 41.154545 
L 164.421818 41.154545 
z
" clip-path="url(#p4544f24e55)" style="fill: #0f0e12"/>
   </g>
   <g id="patch_41">
    <path d="M 164.421818 41.154545 
L 172.44 41.154545 
L 172.44 35.656364 
L 164.421818 35.656364 
z
" clip-path="url(#p4544f24e55)" style="fill: #e9e9e5"/>
   </g>
   <g id="patch_42">
    <path d="M 47.7 39.207273 
L 59.612727 39.207273 
L 59.612727 25.92 
L 47.7 25.92 
z
" clip-path="url(#p4544f24e55)" style="fill: #ead502"/>
   </g>
   <g id="patch_43">
    <path d="M 83.094545 32.105455 
L 92.372727 32.105455 
L 92.372727 25.92 
L 83.094545 25.92 
z
" clip-path="url(#p4544f24e55)" style="fill: #375db5"/>
   </g>
   <g id="patch_44">
    <path d="M 92.372727 32.105455 
L 117.916364 32.105455 
L 117.916364 25.92 
L 92.372727 25.92 
z
" clip-path="url(#p4544f24e55)" style="fill: #ecebe6"/>
   </g>
   <g id="patch_45">
    <path d="M 117.916364 32.105455 
L 127.538182 32.105455 
L 127.538182 25.92 
L 117.916364 25.92 
z
" clip-path="url(#p4544f24e55)" style="fill: #d11013"/>
   </g>
   <g id="patch_46">
    <path d="M 127.538182 32.105455 
L 139.68 32.105455 
L 139.68 25.92 
L 127.538182 25.92 
z
" clip-path="url(#p4544f24e55)" style="fill: #eaeae6"/>
   </g>
   <g id="patch_47">
    <path d="M 139.68 32.105455 
L 147.469091 32.105455 
L 147.469091 25.92 
L 139.68 25.92 
z
" clip-path="url(#p4544f24e55)" style="fill: #101011"/>
   </g>
   <g id="patch_48">
    <path d="M 147.469091 32.105455 
L 161.214545 32.105455 
L 161.214545 25.92 
L 147.469091 25.92 
z
" clip-path="url(#p4544f24e55)" style="fill: #e9e8e4"/>
   </g>
   <g id="patch_49">
    <path d="M 164.421818 32.105455 
L 172.44 32.105455 
L 172.44 25.92 
L 164.421818 25.92 
z
" clip-path="url(#p4544f24e55)" style="fill: #e8d400"/>
   </g>
   <g id="patch_50">
    <path d="M 44.836364 192.24 
L 47.7 192.24 
L 47.7 25.92 
L 44.836364 25.92 
z
" clip-path="url(#p4544f24e55)"/>
   </g>
   <g id="patch_51">
    <path d="M 59.612727 192.24 
L 62.82 192.24 
L 62.82 25.92 
L 59.612727 25.92 
z
" clip-path="url(#p4544f24e55)"/>
   </g>
   <g id="patch_52">
    <path d="M 79.887273 192.24 
L 83.094545 192.24 
L 83.094545 25.92 
L 79.887273 25.92 
z
" clip-path="url(#p4544f24e55)"/>
   </g>
   <g id="patch_53">
    <path d="M 161.214545 192.24 
L 164.421818 192.24 
L 164.421818 25.92 
L 161.214545 25.92 
z
" clip-path="url(#p4544f24e55)"/>
   </g>
   <g id="patch_54">
    <path d="M 172.44 192.24 
L 175.647273 192.24 
L 175.647273 25.92 
L 172.44 25.92 
z
" clip-path="url(#p4544f24e55)"/>
   </g>
   <g id="patch_55">
    <path d="M 41.972727 158.678182 
L 179.427273 158.678182 
L 179.427273 155.356364 
L 41.972727 155.356364 
z
" clip-path="url(#p4544f24e55)"/>
   </g>
   <g id="patch_56">
    <path d="M 41.972727 131.645455 
L 179.427273 131.645455 
L 179.427273 128.209091 
L 41.972727 128.209091 
z
" clip-path="url(#p4544f24e55)"/>
   </g>
   <g id="patch_57">
    <path d="M 41.972727 106.101818 
L 179.427273 106.101818 
L 179.427273 102.665455 
L 41.972727 102.665455 
z
" clip-path="url(#p4544f24e55)"/>
   </g>
   <g id="patch_58">
    <path d="M 41.972727 79.756364 
L 179.427273 79.756364 
L 179.427273 76.205455 
L 41.972727 76.205455 
z
" clip-path="url(#p4544f24e55)"/>
   </g>
   <g id="patch_59">
    <path d="M 47.7 67.729091 
L 79.887273 67.729091 
L 79.887273 63.72 
L 47.7 63.72 
z
" clip-path="url(#p4544f24e55)"/>
   </g>
   <g id="patch_60">
    <path d="M 47.7 57.076364 
L 59.612727 57.076364 
L 59.612727 52.609091 
L 47.7 52.609091 
z
" clip-path="url(#p4544f24e55)"/>
   </g>
   <g id="patch_61">
    <path d="M 62.82 54.327273 
L 79.887273 54.327273 
L 79.887273 49.058182 
L 62.82 49.058182 
z
" clip-path="url(#p4544f24e55)"/>
   </g>
   <g id="patch_62">
    <path d="M 47.7 42.987273 
L 59.612727 42.987273 
L 59.612727 39.207273 
L 47.7 39.207273 
z
" clip-path="url(#p4544f24e55)"/>
   </g>
   <g id="patch_63">
    <path d="M 83.094545 35.656364 
L 172.44 35.656364 
L 172.44 32.105455 
L 83.094545 32.105455 
z
" clip-path="url(#p4544f24e55)"/>
   </g>
  </g>
  <g id="text_1">
   <!-- » Trafalgar Square « (b294) -->
   <g transform="translate(10.8 205.2) scale(0.12 -0.12)">
    <defs>
     <path id="DejaVuSans-bb" d="M 603 3309 
L 2069 2003 
L 2069 1747 
L 603 441 
L 603 1038 
L 1544 1875 
L 603 2713 
L 603 3309 
z
M 1959 3309 
L 3425 2003 
L 3425 1747 
L 1959 441 
L 1959 1038 
L 2900 1875 
L 1959 2713 
L 1959 3309 
z
" transform="scale(0.015625)"/>
     <path id="DejaVuSans-20" transform="scale(0.015625)"/>
     <path id="DejaVuSans-54" d="M -19 4666 
L 3928 4666 
L 3928 4134 
L 2272 4134 
L 2272 0 
L 1638 0 
L 1638 4134 
L -19 4134 
L -19 4666 
z
" transform="scale(0.015625)"/>
     <path id="DejaVuSans-72" d="M 2631 2963 
Q 2534 3019 2420 3045 
Q 2306 3072 2169 3072 
Q 1681 3072 1420 2755 
Q 1159 2438 1159 1844 
L 1159 0 
L 581 0 
L 581 3500 
L 1159 3500 
L 1159 2956 
Q 1341 3275 1631 3429 
Q 1922 3584 2338 3584 
Q 2397 3584 2469 3576 
Q 2541 3569 2628 3553 
L 2631 2963 
z
" transform="scale(0.015625)"/>
     <path id="DejaVuSans-61" d="M 2194 1759 
Q 1497 1759 1228 1600 
Q 959 1441 959 1056 
Q 959 750 1161 570 
Q 1363 391 1709 391 
Q 2188 391 2477 730 
Q 2766 1069 2766 1631 
L 2766 1759 
L 2194 1759 
z
M 3341 1997 
L 3341 0 
L 2766 0 
L 2766 531 
Q 2569 213 2275 61 
Q 1981 -91 1556 -91 
Q 1019 -91 701 211 
Q 384 513 384 1019 
Q 384 1609 779 1909 
Q 1175 2209 1959 2209 
L 2766 2209 
L 2766 2266 
Q 2766 2663 2505 2880 
Q 2244 3097 1772 3097 
Q 1472 3097 1187 3025 
Q 903 2953 641 2809 
L 641 3341 
Q 956 3463 1253 3523 
Q 1550 3584 1831 3584 
Q 2591 3584 2966 3190 
Q 3341 2797 3341 1997 
z
" transform="scale(0.015625)"/>
     <path id="DejaVuSans-66" d="M 2375 4863 
L 2375 4384 
L 1825 4384 
Q 1516 4384 1395 4259 
Q 1275 4134 1275 3809 
L 1275 3500 
L 2222 3500 
L 2222 3053 
L 1275 3053 
L 1275 0 
L 697 0 
L 697 3053 
L 147 3053 
L 147 3500 
L 697 3500 
L 697 3744 
Q 697 4328 969 4595 
Q 1241 4863 1831 4863 
L 2375 4863 
z
" transform="scale(0.015625)"/>
     <path id="DejaVuSans-6c" d="M 603 4863 
L 1178 4863 
L 1178 0 
L 603 0 
L 603 4863 
z
" transform="scale(0.015625)"/>
     <path id="DejaVuSans-67" d="M 2906 1791 
Q 2906 2416 2648 2759 
Q 2391 3103 1925 3103 
Q 1463 3103 1205 2759 
Q 947 2416 947 1791 
Q 947 1169 1205 825 
Q 1463 481 1925 481 
Q 2391 481 2648 825 
Q 2906 1169 2906 1791 
z
M 3481 434 
Q 3481 -459 3084 -895 
Q 2688 -1331 1869 -1331 
Q 1566 -1331 1297 -1286 
Q 1028 -1241 775 -1147 
L 775 -588 
Q 1028 -725 1275 -790 
Q 1522 -856 1778 -856 
Q 2344 -856 2625 -561 
Q 2906 -266 2906 331 
L 2906 616 
Q 2728 306 2450 153 
Q 2172 0 1784 0 
Q 1141 0 747 490 
Q 353 981 353 1791 
Q 353 2603 747 3093 
Q 1141 3584 1784 3584 
Q 2172 3584 2450 3431 
Q 2728 3278 2906 2969 
L 2906 3500 
L 3481 3500 
L 3481 434 
z
" transform="scale(0.015625)"/>
     <path id="DejaVuSans-53" d="M 3425 4513 
L 3425 3897 
Q 3066 4069 2747 4153 
Q 2428 4238 2131 4238 
Q 1616 4238 1336 4038 
Q 1056 3838 1056 3469 
Q 1056 3159 1242 3001 
Q 1428 2844 1947 2747 
L 2328 2669 
Q 3034 2534 3370 2195 
Q 3706 1856 3706 1288 
Q 3706 609 3251 259 
Q 2797 -91 1919 -91 
Q 1588 -91 1214 -16 
Q 841 59 441 206 
L 441 856 
Q 825 641 1194 531 
Q 1563 422 1919 422 
Q 2459 422 2753 634 
Q 3047 847 3047 1241 
Q 3047 1584 2836 1778 
Q 2625 1972 2144 2069 
L 1759 2144 
Q 1053 2284 737 2584 
Q 422 2884 422 3419 
Q 422 4038 858 4394 
Q 1294 4750 2059 4750 
Q 2388 4750 2728 4690 
Q 3069 4631 3425 4513 
z
" transform="scale(0.015625)"/>
     <path id="DejaVuSans-71" d="M 947 1747 
Q 947 1113 1208 752 
Q 1469 391 1925 391 
Q 2381 391 2643 752 
Q 2906 1113 2906 1747 
Q 2906 2381 2643 2742 
Q 2381 3103 1925 3103 
Q 1469 3103 1208 2742 
Q 947 2381 947 1747 
z
M 2906 525 
Q 2725 213 2448 61 
Q 2172 -91 1784 -91 
Q 1150 -91 751 415 
Q 353 922 353 1747 
Q 353 2572 751 3078 
Q 1150 3584 1784 3584 
Q 2172 3584 2448 3432 
Q 2725 3281 2906 2969 
L 2906 3500 
L 3481 3500 
L 3481 -1331 
L 2906 -1331 
L 2906 525 
z
" transform="scale(0.015625)"/>
     <path id="DejaVuSans-75" d="M 544 1381 
L 544 3500 
L 1119 3500 
L 1119 1403 
Q 1119 906 1312 657 
Q 1506 409 1894 409 
Q 2359 409 2629 706 
Q 2900 1003 2900 1516 
L 2900 3500 
L 3475 3500 
L 3475 0 
L 2900 0 
L 2900 538 
Q 2691 219 2414 64 
Q 2138 -91 1772 -91 
Q 1169 -91 856 284 
Q 544 659 544 1381 
z
M 1991 3584 
L 1991 3584 
z
" transform="scale(0.015625)"/>
     <path id="DejaVuSans-65" d="M 3597 1894 
L 3597 1613 
L 953 1613 
Q 991 1019 1311 708 
Q 1631 397 2203 397 
Q 2534 397 2845 478 
Q 3156 559 3463 722 
L 3463 178 
Q 3153 47 2828 -22 
Q 2503 -91 2169 -91 
Q 1331 -91 842 396 
Q 353 884 353 1716 
Q 353 2575 817 3079 
Q 1281 3584 2069 3584 
Q 2775 3584 3186 3129 
Q 3597 2675 3597 1894 
z
M 3022 2063 
Q 3016 2534 2758 2815 
Q 2500 3097 2075 3097 
Q 1594 3097 1305 2825 
Q 1016 2553 972 2059 
L 3022 2063 
z
" transform="scale(0.015625)"/>
     <path id="DejaVuSans-ab" d="M 3316 3309 
L 3316 2713 
L 2375 1875 
L 3316 1038 
L 3316 441 
L 1850 1747 
L 1850 2003 
L 3316 3309 
z
M 1959 3309 
L 1959 2713 
L 1019 1875 
L 1959 1038 
L 1959 441 
L 494 1747 
L 494 2003 
L 1959 3309 
z
" transform="scale(0.015625)"/>
     <path id="DejaVuSans-28" d="M 1984 4856 
Q 1566 4138 1362 3434 
Q 1159 2731 1159 2009 
Q 1159 1288 1364 580 
Q 1569 -128 1984 -844 
L 1484 -844 
Q 1016 -109 783 600 
Q 550 1309 550 2009 
Q 550 2706 781 3412 
Q 1013 4119 1484 4856 
L 1984 4856 
z
" transform="scale(0.015625)"/>
     <path id="DejaVuSans-62" d="M 3116 1747 
Q 3116 2381 2855 2742 
Q 2594 3103 2138 3103 
Q 1681 3103 1420 2742 
Q 1159 2381 1159 1747 
Q 1159 1113 1420 752 
Q 1681 391 2138 391 
Q 2594 391 2855 752 
Q 3116 1113 3116 1747 
z
M 1159 2969 
Q 1341 3281 1617 3432 
Q 1894 3584 2278 3584 
Q 2916 3584 3314 3078 
Q 3713 2572 3713 1747 
Q 3713 922 3314 415 
Q 2916 -91 2278 -91 
Q 1894 -91 1617 61 
Q 1341 213 1159 525 
L 1159 0 
L 581 0 
L 581 4863 
L 1159 4863 
L 1159 2969 
z
" transform="scale(0.015625)"/>
     <path id="DejaVuSans-32" d="M 1228 531 
L 3431 531 
L 3431 0 
L 469 0 
L 469 531 
Q 828 903 1448 1529 
Q 2069 2156 2228 2338 
Q 2531 2678 2651 2914 
Q 2772 3150 2772 3378 
Q 2772 3750 2511 3984 
Q 2250 4219 1831 4219 
Q 1534 4219 1204 4116 
Q 875 4013 500 3803 
L 500 4441 
Q 881 4594 1212 4672 
Q 1544 4750 1819 4750 
Q 2544 4750 2975 4387 
Q 3406 4025 3406 3419 
Q 3406 3131 3298 2873 
Q 3191 2616 2906 2266 
Q 2828 2175 2409 1742 
Q 1991 1309 1228 531 
z
" transform="scale(0.015625)"/>
     <path id="DejaVuSans-39" d="M 703 97 
L 703 672 
Q 941 559 1184 500 
Q 1428 441 1663 441 
Q 2288 441 2617 861 
Q 2947 1281 2994 2138 
Q 2813 1869 2534 1725 
Q 2256 1581 1919 1581 
Q 1219 1581 811 2004 
Q 403 2428 403 3163 
Q 403 3881 828 4315 
Q 1253 4750 1959 4750 
Q 2769 4750 3195 4129 
Q 3622 3509 3622 2328 
Q 3622 1225 3098 567 
Q 2575 -91 1691 -91 
Q 1453 -91 1209 -44 
Q 966 3 703 97 
z
M 1959 2075 
Q 2384 2075 2632 2365 
Q 2881 2656 2881 3163 
Q 2881 3666 2632 3958 
Q 2384 4250 1959 4250 
Q 1534 4250 1286 3958 
Q 1038 3666 1038 3163 
Q 1038 2656 1286 2365 
Q 1534 2075 1959 2075 
z
" transform="scale(0.015625)"/>
     <path id="DejaVuSans-34" d="M 2419 4116 
L 825 1625 
L 2419 1625 
L 2419 4116 
z
M 2253 4666 
L 3047 4666 
L 3047 1625 
L 3713 1625 
L 3713 1100 
L 3047 1100 
L 3047 0 
L 2419 0 
L 2419 1100 
L 313 1100 
L 313 1709 
L 2253 4666 
z
" transform="scale(0.015625)"/>
     <path id="DejaVuSans-29" d="M 513 4856 
L 1013 4856 
Q 1481 4119 1714 3412 
Q 1947 2706 1947 2009 
Q 1947 1309 1714 600 
Q 1481 -109 1013 -844 
L 513 -844 
Q 928 -128 1133 580 
Q 1338 1288 1338 2009 
Q 1338 2731 1133 3434 
Q 928 4138 513 4856 
z
" transform="scale(0.015625)"/>
    </defs>
    <use xlink:href="#DejaVuSans-bb"/>
    <use xlink:href="#DejaVuSans-20" transform="translate(61.181641 0)"/>
    <use xlink:href="#DejaVuSans-54" transform="translate(92.96875 0)"/>
    <use xlink:href="#DejaVuSans-72" transform="translate(139.302734 0)"/>
    <use xlink:href="#DejaVuSans-61" transform="translate(180.416016 0)"/>
    <use xlink:href="#DejaVuSans-66" transform="translate(241.695312 0)"/>
    <use xlink:href="#DejaVuSans-61" transform="translate(276.900391 0)"/>
    <use xlink:href="#DejaVuSans-6c" transform="translate(338.179688 0)"/>
    <use xlink:href="#DejaVuSans-67" transform="translate(365.962891 0)"/>
    <use xlink:href="#DejaVuSans-61" transform="translate(429.439453 0)"/>
    <use xlink:href="#DejaVuSans-72" transform="translate(490.71875 0)"/>
    <use xlink:href="#DejaVuSans-20" transform="translate(531.832031 0)"/>
    <use xlink:href="#DejaVuSans-53" transform="translate(563.619141 0)"/>
    <use xlink:href="#DejaVuSans-71" transform="translate(627.095703 0)"/>
    <use xlink:href="#DejaVuSans-75" transform="translate(690.572266 0)"/>
    <use xlink:href="#DejaVuSans-61" transform="translate(753.951172 0)"/>
    <use xlink:href="#DejaVuSans-72" transform="translate(815.230469 0)"/>
    <use xlink:href="#DejaVuSans-65" transform="translate(854.09375 0)"/>
    <use xlink:href="#DejaVuSans-20" transform="translate(915.617188 0)"/>
    <use xlink:href="#DejaVuSans-ab" transform="translate(947.404297 0)"/>
    <use xlink:href="#DejaVuSans-20" transform="translate(1008.585938 0)"/>
    <use xlink:href="#DejaVuSans-28" transform="translate(1040.373047 0)"/>
    <use xlink:href="#DejaVuSans-62" transform="translate(1079.386719 0)"/>
    <use xlink:href="#DejaVuSans-32" transform="translate(1142.863281 0)"/>
    <use xlink:href="#DejaVuSans-39" transform="translate(1206.486328 0)"/>
    <use xlink:href="#DejaVuSans-34" transform="translate(1270.109375 0)"/>
    <use xlink:href="#DejaVuSans-29" transform="translate(1333.732422 0)"/>
   </g>
  </g>
 </g>
 <defs>
  <clipPath id="p4544f24e55">
   <rect x="41.972727" y="25.92" width="137.454545" height="166.32"/>
  </clipPath>
 </defs>
</svg>
